%TF.GenerationSoftware,KiCad,Pcbnew,10.0.0*%
%TF.CreationDate,2026-06-26T16:48:33+02:00*%
%TF.ProjectId,Aktive_Bal,416b7469-7665-45f4-9261-6c2e6b696361,rev?*%
%TF.SameCoordinates,Original*%
%TF.FileFunction,Soldermask,Bot*%
%TF.FilePolarity,Negative*%
%FSLAX46Y46*%
G04 Gerber Fmt 4.6, Leading zero omitted, Abs format (unit mm)*
G04 Created by KiCad (PCBNEW 10.0.0) date 2026-06-26 16:48:33*
%MOMM*%
%LPD*%
G01*
G04 APERTURE LIST*
G04 Aperture macros list*
%AMRoundRect*
0 Rectangle with rounded corners*
0 $1 Rounding radius*
0 $2 $3 $4 $5 $6 $7 $8 $9 X,Y pos of 4 corners*
0 Add a 4 corners polygon primitive as box body*
4,1,4,$2,$3,$4,$5,$6,$7,$8,$9,$2,$3,0*
0 Add four circle primitives for the rounded corners*
1,1,$1+$1,$2,$3*
1,1,$1+$1,$4,$5*
1,1,$1+$1,$6,$7*
1,1,$1+$1,$8,$9*
0 Add four rect primitives between the rounded corners*
20,1,$1+$1,$2,$3,$4,$5,0*
20,1,$1+$1,$4,$5,$6,$7,0*
20,1,$1+$1,$6,$7,$8,$9,0*
20,1,$1+$1,$8,$9,$2,$3,0*%
G04 Aperture macros list end*
%ADD10R,1.700000X1.700000*%
%ADD11C,1.700000*%
%ADD12RoundRect,0.250001X-0.949999X0.949999X-0.949999X-0.949999X0.949999X-0.949999X0.949999X0.949999X0*%
%ADD13C,2.400000*%
%ADD14RoundRect,0.250000X1.000000X-1.000000X1.000000X1.000000X-1.000000X1.000000X-1.000000X-1.000000X0*%
%ADD15C,2.500000*%
%ADD16C,2.000000*%
%ADD17RoundRect,0.157500X-0.492500X-0.367500X0.492500X-0.367500X0.492500X0.367500X-0.492500X0.367500X0*%
%ADD18C,3.200000*%
%ADD19RoundRect,0.102000X-0.787500X0.787500X-0.787500X-0.787500X0.787500X-0.787500X0.787500X0.787500X0*%
%ADD20C,1.779000*%
%ADD21C,4.270000*%
%ADD22R,1.800000X1.800000*%
%ADD23C,1.800000*%
G04 APERTURE END LIST*
D10*
%TO.C,J10*%
X177000000Y-23500000D03*
D11*
X177000000Y-20960000D03*
%TD*%
D12*
%TO.C,J18*%
X231048914Y-59265617D03*
D13*
X231048914Y-62765617D03*
X231048914Y-66265617D03*
%TD*%
D11*
%TO.C,J7*%
X144760000Y-20840000D03*
X144760000Y-23380000D03*
X144760000Y-25920000D03*
X144760000Y-28460000D03*
X144760000Y-31000000D03*
X144760000Y-33540000D03*
X144760000Y-36080000D03*
X144760000Y-38620000D03*
X144760000Y-41160000D03*
X144760000Y-43700000D03*
X144760000Y-46240000D03*
X144760000Y-48780000D03*
X144760000Y-51320000D03*
X144760000Y-53860000D03*
X144760000Y-56400000D03*
X144760000Y-58940000D03*
X144760000Y-61480000D03*
X144760000Y-64020000D03*
X144760000Y-66560000D03*
X144760000Y-69100000D03*
X160000000Y-69100000D03*
X160000000Y-66560000D03*
X160000000Y-64020000D03*
X160000000Y-61480000D03*
X160000000Y-58940000D03*
X160000000Y-56400000D03*
X160000000Y-53860000D03*
X160000000Y-51320000D03*
X160000000Y-48780000D03*
X160000000Y-46240000D03*
X160000000Y-43700000D03*
X160000000Y-41160000D03*
X160000000Y-38620000D03*
X160000000Y-36080000D03*
X160000000Y-33540000D03*
X160000000Y-31000000D03*
X160000000Y-28460000D03*
X160000000Y-25920000D03*
X160000000Y-23380000D03*
X160000000Y-20840000D03*
%TD*%
D14*
%TO.C,J1*%
X131867500Y-111104000D03*
D15*
X131867500Y-106104000D03*
%TD*%
D11*
%TO.C,FL1*%
X147320000Y-116724000D03*
X147320000Y-109104000D03*
X139700000Y-109104000D03*
X139700000Y-116724000D03*
%TD*%
D10*
%TO.C,JP9*%
X165800000Y-22000000D03*
D11*
X168340000Y-22000000D03*
X170880000Y-22000000D03*
%TD*%
D16*
%TO.C,U1*%
X141002778Y-103921232D03*
X143542778Y-103921232D03*
X146082778Y-103921232D03*
%TD*%
D10*
%TO.C,J4*%
X140500000Y-56500000D03*
D11*
X140500000Y-53960000D03*
%TD*%
D10*
%TO.C,J11*%
X171250000Y-62500000D03*
D11*
X171250000Y-65040000D03*
%TD*%
D10*
%TO.C,JP6*%
X175951983Y-42382521D03*
D11*
X178491983Y-42382521D03*
%TD*%
D10*
%TO.C,J23*%
X159600000Y-73800000D03*
D11*
X157060000Y-73800000D03*
%TD*%
D10*
%TO.C,J24*%
X171200000Y-76200000D03*
D11*
X171200000Y-73660000D03*
%TD*%
D17*
%TO.C,U5*%
X208800000Y-115500000D03*
X211340000Y-115500000D03*
X216420000Y-115500000D03*
X218960000Y-115500000D03*
X221500000Y-115500000D03*
%TD*%
D10*
%TO.C,J13*%
X223500000Y-110540000D03*
D11*
X223500000Y-108000000D03*
%TD*%
D18*
%TO.C,MH2*%
X124400000Y-116904000D03*
%TD*%
D10*
%TO.C,JP8*%
X182207892Y-45694134D03*
D11*
X182207892Y-43154134D03*
X182207892Y-40614134D03*
%TD*%
D19*
%TO.C,J2*%
X136297500Y-40865000D03*
D20*
X136297500Y-38095000D03*
X136297500Y-35325000D03*
X136297500Y-32555000D03*
X136297500Y-29785000D03*
X133457500Y-39480000D03*
X133457500Y-36710000D03*
X133457500Y-33940000D03*
X133457500Y-31170000D03*
D21*
X134877500Y-22830000D03*
X134877500Y-47820000D03*
%TD*%
D10*
%TO.C,JP2*%
X172750000Y-38750000D03*
D11*
X172750000Y-36210000D03*
%TD*%
D12*
%TO.C,J15*%
X231048914Y-22532743D03*
D13*
X231048914Y-26032743D03*
X231048914Y-29532743D03*
%TD*%
D18*
%TO.C,MH3*%
X239000000Y-116304000D03*
%TD*%
D10*
%TO.C,J3*%
X132800000Y-65400000D03*
D11*
X135340000Y-65400000D03*
%TD*%
D18*
%TO.C,MH1*%
X125000000Y-56304000D03*
%TD*%
%TO.C,MH4*%
X239000000Y-24304000D03*
%TD*%
D11*
%TO.C,U4*%
X154780000Y-117340000D03*
X157320000Y-117340000D03*
X159860000Y-117340000D03*
X175100000Y-117340000D03*
X180180000Y-117340000D03*
X180180000Y-102100000D03*
X175100000Y-102100000D03*
X159860000Y-102100000D03*
X157320000Y-102100000D03*
%TD*%
D10*
%TO.C,J5*%
X173997589Y-47497213D03*
D11*
X176537589Y-47497213D03*
%TD*%
D10*
%TO.C,JP3*%
X169075651Y-38776062D03*
D11*
X169075651Y-36236062D03*
%TD*%
D12*
%TO.C,J19*%
X231048914Y-71509909D03*
D13*
X231048914Y-75009909D03*
X231048914Y-78509909D03*
%TD*%
D10*
%TO.C,JP7*%
X168381000Y-43180000D03*
D11*
X170921000Y-43180000D03*
%TD*%
D10*
%TO.C,J6*%
X140500000Y-63775000D03*
D11*
X140500000Y-61235000D03*
%TD*%
D10*
%TO.C,J21*%
X133185000Y-73914000D03*
D11*
X130645000Y-73914000D03*
%TD*%
D10*
%TO.C,JP1*%
X140786972Y-40203866D03*
D11*
X140786972Y-37663866D03*
%TD*%
D12*
%TO.C,J16*%
X231048914Y-34777034D03*
D13*
X231048914Y-38277034D03*
X231048914Y-41777034D03*
%TD*%
D10*
%TO.C,JP5*%
X169750000Y-69750000D03*
D11*
X167210000Y-69750000D03*
X164670000Y-69750000D03*
%TD*%
D10*
%TO.C,JP4*%
X167200000Y-60860000D03*
D11*
X167200000Y-63400000D03*
X167200000Y-65940000D03*
%TD*%
D22*
%TO.C,U15*%
X168500000Y-84000000D03*
D23*
X166800000Y-87700000D03*
X165100000Y-84000000D03*
X163400000Y-87700000D03*
X161700000Y-84000000D03*
%TD*%
D10*
%TO.C,J9*%
X180790000Y-96750000D03*
D11*
X178250000Y-96750000D03*
%TD*%
D10*
%TO.C,J14*%
X181000000Y-23500000D03*
D11*
X181000000Y-20960000D03*
%TD*%
D10*
%TO.C,J12*%
X228250000Y-115250000D03*
D11*
X228250000Y-117790000D03*
%TD*%
D12*
%TO.C,J17*%
X231048914Y-47021326D03*
D13*
X231048914Y-50521326D03*
X231048914Y-54021326D03*
%TD*%
D10*
%TO.C,J22*%
X150200000Y-74000000D03*
D11*
X152740000Y-74000000D03*
%TD*%
D12*
%TO.C,J20*%
X231048914Y-83754200D03*
D13*
X231048914Y-87254200D03*
X231048914Y-90754200D03*
%TD*%
M02*
