%TF.GenerationSoftware,KiCad,Pcbnew,10.0.0*%
%TF.CreationDate,2026-06-26T16:48:33+02:00*%
%TF.ProjectId,Aktive_Bal,416b7469-7665-45f4-9261-6c2e6b696361,rev?*%
%TF.SameCoordinates,Original*%
%TF.FileFunction,Copper,L1,Top*%
%TF.FilePolarity,Positive*%
%FSLAX46Y46*%
G04 Gerber Fmt 4.6, Leading zero omitted, Abs format (unit mm)*
G04 Created by KiCad (PCBNEW 10.0.0) date 2026-06-26 16:48:33*
%MOMM*%
%LPD*%
G01*
G04 APERTURE LIST*
G04 Aperture macros list*
%AMRoundRect*
0 Rectangle with rounded corners*
0 $1 Rounding radius*
0 $2 $3 $4 $5 $6 $7 $8 $9 X,Y pos of 4 corners*
0 Add a 4 corners polygon primitive as box body*
4,1,4,$2,$3,$4,$5,$6,$7,$8,$9,$2,$3,0*
0 Add four circle primitives for the rounded corners*
1,1,$1+$1,$2,$3*
1,1,$1+$1,$4,$5*
1,1,$1+$1,$6,$7*
1,1,$1+$1,$8,$9*
0 Add four rect primitives between the rounded corners*
20,1,$1+$1,$2,$3,$4,$5,0*
20,1,$1+$1,$4,$5,$6,$7,0*
20,1,$1+$1,$6,$7,$8,$9,0*
20,1,$1+$1,$8,$9,$2,$3,0*%
%AMFreePoly0*
4,1,53,-0.381464,1.733536,-0.380000,1.730000,-0.380000,1.190000,1.165000,1.190000,1.168536,1.188536,1.170000,1.185000,1.170000,0.765000,1.168536,0.761464,1.165000,0.760000,0.700000,0.760000,0.700000,0.540000,1.165000,0.540000,1.168536,0.538536,1.170000,0.535000,1.170000,0.115000,1.168536,0.111464,1.165000,0.110000,0.700000,0.110000,0.700000,-0.110000,1.165000,-0.110000,
1.168536,-0.111464,1.170000,-0.115000,1.170000,-0.535000,1.168536,-0.538536,1.165000,-0.540000,0.700000,-0.540000,0.700000,-0.760000,1.165000,-0.760000,1.168536,-0.761464,1.170000,-0.765000,1.170000,-1.185000,1.168536,-1.188536,1.165000,-1.190000,-0.380000,-1.190000,-0.380000,-1.730000,-0.381464,-1.733536,-0.385000,-1.735000,-0.955000,-1.735000,-0.958536,-1.733536,-0.960000,-1.730000,
-0.960000,-1.190000,-1.135000,-1.190000,-1.138536,-1.188536,-1.140000,-1.185000,-1.140000,1.185000,-1.138536,1.188536,-1.135000,1.190000,-0.960000,1.190000,-0.960000,1.730000,-0.958536,1.733536,-0.955000,1.735000,-0.385000,1.735000,-0.381464,1.733536,-0.381464,1.733536,$1*%
G04 Aperture macros list end*
%TA.AperFunction,SMDPad,CuDef*%
%ADD10RoundRect,0.250000X-0.450000X0.262500X-0.450000X-0.262500X0.450000X-0.262500X0.450000X0.262500X0*%
%TD*%
%TA.AperFunction,SMDPad,CuDef*%
%ADD11RoundRect,0.250000X0.450000X-0.262500X0.450000X0.262500X-0.450000X0.262500X-0.450000X-0.262500X0*%
%TD*%
%TA.AperFunction,SMDPad,CuDef*%
%ADD12RoundRect,0.250000X0.262500X0.450000X-0.262500X0.450000X-0.262500X-0.450000X0.262500X-0.450000X0*%
%TD*%
%TA.AperFunction,SMDPad,CuDef*%
%ADD13RoundRect,0.250000X0.250000X0.475000X-0.250000X0.475000X-0.250000X-0.475000X0.250000X-0.475000X0*%
%TD*%
%TA.AperFunction,SMDPad,CuDef*%
%ADD14R,0.420000X0.660000*%
%TD*%
%TA.AperFunction,SMDPad,CuDef*%
%ADD15FreePoly0,270.000000*%
%TD*%
%TA.AperFunction,SMDPad,CuDef*%
%ADD16RoundRect,0.250000X-0.262500X-0.450000X0.262500X-0.450000X0.262500X0.450000X-0.262500X0.450000X0*%
%TD*%
%TA.AperFunction,SMDPad,CuDef*%
%ADD17RoundRect,0.150000X0.150000X-0.825000X0.150000X0.825000X-0.150000X0.825000X-0.150000X-0.825000X0*%
%TD*%
%TA.AperFunction,ComponentPad*%
%ADD18R,1.700000X1.700000*%
%TD*%
%TA.AperFunction,ComponentPad*%
%ADD19C,1.700000*%
%TD*%
%TA.AperFunction,ComponentPad*%
%ADD20RoundRect,0.250001X-0.949999X0.949999X-0.949999X-0.949999X0.949999X-0.949999X0.949999X0.949999X0*%
%TD*%
%TA.AperFunction,ComponentPad*%
%ADD21C,2.400000*%
%TD*%
%TA.AperFunction,ComponentPad*%
%ADD22RoundRect,0.250000X1.000000X-1.000000X1.000000X1.000000X-1.000000X1.000000X-1.000000X-1.000000X0*%
%TD*%
%TA.AperFunction,ComponentPad*%
%ADD23C,2.500000*%
%TD*%
%TA.AperFunction,SMDPad,CuDef*%
%ADD24RoundRect,0.250000X-0.475000X0.250000X-0.475000X-0.250000X0.475000X-0.250000X0.475000X0.250000X0*%
%TD*%
%TA.AperFunction,ComponentPad*%
%ADD25C,2.000000*%
%TD*%
%TA.AperFunction,SMDPad,CuDef*%
%ADD26RoundRect,0.250000X0.475000X-0.250000X0.475000X0.250000X-0.475000X0.250000X-0.475000X-0.250000X0*%
%TD*%
%TA.AperFunction,SMDPad,CuDef*%
%ADD27RoundRect,0.150000X-0.150000X0.512500X-0.150000X-0.512500X0.150000X-0.512500X0.150000X0.512500X0*%
%TD*%
%TA.AperFunction,SMDPad,CuDef*%
%ADD28RoundRect,0.250000X-0.250000X-0.475000X0.250000X-0.475000X0.250000X0.475000X-0.250000X0.475000X0*%
%TD*%
%TA.AperFunction,SMDPad,CuDef*%
%ADD29RoundRect,0.250000X-0.550000X1.500000X-0.550000X-1.500000X0.550000X-1.500000X0.550000X1.500000X0*%
%TD*%
%TA.AperFunction,ComponentPad*%
%ADD30RoundRect,0.157500X-0.492500X-0.367500X0.492500X-0.367500X0.492500X0.367500X-0.492500X0.367500X0*%
%TD*%
%TA.AperFunction,SMDPad,CuDef*%
%ADD31RoundRect,0.173750X-0.871250X-0.521250X0.871250X-0.521250X0.871250X0.521250X-0.871250X0.521250X0*%
%TD*%
%TA.AperFunction,ComponentPad*%
%ADD32R,1.575000X1.575000*%
%TD*%
%TA.AperFunction,ComponentPad*%
%ADD33C,1.575000*%
%TD*%
%TA.AperFunction,ComponentPad*%
%ADD34C,4.066000*%
%TD*%
%TA.AperFunction,SMDPad,CuDef*%
%ADD35RoundRect,0.375000X0.375000X-0.625000X0.375000X0.625000X-0.375000X0.625000X-0.375000X-0.625000X0*%
%TD*%
%TA.AperFunction,SMDPad,CuDef*%
%ADD36RoundRect,0.500000X1.400000X-0.500000X1.400000X0.500000X-1.400000X0.500000X-1.400000X-0.500000X0*%
%TD*%
%TA.AperFunction,SMDPad,CuDef*%
%ADD37RoundRect,0.250001X1.999999X0.799999X-1.999999X0.799999X-1.999999X-0.799999X1.999999X-0.799999X0*%
%TD*%
%TA.AperFunction,SMDPad,CuDef*%
%ADD38RoundRect,0.150000X-0.587500X-0.150000X0.587500X-0.150000X0.587500X0.150000X-0.587500X0.150000X0*%
%TD*%
%TA.AperFunction,SMDPad,CuDef*%
%ADD39R,1.250000X3.000000*%
%TD*%
%TA.AperFunction,SMDPad,CuDef*%
%ADD40RoundRect,0.150000X-0.150000X0.825000X-0.150000X-0.825000X0.150000X-0.825000X0.150000X0.825000X0*%
%TD*%
%TA.AperFunction,SMDPad,CuDef*%
%ADD41RoundRect,0.250000X-1.050000X-0.550000X1.050000X-0.550000X1.050000X0.550000X-1.050000X0.550000X0*%
%TD*%
%TA.AperFunction,SMDPad,CuDef*%
%ADD42RoundRect,0.100000X0.100000X-0.850000X0.100000X0.850000X-0.100000X0.850000X-0.100000X-0.850000X0*%
%TD*%
%TA.AperFunction,ComponentPad*%
%ADD43R,1.800000X1.800000*%
%TD*%
%TA.AperFunction,ComponentPad*%
%ADD44C,1.800000*%
%TD*%
%TA.AperFunction,SMDPad,CuDef*%
%ADD45R,2.286000X0.558800*%
%TD*%
%TA.AperFunction,SMDPad,CuDef*%
%ADD46R,5.400000X2.900000*%
%TD*%
%TA.AperFunction,SMDPad,CuDef*%
%ADD47RoundRect,0.087500X0.537500X0.087500X-0.537500X0.087500X-0.537500X-0.087500X0.537500X-0.087500X0*%
%TD*%
%TA.AperFunction,SMDPad,CuDef*%
%ADD48RoundRect,0.250000X-1.250000X-0.550000X1.250000X-0.550000X1.250000X0.550000X-1.250000X0.550000X0*%
%TD*%
%TA.AperFunction,SMDPad,CuDef*%
%ADD49R,5.700000X1.600000*%
%TD*%
%TA.AperFunction,SMDPad,CuDef*%
%ADD50RoundRect,0.250000X1.000000X0.650000X-1.000000X0.650000X-1.000000X-0.650000X1.000000X-0.650000X0*%
%TD*%
%TA.AperFunction,SMDPad,CuDef*%
%ADD51RoundRect,0.250000X1.050000X0.550000X-1.050000X0.550000X-1.050000X-0.550000X1.050000X-0.550000X0*%
%TD*%
%TA.AperFunction,ViaPad*%
%ADD52C,0.800000*%
%TD*%
%TA.AperFunction,ViaPad*%
%ADD53C,1.200000*%
%TD*%
%TA.AperFunction,ViaPad*%
%ADD54C,1.000000*%
%TD*%
%TA.AperFunction,Conductor*%
%ADD55C,0.300000*%
%TD*%
%TA.AperFunction,Conductor*%
%ADD56C,1.250000*%
%TD*%
%TA.AperFunction,Conductor*%
%ADD57C,0.508000*%
%TD*%
%TA.AperFunction,Conductor*%
%ADD58C,1.000000*%
%TD*%
%TA.AperFunction,Conductor*%
%ADD59C,0.500000*%
%TD*%
%TA.AperFunction,Conductor*%
%ADD60C,0.600000*%
%TD*%
%TA.AperFunction,Conductor*%
%ADD61C,0.250000*%
%TD*%
%TA.AperFunction,Conductor*%
%ADD62C,0.200000*%
%TD*%
G04 APERTURE END LIST*
D10*
%TO.P,R99,2*%
%TO.N,V_Shunt_Low*%
X133000000Y-83825000D03*
%TO.P,R99,1*%
%TO.N,Net-(U14D--)*%
X133000000Y-82000000D03*
%TD*%
D11*
%TO.P,R201,1*%
%TO.N,GND_float2*%
X130770000Y-80476500D03*
%TO.P,R201,2*%
%TO.N,Net-(U14D-+)*%
X130770000Y-78651500D03*
%TD*%
D12*
%TO.P,R202,1*%
%TO.N,GND_float2*%
X201862500Y-111454000D03*
%TO.P,R202,2*%
%TO.N,V_Shunt_Low*%
X200037500Y-111454000D03*
%TD*%
%TO.P,R200,1*%
%TO.N,Net-(U14D-+)*%
X139072500Y-77354000D03*
%TO.P,R200,2*%
%TO.N,Net-(C27-Pad2)*%
X137247500Y-77354000D03*
%TD*%
D13*
%TO.P,C4,1*%
%TO.N,Net-(U1-D)*%
X137150000Y-102104000D03*
%TO.P,C4,2*%
%TO.N,BAT+*%
X135250000Y-102104000D03*
%TD*%
D14*
%TO.P,Q8_H1,1,S_1*%
%TO.N,Cell8*%
X223950000Y-64289333D03*
%TO.P,Q8_H1,2,S_2*%
X223300000Y-64289333D03*
%TO.P,Q8_H1,3,S_3*%
X222650000Y-64289333D03*
%TO.P,Q8_H1,4,G_4*%
%TO.N,Net-(Q8_H1-G)*%
X222000000Y-64289333D03*
D15*
%TO.P,Q8_H1,5_6_7_8,D_5_6_7_8*%
%TO.N,Bal*%
X222975000Y-66394333D03*
%TD*%
D16*
%TO.P,R18,1*%
%TO.N,B10*%
X198175000Y-55055505D03*
%TO.P,R18,2*%
%TO.N,Net-(R18-Pad2)*%
X200000000Y-55055505D03*
%TD*%
D17*
%TO.P,U14,1*%
%TO.N,Net-(R96-Pad2)*%
X142190000Y-82725000D03*
%TO.P,U14,2,-_2*%
%TO.N,Net-(U14A--)*%
X143460000Y-82725000D03*
%TO.P,U14,3,+_3*%
%TO.N,Net-(U14A-+)*%
X144730000Y-82725000D03*
%TO.P,U14,4,V+_4*%
%TO.N,+5V*%
X146000000Y-82725000D03*
%TO.P,U14,5,+_5*%
%TO.N,GND_float2*%
X147270000Y-82725000D03*
%TO.P,U14,6,-_6*%
%TO.N,Net-(U14B--)*%
X148540000Y-82725000D03*
%TO.P,U14,7*%
%TO.N,Net-(U14C-+)*%
X149810000Y-82725000D03*
%TO.P,U14,8*%
%TO.N,Net-(R102-Pad1)*%
X149810000Y-77775000D03*
%TO.P,U14,9,-_9*%
%TO.N,Net-(U14C--)*%
X148540000Y-77775000D03*
%TO.P,U14,10,+_10*%
%TO.N,Net-(U14C-+)*%
X147270000Y-77775000D03*
%TO.P,U14,11,V-_11*%
%TO.N,-5V*%
X146000000Y-77775000D03*
%TO.P,U14,12,+_12*%
%TO.N,Net-(U14D-+)*%
X144730000Y-77775000D03*
%TO.P,U14,13,-_13*%
%TO.N,Net-(U14D--)*%
X143460000Y-77775000D03*
%TO.P,U14,14*%
%TO.N,I_Bal*%
X142190000Y-77775000D03*
%TD*%
D14*
%TO.P,Q9_L1,1,S_1*%
%TO.N,V_I_Bal*%
X194950000Y-58809111D03*
%TO.P,Q9_L1,2,S_2*%
X194300000Y-58809111D03*
%TO.P,Q9_L1,3,S_3*%
X193650000Y-58809111D03*
%TO.P,Q9_L1,4,G_4*%
%TO.N,Net-(Q9_L1-G)*%
X193000000Y-58809111D03*
D15*
%TO.P,Q9_L1,5_6_7_8,D_5_6_7_8*%
%TO.N,Cell8*%
X193975000Y-60914111D03*
%TD*%
D16*
%TO.P,R31,1*%
%TO.N,Net-(R31-Pad1)*%
X214675000Y-39738278D03*
%TO.P,R31,2*%
%TO.N,Net-(Q13_H1-G)*%
X216500000Y-39738278D03*
%TD*%
D18*
%TO.P,J10,1,Pin_1_1*%
%TO.N,SDA3.3*%
X177000000Y-23500000D03*
D19*
%TO.P,J10,2,Pin_2_2*%
%TO.N,SCL3.3*%
X177000000Y-20960000D03*
%TD*%
D14*
%TO.P,Q9_H1,1,S_1*%
%TO.N,Cell9*%
X223950000Y-58940667D03*
%TO.P,Q9_H1,2,S_2*%
X223300000Y-58940667D03*
%TO.P,Q9_H1,3,S_3*%
X222650000Y-58940667D03*
%TO.P,Q9_H1,4,G_4*%
%TO.N,Net-(Q9_H1-G)*%
X222000000Y-58940667D03*
D15*
%TO.P,Q9_H1,5_6_7_8,D_5_6_7_8*%
%TO.N,Bal*%
X222975000Y-61045667D03*
%TD*%
D20*
%TO.P,J18,1,Pin_1_1*%
%TO.N,Cell7*%
X231048914Y-59265617D03*
D21*
%TO.P,J18,2,Pin_2_2*%
%TO.N,Cell6*%
X231048914Y-62765617D03*
%TO.P,J18,3,Pin_3_3*%
%TO.N,Cell5*%
X231048914Y-66265617D03*
%TD*%
D11*
%TO.P,R103,1*%
%TO.N,GND_float2*%
X158750000Y-84962500D03*
%TO.P,R103,2*%
%TO.N,Net-(Q1-S)*%
X158750000Y-83137500D03*
%TD*%
D16*
%TO.P,R27,1*%
%TO.N,B1*%
X198175000Y-102655596D03*
%TO.P,R27,2*%
%TO.N,Net-(R27-Pad2)*%
X200000000Y-102655596D03*
%TD*%
D12*
%TO.P,R80,1*%
%TO.N,Net-(Q12_L1-G)*%
X187342856Y-45093900D03*
%TO.P,R80,2*%
%TO.N,GND_float2*%
X185517856Y-45093900D03*
%TD*%
D16*
%TO.P,R74,1*%
%TO.N,B2*%
X189004408Y-96048778D03*
%TO.P,R74,2*%
%TO.N,Net-(Q2_L1-G)*%
X190829408Y-96048778D03*
%TD*%
D14*
%TO.P,Q12_L1,1,S_1*%
%TO.N,V_I_Bal*%
X194950000Y-42819492D03*
%TO.P,Q12_L1,2,S_2*%
X194300000Y-42819492D03*
%TO.P,Q12_L1,3,S_3*%
X193650000Y-42819492D03*
%TO.P,Q12_L1,4,G_4*%
%TO.N,Net-(Q12_L1-G)*%
X193000000Y-42819492D03*
D15*
%TO.P,Q12_L1,5_6_7_8,D_5_6_7_8*%
%TO.N,Cell11*%
X193975000Y-44924492D03*
%TD*%
D19*
%TO.P,J7,1,B12_1*%
%TO.N,unconnected-(J7-B12-Pad1)*%
X144760000Y-20840000D03*
%TO.P,J7,2,B13_2*%
%TO.N,unconnected-(J7-B13-Pad2)*%
X144760000Y-23380000D03*
%TO.P,J7,3,B14_3*%
%TO.N,unconnected-(J7-B14-Pad3)*%
X144760000Y-25920000D03*
%TO.P,J7,4,B15_4*%
%TO.N,unconnected-(J7-B15-Pad4)*%
X144760000Y-28460000D03*
%TO.P,J7,5,A8_5*%
%TO.N,unconnected-(J7-A8-Pad5)*%
X144760000Y-31000000D03*
%TO.P,J7,6,A9_6*%
%TO.N,unconnected-(J7-A9-Pad6)*%
X144760000Y-33540000D03*
%TO.P,J7,7,A10_7*%
%TO.N,unconnected-(J7-A10-Pad7)*%
X144760000Y-36080000D03*
%TO.P,J7,8,A11_8*%
%TO.N,RX*%
X144760000Y-38620000D03*
%TO.P,J7,9,A12_9*%
%TO.N,TX*%
X144760000Y-41160000D03*
%TO.P,J7,10,A15_10*%
%TO.N,unconnected-(J7-A15-Pad10)*%
X144760000Y-43700000D03*
%TO.P,J7,11,B3_11*%
%TO.N,unconnected-(J7-B3-Pad11)*%
X144760000Y-46240000D03*
%TO.P,J7,12,B4_12*%
%TO.N,unconnected-(J7-B4-Pad12)*%
X144760000Y-48780000D03*
%TO.P,J7,13,B5_13*%
%TO.N,unconnected-(J7-B5-Pad13)*%
X144760000Y-51320000D03*
%TO.P,J7,14,B6_14*%
%TO.N,SCL\u00B5C*%
X144760000Y-53860000D03*
%TO.P,J7,15,B7_15*%
%TO.N,SDA\u00B5C*%
X144760000Y-56400000D03*
%TO.P,J7,16,B8_16*%
%TO.N,unconnected-(J7-B8-Pad16)*%
X144760000Y-58940000D03*
%TO.P,J7,17,B9_17*%
%TO.N,unconnected-(J7-B9-Pad17)*%
X144760000Y-61480000D03*
%TO.P,J7,18,5V_18*%
%TO.N,unconnected-(J7-5V-Pad18)*%
X144760000Y-64020000D03*
%TO.P,J7,19,G_19*%
%TO.N,GND\u00B5*%
X144760000Y-66560000D03*
%TO.P,J7,20,3.3_20*%
%TO.N,+3.3V\u00B5*%
X144760000Y-69100000D03*
%TO.P,J7,21,VB_21*%
%TO.N,unconnected-(J7-VB-Pad21)*%
X160000000Y-69100000D03*
%TO.P,J7,22,C13_22*%
%TO.N,unconnected-(J7-C13-Pad22)*%
X160000000Y-66560000D03*
%TO.P,J7,23,C14_23*%
%TO.N,unconnected-(J7-C14-Pad23)*%
X160000000Y-64020000D03*
%TO.P,J7,24,C15_24*%
%TO.N,unconnected-(J7-C15-Pad24)*%
X160000000Y-61480000D03*
%TO.P,J7,25,A0_25*%
%TO.N,unconnected-(J7-A0-Pad25)*%
X160000000Y-58940000D03*
%TO.P,J7,26,A1_26*%
%TO.N,unconnected-(J7-A1-Pad26)*%
X160000000Y-56400000D03*
%TO.P,J7,27,A2_27*%
%TO.N,unconnected-(J7-A2-Pad27)*%
X160000000Y-53860000D03*
%TO.P,J7,28,A3_28*%
%TO.N,enable*%
X160000000Y-51320000D03*
%TO.P,J7,29,A4_29*%
%TO.N,unconnected-(J7-A4-Pad29)*%
X160000000Y-48780000D03*
%TO.P,J7,30,A5_30*%
%TO.N,unconnected-(J7-A5-Pad30)*%
X160000000Y-46240000D03*
%TO.P,J7,31,A6_31*%
%TO.N,unconnected-(J7-A6-Pad31)*%
X160000000Y-43700000D03*
%TO.P,J7,32,A7_32*%
%TO.N,unconnected-(J7-A7-Pad32)*%
X160000000Y-41160000D03*
%TO.P,J7,33,B0_33*%
%TO.N,unconnected-(J7-B0-Pad33)*%
X160000000Y-38620000D03*
%TO.P,J7,34,B1_34*%
%TO.N,unconnected-(J7-B1-Pad34)*%
X160000000Y-36080000D03*
%TO.P,J7,35,B10_35*%
%TO.N,unconnected-(J7-B10-Pad35)*%
X160000000Y-33540000D03*
%TO.P,J7,36,B11_36*%
%TO.N,unconnected-(J7-B11-Pad36)*%
X160000000Y-31000000D03*
%TO.P,J7,37,R_37*%
%TO.N,unconnected-(J7-R-Pad37)*%
X160000000Y-28460000D03*
%TO.P,J7,38,3.3_38*%
%TO.N,unconnected-(J7-3.3-Pad38)*%
X160000000Y-25920000D03*
%TO.P,J7,39,G_39*%
%TO.N,unconnected-(J7-G-Pad39)*%
X160000000Y-23380000D03*
%TO.P,J7,40,G_40*%
%TO.N,unconnected-(J7-G-Pad40)*%
X160000000Y-20840000D03*
%TD*%
D12*
%TO.P,R84,1*%
%TO.N,Net-(Q8_L1-G)*%
X187342856Y-66386313D03*
%TO.P,R84,2*%
%TO.N,GND_float2*%
X185517856Y-66386313D03*
%TD*%
D22*
%TO.P,J1,1,Pin_1_1*%
%TO.N,BAT+*%
X131867500Y-111104000D03*
D23*
%TO.P,J1,2,Pin_2_2*%
%TO.N,Bat_GND*%
X131867500Y-106104000D03*
%TD*%
D16*
%TO.P,R24,1*%
%TO.N,B4*%
X198175000Y-86788899D03*
%TO.P,R24,2*%
%TO.N,Net-(R24-Pad2)*%
X200000000Y-86788899D03*
%TD*%
D14*
%TO.P,Q10_L1,1,S_1*%
%TO.N,V_I_Bal*%
X194950000Y-53479238D03*
%TO.P,Q10_L1,2,S_2*%
X194300000Y-53479238D03*
%TO.P,Q10_L1,3,S_3*%
X193650000Y-53479238D03*
%TO.P,Q10_L1,4,G_4*%
%TO.N,Net-(Q10_L1-G)*%
X193000000Y-53479238D03*
D15*
%TO.P,Q10_L1,5_6_7_8,D_5_6_7_8*%
%TO.N,Cell9*%
X193975000Y-55584238D03*
%TD*%
D16*
%TO.P,R71,1*%
%TO.N,B5*%
X189004408Y-80079468D03*
%TO.P,R71,2*%
%TO.N,Net-(Q5_L1-G)*%
X190829408Y-80079468D03*
%TD*%
D12*
%TO.P,R86,1*%
%TO.N,Net-(Q6_L1-G)*%
X187342856Y-77032519D03*
%TO.P,R86,2*%
%TO.N,GND_float2*%
X185517856Y-77032519D03*
%TD*%
D13*
%TO.P,C9,1*%
%TO.N,+12V*%
X169850000Y-97004000D03*
%TO.P,C9,2*%
%TO.N,Net-(C6-Pad2)*%
X167950000Y-97004000D03*
%TD*%
D19*
%TO.P,FL1,1,1_1*%
%TO.N,Net-(U1-D)*%
X147320000Y-116724000D03*
%TO.P,FL1,2,2_2*%
%TO.N,BAT+*%
X147320000Y-109104000D03*
%TO.P,FL1,3,3_3*%
%TO.N,Net-(C6-Pad2)*%
X139700000Y-109104000D03*
%TO.P,FL1,4,4_4*%
%TO.N,Net-(C6-Pad1)*%
X139700000Y-116724000D03*
%TD*%
D16*
%TO.P,R33,1*%
%TO.N,Net-(R33-Pad1)*%
X214675000Y-50384484D03*
%TO.P,R33,2*%
%TO.N,Net-(Q11_H1-G)*%
X216500000Y-50384484D03*
%TD*%
D24*
%TO.P,C12,1*%
%TO.N,+12V*%
X201000000Y-115550000D03*
%TO.P,C12,2*%
%TO.N,GND_float2*%
X201000000Y-117450000D03*
%TD*%
D16*
%TO.P,R45,1*%
%TO.N,Net-(Q14_H1-G)*%
X217874163Y-32122761D03*
%TO.P,R45,2*%
%TO.N,GND_float2*%
X219699163Y-32122761D03*
%TD*%
%TO.P,R52,1*%
%TO.N,Net-(Q15_H1-G)*%
X217874163Y-26799658D03*
%TO.P,R52,2*%
%TO.N,GND_float2*%
X219699163Y-26799658D03*
%TD*%
D18*
%TO.P,JP9,1,A_1*%
%TO.N,Net-(JP9-A)*%
X165800000Y-22000000D03*
D19*
%TO.P,JP9,2,C_2*%
%TO.N,Net-(JP8-B)*%
X168340000Y-22000000D03*
%TO.P,JP9,3,B_3*%
%TO.N,+3.3V*%
X170880000Y-22000000D03*
%TD*%
D11*
%TO.P,R101,1*%
%TO.N,Net-(C27-Pad2)*%
X139540000Y-75246500D03*
%TO.P,R101,2*%
%TO.N,V_I_Bal*%
X139540000Y-73421500D03*
%TD*%
D25*
%TO.P,U1,1,G_1*%
%TO.N,enable*%
X141002778Y-103921232D03*
%TO.P,U1,2,D_2*%
%TO.N,Net-(U1-D)*%
X143542778Y-103921232D03*
%TO.P,U1,3,S_3*%
%TO.N,Bat_GND*%
X146082778Y-103921232D03*
%TD*%
D16*
%TO.P,R102,1*%
%TO.N,Net-(R102-Pad1)*%
X154587500Y-79050000D03*
%TO.P,R102,2*%
%TO.N,Net-(Q1-G)*%
X156412500Y-79050000D03*
%TD*%
D26*
%TO.P,C20,1*%
%TO.N,+3.3V*%
X229500000Y-101400000D03*
%TO.P,C20,2*%
%TO.N,GND_float2*%
X229500000Y-99500000D03*
%TD*%
D14*
%TO.P,Q1_H1,1,S_1*%
%TO.N,Cell1*%
X223950000Y-101730000D03*
%TO.P,Q1_H1,2,S_2*%
X223300000Y-101730000D03*
%TO.P,Q1_H1,3,S_3*%
X222650000Y-101730000D03*
%TO.P,Q1_H1,4,G_4*%
%TO.N,Net-(Q1_H1-G)*%
X222000000Y-101730000D03*
D15*
%TO.P,Q1_H1,5_6_7_8,D_5_6_7_8*%
%TO.N,Bal*%
X222975000Y-103835000D03*
%TD*%
D14*
%TO.P,Q6_H1,1,S_1*%
%TO.N,Cell6*%
X223950000Y-74986667D03*
%TO.P,Q6_H1,2,S_2*%
X223300000Y-74986667D03*
%TO.P,Q6_H1,3,S_3*%
X222650000Y-74986667D03*
%TO.P,Q6_H1,4,G_4*%
%TO.N,Net-(Q6_H1-G)*%
X222000000Y-74986667D03*
D15*
%TO.P,Q6_H1,5_6_7_8,D_5_6_7_8*%
%TO.N,Bal*%
X222975000Y-77091667D03*
%TD*%
D16*
%TO.P,R42,1*%
%TO.N,Net-(R42-Pad1)*%
X214552951Y-98292413D03*
%TO.P,R42,2*%
%TO.N,Net-(Q2_H1-G)*%
X216377951Y-98292413D03*
%TD*%
D26*
%TO.P,C7,1*%
%TO.N,+3.3V\u00B5*%
X140500000Y-69900000D03*
%TO.P,C7,2*%
%TO.N,GND\u00B5*%
X140500000Y-68000000D03*
%TD*%
D16*
%TO.P,R37,1*%
%TO.N,Net-(R37-Pad1)*%
X214675000Y-71676897D03*
%TO.P,R37,2*%
%TO.N,Net-(Q7_H1-G)*%
X216500000Y-71676897D03*
%TD*%
%TO.P,R7,1*%
%TO.N,SCL5*%
X176000000Y-52400000D03*
%TO.P,R7,2*%
%TO.N,+5V*%
X177825000Y-52400000D03*
%TD*%
D26*
%TO.P,C2,1*%
%TO.N,+3.3V\u00B5*%
X163200000Y-58150000D03*
%TO.P,C2,2*%
%TO.N,GND\u00B5*%
X163200000Y-56250000D03*
%TD*%
D16*
%TO.P,R43,1*%
%TO.N,Net-(R43-Pad1)*%
X214552951Y-103300000D03*
%TO.P,R43,2*%
%TO.N,Net-(Q1_H1-G)*%
X216377951Y-103300000D03*
%TD*%
D14*
%TO.P,Q13_H1,1,S_1*%
%TO.N,Cell13*%
X223950000Y-37546000D03*
%TO.P,Q13_H1,2,S_2*%
X223300000Y-37546000D03*
%TO.P,Q13_H1,3,S_3*%
X222650000Y-37546000D03*
%TO.P,Q13_H1,4,G_4*%
%TO.N,Net-(Q13_H1-G)*%
X222000000Y-37546000D03*
D15*
%TO.P,Q13_H1,5_6_7_8,D_5_6_7_8*%
%TO.N,Bal*%
X222975000Y-39651000D03*
%TD*%
D27*
%TO.P,U9,1,VOUT_1*%
%TO.N,I_Bal_Soll*%
X179000000Y-36225000D03*
%TO.P,U9,2,VSS_2*%
%TO.N,GND_float2*%
X178050000Y-36225000D03*
%TO.P,U9,3,VDD_3*%
%TO.N,Net-(JP8-B)*%
X177100000Y-36225000D03*
%TO.P,U9,4,SDA_4*%
%TO.N,SDA3.3*%
X177100000Y-38500000D03*
%TO.P,U9,5,SCL_5*%
%TO.N,SCL3.3*%
X178050000Y-38500000D03*
%TO.P,U9,6,A0_6*%
%TO.N,Net-(JP8-C)*%
X179000000Y-38500000D03*
%TD*%
D24*
%TO.P,C25,1*%
%TO.N,GND_float2*%
X146000000Y-73350000D03*
%TO.P,C25,2*%
%TO.N,-5V*%
X146000000Y-75250000D03*
%TD*%
D16*
%TO.P,R21,1*%
%TO.N,B7*%
X198175000Y-70922202D03*
%TO.P,R21,2*%
%TO.N,Net-(R21-Pad2)*%
X200000000Y-70922202D03*
%TD*%
D11*
%TO.P,R10,1*%
%TO.N,SDA3.3*%
X168750000Y-27612500D03*
%TO.P,R10,2*%
%TO.N,+3.3V*%
X168750000Y-25787500D03*
%TD*%
D16*
%TO.P,R58,1*%
%TO.N,Net-(Q3_H1-G)*%
X217874163Y-90676897D03*
%TO.P,R58,2*%
%TO.N,GND_float2*%
X219699163Y-90676897D03*
%TD*%
D28*
%TO.P,C30,1*%
%TO.N,Net-(J23-Pin_1)*%
X164100000Y-79000000D03*
%TO.P,C30,2*%
%TO.N,Bal*%
X166000000Y-79000000D03*
%TD*%
D24*
%TO.P,C8,1*%
%TO.N,Net-(C6-Pad1)*%
X151600000Y-112750000D03*
%TO.P,C8,2*%
%TO.N,GND_float2*%
X151600000Y-114650000D03*
%TD*%
D16*
%TO.P,R44,1*%
%TO.N,Net-(Q16_H1-G)*%
X217874163Y-21476555D03*
%TO.P,R44,2*%
%TO.N,GND_float2*%
X219699163Y-21476555D03*
%TD*%
D14*
%TO.P,Q7_L1,1,S_1*%
%TO.N,V_I_Bal*%
X194950000Y-69468858D03*
%TO.P,Q7_L1,2,S_2*%
X194300000Y-69468858D03*
%TO.P,Q7_L1,3,S_3*%
X193650000Y-69468858D03*
%TO.P,Q7_L1,4,G_4*%
%TO.N,Net-(Q7_L1-G)*%
X193000000Y-69468858D03*
D15*
%TO.P,Q7_L1,5_6_7_8,D_5_6_7_8*%
%TO.N,Cell6*%
X193975000Y-71573858D03*
%TD*%
D18*
%TO.P,J4,1,Pin_1_1*%
%TO.N,SDA\u00B5C*%
X140500000Y-56500000D03*
D19*
%TO.P,J4,2,Pin_2_2*%
%TO.N,SCL\u00B5C*%
X140500000Y-53960000D03*
%TD*%
D28*
%TO.P,C16,1*%
%TO.N,+5V*%
X231950000Y-118100000D03*
%TO.P,C16,2*%
%TO.N,GND_float2*%
X233850000Y-118100000D03*
%TD*%
D10*
%TO.P,R2,1*%
%TO.N,SDA\u00B5C*%
X148500000Y-57500000D03*
%TO.P,R2,2*%
%TO.N,+3.3V\u00B5*%
X148500000Y-59325000D03*
%TD*%
D14*
%TO.P,Q5_H1,1,S_1*%
%TO.N,Cell5*%
X223950000Y-80335333D03*
%TO.P,Q5_H1,2,S_2*%
X223300000Y-80335333D03*
%TO.P,Q5_H1,3,S_3*%
X222650000Y-80335333D03*
%TO.P,Q5_H1,4,G_4*%
%TO.N,Net-(Q5_H1-G)*%
X222000000Y-80335333D03*
D15*
%TO.P,Q5_H1,5_6_7_8,D_5_6_7_8*%
%TO.N,Bal*%
X222975000Y-82440333D03*
%TD*%
D14*
%TO.P,Q3_H1,1,S_1*%
%TO.N,Cell3*%
X223950000Y-91032667D03*
%TO.P,Q3_H1,2,S_2*%
X223300000Y-91032667D03*
%TO.P,Q3_H1,3,S_3*%
X222650000Y-91032667D03*
%TO.P,Q3_H1,4,G_4*%
%TO.N,Net-(Q3_H1-G)*%
X222000000Y-91032667D03*
D15*
%TO.P,Q3_H1,5_6_7_8,D_5_6_7_8*%
%TO.N,Bal*%
X222975000Y-93137667D03*
%TD*%
D18*
%TO.P,J11,1,Pin_1_1*%
%TO.N,GND_float2*%
X171250000Y-62500000D03*
D19*
%TO.P,J11,2,Pin_2_2*%
%TO.N,B1*%
X171250000Y-65040000D03*
%TD*%
D12*
%TO.P,R104,1*%
%TO.N,Bal*%
X166000000Y-74300000D03*
%TO.P,R104,2*%
%TO.N,Net-(J23-Pin_1)*%
X164175000Y-74300000D03*
%TD*%
D28*
%TO.P,C18,1*%
%TO.N,GND_float2*%
X170350000Y-58750000D03*
%TO.P,C18,2*%
%TO.N,+5V*%
X172250000Y-58750000D03*
%TD*%
D16*
%TO.P,R54,1*%
%TO.N,Net-(Q11_H1-G)*%
X217874163Y-48092071D03*
%TO.P,R54,2*%
%TO.N,GND_float2*%
X219699163Y-48092071D03*
%TD*%
%TO.P,R68,1*%
%TO.N,B8*%
X189004408Y-64110159D03*
%TO.P,R68,2*%
%TO.N,Net-(Q8_L1-G)*%
X190829408Y-64110159D03*
%TD*%
%TO.P,R65,1*%
%TO.N,B11*%
X189004408Y-48140849D03*
%TO.P,R65,2*%
%TO.N,Net-(Q11_L1-G)*%
X190829408Y-48140849D03*
%TD*%
%TO.P,R62,1*%
%TO.N,B14*%
X189004408Y-32171539D03*
%TO.P,R62,2*%
%TO.N,Net-(Q14_L1-G)*%
X190829408Y-32171539D03*
%TD*%
%TO.P,R46,1*%
%TO.N,Net-(Q12_H1-G)*%
X217874163Y-42768968D03*
%TO.P,R46,2*%
%TO.N,GND_float2*%
X219699163Y-42768968D03*
%TD*%
D14*
%TO.P,Q10_H1,1,S_1*%
%TO.N,Cell10*%
X223950000Y-53592000D03*
%TO.P,Q10_H1,2,S_2*%
X223300000Y-53592000D03*
%TO.P,Q10_H1,3,S_3*%
X222650000Y-53592000D03*
%TO.P,Q10_H1,4,G_4*%
%TO.N,Net-(Q10_H1-G)*%
X222000000Y-53592000D03*
D15*
%TO.P,Q10_H1,5_6_7_8,D_5_6_7_8*%
%TO.N,Bal*%
X222975000Y-55697000D03*
%TD*%
D12*
%TO.P,R79,1*%
%TO.N,Net-(Q13_L1-G)*%
X187342856Y-39770797D03*
%TO.P,R79,2*%
%TO.N,GND_float2*%
X185517856Y-39770797D03*
%TD*%
D16*
%TO.P,R35,1*%
%TO.N,Net-(R35-Pad1)*%
X214675000Y-61030690D03*
%TO.P,R35,2*%
%TO.N,Net-(Q9_H1-G)*%
X216500000Y-61030690D03*
%TD*%
%TO.P,R61,1*%
%TO.N,B15*%
X189004408Y-26848436D03*
%TO.P,R61,2*%
%TO.N,Net-(Q15_L1-G)*%
X190829408Y-26848436D03*
%TD*%
D12*
%TO.P,R83,1*%
%TO.N,Net-(Q9_L1-G)*%
X187342856Y-61063209D03*
%TO.P,R83,2*%
%TO.N,GND_float2*%
X185517856Y-61063209D03*
%TD*%
D18*
%TO.P,JP6,1,A_1*%
%TO.N,SDA5*%
X175951983Y-42382521D03*
D19*
%TO.P,JP6,2,B_2*%
%TO.N,SDA3.3*%
X178491983Y-42382521D03*
%TD*%
D16*
%TO.P,R28,1*%
%TO.N,Net-(R28-Pad1)*%
X214675000Y-23768968D03*
%TO.P,R28,2*%
%TO.N,Net-(Q16_H1-G)*%
X216500000Y-23768968D03*
%TD*%
%TO.P,R56,1*%
%TO.N,Net-(Q7_H1-G)*%
X217874163Y-69384484D03*
%TO.P,R56,2*%
%TO.N,GND_float2*%
X219699163Y-69384484D03*
%TD*%
D18*
%TO.P,J23,1,Pin_1_1*%
%TO.N,Net-(J23-Pin_1)*%
X159600000Y-73800000D03*
D19*
%TO.P,J23,2,Pin_2_2*%
%TO.N,GND_float2*%
X157060000Y-73800000D03*
%TD*%
D26*
%TO.P,C1,1*%
%TO.N,GND\u00B5*%
X140800000Y-33900000D03*
%TO.P,C1,2*%
%TO.N,Net-(J2-SHIELD)*%
X140800000Y-32000000D03*
%TD*%
D16*
%TO.P,R57,1*%
%TO.N,Net-(Q5_H1-G)*%
X217874163Y-80030690D03*
%TO.P,R57,2*%
%TO.N,GND_float2*%
X219699163Y-80030690D03*
%TD*%
D14*
%TO.P,Q3_L1,1,S_1*%
%TO.N,V_I_Bal*%
X194950000Y-90788350D03*
%TO.P,Q3_L1,2,S_2*%
X194300000Y-90788350D03*
%TO.P,Q3_L1,3,S_3*%
X193650000Y-90788350D03*
%TO.P,Q3_L1,4,G_4*%
%TO.N,Net-(Q3_L1-G)*%
X193000000Y-90788350D03*
D15*
%TO.P,Q3_L1,5_6_7_8,D_5_6_7_8*%
%TO.N,Cell2*%
X193975000Y-92893350D03*
%TD*%
D29*
%TO.P,C10,1*%
%TO.N,+12V*%
X189000000Y-112050000D03*
%TO.P,C10,2*%
%TO.N,GND_float2*%
X189000000Y-117450000D03*
%TD*%
D18*
%TO.P,J24,1,Pin_1_1*%
%TO.N,Bal*%
X171200000Y-76200000D03*
D19*
%TO.P,J24,2,Pin_2_2*%
%TO.N,GND_float2*%
X171200000Y-73660000D03*
%TD*%
D12*
%TO.P,R94,1*%
%TO.N,I_Bal_Soll*%
X144325000Y-90000000D03*
%TO.P,R94,2*%
%TO.N,Net-(U14A--)*%
X142500000Y-90000000D03*
%TD*%
D16*
%TO.P,R12,1*%
%TO.N,B16*%
X198175000Y-23322111D03*
%TO.P,R12,2*%
%TO.N,Net-(R12-Pad2)*%
X200000000Y-23322111D03*
%TD*%
%TO.P,R26,1*%
%TO.N,B2*%
X198175000Y-97366697D03*
%TO.P,R26,2*%
%TO.N,Net-(R26-Pad2)*%
X200000000Y-97366697D03*
%TD*%
D30*
%TO.P,U5,1,+V_Input_1*%
%TO.N,GND_float2*%
X208800000Y-115500000D03*
%TO.P,U5,2,-V_Input_2*%
%TO.N,+12V*%
X211340000Y-115500000D03*
%TO.P,U5,4,-V_Output_4*%
%TO.N,-5V*%
X216420000Y-115500000D03*
%TO.P,U5,5,Common_5*%
%TO.N,GND_float2*%
X218960000Y-115500000D03*
%TO.P,U5,6,+V_Output_6*%
%TO.N,+5V*%
X221500000Y-115500000D03*
%TD*%
D28*
%TO.P,C26,1*%
%TO.N,Net-(U14B--)*%
X149550000Y-86000000D03*
%TO.P,C26,2*%
%TO.N,Net-(U14C-+)*%
X151450000Y-86000000D03*
%TD*%
D16*
%TO.P,R59,1*%
%TO.N,Net-(Q1_H1-G)*%
X217675000Y-101200000D03*
%TO.P,R59,2*%
%TO.N,GND_float2*%
X219500000Y-101200000D03*
%TD*%
%TO.P,R23,1*%
%TO.N,B5*%
X198175000Y-81500000D03*
%TO.P,R23,2*%
%TO.N,Net-(R23-Pad2)*%
X200000000Y-81500000D03*
%TD*%
D14*
%TO.P,Q14_H1,1,S_1*%
%TO.N,Cell14*%
X223950000Y-32197333D03*
%TO.P,Q14_H1,2,S_2*%
X223300000Y-32197333D03*
%TO.P,Q14_H1,3,S_3*%
X222650000Y-32197333D03*
%TO.P,Q14_H1,4,G_4*%
%TO.N,Net-(Q14_H1-G)*%
X222000000Y-32197333D03*
D15*
%TO.P,Q14_H1,5_6_7_8,D_5_6_7_8*%
%TO.N,Bal*%
X222975000Y-34302333D03*
%TD*%
D16*
%TO.P,R17,1*%
%TO.N,B11*%
X198175000Y-49766606D03*
%TO.P,R17,2*%
%TO.N,Net-(R17-Pad2)*%
X200000000Y-49766606D03*
%TD*%
D18*
%TO.P,J13,1,Pin_1_1*%
%TO.N,GND_float2*%
X223500000Y-110540000D03*
D19*
%TO.P,J13,2,Pin_2_2*%
%TO.N,+3.3V*%
X223500000Y-108000000D03*
%TD*%
D16*
%TO.P,R41,1*%
%TO.N,Net-(R41-Pad1)*%
X214601730Y-92969310D03*
%TO.P,R41,2*%
%TO.N,Net-(Q3_H1-G)*%
X216426730Y-92969310D03*
%TD*%
%TO.P,R40,1*%
%TO.N,Net-(R40-Pad1)*%
X214650509Y-87646206D03*
%TO.P,R40,2*%
%TO.N,Net-(Q4_H1-G)*%
X216475509Y-87646206D03*
%TD*%
D11*
%TO.P,R93,1*%
%TO.N,Net-(U14A-+)*%
X137000000Y-83662500D03*
%TO.P,R93,2*%
%TO.N,I_Bal*%
X137000000Y-81837500D03*
%TD*%
D31*
%TO.P,U13,1*%
%TO.N,Net-(R24-Pad2)*%
X202960000Y-86134000D03*
%TO.P,U13,2*%
%TO.N,GND_float2*%
X202960000Y-88674000D03*
%TO.P,U13,3*%
%TO.N,Net-(R25-Pad2)*%
X202960000Y-91214000D03*
%TO.P,U13,4*%
%TO.N,GND_float2*%
X202960000Y-93754000D03*
%TO.P,U13,5*%
%TO.N,Net-(R26-Pad2)*%
X202960000Y-96294000D03*
%TO.P,U13,6*%
%TO.N,GND_float2*%
X202960000Y-98834000D03*
%TO.P,U13,7*%
%TO.N,Net-(R27-Pad2)*%
X202960000Y-101374000D03*
%TO.P,U13,8*%
%TO.N,GND_float2*%
X202960000Y-103914000D03*
%TO.P,U13,9*%
%TO.N,Net-(R43-Pad1)*%
X212040000Y-103914000D03*
%TO.P,U13,10*%
%TO.N,+12V*%
X212040000Y-101374000D03*
%TO.P,U13,11*%
%TO.N,Net-(R42-Pad1)*%
X212040000Y-98834000D03*
%TO.P,U13,12*%
%TO.N,+12V*%
X212040000Y-96294000D03*
%TO.P,U13,13*%
%TO.N,Net-(R41-Pad1)*%
X212040000Y-93754000D03*
%TO.P,U13,14*%
%TO.N,+12V*%
X212040000Y-91214000D03*
%TO.P,U13,15*%
%TO.N,Net-(R40-Pad1)*%
X212040000Y-88674000D03*
%TO.P,U13,16*%
%TO.N,+12V*%
X212040000Y-86134000D03*
%TD*%
D12*
%TO.P,R89,1*%
%TO.N,Net-(Q3_L1-G)*%
X187342856Y-93001829D03*
%TO.P,R89,2*%
%TO.N,GND_float2*%
X185517856Y-93001829D03*
%TD*%
D16*
%TO.P,R70,1*%
%TO.N,B6*%
X189004408Y-74756365D03*
%TO.P,R70,2*%
%TO.N,Net-(Q6_L1-G)*%
X190829408Y-74756365D03*
%TD*%
D12*
%TO.P,R85,1*%
%TO.N,Net-(Q7_L1-G)*%
X187342856Y-71709416D03*
%TO.P,R85,2*%
%TO.N,GND_float2*%
X185517856Y-71709416D03*
%TD*%
D18*
%TO.P,JP8,1,A_1*%
%TO.N,GND_float2*%
X182207892Y-45694134D03*
D19*
%TO.P,JP8,2,C_2*%
%TO.N,Net-(JP8-C)*%
X182207892Y-43154134D03*
%TO.P,JP8,3,B_3*%
%TO.N,Net-(JP8-B)*%
X182207892Y-40614134D03*
%TD*%
D11*
%TO.P,R5,1*%
%TO.N,CANL*%
X140500000Y-45616500D03*
%TO.P,R5,2*%
%TO.N,Net-(JP1-A)*%
X140500000Y-43791500D03*
%TD*%
D16*
%TO.P,R53,1*%
%TO.N,Net-(Q13_H1-G)*%
X217874163Y-37445865D03*
%TO.P,R53,2*%
%TO.N,GND_float2*%
X219699163Y-37445865D03*
%TD*%
D14*
%TO.P,Q2_H1,1,S_1*%
%TO.N,Cell2*%
X223950000Y-96381333D03*
%TO.P,Q2_H1,2,S_2*%
X223300000Y-96381333D03*
%TO.P,Q2_H1,3,S_3*%
X222650000Y-96381333D03*
%TO.P,Q2_H1,4,G_4*%
%TO.N,Net-(Q2_H1-G)*%
X222000000Y-96381333D03*
D15*
%TO.P,Q2_H1,5_6_7_8,D_5_6_7_8*%
%TO.N,Bal*%
X222975000Y-98486333D03*
%TD*%
D16*
%TO.P,R38,1*%
%TO.N,Net-(R38-Pad1)*%
X214675000Y-77000000D03*
%TO.P,R38,2*%
%TO.N,Net-(Q6_H1-G)*%
X216500000Y-77000000D03*
%TD*%
D32*
%TO.P,J2,1*%
%TO.N,unconnected-(J2-Pad1)*%
X136297500Y-40865000D03*
D33*
%TO.P,J2,2*%
%TO.N,CANL*%
X136297500Y-38095000D03*
%TO.P,J2,3*%
%TO.N,GND\u00B5*%
X136297500Y-35325000D03*
%TO.P,J2,4*%
%TO.N,unconnected-(J2-Pad4)*%
X136297500Y-32555000D03*
%TO.P,J2,5*%
%TO.N,Net-(J2-SHIELD)*%
X136297500Y-29785000D03*
%TO.P,J2,6*%
%TO.N,unconnected-(J2-Pad6)*%
X133457500Y-39480000D03*
%TO.P,J2,7*%
%TO.N,CANH*%
X133457500Y-36710000D03*
%TO.P,J2,8*%
%TO.N,unconnected-(J2-Pad8)*%
X133457500Y-33940000D03*
%TO.P,J2,9*%
%TO.N,unconnected-(J2-Pad9)*%
X133457500Y-31170000D03*
D34*
%TO.P,J2,S1,SHIELD_S1*%
%TO.N,Net-(J2-SHIELD)*%
X134877500Y-22830000D03*
%TO.P,J2,S2,SHIELD__1_S2*%
X134877500Y-47820000D03*
%TD*%
D18*
%TO.P,JP2,1,A_1*%
%TO.N,SDA5*%
X172750000Y-38750000D03*
D19*
%TO.P,JP2,2,B_2*%
%TO.N,Net-(JP2-B)*%
X172750000Y-36210000D03*
%TD*%
D14*
%TO.P,Q4_L1,1,S_1*%
%TO.N,V_I_Bal*%
X194950000Y-85458477D03*
%TO.P,Q4_L1,2,S_2*%
X194300000Y-85458477D03*
%TO.P,Q4_L1,3,S_3*%
X193650000Y-85458477D03*
%TO.P,Q4_L1,4,G_4*%
%TO.N,Net-(Q4_L1-G)*%
X193000000Y-85458477D03*
D15*
%TO.P,Q4_L1,5_6_7_8,D_5_6_7_8*%
%TO.N,Cell3*%
X193975000Y-87563477D03*
%TD*%
D20*
%TO.P,J15,1,Pin_1_1*%
%TO.N,Cell16*%
X231048914Y-22532743D03*
D21*
%TO.P,J15,2,Pin_2_2*%
%TO.N,Cell15*%
X231048914Y-26032743D03*
%TO.P,J15,3,Pin_3_3*%
%TO.N,Cell14*%
X231048914Y-29532743D03*
%TD*%
D11*
%TO.P,R11,1*%
%TO.N,+5V*%
X164750000Y-44662500D03*
%TO.P,R11,2*%
%TO.N,Net-(JP9-A)*%
X164750000Y-42837500D03*
%TD*%
%TO.P,R98,2*%
%TO.N,Net-(U14D--)*%
X133500000Y-78091500D03*
%TO.P,R98,1*%
%TO.N,I_Bal*%
X133500000Y-79916500D03*
%TD*%
D35*
%TO.P,U8,1,GND_1*%
%TO.N,GND_float2*%
X228700000Y-110900000D03*
%TO.P,U8,2,VO_2*%
%TO.N,+3.3V*%
X231000000Y-110900000D03*
D36*
X231000000Y-104600000D03*
D35*
%TO.P,U8,3,VI_3*%
%TO.N,+5V*%
X233300000Y-110900000D03*
%TD*%
D28*
%TO.P,C29,1*%
%TO.N,GND_float2*%
X166600000Y-81400000D03*
%TO.P,C29,2*%
%TO.N,Net-(U15-VIN)*%
X168500000Y-81400000D03*
%TD*%
D10*
%TO.P,R1,1*%
%TO.N,SCL\u00B5C*%
X152000000Y-54675000D03*
%TO.P,R1,2*%
%TO.N,+3.3V\u00B5*%
X152000000Y-56500000D03*
%TD*%
D16*
%TO.P,R30,1*%
%TO.N,Net-(R30-Pad1)*%
X214675000Y-34415174D03*
%TO.P,R30,2*%
%TO.N,Net-(Q14_H1-G)*%
X216500000Y-34415174D03*
%TD*%
%TO.P,R6,1*%
%TO.N,SDA5*%
X175975000Y-50300000D03*
%TO.P,R6,2*%
%TO.N,+5V*%
X177800000Y-50300000D03*
%TD*%
D13*
%TO.P,C23,1*%
%TO.N,GND_float2*%
X182100000Y-29200000D03*
%TO.P,C23,2*%
%TO.N,Net-(JP8-B)*%
X180200000Y-29200000D03*
%TD*%
D12*
%TO.P,R96,1*%
%TO.N,Net-(U14A--)*%
X142525000Y-86500000D03*
%TO.P,R96,2*%
%TO.N,Net-(R96-Pad2)*%
X140700000Y-86500000D03*
%TD*%
D14*
%TO.P,Q15_L1,1,S_1*%
%TO.N,V_I_Bal*%
X194950000Y-26829873D03*
%TO.P,Q15_L1,2,S_2*%
X194300000Y-26829873D03*
%TO.P,Q15_L1,3,S_3*%
X193650000Y-26829873D03*
%TO.P,Q15_L1,4,G_4*%
%TO.N,Net-(Q15_L1-G)*%
X193000000Y-26829873D03*
D15*
%TO.P,Q15_L1,5_6_7_8,D_5_6_7_8*%
%TO.N,Cell14*%
X193975000Y-28934873D03*
%TD*%
D16*
%TO.P,R25,1*%
%TO.N,B3*%
X198175000Y-92077798D03*
%TO.P,R25,2*%
%TO.N,Net-(R25-Pad2)*%
X200000000Y-92077798D03*
%TD*%
%TO.P,R32,1*%
%TO.N,Net-(R32-Pad1)*%
X214675000Y-45061381D03*
%TO.P,R32,2*%
%TO.N,Net-(Q12_H1-G)*%
X216500000Y-45061381D03*
%TD*%
%TO.P,R14,1*%
%TO.N,B14*%
X198175000Y-33899909D03*
%TO.P,R14,2*%
%TO.N,Net-(R14-Pad2)*%
X200000000Y-33899909D03*
%TD*%
%TO.P,R39,1*%
%TO.N,Net-(R39-Pad1)*%
X214675000Y-82323103D03*
%TO.P,R39,2*%
%TO.N,Net-(Q5_H1-G)*%
X216500000Y-82323103D03*
%TD*%
D18*
%TO.P,J3,1,Pin_1_1*%
%TO.N,CANL*%
X132800000Y-65400000D03*
D19*
%TO.P,J3,2,Pin_2_2*%
%TO.N,CANH*%
X135340000Y-65400000D03*
%TD*%
D24*
%TO.P,C11,1*%
%TO.N,GND_float2*%
X165000000Y-28450000D03*
%TO.P,C11,2*%
%TO.N,Net-(U6-EN)*%
X165000000Y-30350000D03*
%TD*%
D14*
%TO.P,Q2_L1,1,S_1*%
%TO.N,V_I_Bal*%
X194950000Y-96118223D03*
%TO.P,Q2_L1,2,S_2*%
X194300000Y-96118223D03*
%TO.P,Q2_L1,3,S_3*%
X193650000Y-96118223D03*
%TO.P,Q2_L1,4,G_4*%
%TO.N,Net-(Q2_L1-G)*%
X193000000Y-96118223D03*
D15*
%TO.P,Q2_L1,5_6_7_8,D_5_6_7_8*%
%TO.N,Cell1*%
X193975000Y-98223223D03*
%TD*%
D14*
%TO.P,Q1_L1,1,S_1*%
%TO.N,V_I_Bal*%
X194950000Y-101448096D03*
%TO.P,Q1_L1,2,S_2*%
X194300000Y-101448096D03*
%TO.P,Q1_L1,3,S_3*%
X193650000Y-101448096D03*
%TO.P,Q1_L1,4,G_4*%
%TO.N,Net-(Q1_L1-G)*%
X193000000Y-101448096D03*
D15*
%TO.P,Q1_L1,5_6_7_8,D_5_6_7_8*%
%TO.N,Cell0*%
X193975000Y-103553096D03*
%TD*%
D11*
%TO.P,R9,1*%
%TO.N,SCL3.3*%
X172290000Y-27612500D03*
%TO.P,R9,2*%
%TO.N,+3.3V*%
X172290000Y-25787500D03*
%TD*%
D12*
%TO.P,R82,1*%
%TO.N,Net-(Q10_L1-G)*%
X187342856Y-55740106D03*
%TO.P,R82,2*%
%TO.N,GND_float2*%
X185517856Y-55740106D03*
%TD*%
D16*
%TO.P,R19,1*%
%TO.N,B9*%
X198175000Y-60344404D03*
%TO.P,R19,2*%
%TO.N,Net-(R19-Pad2)*%
X200000000Y-60344404D03*
%TD*%
D37*
%TO.P,C28,1*%
%TO.N,Net-(U15-VIN)*%
X138200000Y-94800000D03*
%TO.P,C28,2*%
%TO.N,GND_float2*%
X131000000Y-94800000D03*
%TD*%
D12*
%TO.P,R87,1*%
%TO.N,Net-(Q5_L1-G)*%
X187342856Y-82355622D03*
%TO.P,R87,2*%
%TO.N,GND_float2*%
X185517856Y-82355622D03*
%TD*%
D16*
%TO.P,R34,1*%
%TO.N,Net-(R34-Pad1)*%
X214675000Y-55707587D03*
%TO.P,R34,2*%
%TO.N,Net-(Q10_H1-G)*%
X216500000Y-55707587D03*
%TD*%
D38*
%TO.P,Q1,1,G_1*%
%TO.N,Net-(Q1-G)*%
X158812500Y-79100000D03*
%TO.P,Q1,2,S_2*%
%TO.N,Net-(Q1-S)*%
X158812500Y-81000000D03*
%TO.P,Q1,3,D_3*%
%TO.N,Net-(J23-Pin_1)*%
X160687500Y-80050000D03*
%TD*%
D16*
%TO.P,R95,1*%
%TO.N,GND_float2*%
X132837500Y-87250000D03*
%TO.P,R95,2*%
%TO.N,Net-(U14A-+)*%
X134662500Y-87250000D03*
%TD*%
D19*
%TO.P,U4,1,Remote_ON/OFF_1*%
%TO.N,unconnected-(U4-Remote_ON{slash}OFF-Pad1)*%
X154780000Y-117340000D03*
%TO.P,U4,2,-Vin_2*%
%TO.N,Net-(C6-Pad1)*%
X157320000Y-117340000D03*
%TO.P,U4,3,-Vin_3*%
X159860000Y-117340000D03*
%TO.P,U4,9*%
%TO.N,unconnected-(U4-Pad9)*%
X175100000Y-117340000D03*
%TO.P,U4,11*%
%TO.N,unconnected-(U4-Pad11)*%
X180180000Y-117340000D03*
%TO.P,U4,14,+Vout_14*%
%TO.N,+12V*%
X180180000Y-102100000D03*
%TO.P,U4,16,-Vout_16*%
%TO.N,GND_float2*%
X175100000Y-102100000D03*
%TO.P,U4,22,+Vin_22*%
%TO.N,Net-(C6-Pad2)*%
X159860000Y-102100000D03*
%TO.P,U4,23,+Vin_23*%
X157320000Y-102100000D03*
%TD*%
D26*
%TO.P,C19,1*%
%TO.N,+3.3V*%
X233750000Y-101400000D03*
%TO.P,C19,2*%
%TO.N,GND_float2*%
X233750000Y-99500000D03*
%TD*%
D16*
%TO.P,R67,1*%
%TO.N,B9*%
X189004408Y-58787055D03*
%TO.P,R67,2*%
%TO.N,Net-(Q9_L1-G)*%
X190829408Y-58787055D03*
%TD*%
%TO.P,R49,1*%
%TO.N,Net-(Q6_H1-G)*%
X217874163Y-74707587D03*
%TO.P,R49,2*%
%TO.N,GND_float2*%
X219699163Y-74707587D03*
%TD*%
D31*
%TO.P,U11,1*%
%TO.N,Net-(R16-Pad2)*%
X202960000Y-43066343D03*
%TO.P,U11,2*%
%TO.N,GND_float2*%
X202960000Y-45606343D03*
%TO.P,U11,3*%
%TO.N,Net-(R17-Pad2)*%
X202960000Y-48146343D03*
%TO.P,U11,4*%
%TO.N,GND_float2*%
X202960000Y-50686343D03*
%TO.P,U11,5*%
%TO.N,Net-(R18-Pad2)*%
X202960000Y-53226343D03*
%TO.P,U11,6*%
%TO.N,GND_float2*%
X202960000Y-55766343D03*
%TO.P,U11,7*%
%TO.N,Net-(R19-Pad2)*%
X202960000Y-58306343D03*
%TO.P,U11,8*%
%TO.N,GND_float2*%
X202960000Y-60846343D03*
%TO.P,U11,9*%
%TO.N,Net-(R35-Pad1)*%
X212040000Y-60846343D03*
%TO.P,U11,10*%
%TO.N,+12V*%
X212040000Y-58306343D03*
%TO.P,U11,11*%
%TO.N,Net-(R34-Pad1)*%
X212040000Y-55766343D03*
%TO.P,U11,12*%
%TO.N,+12V*%
X212040000Y-53226343D03*
%TO.P,U11,13*%
%TO.N,Net-(R33-Pad1)*%
X212040000Y-50686343D03*
%TO.P,U11,14*%
%TO.N,+12V*%
X212040000Y-48146343D03*
%TO.P,U11,15*%
%TO.N,Net-(R32-Pad1)*%
X212040000Y-45606343D03*
%TO.P,U11,16*%
%TO.N,+12V*%
X212040000Y-43066343D03*
%TD*%
D14*
%TO.P,Q7_H1,1,S_1*%
%TO.N,Cell7*%
X223950000Y-69638000D03*
%TO.P,Q7_H1,2,S_2*%
X223300000Y-69638000D03*
%TO.P,Q7_H1,3,S_3*%
X222650000Y-69638000D03*
%TO.P,Q7_H1,4,G_4*%
%TO.N,Net-(Q7_H1-G)*%
X222000000Y-69638000D03*
D15*
%TO.P,Q7_H1,5_6_7_8,D_5_6_7_8*%
%TO.N,Bal*%
X222975000Y-71743000D03*
%TD*%
D12*
%TO.P,R4,1*%
%TO.N,enable*%
X135432500Y-115624000D03*
%TO.P,R4,2*%
%TO.N,Bat_GND*%
X133607500Y-115624000D03*
%TD*%
D18*
%TO.P,J5,1,Pin_1_1*%
%TO.N,SDA5*%
X173997589Y-47497213D03*
D19*
%TO.P,J5,2,Pin_2_2*%
%TO.N,SCL5*%
X176537589Y-47497213D03*
%TD*%
D16*
%TO.P,R47,1*%
%TO.N,Net-(Q10_H1-G)*%
X217874163Y-53415174D03*
%TO.P,R47,2*%
%TO.N,GND_float2*%
X219699163Y-53415174D03*
%TD*%
D12*
%TO.P,R76,1*%
%TO.N,Net-(Q16_L1-G)*%
X187342856Y-23801487D03*
%TO.P,R76,2*%
%TO.N,GND_float2*%
X185517856Y-23801487D03*
%TD*%
D18*
%TO.P,JP3,1,A_1*%
%TO.N,SCL5*%
X169075651Y-38776062D03*
D19*
%TO.P,JP3,2,B_2*%
%TO.N,Net-(JP3-B)*%
X169075651Y-36236062D03*
%TD*%
D16*
%TO.P,R100,1*%
%TO.N,Net-(U14C--)*%
X153067500Y-83575000D03*
%TO.P,R100,2*%
%TO.N,Net-(Q1-S)*%
X154892500Y-83575000D03*
%TD*%
D13*
%TO.P,C3,1*%
%TO.N,GND\u00B5*%
X135365000Y-53525000D03*
%TO.P,C3,2*%
%TO.N,+3.3V\u00B5*%
X133465000Y-53525000D03*
%TD*%
D28*
%TO.P,C17,1*%
%TO.N,+5V*%
X231950000Y-114600000D03*
%TO.P,C17,2*%
%TO.N,GND_float2*%
X233850000Y-114600000D03*
%TD*%
D16*
%TO.P,R64,1*%
%TO.N,B12*%
X189004408Y-42817746D03*
%TO.P,R64,2*%
%TO.N,Net-(Q12_L1-G)*%
X190829408Y-42817746D03*
%TD*%
D14*
%TO.P,Q11_H1,1,S_1*%
%TO.N,Cell11*%
X223950000Y-48243333D03*
%TO.P,Q11_H1,2,S_2*%
X223300000Y-48243333D03*
%TO.P,Q11_H1,3,S_3*%
X222650000Y-48243333D03*
%TO.P,Q11_H1,4,G_4*%
%TO.N,Net-(Q11_H1-G)*%
X222000000Y-48243333D03*
D15*
%TO.P,Q11_H1,5_6_7_8,D_5_6_7_8*%
%TO.N,Bal*%
X222975000Y-50348333D03*
%TD*%
D12*
%TO.P,R78,1*%
%TO.N,Net-(Q14_L1-G)*%
X187342856Y-34447693D03*
%TO.P,R78,2*%
%TO.N,GND_float2*%
X185517856Y-34447693D03*
%TD*%
D14*
%TO.P,Q11_L1,1,S_1*%
%TO.N,V_I_Bal*%
X194950000Y-48149365D03*
%TO.P,Q11_L1,2,S_2*%
X194300000Y-48149365D03*
%TO.P,Q11_L1,3,S_3*%
X193650000Y-48149365D03*
%TO.P,Q11_L1,4,G_4*%
%TO.N,Net-(Q11_L1-G)*%
X193000000Y-48149365D03*
D15*
%TO.P,Q11_L1,5_6_7_8,D_5_6_7_8*%
%TO.N,Cell10*%
X193975000Y-50254365D03*
%TD*%
D20*
%TO.P,J19,1,Pin_1_1*%
%TO.N,Cell4*%
X231048914Y-71509909D03*
D21*
%TO.P,J19,2,Pin_2_2*%
%TO.N,Cell3*%
X231048914Y-75009909D03*
%TO.P,J19,3,Pin_3_3*%
%TO.N,Cell2*%
X231048914Y-78509909D03*
%TD*%
D13*
%TO.P,C13,1*%
%TO.N,GND_float2*%
X176800000Y-31900000D03*
%TO.P,C13,2*%
%TO.N,+3.3V*%
X174900000Y-31900000D03*
%TD*%
D18*
%TO.P,JP7,1,A_1*%
%TO.N,SCL5*%
X168381000Y-43180000D03*
D19*
%TO.P,JP7,2,B_2*%
%TO.N,SCL3.3*%
X170921000Y-43180000D03*
%TD*%
D14*
%TO.P,Q16_H1,1,S_1*%
%TO.N,Cell16*%
X223950000Y-21500000D03*
%TO.P,Q16_H1,2,S_2*%
X223300000Y-21500000D03*
%TO.P,Q16_H1,3,S_3*%
X222650000Y-21500000D03*
%TO.P,Q16_H1,4,G_4*%
%TO.N,Net-(Q16_H1-G)*%
X222000000Y-21500000D03*
D15*
%TO.P,Q16_H1,5_6_7_8,D_5_6_7_8*%
%TO.N,Bal*%
X222975000Y-23605000D03*
%TD*%
D24*
%TO.P,C21,1*%
%TO.N,GND_float2*%
X164750000Y-38300000D03*
%TO.P,C21,2*%
%TO.N,Net-(JP9-A)*%
X164750000Y-40200000D03*
%TD*%
D16*
%TO.P,R20,1*%
%TO.N,B8*%
X198175000Y-65633303D03*
%TO.P,R20,2*%
%TO.N,Net-(R20-Pad2)*%
X200000000Y-65633303D03*
%TD*%
D18*
%TO.P,J6,1,Pin_1_1*%
%TO.N,+3.3V\u00B5*%
X140500000Y-63775000D03*
D19*
%TO.P,J6,2,Pin_2_2*%
%TO.N,GND\u00B5*%
X140500000Y-61235000D03*
%TD*%
D16*
%TO.P,R36,1*%
%TO.N,Net-(R36-Pad1)*%
X214675000Y-66353794D03*
%TO.P,R36,2*%
%TO.N,Net-(Q8_H1-G)*%
X216500000Y-66353794D03*
%TD*%
D10*
%TO.P,R3,1*%
%TO.N,GND\u00B5*%
X140800000Y-27687500D03*
%TO.P,R3,2*%
%TO.N,Net-(J2-SHIELD)*%
X140800000Y-29512500D03*
%TD*%
D12*
%TO.P,R81,1*%
%TO.N,Net-(Q11_L1-G)*%
X187342856Y-50417003D03*
%TO.P,R81,2*%
%TO.N,GND_float2*%
X185517856Y-50417003D03*
%TD*%
D16*
%TO.P,R73,1*%
%TO.N,B3*%
X189004408Y-90725675D03*
%TO.P,R73,2*%
%TO.N,Net-(Q3_L1-G)*%
X190829408Y-90725675D03*
%TD*%
%TO.P,R69,1*%
%TO.N,B7*%
X189004408Y-69433262D03*
%TO.P,R69,2*%
%TO.N,Net-(Q7_L1-G)*%
X190829408Y-69433262D03*
%TD*%
%TO.P,R72,1*%
%TO.N,B4*%
X189004408Y-85402571D03*
%TO.P,R72,2*%
%TO.N,Net-(Q4_L1-G)*%
X190829408Y-85402571D03*
%TD*%
D39*
%TO.P,R92,1*%
%TO.N,V_I_Bal*%
X194412000Y-108099000D03*
%TO.P,R92,2*%
%TO.N,V_Shunt_Low*%
X199412000Y-108099000D03*
%TD*%
D40*
%TO.P,U3,1,D_1*%
%TO.N,TX*%
X136270000Y-56050000D03*
%TO.P,U3,2,GND_2*%
%TO.N,GND\u00B5*%
X135000000Y-56050000D03*
%TO.P,U3,3,VCC_3*%
%TO.N,+3.3V\u00B5*%
X133730000Y-56050000D03*
%TO.P,U3,4,R_4*%
%TO.N,RX*%
X132460000Y-56050000D03*
%TO.P,U3,5,LBK_5*%
%TO.N,GND\u00B5*%
X132460000Y-61000000D03*
%TO.P,U3,6,CANL_6*%
%TO.N,CANL*%
X133730000Y-61000000D03*
%TO.P,U3,7,CANH_7*%
%TO.N,CANH*%
X135000000Y-61000000D03*
%TO.P,U3,8,Rs_8*%
%TO.N,GND\u00B5*%
X136270000Y-61000000D03*
%TD*%
D16*
%TO.P,R16,1*%
%TO.N,B12*%
X198175000Y-44477707D03*
%TO.P,R16,2*%
%TO.N,Net-(R16-Pad2)*%
X200000000Y-44477707D03*
%TD*%
D18*
%TO.P,J21,1,Pin_1_1*%
%TO.N,GND_float2*%
X133185000Y-73914000D03*
D19*
%TO.P,J21,2,Pin_2_2*%
%TO.N,I_Bal*%
X130645000Y-73914000D03*
%TD*%
D31*
%TO.P,U10,1*%
%TO.N,Net-(R12-Pad2)*%
X202960000Y-21532515D03*
%TO.P,U10,2*%
%TO.N,GND_float2*%
X202960000Y-24072515D03*
%TO.P,U10,3*%
%TO.N,Net-(R13-Pad2)*%
X202960000Y-26612515D03*
%TO.P,U10,4*%
%TO.N,GND_float2*%
X202960000Y-29152515D03*
%TO.P,U10,5*%
%TO.N,Net-(R14-Pad2)*%
X202960000Y-31692515D03*
%TO.P,U10,6*%
%TO.N,GND_float2*%
X202960000Y-34232515D03*
%TO.P,U10,7*%
%TO.N,Net-(R15-Pad2)*%
X202960000Y-36772515D03*
%TO.P,U10,8*%
%TO.N,GND_float2*%
X202960000Y-39312515D03*
%TO.P,U10,9*%
%TO.N,Net-(R31-Pad1)*%
X212040000Y-39312515D03*
%TO.P,U10,10*%
%TO.N,+12V*%
X212040000Y-36772515D03*
%TO.P,U10,11*%
%TO.N,Net-(R30-Pad1)*%
X212040000Y-34232515D03*
%TO.P,U10,12*%
%TO.N,+12V*%
X212040000Y-31692515D03*
%TO.P,U10,13*%
%TO.N,Net-(R29-Pad1)*%
X212040000Y-29152515D03*
%TO.P,U10,14*%
%TO.N,+12V*%
X212040000Y-26612515D03*
%TO.P,U10,15*%
%TO.N,Net-(R28-Pad1)*%
X212040000Y-24072515D03*
%TO.P,U10,16*%
%TO.N,+12V*%
X212040000Y-21532515D03*
%TD*%
D14*
%TO.P,Q13_L1,1,S_1*%
%TO.N,V_I_Bal*%
X194950000Y-37489619D03*
%TO.P,Q13_L1,2,S_2*%
X194300000Y-37489619D03*
%TO.P,Q13_L1,3,S_3*%
X193650000Y-37489619D03*
%TO.P,Q13_L1,4,G_4*%
%TO.N,Net-(Q13_L1-G)*%
X193000000Y-37489619D03*
D15*
%TO.P,Q13_L1,5_6_7_8,D_5_6_7_8*%
%TO.N,Cell12*%
X193975000Y-39594619D03*
%TD*%
D18*
%TO.P,JP1,1,A_1*%
%TO.N,Net-(JP1-A)*%
X140786972Y-40203866D03*
D19*
%TO.P,JP1,2,B_2*%
%TO.N,CANH*%
X140786972Y-37663866D03*
%TD*%
D16*
%TO.P,R22,1*%
%TO.N,B6*%
X198175000Y-76211101D03*
%TO.P,R22,2*%
%TO.N,Net-(R22-Pad2)*%
X200000000Y-76211101D03*
%TD*%
D20*
%TO.P,J16,1,Pin_1_1*%
%TO.N,Cell13*%
X231048914Y-34777034D03*
D21*
%TO.P,J16,2,Pin_2_2*%
%TO.N,Cell12*%
X231048914Y-38277034D03*
%TO.P,J16,3,Pin_3_3*%
%TO.N,Cell11*%
X231048914Y-41777034D03*
%TD*%
D14*
%TO.P,Q16_L1,1,S_1*%
%TO.N,V_I_Bal*%
X194950000Y-21500000D03*
%TO.P,Q16_L1,2,S_2*%
X194300000Y-21500000D03*
%TO.P,Q16_L1,3,S_3*%
X193650000Y-21500000D03*
%TO.P,Q16_L1,4,G_4*%
%TO.N,Net-(Q16_L1-G)*%
X193000000Y-21500000D03*
D15*
%TO.P,Q16_L1,5_6_7_8,D_5_6_7_8*%
%TO.N,Cell15*%
X193975000Y-23605000D03*
%TD*%
D18*
%TO.P,JP5,1,A_1*%
%TO.N,GND_float2*%
X169750000Y-69750000D03*
D19*
%TO.P,JP5,2,C_2*%
%TO.N,Net-(JP5-C)*%
X167210000Y-69750000D03*
%TO.P,JP5,3,B_3*%
%TO.N,+5V*%
X164670000Y-69750000D03*
%TD*%
D12*
%TO.P,R90,1*%
%TO.N,Net-(Q2_L1-G)*%
X187742856Y-98324932D03*
%TO.P,R90,2*%
%TO.N,GND_float2*%
X185917856Y-98324932D03*
%TD*%
D41*
%TO.P,C14,1*%
%TO.N,GND_float2*%
X206500000Y-109750000D03*
%TO.P,C14,2*%
%TO.N,-5V*%
X210100000Y-109750000D03*
%TD*%
D14*
%TO.P,Q6_L1,1,S_1*%
%TO.N,V_I_Bal*%
X194950000Y-74798731D03*
%TO.P,Q6_L1,2,S_2*%
X194300000Y-74798731D03*
%TO.P,Q6_L1,3,S_3*%
X193650000Y-74798731D03*
%TO.P,Q6_L1,4,G_4*%
%TO.N,Net-(Q6_L1-G)*%
X193000000Y-74798731D03*
D15*
%TO.P,Q6_L1,5_6_7_8,D_5_6_7_8*%
%TO.N,Cell5*%
X193975000Y-76903731D03*
%TD*%
D14*
%TO.P,Q12_H1,1,S_1*%
%TO.N,Cell12*%
X223950000Y-42894667D03*
%TO.P,Q12_H1,2,S_2*%
X223300000Y-42894667D03*
%TO.P,Q12_H1,3,S_3*%
X222650000Y-42894667D03*
%TO.P,Q12_H1,4,G_4*%
%TO.N,Net-(Q12_H1-G)*%
X222000000Y-42894667D03*
D15*
%TO.P,Q12_H1,5_6_7_8,D_5_6_7_8*%
%TO.N,Bal*%
X222975000Y-44999667D03*
%TD*%
D12*
%TO.P,R8,1*%
%TO.N,Net-(U6-EN)*%
X164750000Y-35162500D03*
%TO.P,R8,2*%
%TO.N,+5V*%
X162925000Y-35162500D03*
%TD*%
D13*
%TO.P,C22,1*%
%TO.N,GND_float2*%
X182100000Y-32700000D03*
%TO.P,C22,2*%
%TO.N,Net-(JP8-B)*%
X180200000Y-32700000D03*
%TD*%
D16*
%TO.P,R66,1*%
%TO.N,B10*%
X189004408Y-53463952D03*
%TO.P,R66,2*%
%TO.N,Net-(Q10_L1-G)*%
X190829408Y-53463952D03*
%TD*%
%TO.P,R60,1*%
%TO.N,B16*%
X189004408Y-21525333D03*
%TO.P,R60,2*%
%TO.N,Net-(Q16_L1-G)*%
X190829408Y-21525333D03*
%TD*%
D42*
%TO.P,U7,1,\u002AINT_1*%
%TO.N,unconnected-(U7-\u002AINT-Pad1)*%
X174250000Y-66000000D03*
%TO.P,U7,2,A1_2*%
%TO.N,Net-(JP4-C)*%
X174900000Y-66000000D03*
%TO.P,U7,3,A2_3*%
%TO.N,Net-(JP5-C)*%
X175550000Y-66000000D03*
%TO.P,U7,4,P00_4*%
%TO.N,B1*%
X176200000Y-66000000D03*
%TO.P,U7,5,P01_5*%
%TO.N,B2*%
X176850000Y-66000000D03*
%TO.P,U7,6,P02_6*%
%TO.N,B3*%
X177500000Y-66000000D03*
%TO.P,U7,7,P03_7*%
%TO.N,B4*%
X178150000Y-66000000D03*
%TO.P,U7,8,P04_8*%
%TO.N,B5*%
X178800000Y-66000000D03*
%TO.P,U7,9,P05_9*%
%TO.N,B6*%
X179450000Y-66000000D03*
%TO.P,U7,10,P06_10*%
%TO.N,B7*%
X180100000Y-66000000D03*
%TO.P,U7,11,P07_11*%
%TO.N,B8*%
X180750000Y-66000000D03*
%TO.P,U7,12,GND_12*%
%TO.N,GND_float2*%
X181400000Y-66000000D03*
%TO.P,U7,13,P10_13*%
%TO.N,B9*%
X181400000Y-59000000D03*
%TO.P,U7,14,P11_14*%
%TO.N,B10*%
X180750000Y-59000000D03*
%TO.P,U7,15,P12_15*%
%TO.N,B11*%
X180100000Y-59000000D03*
%TO.P,U7,16,P13_16*%
%TO.N,B12*%
X179450000Y-59000000D03*
%TO.P,U7,17,P14_17*%
%TO.N,B13*%
X178800000Y-59000000D03*
%TO.P,U7,18,P15_18*%
%TO.N,B14*%
X178150000Y-59000000D03*
%TO.P,U7,19,P16_19*%
%TO.N,B15*%
X177500000Y-59000000D03*
%TO.P,U7,20,P17_20*%
%TO.N,B16*%
X176850000Y-59000000D03*
%TO.P,U7,21,A0_21*%
%TO.N,GND_float2*%
X176200000Y-59000000D03*
%TO.P,U7,22,SCL_22*%
%TO.N,SCL5*%
X175550000Y-59000000D03*
%TO.P,U7,23,SDA_23*%
%TO.N,SDA5*%
X174900000Y-59000000D03*
%TO.P,U7,24,VCC_24*%
%TO.N,+5V*%
X174250000Y-59000000D03*
%TD*%
D18*
%TO.P,JP4,1,A_1*%
%TO.N,GND_float2*%
X167200000Y-60860000D03*
D19*
%TO.P,JP4,2,C_2*%
%TO.N,Net-(JP4-C)*%
X167200000Y-63400000D03*
%TO.P,JP4,3,B_3*%
%TO.N,+5V*%
X167200000Y-65940000D03*
%TD*%
D16*
%TO.P,R51,1*%
%TO.N,Net-(Q2_H1-G)*%
X217675000Y-96000000D03*
%TO.P,R51,2*%
%TO.N,GND_float2*%
X219500000Y-96000000D03*
%TD*%
D12*
%TO.P,R91,1*%
%TO.N,Net-(Q1_L1-G)*%
X187742856Y-103648035D03*
%TO.P,R91,2*%
%TO.N,GND_float2*%
X185917856Y-103648035D03*
%TD*%
D16*
%TO.P,R55,1*%
%TO.N,Net-(Q9_H1-G)*%
X217874163Y-58738277D03*
%TO.P,R55,2*%
%TO.N,GND_float2*%
X219699163Y-58738277D03*
%TD*%
D12*
%TO.P,R77,1*%
%TO.N,Net-(Q15_L1-G)*%
X187342856Y-29124590D03*
%TO.P,R77,2*%
%TO.N,GND_float2*%
X185517856Y-29124590D03*
%TD*%
D16*
%TO.P,R13,1*%
%TO.N,B15*%
X198175000Y-28611010D03*
%TO.P,R13,2*%
%TO.N,Net-(R13-Pad2)*%
X200000000Y-28611010D03*
%TD*%
%TO.P,R15,1*%
%TO.N,B13*%
X198175000Y-39188808D03*
%TO.P,R15,2*%
%TO.N,Net-(R15-Pad2)*%
X200000000Y-39188808D03*
%TD*%
D26*
%TO.P,C6,1*%
%TO.N,Net-(C6-Pad1)*%
X151400000Y-105700000D03*
%TO.P,C6,2*%
%TO.N,Net-(C6-Pad2)*%
X151400000Y-103800000D03*
%TD*%
D43*
%TO.P,U15,1,VIN_1*%
%TO.N,Net-(U15-VIN)*%
X168500000Y-84000000D03*
D44*
%TO.P,U15,2,OUT_2*%
%TO.N,Net-(D1-K)*%
X166800000Y-87700000D03*
%TO.P,U15,3,GND_3*%
%TO.N,GND_float2*%
X165100000Y-84000000D03*
%TO.P,U15,4,FB_4*%
%TO.N,Net-(J23-Pin_1)*%
X163400000Y-87700000D03*
%TO.P,U15,5,~{ON}/OFF_5*%
%TO.N,GND_float2*%
X161700000Y-84000000D03*
%TD*%
D18*
%TO.P,J9,1,Pin_1_1*%
%TO.N,+12V*%
X180790000Y-96750000D03*
D19*
%TO.P,J9,2,Pin_2_2*%
%TO.N,GND_float2*%
X178250000Y-96750000D03*
%TD*%
D45*
%TO.P,U2,1,VDD1_1*%
%TO.N,+3.3V\u00B5*%
X166885400Y-50895000D03*
%TO.P,U2,2,SDA1_2*%
%TO.N,SDA\u00B5C*%
X166885400Y-52165000D03*
%TO.P,U2,3,SCL1_3*%
%TO.N,SCL\u00B5C*%
X166885400Y-53435000D03*
%TO.P,U2,4,GND1_4*%
%TO.N,GND\u00B5*%
X166885400Y-54705000D03*
%TO.P,U2,5,GND2_5*%
%TO.N,GND_float2*%
X171914600Y-54705000D03*
%TO.P,U2,6,SCL2_6*%
%TO.N,SCL5*%
X171914600Y-53435000D03*
%TO.P,U2,7,SDA2_7*%
%TO.N,SDA5*%
X171914600Y-52165000D03*
%TO.P,U2,8,VDD2_8*%
%TO.N,+5V*%
X171914600Y-50895000D03*
%TD*%
D18*
%TO.P,J14,1,Pin_1_1*%
%TO.N,GND_float2*%
X181000000Y-23500000D03*
D19*
%TO.P,J14,2,Pin_2_2*%
%TO.N,I_Bal_Soll*%
X181000000Y-20960000D03*
%TD*%
D18*
%TO.P,J12,1,Pin_1_1*%
%TO.N,+5V*%
X228250000Y-115250000D03*
D19*
%TO.P,J12,2,Pin_2_2*%
%TO.N,-5V*%
X228250000Y-117790000D03*
%TD*%
D46*
%TO.P,L2,1,1_1*%
%TO.N,Net-(D1-K)*%
X177500000Y-92250000D03*
%TO.P,L2,2,2_2*%
%TO.N,Bal*%
X177500000Y-82550000D03*
%TD*%
D47*
%TO.P,U6,1,GND_1*%
%TO.N,GND_float2*%
X171050000Y-32750000D03*
%TO.P,U6,2,VREF1_2*%
%TO.N,+3.3V*%
X171050000Y-32250000D03*
%TO.P,U6,3,SCL1_3*%
%TO.N,SCL3.3*%
X171050000Y-31750000D03*
%TO.P,U6,4,SDA1_4*%
%TO.N,SDA3.3*%
X171050000Y-31250000D03*
%TO.P,U6,5,SDA2_5*%
%TO.N,Net-(JP2-B)*%
X168250000Y-31250000D03*
%TO.P,U6,6,SCL2_6*%
%TO.N,Net-(JP3-B)*%
X168250000Y-31750000D03*
%TO.P,U6,7,VREF2_7*%
%TO.N,Net-(U6-EN)*%
X168250000Y-32250000D03*
%TO.P,U6,8,EN_8*%
X168250000Y-32750000D03*
%TD*%
D48*
%TO.P,C31,1*%
%TO.N,Bal*%
X175800000Y-77500000D03*
%TO.P,C31,2*%
%TO.N,GND_float2*%
X180200000Y-77500000D03*
%TD*%
D16*
%TO.P,R48,1*%
%TO.N,Net-(Q8_H1-G)*%
X217874163Y-64061381D03*
%TO.P,R48,2*%
%TO.N,GND_float2*%
X219699163Y-64061381D03*
%TD*%
D20*
%TO.P,J17,1,Pin_1_1*%
%TO.N,Cell10*%
X231048914Y-47021326D03*
D21*
%TO.P,J17,2,Pin_2_2*%
%TO.N,Cell9*%
X231048914Y-50521326D03*
%TO.P,J17,3,Pin_3_3*%
%TO.N,Cell8*%
X231048914Y-54021326D03*
%TD*%
D14*
%TO.P,Q15_H1,1,S_1*%
%TO.N,Cell15*%
X223950000Y-26848667D03*
%TO.P,Q15_H1,2,S_2*%
X223300000Y-26848667D03*
%TO.P,Q15_H1,3,S_3*%
X222650000Y-26848667D03*
%TO.P,Q15_H1,4,G_4*%
%TO.N,Net-(Q15_H1-G)*%
X222000000Y-26848667D03*
D15*
%TO.P,Q15_H1,5_6_7_8,D_5_6_7_8*%
%TO.N,Bal*%
X222975000Y-28953667D03*
%TD*%
D49*
%TO.P,L1,1,1_1*%
%TO.N,+12V*%
X147000000Y-98500000D03*
%TO.P,L1,2,2_2*%
%TO.N,Net-(U15-VIN)*%
X147000000Y-93800000D03*
%TD*%
D10*
%TO.P,R97,1*%
%TO.N,Net-(R96-Pad2)*%
X137400000Y-86587500D03*
%TO.P,R97,2*%
%TO.N,Net-(U14B--)*%
X137400000Y-88412500D03*
%TD*%
D18*
%TO.P,J22,1,Pin_1_1*%
%TO.N,GND_float2*%
X150200000Y-74000000D03*
D19*
%TO.P,J22,2,Pin_2_2*%
%TO.N,V_I_Bal*%
X152740000Y-74000000D03*
%TD*%
D16*
%TO.P,R63,1*%
%TO.N,B13*%
X189004408Y-37494643D03*
%TO.P,R63,2*%
%TO.N,Net-(Q13_L1-G)*%
X190829408Y-37494643D03*
%TD*%
D14*
%TO.P,Q4_H1,1,S_1*%
%TO.N,Cell4*%
X223950000Y-85684000D03*
%TO.P,Q4_H1,2,S_2*%
X223300000Y-85684000D03*
%TO.P,Q4_H1,3,S_3*%
X222650000Y-85684000D03*
%TO.P,Q4_H1,4,G_4*%
%TO.N,Net-(Q4_H1-G)*%
X222000000Y-85684000D03*
D15*
%TO.P,Q4_H1,5_6_7_8,D_5_6_7_8*%
%TO.N,Bal*%
X222975000Y-87789000D03*
%TD*%
D50*
%TO.P,D1,1,K_1*%
%TO.N,Net-(D1-K)*%
X157400000Y-92600000D03*
%TO.P,D1,2,A_2*%
%TO.N,GND_float2*%
X153400000Y-92600000D03*
%TD*%
D24*
%TO.P,C27,1*%
%TO.N,GND_float2*%
X136080000Y-73334000D03*
%TO.P,C27,2*%
%TO.N,Net-(C27-Pad2)*%
X136080000Y-75234000D03*
%TD*%
D12*
%TO.P,R88,1*%
%TO.N,Net-(Q4_L1-G)*%
X187342856Y-87678725D03*
%TO.P,R88,2*%
%TO.N,GND_float2*%
X185517856Y-87678725D03*
%TD*%
D16*
%TO.P,R50,1*%
%TO.N,Net-(Q4_H1-G)*%
X217874163Y-85353793D03*
%TO.P,R50,2*%
%TO.N,GND_float2*%
X219699163Y-85353793D03*
%TD*%
D51*
%TO.P,C15,1*%
%TO.N,+5V*%
X217750000Y-109750000D03*
%TO.P,C15,2*%
%TO.N,GND_float2*%
X214150000Y-109750000D03*
%TD*%
D26*
%TO.P,C24,1*%
%TO.N,GND_float2*%
X146000000Y-87450000D03*
%TO.P,C24,2*%
%TO.N,+5V*%
X146000000Y-85550000D03*
%TD*%
D16*
%TO.P,R29,1*%
%TO.N,Net-(R29-Pad1)*%
X214675000Y-29092071D03*
%TO.P,R29,2*%
%TO.N,Net-(Q15_H1-G)*%
X216500000Y-29092071D03*
%TD*%
D13*
%TO.P,C5,1*%
%TO.N,+5V*%
X177900000Y-54800000D03*
%TO.P,C5,2*%
%TO.N,GND_float2*%
X176000000Y-54800000D03*
%TD*%
D16*
%TO.P,R75,1*%
%TO.N,B1*%
X189004408Y-101371881D03*
%TO.P,R75,2*%
%TO.N,Net-(Q1_L1-G)*%
X190829408Y-101371881D03*
%TD*%
D14*
%TO.P,Q8_L1,1,S_1*%
%TO.N,V_I_Bal*%
X194950000Y-64138985D03*
%TO.P,Q8_L1,2,S_2*%
X194300000Y-64138985D03*
%TO.P,Q8_L1,3,S_3*%
X193650000Y-64138985D03*
%TO.P,Q8_L1,4,G_4*%
%TO.N,Net-(Q8_L1-G)*%
X193000000Y-64138985D03*
D15*
%TO.P,Q8_L1,5_6_7_8,D_5_6_7_8*%
%TO.N,Cell7*%
X193975000Y-66243985D03*
%TD*%
D14*
%TO.P,Q14_L1,1,S_1*%
%TO.N,V_I_Bal*%
X194950000Y-32159746D03*
%TO.P,Q14_L1,2,S_2*%
X194300000Y-32159746D03*
%TO.P,Q14_L1,3,S_3*%
X193650000Y-32159746D03*
%TO.P,Q14_L1,4,G_4*%
%TO.N,Net-(Q14_L1-G)*%
X193000000Y-32159746D03*
D15*
%TO.P,Q14_L1,5_6_7_8,D_5_6_7_8*%
%TO.N,Cell13*%
X193975000Y-34264746D03*
%TD*%
D14*
%TO.P,Q5_L1,1,S_1*%
%TO.N,V_I_Bal*%
X194950000Y-80128604D03*
%TO.P,Q5_L1,2,S_2*%
X194300000Y-80128604D03*
%TO.P,Q5_L1,3,S_3*%
X193650000Y-80128604D03*
%TO.P,Q5_L1,4,G_4*%
%TO.N,Net-(Q5_L1-G)*%
X193000000Y-80128604D03*
D15*
%TO.P,Q5_L1,5_6_7_8,D_5_6_7_8*%
%TO.N,Cell4*%
X193975000Y-82233604D03*
%TD*%
D31*
%TO.P,U12,1*%
%TO.N,Net-(R20-Pad2)*%
X202960000Y-64600172D03*
%TO.P,U12,2*%
%TO.N,GND_float2*%
X202960000Y-67140172D03*
%TO.P,U12,3*%
%TO.N,Net-(R21-Pad2)*%
X202960000Y-69680172D03*
%TO.P,U12,4*%
%TO.N,GND_float2*%
X202960000Y-72220172D03*
%TO.P,U12,5*%
%TO.N,Net-(R22-Pad2)*%
X202960000Y-74760172D03*
%TO.P,U12,6*%
%TO.N,GND_float2*%
X202960000Y-77300172D03*
%TO.P,U12,7*%
%TO.N,Net-(R23-Pad2)*%
X202960000Y-79840172D03*
%TO.P,U12,8*%
%TO.N,GND_float2*%
X202960000Y-82380172D03*
%TO.P,U12,9*%
%TO.N,Net-(R39-Pad1)*%
X212040000Y-82380172D03*
%TO.P,U12,10*%
%TO.N,+12V*%
X212040000Y-79840172D03*
%TO.P,U12,11*%
%TO.N,Net-(R38-Pad1)*%
X212040000Y-77300172D03*
%TO.P,U12,12*%
%TO.N,+12V*%
X212040000Y-74760172D03*
%TO.P,U12,13*%
%TO.N,Net-(R37-Pad1)*%
X212040000Y-72220172D03*
%TO.P,U12,14*%
%TO.N,+12V*%
X212040000Y-69680172D03*
%TO.P,U12,15*%
%TO.N,Net-(R36-Pad1)*%
X212040000Y-67140172D03*
%TO.P,U12,16*%
%TO.N,+12V*%
X212040000Y-64600172D03*
%TD*%
D20*
%TO.P,J20,1,Pin_1_1*%
%TO.N,Cell1*%
X231048914Y-83754200D03*
D21*
%TO.P,J20,2,Pin_2_2*%
%TO.N,Cell0*%
X231048914Y-87254200D03*
%TO.P,J20,3,Pin_3_3*%
%TO.N,unconnected-(J20-Pin_3-Pad3)*%
X231048914Y-90754200D03*
%TD*%
D52*
%TO.N,I_Bal*%
X136850000Y-80384000D03*
%TO.N,V_Shunt_Low*%
X130900000Y-84934000D03*
%TO.N,GND_float2*%
X130470000Y-81994000D03*
X132820000Y-85664000D03*
D53*
%TO.N,V_Shunt_Low*%
X194040000Y-112104000D03*
%TO.N,Cell8*%
X191100000Y-60900000D03*
%TO.N,Bal*%
X223000000Y-78400000D03*
X223000000Y-105300000D03*
X223000000Y-36000000D03*
X222900000Y-25300000D03*
X223000000Y-46300000D03*
X223000000Y-83600000D03*
X223000000Y-88900000D03*
X223000000Y-94300000D03*
X223000000Y-57000000D03*
X223000000Y-41000000D03*
X223000000Y-67800000D03*
X223000000Y-99700000D03*
X223000000Y-30600000D03*
X223000000Y-51900000D03*
X178663173Y-85836827D03*
X223000000Y-73000000D03*
X223000000Y-62400000D03*
D52*
%TO.N,B10*%
X187300000Y-53800000D03*
X182600000Y-63900000D03*
X198030761Y-57000000D03*
%TO.N,Net-(U14A-+)*%
X138700000Y-83900000D03*
X144500000Y-84700000D03*
D53*
%TO.N,+5V*%
X143900000Y-88100000D03*
X169600000Y-114075000D03*
X169600000Y-103100000D03*
%TO.N,GND_float2*%
X164500000Y-26400000D03*
X235213380Y-114600000D03*
X205216000Y-36068000D03*
X201000000Y-119100000D03*
X205168785Y-93735746D03*
X219700000Y-92500000D03*
X219500000Y-98425000D03*
X204755339Y-87423339D03*
X220400000Y-62500000D03*
X167108422Y-38269831D03*
X220300000Y-41200000D03*
X220700000Y-36000000D03*
X173100000Y-33200000D03*
X220600000Y-51900000D03*
X205216000Y-76200000D03*
X181550000Y-35275000D03*
X220300000Y-46300000D03*
X212200000Y-107800000D03*
X205216000Y-46300000D03*
X205724000Y-25400000D03*
X220300000Y-25225000D03*
X205199166Y-103911177D03*
X147800000Y-86300000D03*
X220600000Y-57300000D03*
X203100000Y-109700000D03*
X184200000Y-20700000D03*
X174600000Y-54700000D03*
X159900000Y-86500000D03*
X169500000Y-60300000D03*
X205189190Y-98826183D03*
X178000000Y-34600000D03*
X235213380Y-118100000D03*
X150000000Y-90700000D03*
X151600000Y-116300000D03*
D54*
X183059226Y-65994558D03*
D53*
X226400000Y-110900000D03*
X233700000Y-97700000D03*
X229500000Y-97700000D03*
X205216000Y-68072000D03*
X186400000Y-106600000D03*
X205216000Y-84328000D03*
X183100000Y-77400000D03*
X191500000Y-119125000D03*
X219700000Y-76475000D03*
X220400000Y-30525000D03*
X220400000Y-67800000D03*
X221275000Y-20109859D03*
X219900000Y-83600000D03*
X205216000Y-56388000D03*
X128700000Y-91600000D03*
X147800000Y-74104000D03*
%TO.N,-5V*%
X143402000Y-72902000D03*
D52*
%TO.N,V_I_Bal*%
X143169889Y-74646375D03*
X191100000Y-108100000D03*
%TO.N,SCL3.3*%
X178002826Y-40171700D03*
X182113972Y-27386028D03*
X177600000Y-27500000D03*
D53*
%TO.N,Cell9*%
X190900000Y-55400000D03*
%TO.N,Cell7*%
X190700000Y-66100000D03*
%TO.N,Cell6*%
X190700000Y-71500000D03*
%TO.N,Cell5*%
X190800000Y-76900000D03*
D52*
%TO.N,B1*%
X187200000Y-101400000D03*
X198100000Y-104500000D03*
X175600000Y-68175000D03*
%TO.N,B2*%
X176361787Y-68968528D03*
X198100000Y-99400000D03*
X187200000Y-96000000D03*
D53*
%TO.N,Cell11*%
X190900000Y-45000000D03*
D52*
%TO.N,RX*%
X131400000Y-54000000D03*
%TO.N,SCL\u00B5C*%
X164400000Y-53600000D03*
%TO.N,SDA\u00B5C*%
X164235000Y-52165000D03*
D53*
%TO.N,GND\u00B5*%
X142000000Y-66704000D03*
X130600000Y-61000000D03*
X140800000Y-35400000D03*
D54*
X140800000Y-25800000D03*
D53*
X136329800Y-51929802D03*
X164331274Y-55135274D03*
D54*
%TO.N,enable*%
X136720000Y-113324000D03*
D53*
%TO.N,Bat_GND*%
X131820000Y-116824000D03*
D52*
%TO.N,B4*%
X178200000Y-70600000D03*
X187300000Y-85800000D03*
X198200000Y-88700000D03*
%TO.N,B5*%
X179300000Y-70100000D03*
X186942856Y-80100000D03*
X198100000Y-83300000D03*
D53*
%TO.N,+12V*%
X209280000Y-103124000D03*
X151500000Y-98700000D03*
D54*
%TO.N,Net-(JP9-A)*%
X164800000Y-41500000D03*
%TO.N,Net-(JP8-B)*%
X175500000Y-37300000D03*
D53*
%TO.N,+3.3V*%
X176700000Y-28800000D03*
X172300000Y-24400000D03*
%TO.N,Cell1*%
X190938173Y-98111827D03*
D52*
%TO.N,SCL5*%
X174600000Y-53275000D03*
X175100000Y-57025000D03*
D53*
%TO.N,Cell13*%
X191100000Y-34100000D03*
D52*
%TO.N,I_Bal_Soll*%
X147900000Y-88600000D03*
X179400003Y-34600000D03*
%TO.N,B7*%
X181300000Y-68800000D03*
X197900000Y-73200000D03*
X187000000Y-70100000D03*
%TO.N,Net-(J23-Pin_1)*%
X162700000Y-80000000D03*
D53*
%TO.N,Cell3*%
X190700000Y-87500000D03*
D52*
%TO.N,B8*%
X182600000Y-68200000D03*
X197700000Y-67700000D03*
X187200000Y-64500000D03*
%TO.N,B11*%
X187200000Y-48200000D03*
X198100000Y-52000000D03*
X180500000Y-63400000D03*
%TO.N,B14*%
X198030761Y-36000000D03*
X181300000Y-56800000D03*
X187100000Y-32500000D03*
D53*
%TO.N,Cell10*%
X190900000Y-50300000D03*
D52*
%TO.N,B15*%
X198100000Y-30500000D03*
X187100000Y-27000000D03*
X180450000Y-55950000D03*
%TO.N,SDA5*%
X173904074Y-57504074D03*
X173750000Y-52165000D03*
D53*
%TO.N,Cell2*%
X190900000Y-92700000D03*
D52*
%TO.N,B16*%
X177460910Y-56547238D03*
X198100000Y-25300000D03*
X186935827Y-21876489D03*
D53*
%TO.N,Cell14*%
X190900000Y-28900000D03*
D52*
%TO.N,B6*%
X180300000Y-69500000D03*
X200000000Y-73200000D03*
X187200000Y-75200000D03*
%TO.N,CANL*%
X133730000Y-63000000D03*
X140400000Y-47600000D03*
%TO.N,CANH*%
X135000000Y-63000000D03*
D53*
%TO.N,Cell15*%
X191100000Y-23600000D03*
D52*
%TO.N,B3*%
X198200000Y-94000000D03*
X177031560Y-69841116D03*
X186942856Y-90700000D03*
D53*
%TO.N,Cell0*%
X190900000Y-103400000D03*
D52*
%TO.N,B9*%
X183900000Y-64200000D03*
X187000000Y-59100000D03*
X198030761Y-62300000D03*
%TO.N,B12*%
X198100000Y-46400000D03*
X179420000Y-61900000D03*
X186942856Y-43100000D03*
D53*
%TO.N,Cell4*%
X190900000Y-82200000D03*
%TO.N,Cell12*%
X191000000Y-39500000D03*
D52*
%TO.N,B13*%
X198030761Y-41100000D03*
X186942856Y-37700000D03*
X178600000Y-61000000D03*
D53*
%TO.N,Net-(D1-K)*%
X176000000Y-87700000D03*
%TD*%
%TO.N,I_Bal*%
D55*
X133730000Y-80146500D02*
X135309000Y-80146500D01*
X135546500Y-80384000D02*
X136850000Y-80384000D01*
X135309000Y-80146500D02*
X135546500Y-80384000D01*
%TO.N,Net-(U14D--)*%
X132250000Y-81250000D02*
X133000000Y-82000000D01*
X132250000Y-79315702D02*
X132250000Y-81250000D01*
X133500000Y-78091500D02*
X133474202Y-78091500D01*
X133474202Y-78091500D02*
X132250000Y-79315702D01*
%TO.N,I_Bal*%
X135309000Y-80146500D02*
X137000000Y-81837500D01*
X133500000Y-79916500D02*
X133730000Y-80146500D01*
%TO.N,Net-(U14D--)*%
X143460000Y-77457732D02*
X143460000Y-77775000D01*
X142522268Y-76520000D02*
X143460000Y-77457732D01*
X141857732Y-76520000D02*
X142522268Y-76520000D01*
X134797550Y-78321500D02*
X135910050Y-79434000D01*
X133730000Y-78321500D02*
X134797550Y-78321500D01*
X138943732Y-79434000D02*
X141857732Y-76520000D01*
X133500000Y-78091500D02*
X133730000Y-78321500D01*
X135910050Y-79434000D02*
X138943732Y-79434000D01*
%TO.N,TX*%
X142440000Y-43480000D02*
X144760000Y-41160000D01*
X138060000Y-51774000D02*
X142440000Y-47394000D01*
X138060000Y-54260000D02*
X138060000Y-51774000D01*
X136270000Y-56050000D02*
X138060000Y-54260000D01*
X142440000Y-47394000D02*
X142440000Y-43480000D01*
%TO.N,Net-(U14D-+)*%
X144730000Y-76684000D02*
X144730000Y-77775000D01*
X143750000Y-75704000D02*
X144730000Y-76684000D01*
X139840000Y-77354000D02*
X141490000Y-75704000D01*
X139072500Y-77354000D02*
X139840000Y-77354000D01*
X141490000Y-75704000D02*
X143750000Y-75704000D01*
%TO.N,V_Shunt_Low*%
D56*
X132009000Y-83825000D02*
X133000000Y-83825000D01*
X130900000Y-84934000D02*
X132009000Y-83825000D01*
%TO.N,GND_float2*%
D55*
X130770000Y-81694000D02*
X130470000Y-81994000D01*
X130770000Y-80476500D02*
X130770000Y-81694000D01*
D57*
X132837500Y-85681500D02*
X132820000Y-85664000D01*
X132837500Y-87250000D02*
X132837500Y-85681500D01*
D55*
X133765000Y-73334000D02*
X133185000Y-73914000D01*
X136080000Y-73334000D02*
X133765000Y-73334000D01*
%TO.N,Net-(U14D-+)*%
X132392500Y-77029000D02*
X130770000Y-78651500D01*
X135358298Y-77029000D02*
X132392500Y-77029000D01*
X135820000Y-77490702D02*
X135358298Y-77029000D01*
X135820000Y-78354000D02*
X135820000Y-77490702D01*
X136200000Y-78734000D02*
X135820000Y-78354000D01*
X138392500Y-78734000D02*
X136200000Y-78734000D01*
X139072500Y-78054000D02*
X138392500Y-78734000D01*
X139072500Y-77354000D02*
X139072500Y-78054000D01*
%TO.N,V_I_Bal*%
X142361014Y-73837500D02*
X143169889Y-74646375D01*
X140750000Y-73837500D02*
X142361014Y-73837500D01*
X139620000Y-73501500D02*
X140414000Y-73501500D01*
%TO.N,Net-(C27-Pad2)*%
X139482500Y-75304000D02*
X139540000Y-75246500D01*
X136150000Y-75304000D02*
X139482500Y-75304000D01*
X136080000Y-75234000D02*
X136150000Y-75304000D01*
%TO.N,V_I_Bal*%
X140414000Y-73501500D02*
X140750000Y-73837500D01*
X139540000Y-73421500D02*
X139620000Y-73501500D01*
%TO.N,Net-(C27-Pad2)*%
X136810000Y-76916500D02*
X137247500Y-77354000D01*
X136080000Y-75234000D02*
X136810000Y-75964000D01*
X136810000Y-75964000D02*
X136810000Y-76916500D01*
%TO.N,I_Bal*%
X138127500Y-81837500D02*
X137000000Y-81837500D01*
X142190000Y-77775000D02*
X138127500Y-81837500D01*
%TO.N,V_Shunt_Low*%
D56*
X194690000Y-111454000D02*
X194040000Y-112104000D01*
X200037500Y-111454000D02*
X194690000Y-111454000D01*
%TO.N,GND_float2*%
X203100000Y-110216500D02*
X201862500Y-111454000D01*
X203100000Y-109700000D02*
X203100000Y-110216500D01*
%TO.N,V_Shunt_Low*%
X199412000Y-110828500D02*
X200037500Y-111454000D01*
X199412000Y-108099000D02*
X199412000Y-110828500D01*
%TO.N,Net-(U1-D)*%
X143542778Y-103597449D02*
X141841561Y-101896232D01*
X143542778Y-103921232D02*
X143542778Y-103597449D01*
X137357768Y-101896232D02*
X137150000Y-102104000D01*
X141841561Y-101896232D02*
X137357768Y-101896232D01*
%TO.N,BAT+*%
X135250000Y-107305651D02*
X138923349Y-110979000D01*
X145445000Y-110979000D02*
X147320000Y-109104000D01*
X145320000Y-111104000D02*
X147320000Y-109104000D01*
X131867500Y-111104000D02*
X145320000Y-111104000D01*
X135250000Y-102104000D02*
X135250000Y-107305651D01*
X138923349Y-110979000D02*
X145445000Y-110979000D01*
%TO.N,Cell8*%
D58*
X223110000Y-64344333D02*
X223110000Y-64289333D01*
X225620000Y-62619333D02*
X225620000Y-59450240D01*
X223255667Y-64344333D02*
X223110000Y-64344333D01*
X223300000Y-64289333D02*
X223950000Y-64289333D01*
X223950000Y-64289333D02*
X225620000Y-62619333D01*
X225620000Y-59450240D02*
X231048914Y-54021326D01*
D56*
X191114111Y-60914111D02*
X191100000Y-60900000D01*
D58*
X223300000Y-64300000D02*
X223255667Y-64344333D01*
D56*
X193975000Y-60914111D02*
X191114111Y-60914111D01*
D58*
X223300000Y-64289333D02*
X223300000Y-64300000D01*
%TO.N,Net-(Q8_H1-G)*%
D55*
X219532047Y-66353794D02*
X221596508Y-64289333D01*
X216500000Y-65435544D02*
X217874163Y-64061381D01*
X216500000Y-66353794D02*
X216500000Y-65435544D01*
X216500000Y-66353794D02*
X219532047Y-66353794D01*
X221596508Y-64289333D02*
X221890000Y-64289333D01*
%TO.N,Bal*%
D56*
X222975000Y-78375000D02*
X223000000Y-78400000D01*
X178663173Y-83713173D02*
X177500000Y-82550000D01*
X222975000Y-28953667D02*
X222975000Y-30575000D01*
X222975000Y-72975000D02*
X223000000Y-73000000D01*
X222975000Y-82440333D02*
X222975000Y-83575000D01*
D58*
X171200000Y-76200000D02*
X174500000Y-76200000D01*
X177500000Y-79200000D02*
X175800000Y-77500000D01*
D56*
X222975000Y-56975000D02*
X223000000Y-57000000D01*
X222975000Y-77091667D02*
X222975000Y-78375000D01*
X222975000Y-66394333D02*
X222975000Y-67775000D01*
X178663173Y-85836827D02*
X178663173Y-83713173D01*
X222975000Y-30575000D02*
X223000000Y-30600000D01*
X222975000Y-98486333D02*
X222975000Y-99675000D01*
X222975000Y-71743000D02*
X222975000Y-72975000D01*
X222975000Y-25225000D02*
X222900000Y-25300000D01*
X222975000Y-51875000D02*
X223000000Y-51900000D01*
X222975000Y-88875000D02*
X223000000Y-88900000D01*
D59*
X166000000Y-74300000D02*
X169200000Y-77500000D01*
D56*
X222975000Y-40975000D02*
X223000000Y-41000000D01*
X222975000Y-67775000D02*
X223000000Y-67800000D01*
X222975000Y-39651000D02*
X222975000Y-40975000D01*
X222975000Y-83575000D02*
X223000000Y-83600000D01*
D59*
X169200000Y-77500000D02*
X175800000Y-77500000D01*
D58*
X174500000Y-76200000D02*
X175800000Y-77500000D01*
D56*
X222975000Y-23605000D02*
X222975000Y-25225000D01*
X222975000Y-55697000D02*
X222975000Y-56975000D01*
X222975000Y-103835000D02*
X222975000Y-105275000D01*
X222975000Y-35975000D02*
X223000000Y-36000000D01*
X222975000Y-94275000D02*
X223000000Y-94300000D01*
X222975000Y-93137667D02*
X222975000Y-94275000D01*
X222975000Y-99675000D02*
X223000000Y-99700000D01*
D59*
X166000000Y-74300000D02*
X166000000Y-79000000D01*
D56*
X222975000Y-44999667D02*
X222975000Y-46275000D01*
X222975000Y-46275000D02*
X223000000Y-46300000D01*
D58*
X177500000Y-82550000D02*
X177500000Y-79200000D01*
D56*
X222975000Y-61045667D02*
X222975000Y-62375000D01*
X222975000Y-34302333D02*
X222975000Y-35975000D01*
X222975000Y-87789000D02*
X222975000Y-88875000D01*
X222975000Y-105275000D02*
X223000000Y-105300000D01*
X222975000Y-50348333D02*
X222975000Y-51875000D01*
X222975000Y-62375000D02*
X223000000Y-62400000D01*
%TO.N,B10*%
D55*
X187636048Y-53463952D02*
X187300000Y-53800000D01*
X180750000Y-62050000D02*
X182600000Y-63900000D01*
X189004408Y-53463952D02*
X187636048Y-53463952D01*
X180750000Y-59000000D02*
X180750000Y-62050000D01*
X198030761Y-55199744D02*
X198175000Y-55055505D01*
X198030761Y-57000000D02*
X198030761Y-55199744D01*
%TO.N,Net-(R18-Pad2)*%
D60*
X200000000Y-55055505D02*
X201829162Y-53226343D01*
X201829162Y-53226343D02*
X202960000Y-53226343D01*
%TO.N,Net-(R96-Pad2)*%
D55*
X140700000Y-86500000D02*
X140500000Y-86500000D01*
X140700000Y-86500000D02*
X140700000Y-85852000D01*
X140700000Y-85852000D02*
X142190000Y-84362000D01*
X140412500Y-86587500D02*
X137400000Y-86587500D01*
X142190000Y-82725000D02*
X142190000Y-84362000D01*
X140500000Y-86500000D02*
X140412500Y-86587500D01*
%TO.N,Net-(U14A--)*%
X143460000Y-85565000D02*
X142525000Y-86500000D01*
X142500000Y-90000000D02*
X142500000Y-86525000D01*
X143460000Y-82725000D02*
X143460000Y-85565000D01*
X142500000Y-86525000D02*
X142525000Y-86500000D01*
%TO.N,Net-(U14A-+)*%
X137237500Y-83900000D02*
X137000000Y-83662500D01*
X144730000Y-82725000D02*
X144730000Y-84470000D01*
D57*
X134662500Y-85237500D02*
X134662500Y-87250000D01*
X136237500Y-83662500D02*
X134662500Y-85237500D01*
D55*
X138700000Y-83900000D02*
X137237500Y-83900000D01*
D57*
X137000000Y-83662500D02*
X136237500Y-83662500D01*
D55*
X144730000Y-84470000D02*
X144500000Y-84700000D01*
%TO.N,+5V*%
D56*
X221500000Y-115500000D02*
X221500000Y-113500000D01*
X169493750Y-55569050D02*
X169493750Y-49406250D01*
D58*
X172695000Y-50895000D02*
X172700000Y-50900000D01*
D56*
X165325000Y-56475000D02*
X168587800Y-56475000D01*
X162925000Y-35162500D02*
X162925000Y-43711826D01*
X164670000Y-68470000D02*
X167200000Y-65940000D01*
D59*
X177800000Y-54700000D02*
X177900000Y-54800000D01*
D57*
X146000000Y-85550000D02*
X146000000Y-82725000D01*
D58*
X171914600Y-50895000D02*
X170982500Y-50895000D01*
D56*
X228250000Y-115250000D02*
X231300000Y-115250000D01*
X167088349Y-65940000D02*
X165325000Y-64176651D01*
X168587800Y-56475000D02*
X169493750Y-55569050D01*
X164670000Y-69750000D02*
X164670000Y-68470000D01*
X165325000Y-64176651D02*
X165325000Y-56475000D01*
X229100000Y-115250000D02*
X228250000Y-115250000D01*
D61*
X177900000Y-54800000D02*
X176600000Y-56100000D01*
D56*
X231950000Y-118100000D02*
X229100000Y-115250000D01*
D57*
X146000000Y-85550000D02*
X145275000Y-85550000D01*
X143900000Y-86925000D02*
X143900000Y-88100000D01*
D56*
X221500000Y-113500000D02*
X217750000Y-109750000D01*
X163875674Y-44662500D02*
X164750000Y-44662500D01*
D57*
X145275000Y-85550000D02*
X143900000Y-86925000D01*
D56*
X233300000Y-110900000D02*
X233300000Y-112614950D01*
D58*
X170982500Y-50895000D02*
X169493750Y-49406250D01*
D61*
X174000000Y-56100000D02*
X172250000Y-57850000D01*
D56*
X228000000Y-115500000D02*
X228250000Y-115250000D01*
D61*
X176600000Y-56100000D02*
X174000000Y-56100000D01*
D59*
X177800000Y-50300000D02*
X177800000Y-54700000D01*
D56*
X167200000Y-65940000D02*
X167088349Y-65940000D01*
D58*
X171914600Y-50895000D02*
X172695000Y-50895000D01*
D56*
X221500000Y-115500000D02*
X228000000Y-115500000D01*
D61*
X174000000Y-58750000D02*
X174250000Y-59000000D01*
X172250000Y-58750000D02*
X174000000Y-58750000D01*
D56*
X162925000Y-43711826D02*
X163875674Y-44662500D01*
D61*
X172250000Y-58750000D02*
X169493750Y-55993750D01*
D58*
X169493750Y-49406250D02*
X164750000Y-44662500D01*
D61*
X172250000Y-57850000D02*
X172250000Y-58750000D01*
X169493750Y-55993750D02*
X169493750Y-55569050D01*
D56*
X169600000Y-103100000D02*
X169600000Y-114075000D01*
X233300000Y-112614950D02*
X231950000Y-113964950D01*
X231950000Y-113964950D02*
X231950000Y-114600000D01*
X231300000Y-115250000D02*
X231950000Y-114600000D01*
%TO.N,GND_float2*%
X204004999Y-72220172D02*
X205216000Y-71009171D01*
X219699163Y-92499163D02*
X219700000Y-92500000D01*
D61*
X171250000Y-62150000D02*
X172500000Y-60900000D01*
D56*
X205216000Y-59635342D02*
X205216000Y-56388000D01*
X159900000Y-86112500D02*
X158750000Y-84962500D01*
D61*
X175900000Y-60900000D02*
X172500000Y-60900000D01*
D56*
X166600000Y-81400000D02*
X166600000Y-82500000D01*
X185517856Y-22017856D02*
X184200000Y-20700000D01*
X202967817Y-98826183D02*
X205189190Y-98826183D01*
X219699163Y-69384484D02*
X219699163Y-68500837D01*
X233850000Y-118100000D02*
X235213380Y-118100000D01*
X185517856Y-23801487D02*
X185517856Y-97924932D01*
D61*
X171800000Y-60300000D02*
X169500000Y-60300000D01*
D56*
X205216000Y-38101514D02*
X205216000Y-36068000D01*
D58*
X174595000Y-54705000D02*
X174600000Y-54700000D01*
D59*
X176800000Y-32004720D02*
X175529720Y-33275000D01*
D56*
X204004999Y-39312515D02*
X205216000Y-38101514D01*
X151600000Y-114650000D02*
X151600000Y-116300000D01*
X219699163Y-80030690D02*
X219699163Y-76475837D01*
X153400000Y-92600000D02*
X151900000Y-92600000D01*
X131000000Y-94800000D02*
X131000000Y-93900000D01*
X165400000Y-38300000D02*
X164750000Y-38300000D01*
D57*
X133000000Y-87087500D02*
X132837500Y-87250000D01*
D56*
X219699163Y-76475837D02*
X219700000Y-76475000D01*
X165000000Y-26900000D02*
X164500000Y-26400000D01*
X202960000Y-67140172D02*
X204284172Y-67140172D01*
D59*
X146650000Y-87450000D02*
X146000000Y-87450000D01*
D56*
X219500000Y-96000000D02*
X219500000Y-92700000D01*
X166600000Y-82500000D02*
X165100000Y-84000000D01*
X204907828Y-84328000D02*
X205216000Y-84328000D01*
X202960000Y-93754000D02*
X202978254Y-93735746D01*
D58*
X171914600Y-54705000D02*
X174595000Y-54705000D01*
D56*
X165100000Y-84000000D02*
X161700000Y-84000000D01*
D62*
X173100000Y-33200000D02*
X172470000Y-32750000D01*
D56*
X161700000Y-84700000D02*
X159900000Y-86500000D01*
X147000000Y-73350000D02*
X146000000Y-73350000D01*
X202960000Y-77300172D02*
X204115828Y-77300172D01*
X205724000Y-27433514D02*
X205724000Y-25400000D01*
X202962823Y-103911177D02*
X205199166Y-103911177D01*
X219699163Y-25825837D02*
X220300000Y-25225000D01*
X219500000Y-101200000D02*
X219500000Y-98425000D01*
X202960000Y-60846343D02*
X204004999Y-60846343D01*
X219699163Y-37000837D02*
X220700000Y-36000000D01*
D59*
X182100000Y-29200000D02*
X182100000Y-32700000D01*
D56*
X204004999Y-50686343D02*
X205216000Y-49475342D01*
X219699163Y-52800837D02*
X220600000Y-51900000D01*
X233850000Y-114600000D02*
X235213380Y-114600000D01*
D59*
X182100000Y-34725000D02*
X181550000Y-35275000D01*
D56*
X185517856Y-23801487D02*
X185517856Y-22017856D01*
X183000000Y-77500000D02*
X183100000Y-77400000D01*
X219699163Y-31225837D02*
X220400000Y-30525000D01*
X219699163Y-37445865D02*
X219699163Y-37000837D01*
X219699163Y-58200837D02*
X220600000Y-57300000D01*
X219699163Y-90676897D02*
X219699163Y-92499163D01*
X202960000Y-72220172D02*
X204004999Y-72220172D01*
X185775000Y-103505179D02*
X185917856Y-103648035D01*
X202960000Y-82380172D02*
X203268172Y-82380172D01*
X183100000Y-77400000D02*
X185150375Y-77400000D01*
X203150000Y-109750000D02*
X203100000Y-109700000D01*
X131000000Y-93900000D02*
X128700000Y-91600000D01*
X219699163Y-42768968D02*
X219699163Y-41800837D01*
D59*
X182100000Y-32700000D02*
X182100000Y-34725000D01*
D56*
X165000000Y-28450000D02*
X165000000Y-26900000D01*
D61*
X172500000Y-60900000D02*
X171850000Y-60250000D01*
D56*
X202960000Y-98834000D02*
X202967817Y-98826183D01*
X204004999Y-60846343D02*
X205216000Y-59635342D01*
X205216000Y-71009171D02*
X205216000Y-68072000D01*
D61*
X171850000Y-60250000D02*
X170350000Y-58750000D01*
D56*
X204759302Y-87427302D02*
X204755339Y-87423339D01*
X185917856Y-98324932D02*
X185775000Y-98467788D01*
X202960000Y-34232515D02*
X204004999Y-34232515D01*
X185150375Y-77400000D02*
X185517856Y-77032519D01*
D61*
X176200000Y-60600000D02*
X175900000Y-60900000D01*
D59*
X173175000Y-33275000D02*
X173100000Y-33200000D01*
D56*
X167108422Y-38269831D02*
X165400000Y-38300000D01*
X219699163Y-26799658D02*
X219699163Y-25825837D01*
X147800000Y-74104000D02*
X147000000Y-73350000D01*
D61*
X176200000Y-59000000D02*
X176200000Y-60600000D01*
D56*
X219699163Y-85353793D02*
X219699163Y-83800837D01*
X205216000Y-35443516D02*
X205216000Y-36068000D01*
X206500000Y-109750000D02*
X203150000Y-109750000D01*
X219699163Y-64061381D02*
X219699163Y-63200837D01*
X202978254Y-93735746D02*
X205168785Y-93735746D01*
D61*
X183053784Y-66000000D02*
X183059226Y-65994558D01*
D56*
X219699163Y-41800837D02*
X220300000Y-41200000D01*
X161700000Y-84000000D02*
X161700000Y-84700000D01*
X202960000Y-24072515D02*
X204396515Y-24072515D01*
X229500000Y-99500000D02*
X229500000Y-97700000D01*
X202960000Y-109560000D02*
X203100000Y-109700000D01*
X205216000Y-49475342D02*
X205216000Y-46300000D01*
X204396515Y-24072515D02*
X205724000Y-25400000D01*
X204522343Y-45606343D02*
X205216000Y-46300000D01*
X202960000Y-103914000D02*
X202960000Y-109560000D01*
X219699163Y-58738277D02*
X219699163Y-58200837D01*
X204004999Y-34232515D02*
X205216000Y-35443516D01*
X204594343Y-55766343D02*
X205216000Y-56388000D01*
X214150000Y-109750000D02*
X212200000Y-107800000D01*
X159900000Y-86500000D02*
X159900000Y-86112500D01*
D61*
X181400000Y-66000000D02*
X183053784Y-66000000D01*
D56*
X202960000Y-39312515D02*
X204004999Y-39312515D01*
X189000000Y-117450000D02*
X190675000Y-119125000D01*
X185917856Y-106117856D02*
X186400000Y-106600000D01*
X228700000Y-110900000D02*
X226400000Y-110900000D01*
X204004999Y-29152515D02*
X205724000Y-27433514D01*
D59*
X175529720Y-33275000D02*
X173175000Y-33275000D01*
D56*
X173675000Y-54700000D02*
X174600000Y-54700000D01*
D59*
X176800000Y-31900000D02*
X176800000Y-32004720D01*
D56*
X202960000Y-88674000D02*
X203512604Y-88674000D01*
D59*
X178050000Y-36225000D02*
X178050000Y-34650000D01*
D56*
X202960000Y-45606343D02*
X204522343Y-45606343D01*
X219699163Y-53415174D02*
X219699163Y-52800837D01*
X233750000Y-97750000D02*
X233700000Y-97700000D01*
D59*
X147270000Y-82725000D02*
X147304000Y-84328000D01*
D56*
X202960000Y-82380172D02*
X204907828Y-84328000D01*
D61*
X171850000Y-60250000D02*
X171800000Y-60300000D01*
D56*
X204284172Y-67140172D02*
X205216000Y-68072000D01*
X219699163Y-63200837D02*
X220400000Y-62500000D01*
X219699163Y-48092071D02*
X219699163Y-46900837D01*
D62*
X172470000Y-32750000D02*
X171050000Y-32750000D01*
D56*
X176000000Y-54800000D02*
X174700000Y-54800000D01*
X185517856Y-97924932D02*
X185917856Y-98324932D01*
X219500000Y-92700000D02*
X219700000Y-92500000D01*
X185775000Y-98467788D02*
X185775000Y-103505179D01*
D61*
X171250000Y-62500000D02*
X171250000Y-62150000D01*
D56*
X219699163Y-74707587D02*
X219699163Y-76474163D01*
D59*
X158750000Y-84962500D02*
X158750000Y-85350000D01*
D56*
X190675000Y-119125000D02*
X191500000Y-119125000D01*
X219699163Y-83800837D02*
X219900000Y-83600000D01*
X219699163Y-46900837D02*
X220300000Y-46300000D01*
X202960000Y-29152515D02*
X204004999Y-29152515D01*
X202960000Y-103914000D02*
X202962823Y-103911177D01*
X202960000Y-50686343D02*
X204004999Y-50686343D01*
X201000000Y-117450000D02*
X201000000Y-119100000D01*
X233750000Y-99500000D02*
X233750000Y-97750000D01*
X219699163Y-76474163D02*
X219700000Y-76475000D01*
X204115828Y-77300172D02*
X205216000Y-76200000D01*
X219699163Y-68500837D02*
X220400000Y-67800000D01*
X151900000Y-92600000D02*
X150000000Y-90700000D01*
X219699163Y-32122761D02*
X219699163Y-31225837D01*
X203512604Y-88674000D02*
X204759302Y-87427302D01*
D59*
X147800000Y-86300000D02*
X146650000Y-87450000D01*
D56*
X174700000Y-54800000D02*
X174600000Y-54700000D01*
X185917856Y-103648035D02*
X185917856Y-106117856D01*
X219699163Y-21476555D02*
X221065859Y-20109859D01*
X221065859Y-20109859D02*
X221275000Y-20109859D01*
D59*
X178050000Y-34650000D02*
X178000000Y-34600000D01*
X147304000Y-84328000D02*
X147800000Y-86300000D01*
D56*
X202960000Y-55766343D02*
X204594343Y-55766343D01*
X180200000Y-77500000D02*
X183000000Y-77500000D01*
%TO.N,Net-(U14B--)*%
D55*
X149550000Y-88650000D02*
X149550000Y-86000000D01*
D57*
X148540000Y-84990000D02*
X149550000Y-86000000D01*
X148540000Y-82725000D02*
X148540000Y-84990000D01*
D55*
X146950000Y-91250000D02*
X149550000Y-88650000D01*
X137400000Y-88412500D02*
X140237500Y-91250000D01*
X140237500Y-91250000D02*
X146950000Y-91250000D01*
%TO.N,Net-(U14C-+)*%
D57*
X149810000Y-84360000D02*
X151450000Y-86000000D01*
X147270000Y-79070000D02*
X147270000Y-77775000D01*
X149810000Y-81610000D02*
X147270000Y-79070000D01*
X149810000Y-82725000D02*
X149810000Y-81610000D01*
X149810000Y-82725000D02*
X149810000Y-84360000D01*
%TO.N,Net-(R102-Pad1)*%
D59*
X149810000Y-77775000D02*
X151085000Y-79050000D01*
X151085000Y-79050000D02*
X154587500Y-79050000D01*
%TO.N,Net-(U14C--)*%
X148540000Y-79047500D02*
X153067500Y-83575000D01*
X148540000Y-77775000D02*
X148540000Y-79047500D01*
%TO.N,-5V*%
D57*
X146000000Y-75250000D02*
X146000000Y-77775000D01*
D56*
X218710000Y-117790000D02*
X228250000Y-117790000D01*
D57*
X143402000Y-72902000D02*
X145750000Y-75250000D01*
D56*
X216420000Y-115500000D02*
X215850000Y-115500000D01*
X215850000Y-115500000D02*
X210100000Y-109750000D01*
D57*
X145750000Y-75250000D02*
X146000000Y-75250000D01*
D56*
X216420000Y-115500000D02*
X218710000Y-117790000D01*
%TO.N,V_I_Bal*%
D58*
X194300000Y-74798731D02*
X194950000Y-74798731D01*
X194300000Y-48149365D02*
X194300000Y-48200000D01*
X194300000Y-26829873D02*
X194950000Y-26829873D01*
X194300000Y-80128604D02*
X195848468Y-80128604D01*
X195848468Y-64138985D02*
X196730761Y-65021278D01*
X196620000Y-102219628D02*
X196620000Y-105891000D01*
X196730761Y-66830761D02*
X196400000Y-67161522D01*
X194300000Y-48200000D02*
X194295635Y-48204365D01*
X194300000Y-69468858D02*
X194110000Y-69468858D01*
X196620000Y-75570263D02*
X196620000Y-80900136D01*
X194300000Y-53479238D02*
X194950000Y-53479238D01*
X195848468Y-85458477D02*
X196620000Y-86230009D01*
X194950000Y-21500000D02*
X196160000Y-21500000D01*
X194110000Y-53510000D02*
X194110000Y-53479238D01*
X196620000Y-91559882D02*
X196620000Y-96889755D01*
X194950000Y-48149365D02*
X196078533Y-48149365D01*
X196600000Y-75550263D02*
X196620000Y-75570263D01*
X195848468Y-90788350D02*
X196620000Y-91559882D01*
X194300000Y-53500000D02*
X194265762Y-53534238D01*
X195848468Y-58809111D02*
X196730761Y-59691404D01*
X196620000Y-80900136D02*
X196620000Y-86230009D01*
X194300000Y-42819492D02*
X194950000Y-42819492D01*
X196730761Y-70351151D02*
X196730761Y-72530761D01*
X195848468Y-42819492D02*
X196730761Y-43701785D01*
X196160000Y-53479238D02*
X196730761Y-54049999D01*
X194110000Y-32190000D02*
X194110000Y-32159746D01*
X194140254Y-32159746D02*
X194110000Y-32190000D01*
X194119492Y-42819492D02*
X194110000Y-42810000D01*
X194950000Y-53479238D02*
X196160000Y-53479238D01*
X195848468Y-69468858D02*
X196730761Y-70351151D01*
X194300000Y-37489619D02*
X194300000Y-37500000D01*
X196730761Y-22070761D02*
X196730761Y-27712166D01*
X194300000Y-37500000D02*
X194255381Y-37544619D01*
X196600000Y-72661522D02*
X196600000Y-75550263D01*
X194265762Y-53534238D02*
X194134238Y-53534238D01*
X194300000Y-26829873D02*
X194110000Y-26829873D01*
X194950000Y-64138985D02*
X195848468Y-64138985D01*
X194300000Y-21500000D02*
X194950000Y-21500000D01*
X194110000Y-42810000D02*
X194110000Y-42819492D01*
X195848468Y-101448096D02*
X196620000Y-102219628D01*
X196730761Y-27712166D02*
X196730761Y-33042039D01*
X194161015Y-64138985D02*
X194110000Y-64190000D01*
X196730761Y-38371912D02*
X196730761Y-43701785D01*
X194300000Y-53479238D02*
X194300000Y-53500000D01*
X194950000Y-101448096D02*
X195848468Y-101448096D01*
X195848468Y-80128604D02*
X196620000Y-80900136D01*
X196730761Y-65021278D02*
X196730761Y-66830761D01*
X194300000Y-32159746D02*
X194950000Y-32159746D01*
X194300000Y-64138985D02*
X194950000Y-64138985D01*
X194300000Y-96118223D02*
X195848468Y-96118223D01*
X194300000Y-90788350D02*
X195848468Y-90788350D01*
X196730761Y-59691404D02*
X196730761Y-65021278D01*
X196620000Y-105891000D02*
X194412000Y-108099000D01*
X194950000Y-32159746D02*
X195848468Y-32159746D01*
X194255381Y-37544619D02*
X194110000Y-37544619D01*
X191101000Y-108099000D02*
X191100000Y-108100000D01*
X194300000Y-58809111D02*
X194950000Y-58809111D01*
X194300000Y-85458477D02*
X195848468Y-85458477D01*
X195848468Y-96118223D02*
X196620000Y-96889755D01*
X196730761Y-54049999D02*
X196730761Y-59691404D01*
X194950000Y-37489619D02*
X195848468Y-37489619D01*
X194950000Y-26829873D02*
X195848468Y-26829873D01*
X194300000Y-37489619D02*
X194950000Y-37489619D01*
X196730761Y-33042039D02*
X196730761Y-38371912D01*
X194950000Y-58809111D02*
X195848468Y-58809111D01*
X195848468Y-37489619D02*
X196730761Y-38371912D01*
X194950000Y-74798731D02*
X195848468Y-74798731D01*
X194300000Y-21500000D02*
X194110000Y-21500000D01*
X194110000Y-64190000D02*
X194110000Y-64138985D01*
X196400000Y-67161522D02*
X196400000Y-70020390D01*
X196730761Y-43701785D02*
X196730761Y-48801593D01*
X196400000Y-70020390D02*
X196730761Y-70351151D01*
X194950000Y-69468858D02*
X195848468Y-69468858D01*
X194300000Y-74798731D02*
X194110000Y-74798731D01*
X194412000Y-108099000D02*
X191101000Y-108099000D01*
X194110000Y-37544619D02*
X194110000Y-37489619D01*
X194950000Y-42819492D02*
X195848468Y-42819492D01*
X194300000Y-101448096D02*
X194950000Y-101448096D01*
X196078533Y-48149365D02*
X196730761Y-48801593D01*
X196730761Y-48801593D02*
X196730761Y-54049999D01*
X194300000Y-32159746D02*
X194140254Y-32159746D01*
X196730761Y-72530761D02*
X196600000Y-72661522D01*
X194300000Y-42819492D02*
X194119492Y-42819492D01*
X196620000Y-96889755D02*
X196620000Y-102219628D01*
X194110000Y-48204365D02*
X194110000Y-48149365D01*
X194300000Y-69468858D02*
X194950000Y-69468858D01*
X195848468Y-74798731D02*
X196620000Y-75570263D01*
X196620000Y-86230009D02*
X196620000Y-91559882D01*
X194134238Y-53534238D02*
X194110000Y-53510000D01*
X195848468Y-32159746D02*
X196730761Y-33042039D01*
X194300000Y-64138985D02*
X194161015Y-64138985D01*
X196160000Y-21500000D02*
X196730761Y-22070761D01*
X194300000Y-58809111D02*
X194110000Y-58809111D01*
X194295635Y-48204365D02*
X194110000Y-48204365D01*
X194300000Y-48149365D02*
X194950000Y-48149365D01*
X195848468Y-26829873D02*
X196730761Y-27712166D01*
%TO.N,Net-(Q9_L1-G)*%
D55*
X187342856Y-61063209D02*
X189275091Y-61063209D01*
X190829408Y-59508892D02*
X190829408Y-58787055D01*
X192867944Y-58787055D02*
X192890000Y-58809111D01*
X189275091Y-61063209D02*
X190829408Y-59508892D01*
X190829408Y-58787055D02*
X192867944Y-58787055D01*
%TO.N,Net-(R31-Pad1)*%
X214675000Y-39738278D02*
X212465763Y-39738278D01*
X212465763Y-39738278D02*
X212040000Y-39312515D01*
%TO.N,Net-(Q13_H1-G)*%
X216500000Y-39738278D02*
X219404230Y-39738278D01*
X216500000Y-38820028D02*
X217874163Y-37445865D01*
X216500000Y-39738278D02*
X216500000Y-38820028D01*
X219404230Y-39738278D02*
X221596508Y-37546000D01*
X221596508Y-37546000D02*
X221890000Y-37546000D01*
%TO.N,SDA3.3*%
D61*
X164525000Y-20725000D02*
X164525000Y-23387500D01*
D62*
X177100000Y-39570097D02*
X177100000Y-38500000D01*
X170473562Y-31250000D02*
X170195000Y-31528562D01*
X174360000Y-37460000D02*
X176470097Y-39570097D01*
X171050000Y-31250000D02*
X170473562Y-31250000D01*
X170195000Y-33022351D02*
X171702325Y-34529675D01*
X170195000Y-31528562D02*
X170195000Y-33022351D01*
X177100000Y-40990538D02*
X178491983Y-42382521D01*
X170050000Y-31250000D02*
X168750000Y-29950000D01*
X168750000Y-29950000D02*
X168750000Y-27612500D01*
X174360000Y-35692000D02*
X173197675Y-34529675D01*
X173197675Y-34529675D02*
X171702325Y-34529675D01*
X171050000Y-31250000D02*
X170050000Y-31250000D01*
X176470097Y-39570097D02*
X177100000Y-39570097D01*
D61*
X164525000Y-23387500D02*
X168750000Y-27612500D01*
D62*
X174360000Y-37460000D02*
X174360000Y-35692000D01*
D61*
X173225000Y-19725000D02*
X165525000Y-19725000D01*
D62*
X177100000Y-39570097D02*
X177100000Y-40990538D01*
D61*
X165525000Y-19725000D02*
X164525000Y-20725000D01*
X177000000Y-23500000D02*
X173225000Y-19725000D01*
%TO.N,SCL3.3*%
X179887500Y-37412500D02*
X180900000Y-36400000D01*
X178050000Y-38500000D02*
X178050000Y-37970172D01*
X178275000Y-23547056D02*
X182113972Y-27386028D01*
D62*
X177487500Y-27612500D02*
X177600000Y-27500000D01*
X171050000Y-31750000D02*
X171674999Y-31750000D01*
D61*
X178275000Y-22235000D02*
X178275000Y-23547056D01*
X182113972Y-27386028D02*
X183400000Y-27386028D01*
X178050000Y-38500000D02*
X178050000Y-40124526D01*
D62*
X172290000Y-31134999D02*
X172290000Y-27612500D01*
D61*
X177000000Y-20960000D02*
X178275000Y-22235000D01*
D62*
X172290000Y-27612500D02*
X177487500Y-27612500D01*
D61*
X178050000Y-40124526D02*
X178002826Y-40171700D01*
X178607672Y-37412500D02*
X179887500Y-37412500D01*
X178050000Y-37970172D02*
X178607672Y-37412500D01*
X183700000Y-27686028D02*
X183400000Y-27386028D01*
X183700000Y-34800000D02*
X183700000Y-27686028D01*
X182100000Y-36400000D02*
X183700000Y-34800000D01*
X180900000Y-36400000D02*
X182100000Y-36400000D01*
D62*
X171674999Y-31750000D02*
X172290000Y-31134999D01*
%TO.N,Cell9*%
D58*
X225620000Y-57270667D02*
X225620000Y-55950240D01*
D56*
X191084238Y-55584238D02*
X190900000Y-55400000D01*
D58*
X223110000Y-58990000D02*
X223110000Y-58940667D01*
X223950000Y-58940667D02*
X225620000Y-57270667D01*
D56*
X193975000Y-55584238D02*
X191084238Y-55584238D01*
D58*
X223300000Y-58940667D02*
X223950000Y-58940667D01*
X223159333Y-58940667D02*
X223110000Y-58990000D01*
X223300000Y-58940667D02*
X223159333Y-58940667D01*
X225620000Y-55950240D02*
X231048914Y-50521326D01*
%TO.N,Net-(Q9_H1-G)*%
D55*
X221596508Y-58940667D02*
X221890000Y-58940667D01*
X216500000Y-61030690D02*
X216500000Y-60112440D01*
X216500000Y-60112440D02*
X217874163Y-58738277D01*
X216500000Y-61030690D02*
X219506485Y-61030690D01*
X219506485Y-61030690D02*
X221596508Y-58940667D01*
%TO.N,Cell7*%
D58*
X223110000Y-69610000D02*
X223110000Y-69638000D01*
X223300000Y-69638000D02*
X223138000Y-69638000D01*
D56*
X190843985Y-66243985D02*
X190700000Y-66100000D01*
D58*
X223300000Y-69638000D02*
X223950000Y-69638000D01*
X223950000Y-69638000D02*
X226148914Y-67439086D01*
X226148914Y-64165617D02*
X231048914Y-59265617D01*
X223138000Y-69638000D02*
X223110000Y-69610000D01*
X226148914Y-67439086D02*
X226148914Y-64165617D01*
D56*
X193975000Y-66243985D02*
X190843985Y-66243985D01*
%TO.N,Cell6*%
X193975000Y-71573858D02*
X190773858Y-71573858D01*
D58*
X227548914Y-68051086D02*
X226400000Y-69200000D01*
X223110000Y-75041667D02*
X223110000Y-74986667D01*
X230244682Y-64100000D02*
X231100000Y-64100000D01*
X223300000Y-75000000D02*
X223258333Y-75041667D01*
X223300000Y-74986667D02*
X223300000Y-75000000D01*
D56*
X190773858Y-71573858D02*
X190700000Y-71500000D01*
D58*
X231100000Y-64100000D02*
X231100000Y-62816703D01*
X227548914Y-66795768D02*
X230244682Y-64100000D01*
X227548914Y-66795768D02*
X227548914Y-68051086D01*
X226400000Y-72536667D02*
X223950000Y-74986667D01*
X223300000Y-74986667D02*
X223950000Y-74986667D01*
X231100000Y-62816703D02*
X231048914Y-62765617D01*
X226400000Y-69200000D02*
X226400000Y-72536667D01*
X223258333Y-75041667D02*
X223110000Y-75041667D01*
%TO.N,Cell5*%
X227800000Y-73400000D02*
X225900000Y-75300000D01*
X225300000Y-78600000D02*
X225200000Y-78700000D01*
X223135333Y-80335333D02*
X223110000Y-80310000D01*
D56*
X193975000Y-76903731D02*
X190803731Y-76903731D01*
D58*
X223950000Y-80335333D02*
X223950000Y-80128924D01*
X223300000Y-80335333D02*
X223135333Y-80335333D01*
X231048914Y-68351086D02*
X231000000Y-68400000D01*
X229925549Y-69100000D02*
X228000000Y-69900000D01*
X225200000Y-78700000D02*
X223743592Y-80335333D01*
X231048914Y-66265617D02*
X231048914Y-68351086D01*
X223743592Y-80335333D02*
X223300000Y-80335333D01*
X225900000Y-75300000D02*
X225300000Y-78600000D01*
X228000000Y-69900000D02*
X227800000Y-73400000D01*
D56*
X190803731Y-76903731D02*
X190800000Y-76900000D01*
D58*
X231000000Y-69100000D02*
X229925549Y-69100000D01*
X223110000Y-80310000D02*
X223110000Y-80335333D01*
X223300000Y-80335333D02*
X223950000Y-80335333D01*
X231000000Y-68400000D02*
X231000000Y-69100000D01*
%TO.N,Net-(Q1-S)*%
D59*
X158312500Y-83575000D02*
X158750000Y-83137500D01*
X154892500Y-83575000D02*
X158312500Y-83575000D01*
X158750000Y-81062500D02*
X158812500Y-81000000D01*
X158750000Y-83137500D02*
X158750000Y-81062500D01*
%TO.N,B1*%
D61*
X172100000Y-64190000D02*
X171250000Y-65040000D01*
X176200000Y-65050001D02*
X175339999Y-64190000D01*
D55*
X198175000Y-104425000D02*
X198100000Y-104500000D01*
X187228119Y-101371881D02*
X187200000Y-101400000D01*
X189004408Y-101371881D02*
X187228119Y-101371881D01*
D61*
X176200000Y-66000000D02*
X176200000Y-65050001D01*
X175339999Y-64190000D02*
X172100000Y-64190000D01*
D55*
X198175000Y-102655596D02*
X198175000Y-104425000D01*
D61*
X176200000Y-67575000D02*
X175600000Y-68175000D01*
X176200000Y-66000000D02*
X176200000Y-67575000D01*
%TO.N,Net-(R27-Pad2)*%
D60*
X201281596Y-101374000D02*
X202960000Y-101374000D01*
X200000000Y-102655596D02*
X201281596Y-101374000D01*
%TO.N,Net-(Q12_L1-G)*%
D55*
X190829408Y-42817746D02*
X192888254Y-42817746D01*
X188553254Y-45093900D02*
X190829408Y-42817746D01*
X187342856Y-45093900D02*
X188553254Y-45093900D01*
X192888254Y-42817746D02*
X192890000Y-42819492D01*
%TO.N,B2*%
X198175000Y-99325000D02*
X198100000Y-99400000D01*
X176850000Y-68480315D02*
X176361787Y-68968528D01*
X176850000Y-66000000D02*
X176850000Y-68480315D01*
X198175000Y-97366697D02*
X198175000Y-99325000D01*
X189004408Y-96048778D02*
X187248778Y-96048778D01*
X187248778Y-96048778D02*
X187200000Y-96000000D01*
%TO.N,Net-(Q2_L1-G)*%
X188553254Y-98324932D02*
X190829408Y-96048778D01*
X192820555Y-96048778D02*
X192890000Y-96118223D01*
X190829408Y-96048778D02*
X192820555Y-96048778D01*
X187742856Y-98324932D02*
X188553254Y-98324932D01*
%TO.N,Cell11*%
D58*
X224582615Y-48243333D02*
X231048914Y-41777034D01*
X223950000Y-48243333D02*
X224582615Y-48243333D01*
X223156667Y-48243333D02*
X223110000Y-48290000D01*
X223300000Y-48243333D02*
X223950000Y-48243333D01*
D56*
X190975508Y-44924492D02*
X190900000Y-45000000D01*
D58*
X223110000Y-48290000D02*
X223110000Y-48243333D01*
X223300000Y-48243333D02*
X223156667Y-48243333D01*
D56*
X193975000Y-44924492D02*
X190975508Y-44924492D01*
%TO.N,RX*%
D59*
X132460000Y-56050000D02*
X132460000Y-55060000D01*
X132460000Y-55060000D02*
X131400000Y-54000000D01*
%TO.N,SCL\u00B5C*%
X164565000Y-53435000D02*
X164400000Y-53600000D01*
D55*
X145575000Y-54675000D02*
X144760000Y-53860000D01*
X144660000Y-53960000D02*
X144760000Y-53860000D01*
X140500000Y-53960000D02*
X144660000Y-53960000D01*
X152000000Y-54675000D02*
X145575000Y-54675000D01*
D59*
X166885400Y-53435000D02*
X164565000Y-53435000D01*
%TO.N,SDA\u00B5C*%
D55*
X140500000Y-56500000D02*
X144660000Y-56500000D01*
D59*
X166885400Y-52165000D02*
X164235000Y-52165000D01*
X164200000Y-52200000D02*
X164235000Y-52165000D01*
D55*
X148500000Y-57500000D02*
X145860000Y-57500000D01*
X144660000Y-56500000D02*
X144760000Y-56400000D01*
X145860000Y-57500000D02*
X144760000Y-56400000D01*
%TO.N,GND\u00B5*%
D56*
X163200000Y-56250000D02*
X163216548Y-56250000D01*
D59*
X135365000Y-52035000D02*
X135400000Y-52000000D01*
X140265000Y-61000000D02*
X140500000Y-61235000D01*
X136270000Y-61000000D02*
X140265000Y-61000000D01*
X136259602Y-52000000D02*
X136329800Y-51929802D01*
X135365000Y-53525000D02*
X135365000Y-52035000D01*
D56*
X144760000Y-66560000D02*
X142144000Y-66560000D01*
X140500000Y-68000000D02*
X140704000Y-68000000D01*
D59*
X135000000Y-56050000D02*
X135000000Y-53890000D01*
D56*
X140800000Y-33900000D02*
X140800000Y-35400000D01*
D59*
X132460000Y-61000000D02*
X130600000Y-61000000D01*
X135000000Y-53890000D02*
X135365000Y-53525000D01*
D56*
X140704000Y-68000000D02*
X142000000Y-66704000D01*
X163216548Y-56250000D02*
X164331274Y-55135274D01*
X142144000Y-66560000D02*
X142000000Y-66704000D01*
D59*
X166885400Y-54705000D02*
X164761548Y-54705000D01*
D56*
X140800000Y-27687500D02*
X140800000Y-25800000D01*
D59*
X135400000Y-52000000D02*
X136259602Y-52000000D01*
X164761548Y-54705000D02*
X164331274Y-55135274D01*
%TO.N,+3.3V\u00B5*%
D56*
X140500000Y-63775000D02*
X138750000Y-65525000D01*
D59*
X161825000Y-56879720D02*
X161825000Y-51975000D01*
D56*
X140500000Y-69900000D02*
X143960000Y-69900000D01*
X128975000Y-65325000D02*
X132435050Y-68785050D01*
X149750000Y-60575000D02*
X149750000Y-67775000D01*
D59*
X163095280Y-58150000D02*
X161825000Y-56879720D01*
D56*
X143960000Y-69900000D02*
X144760000Y-69100000D01*
X148725000Y-68800000D02*
X148000000Y-68800000D01*
D59*
X133730000Y-56050000D02*
X133730000Y-53790000D01*
D56*
X138750000Y-68785050D02*
X139864950Y-69900000D01*
X152000000Y-57012500D02*
X149687500Y-59325000D01*
D59*
X161825000Y-51975000D02*
X163000000Y-50800000D01*
X163000000Y-50800000D02*
X166885400Y-50895000D01*
D56*
X133465000Y-53525000D02*
X132515000Y-52575000D01*
D59*
X163200000Y-58150000D02*
X161800000Y-59550000D01*
D56*
X128975000Y-54409745D02*
X128975000Y-65325000D01*
X139864950Y-69900000D02*
X140500000Y-69900000D01*
X148000000Y-68800000D02*
X145060000Y-68800000D01*
D59*
X161800000Y-59550000D02*
X161800000Y-70704000D01*
D56*
X152000000Y-56500000D02*
X152000000Y-57012500D01*
X149687500Y-59325000D02*
X148500000Y-59325000D01*
X148500000Y-59325000D02*
X149750000Y-60575000D01*
X145060000Y-68800000D02*
X144760000Y-69100000D01*
X132515000Y-52575000D02*
X130809745Y-52575000D01*
D59*
X161800000Y-70704000D02*
X152679000Y-70704000D01*
X152679000Y-70704000D02*
X149750000Y-67775000D01*
D56*
X138750000Y-65525000D02*
X138750000Y-68785050D01*
X132435050Y-68785050D02*
X138750000Y-68785050D01*
X149750000Y-67775000D02*
X148725000Y-68800000D01*
D59*
X163200000Y-58150000D02*
X163095280Y-58150000D01*
D56*
X130809745Y-52575000D02*
X128975000Y-54409745D01*
D59*
X133730000Y-53790000D02*
X133465000Y-53525000D01*
%TO.N,enable*%
D60*
X135432500Y-115624000D02*
X136720000Y-114336500D01*
X136720000Y-114336500D02*
X136720000Y-113324000D01*
%TO.N,Net-(Q8_L1-G)*%
D55*
X187342856Y-66386313D02*
X188553254Y-66386313D01*
X192890000Y-64110159D02*
X192890000Y-64138985D01*
X188553254Y-66386313D02*
X190829408Y-64110159D01*
X190829408Y-64110159D02*
X192890000Y-64110159D01*
%TO.N,Bat_GND*%
D56*
X133607500Y-115624000D02*
X133020000Y-115624000D01*
X133020000Y-115624000D02*
X131820000Y-116824000D01*
%TO.N,B4*%
D55*
X198175000Y-86788899D02*
X198175000Y-88675000D01*
X189004408Y-85402571D02*
X187697429Y-85402571D01*
X187697429Y-85402571D02*
X187300000Y-85800000D01*
X178150000Y-70550000D02*
X178150000Y-66000000D01*
X178200000Y-70600000D02*
X178150000Y-70550000D01*
X198175000Y-88675000D02*
X198200000Y-88700000D01*
%TO.N,Net-(R24-Pad2)*%
D60*
X202960000Y-86134000D02*
X200654899Y-86134000D01*
X200654899Y-86134000D02*
X200000000Y-86788899D01*
%TO.N,Net-(Q10_L1-G)*%
D55*
X192874714Y-53463952D02*
X192890000Y-53479238D01*
X187342856Y-55740106D02*
X188553254Y-55740106D01*
X188553254Y-55740106D02*
X190829408Y-53463952D01*
X190829408Y-53463952D02*
X192874714Y-53463952D01*
%TO.N,B5*%
X188983876Y-80100000D02*
X189004408Y-80079468D01*
X198175000Y-83225000D02*
X198100000Y-83300000D01*
X198175000Y-81500000D02*
X198175000Y-83225000D01*
X178800000Y-69600000D02*
X179300000Y-70100000D01*
X178800000Y-66000000D02*
X178800000Y-69600000D01*
X186942856Y-80100000D02*
X188983876Y-80100000D01*
%TO.N,Net-(Q5_L1-G)*%
X187342856Y-82355622D02*
X188553254Y-82355622D01*
X192840864Y-80079468D02*
X192890000Y-80128604D01*
X190829408Y-80079468D02*
X192840864Y-80079468D01*
X188553254Y-82355622D02*
X190829408Y-80079468D01*
%TO.N,Net-(Q6_L1-G)*%
X192847634Y-74756365D02*
X192890000Y-74798731D01*
X190829408Y-74756365D02*
X192847634Y-74756365D01*
X188553254Y-77032519D02*
X190829408Y-74756365D01*
X187342856Y-77032519D02*
X188553254Y-77032519D01*
%TO.N,+12V*%
D56*
X209316560Y-26612515D02*
X209296974Y-26592929D01*
X212040000Y-74760172D02*
X209381146Y-74760172D01*
X209296974Y-70104000D02*
X209296974Y-74676000D01*
X209720802Y-69680172D02*
X209296974Y-70104000D01*
X201000000Y-115550000D02*
X206313328Y-115550000D01*
X209296974Y-96520000D02*
X209296974Y-101600000D01*
X209296974Y-74676000D02*
X209296974Y-80264000D01*
X212040000Y-58306343D02*
X209410631Y-58306343D01*
X209522974Y-96294000D02*
X209296974Y-96520000D01*
X180790000Y-96750000D02*
X180790000Y-101490000D01*
X209296974Y-80264000D02*
X209296974Y-86360000D01*
X212040000Y-21532515D02*
X210995001Y-21532515D01*
X189000000Y-112050000D02*
X192500000Y-115550000D01*
X151300000Y-98500000D02*
X151500000Y-98700000D01*
X212040000Y-26612515D02*
X209316560Y-26612515D01*
X209608459Y-31692515D02*
X209296974Y-32004000D01*
X209296974Y-58420000D02*
X209296974Y-64516000D01*
X212040000Y-101374000D02*
X209522974Y-101374000D01*
X212040000Y-43066343D02*
X209410631Y-43066343D01*
X175084000Y-97004000D02*
X180180000Y-102100000D01*
X209381146Y-74760172D02*
X209296974Y-74676000D01*
X209522974Y-101374000D02*
X209296974Y-101600000D01*
X209296974Y-48260000D02*
X209296974Y-53340000D01*
X209410631Y-53226343D02*
X209296974Y-53340000D01*
X209720802Y-79840172D02*
X209296974Y-80264000D01*
X209296974Y-101600000D02*
X209296974Y-103107026D01*
X212040000Y-31692515D02*
X209608459Y-31692515D01*
X209296974Y-91440000D02*
X209296974Y-96520000D01*
X180790000Y-101490000D02*
X180180000Y-102100000D01*
X209296974Y-53340000D02*
X209296974Y-58420000D01*
X169850000Y-97004000D02*
X175084000Y-97004000D01*
X209296974Y-23230542D02*
X209296974Y-26592929D01*
X189000000Y-112050000D02*
X180180000Y-103230000D01*
X209296974Y-43180000D02*
X209296974Y-48260000D01*
X209410631Y-58306343D02*
X209296974Y-58420000D01*
X209381146Y-64600172D02*
X209296974Y-64516000D01*
X180180000Y-103230000D02*
X180180000Y-102100000D01*
X210995001Y-21532515D02*
X209296974Y-23230542D01*
X192500000Y-115550000D02*
X201000000Y-115550000D01*
X212040000Y-64600172D02*
X209381146Y-64600172D01*
X209410631Y-48146343D02*
X209296974Y-48260000D01*
X212040000Y-79840172D02*
X209720802Y-79840172D01*
X209522974Y-91214000D02*
X209296974Y-91440000D01*
X209296974Y-37084000D02*
X209296974Y-43180000D01*
X212040000Y-48146343D02*
X209410631Y-48146343D01*
X209296974Y-86360000D02*
X209296974Y-91440000D01*
X209608459Y-36772515D02*
X209296974Y-37084000D01*
X209296974Y-26592929D02*
X209296974Y-32004000D01*
X212040000Y-69680172D02*
X209720802Y-69680172D01*
X212040000Y-96294000D02*
X209522974Y-96294000D01*
X209296974Y-64516000D02*
X209296974Y-70104000D01*
X212040000Y-86134000D02*
X209522974Y-86134000D01*
X212040000Y-36772515D02*
X209608459Y-36772515D01*
X212040000Y-53226343D02*
X209410631Y-53226343D01*
X209790000Y-117050000D02*
X211340000Y-115500000D01*
X207813328Y-117050000D02*
X209790000Y-117050000D01*
X209410631Y-43066343D02*
X209296974Y-43180000D01*
X209296974Y-32004000D02*
X209296974Y-37084000D01*
X212040000Y-91214000D02*
X209522974Y-91214000D01*
X147000000Y-98500000D02*
X151300000Y-98500000D01*
X209522974Y-86134000D02*
X209296974Y-86360000D01*
X206313328Y-115550000D02*
X207813328Y-117050000D01*
%TO.N,Net-(C6-Pad2)*%
X162854000Y-102100000D02*
X167950000Y-97004000D01*
X158160000Y-103800000D02*
X155620000Y-103800000D01*
X159860000Y-102100000D02*
X162854000Y-102100000D01*
X139700000Y-109104000D02*
X144504950Y-109104000D01*
X155620000Y-103800000D02*
X157320000Y-102100000D01*
X159860000Y-102100000D02*
X158160000Y-103800000D01*
X149808950Y-103800000D02*
X144504950Y-109104000D01*
X151400000Y-103800000D02*
X149808950Y-103800000D01*
X151400000Y-103800000D02*
X155620000Y-103800000D01*
%TO.N,Net-(C6-Pad1)*%
X151600000Y-112750000D02*
X151600000Y-109000000D01*
X151400000Y-105700000D02*
X157320000Y-111620000D01*
X159860000Y-117340000D02*
X159860000Y-113840000D01*
X151600000Y-109000000D02*
X151400000Y-108800000D01*
X157320000Y-111620000D02*
X157320000Y-117340000D01*
X142520000Y-116724000D02*
X146494000Y-112750000D01*
X159900000Y-113800000D02*
X157720000Y-111620000D01*
X157720000Y-111620000D02*
X157320000Y-111620000D01*
X159860000Y-113840000D02*
X159900000Y-113800000D01*
X146494000Y-112750000D02*
X151600000Y-112750000D01*
X151400000Y-108800000D02*
X151400000Y-105700000D01*
X139700000Y-116724000D02*
X142520000Y-116724000D01*
%TO.N,Net-(R33-Pad1)*%
D55*
X214675000Y-50384484D02*
X212341859Y-50384484D01*
X212341859Y-50384484D02*
X212040000Y-50686343D01*
%TO.N,Net-(Q11_H1-G)*%
X221596508Y-48243333D02*
X221890000Y-48243333D01*
X216500000Y-49466234D02*
X217874163Y-48092071D01*
X216500000Y-50384484D02*
X219455357Y-50384484D01*
X216500000Y-50384484D02*
X216500000Y-49466234D01*
X219455357Y-50384484D02*
X221596508Y-48243333D01*
%TO.N,Net-(Q14_H1-G)*%
X216500000Y-34415174D02*
X219378667Y-34415174D01*
X221596508Y-32197333D02*
X221890000Y-32197333D01*
X216500000Y-33496924D02*
X217874163Y-32122761D01*
X216500000Y-34415174D02*
X216500000Y-33496924D01*
X219378667Y-34415174D02*
X221596508Y-32197333D01*
%TO.N,Net-(Q15_H1-G)*%
X216500000Y-29092071D02*
X219257548Y-29092071D01*
X216500000Y-28173821D02*
X217874163Y-26799658D01*
X219257548Y-29092071D02*
X221500952Y-26848667D01*
X221500952Y-26848667D02*
X221890000Y-26848667D01*
X216500000Y-29092071D02*
X216500000Y-28173821D01*
%TO.N,Net-(JP9-A)*%
D60*
X164800000Y-41500000D02*
X164800000Y-42787500D01*
X164750000Y-41450000D02*
X164800000Y-41500000D01*
X164800000Y-42787500D02*
X164750000Y-42837500D01*
X164750000Y-40200000D02*
X164750000Y-41450000D01*
%TO.N,Net-(JP8-B)*%
X175550000Y-24477968D02*
X175550000Y-24864214D01*
D59*
X175512500Y-37287500D02*
X175500000Y-37300000D01*
D60*
X180200000Y-28685786D02*
X180200000Y-29200000D01*
X168340000Y-22000000D02*
X169890000Y-20450000D01*
X177461522Y-33300000D02*
X176700000Y-34061522D01*
X176700000Y-35875000D02*
X177050000Y-36225000D01*
X180200000Y-32700000D02*
X179600000Y-33300000D01*
X178014214Y-26500000D02*
X180200000Y-28685786D01*
X177185786Y-26500000D02*
X178014214Y-26500000D01*
X169890000Y-20450000D02*
X171522032Y-20450000D01*
X176700000Y-34061522D02*
X176700000Y-35875000D01*
X180200000Y-29200000D02*
X180200000Y-32700000D01*
D59*
X177100000Y-36225000D02*
X177100000Y-37287500D01*
D60*
X179600000Y-33300000D02*
X177461522Y-33300000D01*
X175550000Y-24864214D02*
X177185786Y-26500000D01*
D59*
X177100000Y-37287500D02*
X175512500Y-37287500D01*
D60*
X171522032Y-20450000D02*
X175550000Y-24477968D01*
%TO.N,+3.3V*%
D56*
X174900000Y-31900000D02*
X174900000Y-30600000D01*
X231000000Y-104150000D02*
X233750000Y-101400000D01*
X231000000Y-104600000D02*
X231000000Y-107600000D01*
X172300000Y-24400000D02*
X171557500Y-23657500D01*
D62*
X174900000Y-31900000D02*
X174550000Y-32250000D01*
D56*
X227600000Y-108000000D02*
X231000000Y-104600000D01*
X171557500Y-23657500D02*
X170880000Y-23657500D01*
X172290000Y-25787500D02*
X172290000Y-24410000D01*
X168750000Y-25787500D02*
X170880000Y-23657500D01*
X170880000Y-23657500D02*
X170880000Y-22000000D01*
X174900000Y-30600000D02*
X176700000Y-28800000D01*
X223500000Y-108000000D02*
X227600000Y-108000000D01*
D62*
X174550000Y-32250000D02*
X171050000Y-32250000D01*
D56*
X172290000Y-24410000D02*
X172300000Y-24400000D01*
X231000000Y-109600000D02*
X231000000Y-110900000D01*
X231000000Y-104600000D02*
X231000000Y-102900000D01*
X231000000Y-102900000D02*
X229500000Y-101400000D01*
X231000000Y-107600000D02*
X231000000Y-109600000D01*
X231000000Y-104600000D02*
X231000000Y-104150000D01*
%TO.N,Net-(Q1-G)*%
D60*
X156412500Y-79050000D02*
X158762500Y-79050000D01*
X158762500Y-79050000D02*
X158812500Y-79100000D01*
%TO.N,Cell1*%
D58*
X193975000Y-98223223D02*
X191049569Y-98223223D01*
X223300000Y-101730000D02*
X223950000Y-101730000D01*
X225620000Y-100060000D02*
X225620000Y-99152963D01*
X233500000Y-91272963D02*
X233500000Y-86100000D01*
X233394714Y-86100000D02*
X231048914Y-83754200D01*
X223950000Y-101730000D02*
X225620000Y-100060000D01*
X233500000Y-86100000D02*
X233394714Y-86100000D01*
X223300000Y-101730000D02*
X223110000Y-101730000D01*
X225620000Y-99152963D02*
X233500000Y-91272963D01*
X191049569Y-98223223D02*
X190938173Y-98111827D01*
%TO.N,Net-(Q1_H1-G)*%
D55*
X220026508Y-103300000D02*
X221596508Y-101730000D01*
X216377951Y-103300000D02*
X220026508Y-103300000D01*
X221596508Y-101730000D02*
X221890000Y-101730000D01*
X216377951Y-102497049D02*
X217675000Y-101200000D01*
X216377951Y-103300000D02*
X216377951Y-102497049D01*
%TO.N,Net-(Q6_H1-G)*%
X218424163Y-73457587D02*
X220360920Y-73457587D01*
X216500000Y-77000000D02*
X216500000Y-76081750D01*
X217874163Y-74707587D02*
X217874163Y-74007587D01*
X217874163Y-74007587D02*
X218424163Y-73457587D01*
X220360920Y-73457587D02*
X221890000Y-74986667D01*
X216500000Y-76081750D02*
X217874163Y-74707587D01*
%TO.N,Net-(R42-Pad1)*%
X212581587Y-98292413D02*
X212040000Y-98834000D01*
X214552951Y-98292413D02*
X212581587Y-98292413D01*
%TO.N,Net-(Q2_H1-G)*%
X217675000Y-96025798D02*
X218899202Y-97250000D01*
X216377951Y-97297049D02*
X217675000Y-96000000D01*
X217675000Y-96000000D02*
X217675000Y-96025798D01*
X220727841Y-97250000D02*
X221596508Y-96381333D01*
X216377951Y-98292413D02*
X216377951Y-97297049D01*
X221596508Y-96381333D02*
X221890000Y-96381333D01*
X218899202Y-97250000D02*
X220727841Y-97250000D01*
%TO.N,Net-(R37-Pad1)*%
X214675000Y-71676897D02*
X212583275Y-71676897D01*
X212583275Y-71676897D02*
X212040000Y-72220172D01*
X214639725Y-71712172D02*
X214675000Y-71676897D01*
%TO.N,Net-(Q7_H1-G)*%
X218126342Y-69636663D02*
X217874163Y-69384484D01*
X219557611Y-71676897D02*
X221596508Y-69638000D01*
X218126342Y-70050555D02*
X218126342Y-69636663D01*
X221596508Y-69638000D02*
X221890000Y-69638000D01*
X216500000Y-71676897D02*
X218126342Y-70050555D01*
X216500000Y-71676897D02*
X219557611Y-71676897D01*
%TO.N,SCL5*%
X175125000Y-53275000D02*
X176000000Y-52400000D01*
X174440000Y-53435000D02*
X174600000Y-53275000D01*
X171914600Y-53435000D02*
X174440000Y-53435000D01*
X174600000Y-53275000D02*
X175125000Y-53275000D01*
X175550000Y-59000000D02*
X175550000Y-57475000D01*
X175550000Y-57475000D02*
X175100000Y-57025000D01*
%TO.N,Net-(R43-Pad1)*%
X214552951Y-103300000D02*
X212654000Y-103300000D01*
X212654000Y-103300000D02*
X212040000Y-103914000D01*
%TO.N,Cell13*%
D56*
X193975000Y-34264746D02*
X191264746Y-34264746D01*
X191264746Y-34264746D02*
X191100000Y-34100000D01*
D58*
X223300000Y-37546000D02*
X223950000Y-37546000D01*
X223110000Y-37601000D02*
X223110000Y-37546000D01*
X228279948Y-37546000D02*
X231048914Y-34777034D01*
X223950000Y-37546000D02*
X228279948Y-37546000D01*
X223245000Y-37601000D02*
X223110000Y-37601000D01*
X223300000Y-37546000D02*
X223245000Y-37601000D01*
%TO.N,I_Bal_Soll*%
X144325000Y-90000000D02*
X146500000Y-90000000D01*
X146500000Y-90000000D02*
X147900000Y-88600000D01*
D59*
X179000000Y-36225000D02*
X179400003Y-35824997D01*
X179400003Y-35824997D02*
X179400003Y-34600000D01*
%TO.N,Net-(JP8-C)*%
D60*
X181854134Y-43154134D02*
X182207892Y-43154134D01*
X179000000Y-39946242D02*
X182207892Y-43154134D01*
X179000000Y-38500000D02*
X179000000Y-39946242D01*
%TO.N,B7*%
D55*
X180100000Y-66000000D02*
X180100000Y-67600000D01*
X197900000Y-71197202D02*
X198175000Y-70922202D01*
X180100000Y-67600000D02*
X181300000Y-68800000D01*
X189004408Y-69433262D02*
X187666738Y-69433262D01*
X187666738Y-69433262D02*
X187000000Y-70100000D01*
X197900000Y-73200000D02*
X197900000Y-71197202D01*
%TO.N,Net-(R21-Pad2)*%
D60*
X201242030Y-69680172D02*
X202960000Y-69680172D01*
X200000000Y-70922202D02*
X201242030Y-69680172D01*
%TO.N,Net-(Q3_H1-G)*%
D55*
X217874163Y-90651099D02*
X219098365Y-89426897D01*
X216426730Y-92124330D02*
X217874163Y-90676897D01*
X216426730Y-92969310D02*
X216426730Y-92124330D01*
X221890000Y-90922667D02*
X221890000Y-91032667D01*
X220394230Y-89426897D02*
X221890000Y-90922667D01*
X217874163Y-90676897D02*
X217874163Y-90651099D01*
X219098365Y-89426897D02*
X220394230Y-89426897D01*
%TO.N,Net-(J23-Pin_1)*%
X160100000Y-74300000D02*
X159600000Y-73800000D01*
X164175000Y-74300000D02*
X160100000Y-74300000D01*
X163100000Y-80000000D02*
X164100000Y-79000000D01*
X164100000Y-74375000D02*
X164175000Y-74300000D01*
X164100000Y-79000000D02*
X164100000Y-74375000D01*
X160687500Y-80050000D02*
X162650000Y-80050000D01*
X162700000Y-80000000D02*
X163100000Y-80000000D01*
X162650000Y-80050000D02*
X162700000Y-80000000D01*
%TO.N,Net-(Q16_H1-G)*%
X216500000Y-23768968D02*
X219257548Y-23768968D01*
X216500000Y-23768968D02*
X216500000Y-22850718D01*
X216500000Y-22850718D02*
X217874163Y-21476555D01*
X221526516Y-21500000D02*
X221890000Y-21500000D01*
X219257548Y-23768968D02*
X221526516Y-21500000D01*
%TO.N,Net-(Q7_L1-G)*%
X187342856Y-71709416D02*
X188553254Y-71709416D01*
X188553254Y-71709416D02*
X190829408Y-69433262D01*
X192890000Y-69433262D02*
X192890000Y-69468858D01*
X190829408Y-69433262D02*
X192890000Y-69433262D01*
%TO.N,Net-(Q5_H1-G)*%
X221596508Y-80335333D02*
X221890000Y-80335333D01*
X216500000Y-82323103D02*
X216500000Y-81404853D01*
X216500000Y-82323103D02*
X219608738Y-82323103D01*
X216500000Y-81404853D02*
X217874163Y-80030690D01*
X219608738Y-82323103D02*
X221596508Y-80335333D01*
%TO.N,Cell3*%
D58*
X228600000Y-77458823D02*
X231048914Y-75009909D01*
X227548914Y-87433753D02*
X227548914Y-80448914D01*
D56*
X190763477Y-87563477D02*
X190700000Y-87500000D01*
D58*
X223300000Y-91032667D02*
X223132667Y-91032667D01*
X227548914Y-80448914D02*
X227897828Y-80100000D01*
X223300000Y-91032667D02*
X223950000Y-91032667D01*
X223950000Y-91032667D02*
X227548914Y-87433753D01*
D56*
X193975000Y-87563477D02*
X190763477Y-87563477D01*
D58*
X223132667Y-91032667D02*
X223110000Y-91010000D01*
X227897828Y-80100000D02*
X228600000Y-80100000D01*
X228600000Y-80100000D02*
X228600000Y-77458823D01*
X223110000Y-91010000D02*
X223110000Y-91032667D01*
%TO.N,B8*%
D55*
X198175000Y-67225000D02*
X197700000Y-67700000D01*
X187589841Y-64110159D02*
X187200000Y-64500000D01*
X189004408Y-64110159D02*
X187589841Y-64110159D01*
X180750000Y-66000000D02*
X180750000Y-66949999D01*
X180750000Y-66949999D02*
X182000001Y-68200000D01*
X198175000Y-65633303D02*
X198175000Y-67225000D01*
X182000001Y-68200000D02*
X182600000Y-68200000D01*
%TO.N,B11*%
X198175000Y-51925000D02*
X198100000Y-52000000D01*
X188945257Y-48200000D02*
X189004408Y-48140849D01*
X198175000Y-49766606D02*
X198175000Y-51925000D01*
X180100000Y-59000000D02*
X180100000Y-63000000D01*
X187200000Y-48200000D02*
X188945257Y-48200000D01*
X180100000Y-63000000D02*
X180500000Y-63400000D01*
%TO.N,Net-(Q11_L1-G)*%
X188553254Y-50417003D02*
X190829408Y-48140849D01*
X192881484Y-48140849D02*
X192890000Y-48149365D01*
X190829408Y-48140849D02*
X192881484Y-48140849D01*
X187342856Y-50417003D02*
X188553254Y-50417003D01*
%TO.N,B14*%
X178150000Y-58050001D02*
X179400001Y-56800000D01*
X198175000Y-33899909D02*
X198175000Y-35855761D01*
X198175000Y-35855761D02*
X198030761Y-36000000D01*
X179400001Y-56800000D02*
X181300000Y-56800000D01*
X187100000Y-32500000D02*
X188675947Y-32500000D01*
X178150000Y-59000000D02*
X178150000Y-58050001D01*
X188675947Y-32500000D02*
X189004408Y-32171539D01*
%TO.N,Net-(Q14_L1-G)*%
X190829408Y-32171539D02*
X192878207Y-32171539D01*
X188553254Y-34447693D02*
X190829408Y-32171539D01*
X187342856Y-34447693D02*
X188553254Y-34447693D01*
X192878207Y-32171539D02*
X192890000Y-32159746D01*
%TO.N,Net-(Q12_H1-G)*%
X221596508Y-42894667D02*
X221890000Y-42894667D01*
X219429794Y-45061381D02*
X221596508Y-42894667D01*
X216500000Y-45061381D02*
X219429794Y-45061381D01*
X216500000Y-44143131D02*
X217874163Y-42768968D01*
X216500000Y-45061381D02*
X216500000Y-44143131D01*
%TO.N,Cell10*%
D58*
X224478240Y-53592000D02*
X231048914Y-47021326D01*
D56*
X193975000Y-50254365D02*
X190945635Y-50254365D01*
D58*
X223300000Y-53592000D02*
X223950000Y-53592000D01*
X223110000Y-53510000D02*
X223110000Y-53592000D01*
D56*
X190945635Y-50254365D02*
X190900000Y-50300000D01*
D58*
X223192000Y-53592000D02*
X223110000Y-53510000D01*
X223950000Y-53592000D02*
X224478240Y-53592000D01*
X223300000Y-53592000D02*
X223192000Y-53592000D01*
%TO.N,Net-(Q10_H1-G)*%
D55*
X216500000Y-55707587D02*
X216500000Y-54789337D01*
X216500000Y-55707587D02*
X219480921Y-55707587D01*
X221596508Y-53592000D02*
X221890000Y-53592000D01*
X216500000Y-54789337D02*
X217874163Y-53415174D01*
X219480921Y-55707587D02*
X221596508Y-53592000D01*
%TO.N,Net-(Q13_L1-G)*%
X190829408Y-37494643D02*
X192890000Y-37494643D01*
X188553254Y-39770797D02*
X190829408Y-37494643D01*
X192890000Y-37494643D02*
X192890000Y-37489619D01*
X187342856Y-39770797D02*
X188553254Y-39770797D01*
%TO.N,Net-(R35-Pad1)*%
X214675000Y-61030690D02*
X212224347Y-61030690D01*
X212224347Y-61030690D02*
X212040000Y-60846343D01*
%TO.N,B15*%
X177500000Y-58050001D02*
X179600001Y-55950000D01*
X179600001Y-55950000D02*
X180450000Y-55950000D01*
X188852844Y-27000000D02*
X189004408Y-26848436D01*
X198175000Y-28611010D02*
X198175000Y-30425000D01*
X177500000Y-59000000D02*
X177500000Y-58050001D01*
X198175000Y-30425000D02*
X198100000Y-30500000D01*
X187100000Y-27000000D02*
X188852844Y-27000000D01*
%TO.N,Net-(Q15_L1-G)*%
X187342856Y-29124590D02*
X188553254Y-29124590D01*
X192871437Y-26848436D02*
X192890000Y-26829873D01*
X190829408Y-26848436D02*
X192871437Y-26848436D01*
X188553254Y-29124590D02*
X190829408Y-26848436D01*
%TO.N,SDA5*%
X174110000Y-52165000D02*
X171914600Y-52165000D01*
X175975000Y-50275000D02*
X174250000Y-48550000D01*
D61*
X174900000Y-58100000D02*
X174304074Y-57504074D01*
D55*
X174250000Y-48550000D02*
X174250000Y-47749624D01*
D61*
X174900000Y-59000000D02*
X174900000Y-58100000D01*
D55*
X175951983Y-42382521D02*
X175742479Y-42382521D01*
X175975000Y-50300000D02*
X175975000Y-50275000D01*
X174100000Y-48425000D02*
X175975000Y-50300000D01*
X175975000Y-50300000D02*
X174110000Y-52165000D01*
X172750000Y-43430000D02*
X173345000Y-44025000D01*
X172750000Y-38750000D02*
X172750000Y-43430000D01*
X174100000Y-44025000D02*
X174100000Y-48425000D01*
X173345000Y-44025000D02*
X174100000Y-44025000D01*
D61*
X174304074Y-57504074D02*
X173904074Y-57504074D01*
D55*
X175742479Y-42382521D02*
X174100000Y-44025000D01*
X174250000Y-47749624D02*
X173997589Y-47497213D01*
%TO.N,Net-(R28-Pad1)*%
X212343547Y-23768968D02*
X212040000Y-24072515D01*
X214675000Y-23768968D02*
X212343547Y-23768968D01*
%TO.N,Net-(J2-SHIELD)*%
D56*
X131645000Y-44587500D02*
X131645000Y-26062500D01*
X140560000Y-29785000D02*
X140800000Y-29545000D01*
X134877500Y-22830000D02*
X134877500Y-28365000D01*
X140800000Y-32000000D02*
X140800000Y-29512500D01*
X136297500Y-29785000D02*
X140560000Y-29785000D01*
X131645000Y-26062500D02*
X134877500Y-22830000D01*
X140800000Y-29545000D02*
X140800000Y-29512500D01*
X134877500Y-28365000D02*
X136297500Y-29785000D01*
X134877500Y-47820000D02*
X131645000Y-44587500D01*
%TO.N,Net-(Q3_L1-G)*%
D55*
X192890000Y-90725675D02*
X192890000Y-90788350D01*
X187342856Y-93001829D02*
X188553254Y-93001829D01*
X188553254Y-93001829D02*
X190829408Y-90725675D01*
X190829408Y-90725675D02*
X192890000Y-90725675D01*
%TO.N,Cell2*%
D58*
X231100000Y-81200000D02*
X231048914Y-81148914D01*
X230069840Y-81200000D02*
X231100000Y-81200000D01*
X223118667Y-96381333D02*
X223110000Y-96390000D01*
X228948914Y-91382419D02*
X228948914Y-82320926D01*
D56*
X191093350Y-92893350D02*
X190900000Y-92700000D01*
D58*
X223950000Y-96381333D02*
X228948914Y-91382419D01*
X223300000Y-96381333D02*
X223950000Y-96381333D01*
X223110000Y-96390000D02*
X223110000Y-96381333D01*
X228948914Y-82320926D02*
X230069840Y-81200000D01*
X223300000Y-96381333D02*
X223118667Y-96381333D01*
D56*
X193975000Y-92893350D02*
X191093350Y-92893350D01*
D58*
X231048914Y-81148914D02*
X231048914Y-78509909D01*
%TO.N,B16*%
D55*
X176850000Y-57158148D02*
X177460910Y-56547238D01*
X176850000Y-59000000D02*
X176850000Y-57158148D01*
X198175000Y-23322111D02*
X198175000Y-25225000D01*
X198175000Y-25225000D02*
X198100000Y-25300000D01*
X186935827Y-21876489D02*
X188653252Y-21876489D01*
X188653252Y-21876489D02*
X189004408Y-21525333D01*
%TO.N,Net-(R12-Pad2)*%
D59*
X200000000Y-23322111D02*
X201789596Y-21532515D01*
X201789596Y-21532515D02*
X202960000Y-21532515D01*
%TO.N,Net-(R26-Pad2)*%
D60*
X201072697Y-96294000D02*
X200000000Y-97366697D01*
X202960000Y-96294000D02*
X201072697Y-96294000D01*
%TO.N,Net-(R23-Pad2)*%
X200000000Y-81500000D02*
X201659828Y-79840172D01*
X201659828Y-79840172D02*
X202960000Y-79840172D01*
X202167828Y-79332172D02*
X202960000Y-79332172D01*
%TO.N,Cell14*%
D58*
X223247667Y-32252333D02*
X223152333Y-32252333D01*
X223300000Y-32197333D02*
X223300000Y-32200000D01*
X223950000Y-32197333D02*
X228384324Y-32197333D01*
X223152333Y-32252333D02*
X223110000Y-32210000D01*
D56*
X193975000Y-28934873D02*
X190934873Y-28934873D01*
D58*
X223947333Y-32200000D02*
X223950000Y-32197333D01*
X228384324Y-32197333D02*
X231048914Y-29532743D01*
X223110000Y-32210000D02*
X223110000Y-32200000D01*
D56*
X190934873Y-28934873D02*
X190900000Y-28900000D01*
D58*
X223110000Y-32200000D02*
X223947333Y-32200000D01*
X223300000Y-32200000D02*
X223247667Y-32252333D01*
%TO.N,Net-(R17-Pad2)*%
D60*
X201620263Y-48146343D02*
X202960000Y-48146343D01*
X200000000Y-49766606D02*
X201620263Y-48146343D01*
%TO.N,Net-(R41-Pad1)*%
D55*
X212824690Y-92969310D02*
X212040000Y-93754000D01*
X214601730Y-92969310D02*
X212824690Y-92969310D01*
%TO.N,Net-(R40-Pad1)*%
X214650509Y-87646206D02*
X213067794Y-87646206D01*
X213067794Y-87646206D02*
X212040000Y-88674000D01*
%TO.N,Net-(Q4_H1-G)*%
X217874163Y-85353793D02*
X217874163Y-86053793D01*
X217874163Y-86053793D02*
X218820370Y-87000000D01*
X216475509Y-87646206D02*
X216475509Y-86752447D01*
X221596508Y-85684000D02*
X221890000Y-85684000D01*
X216475509Y-86752447D02*
X217874163Y-85353793D01*
X218820370Y-87000000D02*
X220280508Y-87000000D01*
X220280508Y-87000000D02*
X221596508Y-85684000D01*
%TO.N,Net-(R25-Pad2)*%
D60*
X200000000Y-92077798D02*
X202096202Y-92077798D01*
X202096202Y-92077798D02*
X202960000Y-91214000D01*
%TO.N,B6*%
D55*
X180300000Y-69500000D02*
X179450000Y-68650000D01*
X187643635Y-74756365D02*
X187200000Y-75200000D01*
X179450000Y-68650000D02*
X179450000Y-66000000D01*
X198175000Y-76211101D02*
X198175000Y-75025000D01*
X189004408Y-74756365D02*
X187643635Y-74756365D01*
X198175000Y-75025000D02*
X200000000Y-73200000D01*
%TO.N,CANL*%
X133730000Y-64470000D02*
X132800000Y-65400000D01*
X133730000Y-63000000D02*
X133730000Y-64470000D01*
X140500000Y-47500000D02*
X140400000Y-47600000D01*
X139580500Y-45616500D02*
X140500000Y-45616500D01*
X138160000Y-39957500D02*
X138160000Y-44196000D01*
X140500000Y-45616500D02*
X140500000Y-47500000D01*
X138160000Y-44196000D02*
X139580500Y-45616500D01*
X136297500Y-38095000D02*
X138160000Y-39957500D01*
X133730000Y-61000000D02*
X133730000Y-63000000D01*
%TO.N,Net-(JP1-A)*%
D60*
X140786972Y-43504528D02*
X140500000Y-43791500D01*
X140786972Y-40203866D02*
X140786972Y-43504528D01*
%TO.N,Net-(R38-Pad1)*%
D55*
X212340172Y-77000000D02*
X212040000Y-77300172D01*
X214467172Y-76792172D02*
X214675000Y-77000000D01*
X214675000Y-77000000D02*
X212340172Y-77000000D01*
%TO.N,CANH*%
X135000000Y-63000000D02*
X135000000Y-65060000D01*
X135000000Y-61000000D02*
X135000000Y-63000000D01*
X135000000Y-65060000D02*
X135340000Y-65400000D01*
%TO.N,Net-(JP2-B)*%
D61*
X169146682Y-31250000D02*
X168250000Y-31250000D01*
X169830000Y-33290000D02*
X169830000Y-31933318D01*
X172750000Y-36210000D02*
X169830000Y-33290000D01*
X169830000Y-31933318D02*
X169146682Y-31250000D01*
%TO.N,Net-(Q4_L1-G)*%
D55*
X190829408Y-85402571D02*
X192890000Y-85402571D01*
X192890000Y-85402571D02*
X192890000Y-85458477D01*
X190829408Y-85708892D02*
X190829408Y-85402571D01*
X188859575Y-87678725D02*
X190829408Y-85708892D01*
X187342856Y-87678725D02*
X188859575Y-87678725D01*
%TO.N,Cell16*%
D58*
X223300000Y-21500000D02*
X223950000Y-21500000D01*
X230016171Y-21500000D02*
X231048914Y-22532743D01*
X223950000Y-21500000D02*
X230016171Y-21500000D01*
X223300000Y-21500000D02*
X223110000Y-21500000D01*
%TO.N,Cell15*%
X223110000Y-26890000D02*
X223110000Y-26848667D01*
X223110000Y-26890000D02*
X223908667Y-26890000D01*
X223151333Y-26848667D02*
X223110000Y-26890000D01*
X223300000Y-26848667D02*
X223151333Y-26848667D01*
X224765924Y-26032743D02*
X231048914Y-26032743D01*
D56*
X193975000Y-23605000D02*
X191105000Y-23605000D01*
D58*
X223908667Y-26890000D02*
X223950000Y-26848667D01*
D56*
X191105000Y-23605000D02*
X191100000Y-23600000D01*
D58*
X223908667Y-26890000D02*
X224765924Y-26032743D01*
%TO.N,Net-(U15-VIN)*%
D56*
X147000000Y-93800000D02*
X147800000Y-94600000D01*
X146000000Y-94800000D02*
X147000000Y-93800000D01*
X168500000Y-84000000D02*
X168500000Y-81400000D01*
X168725000Y-88497362D02*
X168725000Y-84225000D01*
X138200000Y-94800000D02*
X146000000Y-94800000D01*
X147800000Y-94600000D02*
X162622362Y-94600000D01*
X162622362Y-94600000D02*
X168725000Y-88497362D01*
X168725000Y-84225000D02*
X168500000Y-84000000D01*
%TO.N,Net-(R30-Pad1)*%
D55*
X214675000Y-34415174D02*
X212222659Y-34415174D01*
X212222659Y-34415174D02*
X212040000Y-34232515D01*
%TO.N,B3*%
X177500000Y-66000000D02*
X177500000Y-69372676D01*
X198175000Y-92077798D02*
X198175000Y-93975000D01*
X177500000Y-69372676D02*
X177031560Y-69841116D01*
X186942856Y-90700000D02*
X188978733Y-90700000D01*
X198175000Y-93975000D02*
X198200000Y-94000000D01*
X188978733Y-90700000D02*
X189004408Y-90725675D01*
%TO.N,Net-(R32-Pad1)*%
X212584962Y-45061381D02*
X212040000Y-45606343D01*
X214675000Y-45061381D02*
X212584962Y-45061381D01*
%TO.N,Net-(R14-Pad2)*%
D60*
X202207394Y-31692515D02*
X202960000Y-31692515D01*
X200000000Y-33899909D02*
X202207394Y-31692515D01*
%TO.N,Net-(R39-Pad1)*%
D55*
X214675000Y-82323103D02*
X212097069Y-82323103D01*
X212097069Y-82323103D02*
X212040000Y-82380172D01*
%TO.N,Net-(U6-EN)*%
D61*
X168250000Y-32750000D02*
X167162500Y-32750000D01*
D62*
X168250000Y-32250000D02*
X168250000Y-32750000D01*
D61*
X167162500Y-32750000D02*
X164750000Y-35162500D01*
D62*
X165000000Y-30350000D02*
X166900000Y-32250000D01*
X166900000Y-32250000D02*
X168250000Y-32250000D01*
%TO.N,Net-(Q1_L1-G)*%
D55*
X190829408Y-101371881D02*
X192813785Y-101371881D01*
X187742856Y-103648035D02*
X188553254Y-103648035D01*
X188553254Y-103648035D02*
X190829408Y-101371881D01*
X192813785Y-101371881D02*
X192890000Y-101448096D01*
%TO.N,Cell0*%
D58*
X193975000Y-103553096D02*
X191053096Y-103553096D01*
X191053096Y-103553096D02*
X190900000Y-103400000D01*
%TO.N,B9*%
D55*
X198175000Y-62155761D02*
X198030761Y-62300000D01*
X181400000Y-61700000D02*
X183900000Y-64200000D01*
X188691463Y-59100000D02*
X189004408Y-58787055D01*
X198175000Y-60344404D02*
X198175000Y-62155761D01*
X181400000Y-59000000D02*
X181400000Y-61700000D01*
X187000000Y-59100000D02*
X188691463Y-59100000D01*
%TO.N,Net-(R19-Pad2)*%
D60*
X202038061Y-58306343D02*
X202960000Y-58306343D01*
X200000000Y-60344404D02*
X202038061Y-58306343D01*
%TO.N,Net-(R34-Pad1)*%
D55*
X214675000Y-55707587D02*
X212098756Y-55707587D01*
X212098756Y-55707587D02*
X212040000Y-55766343D01*
%TO.N,Net-(R16-Pad2)*%
D60*
X200000000Y-44477707D02*
X201411364Y-43066343D01*
X201411364Y-43066343D02*
X202960000Y-43066343D01*
%TO.N,Net-(Q16_L1-G)*%
D55*
X190829408Y-21525333D02*
X192864667Y-21525333D01*
X187342856Y-23801487D02*
X188553254Y-23801487D01*
X192864667Y-21525333D02*
X192890000Y-21500000D01*
X188553254Y-23801487D02*
X190829408Y-21525333D01*
%TO.N,Net-(JP3-B)*%
D61*
X169450000Y-32090720D02*
X169109280Y-31750000D01*
X169450000Y-35861713D02*
X169075651Y-36236062D01*
X169450000Y-32090720D02*
X169450000Y-35861713D01*
X169109280Y-31750000D02*
X168250000Y-31750000D01*
%TO.N,B12*%
D55*
X198175000Y-44477707D02*
X198175000Y-46325000D01*
X179450000Y-59000000D02*
X179450000Y-61870000D01*
X198175000Y-46325000D02*
X198100000Y-46400000D01*
X188722154Y-43100000D02*
X189004408Y-42817746D01*
X186942856Y-43100000D02*
X188722154Y-43100000D01*
X179450000Y-61870000D02*
X179420000Y-61900000D01*
%TO.N,Cell4*%
D58*
X223300000Y-85684000D02*
X223116000Y-85684000D01*
X227200000Y-76000140D02*
X229204918Y-73995222D01*
X229204918Y-73995222D02*
X229204918Y-73353905D01*
X225700000Y-84354200D02*
X225700000Y-80317930D01*
X223300000Y-85684000D02*
X223950000Y-85684000D01*
X223110000Y-85690000D02*
X223110000Y-85684000D01*
D56*
X190933604Y-82233604D02*
X190900000Y-82200000D01*
D58*
X223116000Y-85684000D02*
X223110000Y-85690000D01*
X227200000Y-78817930D02*
X227200000Y-76000140D01*
D56*
X193975000Y-82233604D02*
X190933604Y-82233604D01*
D58*
X225700000Y-80317930D02*
X227200000Y-78817930D01*
X224370200Y-85684000D02*
X225700000Y-84354200D01*
X223950000Y-85684000D02*
X224370200Y-85684000D01*
X229204918Y-73353905D02*
X231048914Y-71509909D01*
%TO.N,Net-(R20-Pad2)*%
D60*
X201926869Y-65633303D02*
X202960000Y-64600172D01*
X200000000Y-65633303D02*
X201926869Y-65633303D01*
%TO.N,Net-(R36-Pad1)*%
D55*
X214396622Y-66632172D02*
X214675000Y-66353794D01*
X212826378Y-66353794D02*
X212040000Y-67140172D01*
X214675000Y-66353794D02*
X212826378Y-66353794D01*
%TO.N,Net-(R13-Pad2)*%
D60*
X200000000Y-28611010D02*
X201998495Y-26612515D01*
X201998495Y-26612515D02*
X202960000Y-26612515D01*
%TO.N,Net-(R15-Pad2)*%
X202416293Y-36772515D02*
X202960000Y-36772515D01*
X200000000Y-39188808D02*
X202416293Y-36772515D01*
%TO.N,Net-(R29-Pad1)*%
D55*
X212100444Y-29092071D02*
X212040000Y-29152515D01*
X214675000Y-29092071D02*
X212100444Y-29092071D01*
%TO.N,Cell12*%
D58*
X226431281Y-42894667D02*
X231048914Y-38277034D01*
X223950000Y-42894667D02*
X226431281Y-42894667D01*
X223300000Y-42900000D02*
X223944667Y-42900000D01*
X223944667Y-42900000D02*
X223950000Y-42894667D01*
X223110000Y-42949667D02*
X223110000Y-42894667D01*
X223250333Y-42949667D02*
X223110000Y-42949667D01*
D56*
X191094619Y-39594619D02*
X191000000Y-39500000D01*
X193975000Y-39594619D02*
X191094619Y-39594619D01*
D58*
X223300000Y-42894667D02*
X223300000Y-42900000D01*
X223300000Y-42900000D02*
X223250333Y-42949667D01*
%TO.N,Net-(R22-Pad2)*%
D60*
X201450929Y-74760172D02*
X202960000Y-74760172D01*
X200000000Y-76211101D02*
X201450929Y-74760172D01*
%TO.N,Net-(JP5-C)*%
D61*
X175550000Y-66000000D02*
X175550000Y-66949999D01*
X169160000Y-71700000D02*
X167210000Y-69750000D01*
X170799999Y-71700000D02*
X169160000Y-71700000D01*
X175550000Y-66949999D02*
X170799999Y-71700000D01*
%TO.N,Net-(JP4-C)*%
X174900000Y-66804818D02*
X174499818Y-67205000D01*
X171005000Y-67205000D02*
X167200000Y-63400000D01*
X174499818Y-67205000D02*
X171005000Y-67205000D01*
X174900000Y-66000000D02*
X174900000Y-66804818D01*
%TO.N,B13*%
D55*
X198175000Y-39188808D02*
X198175000Y-40955761D01*
X186942856Y-37700000D02*
X188799051Y-37700000D01*
X178800000Y-59000000D02*
X178800000Y-60800000D01*
X178800000Y-60800000D02*
X178600000Y-61000000D01*
X188799051Y-37700000D02*
X189004408Y-37494643D01*
X198175000Y-40955761D02*
X198030761Y-41100000D01*
%TO.N,Net-(D1-K)*%
D56*
X161900000Y-92600000D02*
X166800000Y-87700000D01*
D58*
X177500000Y-89200000D02*
X176000000Y-87700000D01*
X177500000Y-92250000D02*
X177500000Y-89200000D01*
D56*
X157400000Y-92600000D02*
X161900000Y-92600000D01*
%TD*%
M02*
