%TF.GenerationSoftware,KiCad,Pcbnew,10.0.0*%
%TF.CreationDate,2026-06-26T16:48:33+02:00*%
%TF.ProjectId,Aktive_Bal,416b7469-7665-45f4-9261-6c2e6b696361,rev?*%
%TF.SameCoordinates,Original*%
%TF.FileFunction,Paste,Top*%
%TF.FilePolarity,Positive*%
%FSLAX46Y46*%
G04 Gerber Fmt 4.6, Leading zero omitted, Abs format (unit mm)*
G04 Created by KiCad (PCBNEW 10.0.0) date 2026-06-26 16:48:33*
%MOMM*%
%LPD*%
G01*
G04 APERTURE LIST*
G04 Aperture macros list*
%AMRoundRect*
0 Rectangle with rounded corners*
0 $1 Rounding radius*
0 $2 $3 $4 $5 $6 $7 $8 $9 X,Y pos of 4 corners*
0 Add a 4 corners polygon primitive as box body*
4,1,4,$2,$3,$4,$5,$6,$7,$8,$9,$2,$3,0*
0 Add four circle primitives for the rounded corners*
1,1,$1+$1,$2,$3*
1,1,$1+$1,$4,$5*
1,1,$1+$1,$6,$7*
1,1,$1+$1,$8,$9*
0 Add four rect primitives between the rounded corners*
20,1,$1+$1,$2,$3,$4,$5,0*
20,1,$1+$1,$4,$5,$6,$7,0*
20,1,$1+$1,$6,$7,$8,$9,0*
20,1,$1+$1,$8,$9,$2,$3,0*%
G04 Aperture macros list end*
%ADD10C,0.010000*%
%ADD11RoundRect,0.250000X-0.450000X0.262500X-0.450000X-0.262500X0.450000X-0.262500X0.450000X0.262500X0*%
%ADD12RoundRect,0.250000X0.450000X-0.262500X0.450000X0.262500X-0.450000X0.262500X-0.450000X-0.262500X0*%
%ADD13RoundRect,0.250000X0.262500X0.450000X-0.262500X0.450000X-0.262500X-0.450000X0.262500X-0.450000X0*%
%ADD14RoundRect,0.250000X0.250000X0.475000X-0.250000X0.475000X-0.250000X-0.475000X0.250000X-0.475000X0*%
%ADD15RoundRect,0.250000X-0.262500X-0.450000X0.262500X-0.450000X0.262500X0.450000X-0.262500X0.450000X0*%
%ADD16RoundRect,0.150000X0.150000X-0.825000X0.150000X0.825000X-0.150000X0.825000X-0.150000X-0.825000X0*%
%ADD17RoundRect,0.250000X-0.475000X0.250000X-0.475000X-0.250000X0.475000X-0.250000X0.475000X0.250000X0*%
%ADD18RoundRect,0.250000X0.475000X-0.250000X0.475000X0.250000X-0.475000X0.250000X-0.475000X-0.250000X0*%
%ADD19RoundRect,0.150000X-0.150000X0.512500X-0.150000X-0.512500X0.150000X-0.512500X0.150000X0.512500X0*%
%ADD20RoundRect,0.250000X-0.250000X-0.475000X0.250000X-0.475000X0.250000X0.475000X-0.250000X0.475000X0*%
%ADD21RoundRect,0.250000X-0.550000X1.500000X-0.550000X-1.500000X0.550000X-1.500000X0.550000X1.500000X0*%
%ADD22RoundRect,0.173750X-0.871250X-0.521250X0.871250X-0.521250X0.871250X0.521250X-0.871250X0.521250X0*%
%ADD23RoundRect,0.375000X0.375000X-0.625000X0.375000X0.625000X-0.375000X0.625000X-0.375000X-0.625000X0*%
%ADD24RoundRect,0.500000X1.400000X-0.500000X1.400000X0.500000X-1.400000X0.500000X-1.400000X-0.500000X0*%
%ADD25RoundRect,0.250001X1.999999X0.799999X-1.999999X0.799999X-1.999999X-0.799999X1.999999X-0.799999X0*%
%ADD26RoundRect,0.150000X-0.587500X-0.150000X0.587500X-0.150000X0.587500X0.150000X-0.587500X0.150000X0*%
%ADD27R,1.250000X3.000000*%
%ADD28RoundRect,0.150000X-0.150000X0.825000X-0.150000X-0.825000X0.150000X-0.825000X0.150000X0.825000X0*%
%ADD29RoundRect,0.250000X-1.050000X-0.550000X1.050000X-0.550000X1.050000X0.550000X-1.050000X0.550000X0*%
%ADD30RoundRect,0.100000X0.100000X-0.850000X0.100000X0.850000X-0.100000X0.850000X-0.100000X-0.850000X0*%
%ADD31R,2.286000X0.558800*%
%ADD32R,5.400000X2.900000*%
%ADD33RoundRect,0.087500X0.537500X0.087500X-0.537500X0.087500X-0.537500X-0.087500X0.537500X-0.087500X0*%
%ADD34RoundRect,0.250000X-1.250000X-0.550000X1.250000X-0.550000X1.250000X0.550000X-1.250000X0.550000X0*%
%ADD35R,5.700000X1.600000*%
%ADD36RoundRect,0.250000X1.000000X0.650000X-1.000000X0.650000X-1.000000X-0.650000X1.000000X-0.650000X0*%
%ADD37RoundRect,0.250000X1.050000X0.550000X-1.050000X0.550000X-1.050000X-0.550000X1.050000X-0.550000X0*%
G04 APERTURE END LIST*
D10*
%TO.C,Q8_H1*%
X222160000Y-64569333D02*
X221840000Y-64569333D01*
X221840000Y-64009333D01*
X222160000Y-64009333D01*
X222160000Y-64569333D01*
G36*
X222160000Y-64569333D02*
G01*
X221840000Y-64569333D01*
X221840000Y-64009333D01*
X222160000Y-64009333D01*
X222160000Y-64569333D01*
G37*
X222810000Y-64569333D02*
X222490000Y-64569333D01*
X222490000Y-64009333D01*
X222810000Y-64009333D01*
X222810000Y-64569333D01*
G36*
X222810000Y-64569333D02*
G01*
X222490000Y-64569333D01*
X222490000Y-64009333D01*
X222810000Y-64009333D01*
X222810000Y-64569333D01*
G37*
X223460000Y-64569333D02*
X223140000Y-64569333D01*
X223140000Y-64009333D01*
X223460000Y-64009333D01*
X223460000Y-64569333D01*
G36*
X223460000Y-64569333D02*
G01*
X223140000Y-64569333D01*
X223140000Y-64009333D01*
X223460000Y-64009333D01*
X223460000Y-64569333D01*
G37*
X224110000Y-64569333D02*
X223790000Y-64569333D01*
X223790000Y-64009333D01*
X224110000Y-64009333D01*
X224110000Y-64569333D01*
G36*
X224110000Y-64569333D02*
G01*
X223790000Y-64569333D01*
X223790000Y-64009333D01*
X224110000Y-64009333D01*
X224110000Y-64569333D01*
G37*
X222875000Y-66339333D02*
X221875000Y-66339333D01*
X221875000Y-65939333D01*
X221325000Y-65939333D01*
X221325000Y-65519333D01*
X221875000Y-65519333D01*
X221875000Y-65339333D01*
X222875000Y-65339333D01*
X222875000Y-66339333D01*
G36*
X222875000Y-66339333D02*
G01*
X221875000Y-66339333D01*
X221875000Y-65939333D01*
X221325000Y-65939333D01*
X221325000Y-65519333D01*
X221875000Y-65519333D01*
X221875000Y-65339333D01*
X222875000Y-65339333D01*
X222875000Y-66339333D01*
G37*
X224075000Y-65519333D02*
X224625000Y-65519333D01*
X224625000Y-65939333D01*
X224075000Y-65939333D01*
X224075000Y-66339333D01*
X223075000Y-66339333D01*
X223075000Y-65339333D01*
X224075000Y-65339333D01*
X224075000Y-65519333D01*
G36*
X224075000Y-65519333D02*
G01*
X224625000Y-65519333D01*
X224625000Y-65939333D01*
X224075000Y-65939333D01*
X224075000Y-66339333D01*
X223075000Y-66339333D01*
X223075000Y-65339333D01*
X224075000Y-65339333D01*
X224075000Y-65519333D01*
G37*
X222875000Y-67009333D02*
X222775000Y-67009333D01*
X222775000Y-67509333D01*
X222515000Y-67509333D01*
X222515000Y-67009333D01*
X222135000Y-67009333D01*
X222135000Y-67509333D01*
X221875000Y-67509333D01*
X221875000Y-66539333D01*
X222875000Y-66539333D01*
X222875000Y-67009333D01*
G36*
X222875000Y-67009333D02*
G01*
X222775000Y-67009333D01*
X222775000Y-67509333D01*
X222515000Y-67509333D01*
X222515000Y-67009333D01*
X222135000Y-67009333D01*
X222135000Y-67509333D01*
X221875000Y-67509333D01*
X221875000Y-66539333D01*
X222875000Y-66539333D01*
X222875000Y-67009333D01*
G37*
X224075000Y-67509333D02*
X223815000Y-67509333D01*
X223815000Y-67009333D01*
X223435000Y-67009333D01*
X223435000Y-67509333D01*
X223175000Y-67509333D01*
X223175000Y-67009333D01*
X223075000Y-67009333D01*
X223075000Y-66539333D01*
X224075000Y-66539333D01*
X224075000Y-67509333D01*
G36*
X224075000Y-67509333D02*
G01*
X223815000Y-67509333D01*
X223815000Y-67009333D01*
X223435000Y-67009333D01*
X223435000Y-67509333D01*
X223175000Y-67509333D01*
X223175000Y-67009333D01*
X223075000Y-67009333D01*
X223075000Y-66539333D01*
X224075000Y-66539333D01*
X224075000Y-67509333D01*
G37*
%TO.C,Q9_L1*%
X193160000Y-59089111D02*
X192840000Y-59089111D01*
X192840000Y-58529111D01*
X193160000Y-58529111D01*
X193160000Y-59089111D01*
G36*
X193160000Y-59089111D02*
G01*
X192840000Y-59089111D01*
X192840000Y-58529111D01*
X193160000Y-58529111D01*
X193160000Y-59089111D01*
G37*
X193810000Y-59089111D02*
X193490000Y-59089111D01*
X193490000Y-58529111D01*
X193810000Y-58529111D01*
X193810000Y-59089111D01*
G36*
X193810000Y-59089111D02*
G01*
X193490000Y-59089111D01*
X193490000Y-58529111D01*
X193810000Y-58529111D01*
X193810000Y-59089111D01*
G37*
X194460000Y-59089111D02*
X194140000Y-59089111D01*
X194140000Y-58529111D01*
X194460000Y-58529111D01*
X194460000Y-59089111D01*
G36*
X194460000Y-59089111D02*
G01*
X194140000Y-59089111D01*
X194140000Y-58529111D01*
X194460000Y-58529111D01*
X194460000Y-59089111D01*
G37*
X195110000Y-59089111D02*
X194790000Y-59089111D01*
X194790000Y-58529111D01*
X195110000Y-58529111D01*
X195110000Y-59089111D01*
G36*
X195110000Y-59089111D02*
G01*
X194790000Y-59089111D01*
X194790000Y-58529111D01*
X195110000Y-58529111D01*
X195110000Y-59089111D01*
G37*
X193875000Y-60859111D02*
X192875000Y-60859111D01*
X192875000Y-60459111D01*
X192325000Y-60459111D01*
X192325000Y-60039111D01*
X192875000Y-60039111D01*
X192875000Y-59859111D01*
X193875000Y-59859111D01*
X193875000Y-60859111D01*
G36*
X193875000Y-60859111D02*
G01*
X192875000Y-60859111D01*
X192875000Y-60459111D01*
X192325000Y-60459111D01*
X192325000Y-60039111D01*
X192875000Y-60039111D01*
X192875000Y-59859111D01*
X193875000Y-59859111D01*
X193875000Y-60859111D01*
G37*
X195075000Y-60039111D02*
X195625000Y-60039111D01*
X195625000Y-60459111D01*
X195075000Y-60459111D01*
X195075000Y-60859111D01*
X194075000Y-60859111D01*
X194075000Y-59859111D01*
X195075000Y-59859111D01*
X195075000Y-60039111D01*
G36*
X195075000Y-60039111D02*
G01*
X195625000Y-60039111D01*
X195625000Y-60459111D01*
X195075000Y-60459111D01*
X195075000Y-60859111D01*
X194075000Y-60859111D01*
X194075000Y-59859111D01*
X195075000Y-59859111D01*
X195075000Y-60039111D01*
G37*
X193875000Y-61529111D02*
X193775000Y-61529111D01*
X193775000Y-62029111D01*
X193515000Y-62029111D01*
X193515000Y-61529111D01*
X193135000Y-61529111D01*
X193135000Y-62029111D01*
X192875000Y-62029111D01*
X192875000Y-61059111D01*
X193875000Y-61059111D01*
X193875000Y-61529111D01*
G36*
X193875000Y-61529111D02*
G01*
X193775000Y-61529111D01*
X193775000Y-62029111D01*
X193515000Y-62029111D01*
X193515000Y-61529111D01*
X193135000Y-61529111D01*
X193135000Y-62029111D01*
X192875000Y-62029111D01*
X192875000Y-61059111D01*
X193875000Y-61059111D01*
X193875000Y-61529111D01*
G37*
X195075000Y-62029111D02*
X194815000Y-62029111D01*
X194815000Y-61529111D01*
X194435000Y-61529111D01*
X194435000Y-62029111D01*
X194175000Y-62029111D01*
X194175000Y-61529111D01*
X194075000Y-61529111D01*
X194075000Y-61059111D01*
X195075000Y-61059111D01*
X195075000Y-62029111D01*
G36*
X195075000Y-62029111D02*
G01*
X194815000Y-62029111D01*
X194815000Y-61529111D01*
X194435000Y-61529111D01*
X194435000Y-62029111D01*
X194175000Y-62029111D01*
X194175000Y-61529111D01*
X194075000Y-61529111D01*
X194075000Y-61059111D01*
X195075000Y-61059111D01*
X195075000Y-62029111D01*
G37*
%TO.C,Q9_H1*%
X222160000Y-59220667D02*
X221840000Y-59220667D01*
X221840000Y-58660667D01*
X222160000Y-58660667D01*
X222160000Y-59220667D01*
G36*
X222160000Y-59220667D02*
G01*
X221840000Y-59220667D01*
X221840000Y-58660667D01*
X222160000Y-58660667D01*
X222160000Y-59220667D01*
G37*
X222810000Y-59220667D02*
X222490000Y-59220667D01*
X222490000Y-58660667D01*
X222810000Y-58660667D01*
X222810000Y-59220667D01*
G36*
X222810000Y-59220667D02*
G01*
X222490000Y-59220667D01*
X222490000Y-58660667D01*
X222810000Y-58660667D01*
X222810000Y-59220667D01*
G37*
X223460000Y-59220667D02*
X223140000Y-59220667D01*
X223140000Y-58660667D01*
X223460000Y-58660667D01*
X223460000Y-59220667D01*
G36*
X223460000Y-59220667D02*
G01*
X223140000Y-59220667D01*
X223140000Y-58660667D01*
X223460000Y-58660667D01*
X223460000Y-59220667D01*
G37*
X224110000Y-59220667D02*
X223790000Y-59220667D01*
X223790000Y-58660667D01*
X224110000Y-58660667D01*
X224110000Y-59220667D01*
G36*
X224110000Y-59220667D02*
G01*
X223790000Y-59220667D01*
X223790000Y-58660667D01*
X224110000Y-58660667D01*
X224110000Y-59220667D01*
G37*
X222875000Y-60990667D02*
X221875000Y-60990667D01*
X221875000Y-60590667D01*
X221325000Y-60590667D01*
X221325000Y-60170667D01*
X221875000Y-60170667D01*
X221875000Y-59990667D01*
X222875000Y-59990667D01*
X222875000Y-60990667D01*
G36*
X222875000Y-60990667D02*
G01*
X221875000Y-60990667D01*
X221875000Y-60590667D01*
X221325000Y-60590667D01*
X221325000Y-60170667D01*
X221875000Y-60170667D01*
X221875000Y-59990667D01*
X222875000Y-59990667D01*
X222875000Y-60990667D01*
G37*
X224075000Y-60170667D02*
X224625000Y-60170667D01*
X224625000Y-60590667D01*
X224075000Y-60590667D01*
X224075000Y-60990667D01*
X223075000Y-60990667D01*
X223075000Y-59990667D01*
X224075000Y-59990667D01*
X224075000Y-60170667D01*
G36*
X224075000Y-60170667D02*
G01*
X224625000Y-60170667D01*
X224625000Y-60590667D01*
X224075000Y-60590667D01*
X224075000Y-60990667D01*
X223075000Y-60990667D01*
X223075000Y-59990667D01*
X224075000Y-59990667D01*
X224075000Y-60170667D01*
G37*
X222875000Y-61660667D02*
X222775000Y-61660667D01*
X222775000Y-62160667D01*
X222515000Y-62160667D01*
X222515000Y-61660667D01*
X222135000Y-61660667D01*
X222135000Y-62160667D01*
X221875000Y-62160667D01*
X221875000Y-61190667D01*
X222875000Y-61190667D01*
X222875000Y-61660667D01*
G36*
X222875000Y-61660667D02*
G01*
X222775000Y-61660667D01*
X222775000Y-62160667D01*
X222515000Y-62160667D01*
X222515000Y-61660667D01*
X222135000Y-61660667D01*
X222135000Y-62160667D01*
X221875000Y-62160667D01*
X221875000Y-61190667D01*
X222875000Y-61190667D01*
X222875000Y-61660667D01*
G37*
X224075000Y-62160667D02*
X223815000Y-62160667D01*
X223815000Y-61660667D01*
X223435000Y-61660667D01*
X223435000Y-62160667D01*
X223175000Y-62160667D01*
X223175000Y-61660667D01*
X223075000Y-61660667D01*
X223075000Y-61190667D01*
X224075000Y-61190667D01*
X224075000Y-62160667D01*
G36*
X224075000Y-62160667D02*
G01*
X223815000Y-62160667D01*
X223815000Y-61660667D01*
X223435000Y-61660667D01*
X223435000Y-62160667D01*
X223175000Y-62160667D01*
X223175000Y-61660667D01*
X223075000Y-61660667D01*
X223075000Y-61190667D01*
X224075000Y-61190667D01*
X224075000Y-62160667D01*
G37*
%TO.C,Q12_L1*%
X193160000Y-43099492D02*
X192840000Y-43099492D01*
X192840000Y-42539492D01*
X193160000Y-42539492D01*
X193160000Y-43099492D01*
G36*
X193160000Y-43099492D02*
G01*
X192840000Y-43099492D01*
X192840000Y-42539492D01*
X193160000Y-42539492D01*
X193160000Y-43099492D01*
G37*
X193810000Y-43099492D02*
X193490000Y-43099492D01*
X193490000Y-42539492D01*
X193810000Y-42539492D01*
X193810000Y-43099492D01*
G36*
X193810000Y-43099492D02*
G01*
X193490000Y-43099492D01*
X193490000Y-42539492D01*
X193810000Y-42539492D01*
X193810000Y-43099492D01*
G37*
X194460000Y-43099492D02*
X194140000Y-43099492D01*
X194140000Y-42539492D01*
X194460000Y-42539492D01*
X194460000Y-43099492D01*
G36*
X194460000Y-43099492D02*
G01*
X194140000Y-43099492D01*
X194140000Y-42539492D01*
X194460000Y-42539492D01*
X194460000Y-43099492D01*
G37*
X195110000Y-43099492D02*
X194790000Y-43099492D01*
X194790000Y-42539492D01*
X195110000Y-42539492D01*
X195110000Y-43099492D01*
G36*
X195110000Y-43099492D02*
G01*
X194790000Y-43099492D01*
X194790000Y-42539492D01*
X195110000Y-42539492D01*
X195110000Y-43099492D01*
G37*
X193875000Y-44869492D02*
X192875000Y-44869492D01*
X192875000Y-44469492D01*
X192325000Y-44469492D01*
X192325000Y-44049492D01*
X192875000Y-44049492D01*
X192875000Y-43869492D01*
X193875000Y-43869492D01*
X193875000Y-44869492D01*
G36*
X193875000Y-44869492D02*
G01*
X192875000Y-44869492D01*
X192875000Y-44469492D01*
X192325000Y-44469492D01*
X192325000Y-44049492D01*
X192875000Y-44049492D01*
X192875000Y-43869492D01*
X193875000Y-43869492D01*
X193875000Y-44869492D01*
G37*
X195075000Y-44049492D02*
X195625000Y-44049492D01*
X195625000Y-44469492D01*
X195075000Y-44469492D01*
X195075000Y-44869492D01*
X194075000Y-44869492D01*
X194075000Y-43869492D01*
X195075000Y-43869492D01*
X195075000Y-44049492D01*
G36*
X195075000Y-44049492D02*
G01*
X195625000Y-44049492D01*
X195625000Y-44469492D01*
X195075000Y-44469492D01*
X195075000Y-44869492D01*
X194075000Y-44869492D01*
X194075000Y-43869492D01*
X195075000Y-43869492D01*
X195075000Y-44049492D01*
G37*
X193875000Y-45539492D02*
X193775000Y-45539492D01*
X193775000Y-46039492D01*
X193515000Y-46039492D01*
X193515000Y-45539492D01*
X193135000Y-45539492D01*
X193135000Y-46039492D01*
X192875000Y-46039492D01*
X192875000Y-45069492D01*
X193875000Y-45069492D01*
X193875000Y-45539492D01*
G36*
X193875000Y-45539492D02*
G01*
X193775000Y-45539492D01*
X193775000Y-46039492D01*
X193515000Y-46039492D01*
X193515000Y-45539492D01*
X193135000Y-45539492D01*
X193135000Y-46039492D01*
X192875000Y-46039492D01*
X192875000Y-45069492D01*
X193875000Y-45069492D01*
X193875000Y-45539492D01*
G37*
X195075000Y-46039492D02*
X194815000Y-46039492D01*
X194815000Y-45539492D01*
X194435000Y-45539492D01*
X194435000Y-46039492D01*
X194175000Y-46039492D01*
X194175000Y-45539492D01*
X194075000Y-45539492D01*
X194075000Y-45069492D01*
X195075000Y-45069492D01*
X195075000Y-46039492D01*
G36*
X195075000Y-46039492D02*
G01*
X194815000Y-46039492D01*
X194815000Y-45539492D01*
X194435000Y-45539492D01*
X194435000Y-46039492D01*
X194175000Y-46039492D01*
X194175000Y-45539492D01*
X194075000Y-45539492D01*
X194075000Y-45069492D01*
X195075000Y-45069492D01*
X195075000Y-46039492D01*
G37*
%TO.C,Q10_L1*%
X193160000Y-53759238D02*
X192840000Y-53759238D01*
X192840000Y-53199238D01*
X193160000Y-53199238D01*
X193160000Y-53759238D01*
G36*
X193160000Y-53759238D02*
G01*
X192840000Y-53759238D01*
X192840000Y-53199238D01*
X193160000Y-53199238D01*
X193160000Y-53759238D01*
G37*
X193810000Y-53759238D02*
X193490000Y-53759238D01*
X193490000Y-53199238D01*
X193810000Y-53199238D01*
X193810000Y-53759238D01*
G36*
X193810000Y-53759238D02*
G01*
X193490000Y-53759238D01*
X193490000Y-53199238D01*
X193810000Y-53199238D01*
X193810000Y-53759238D01*
G37*
X194460000Y-53759238D02*
X194140000Y-53759238D01*
X194140000Y-53199238D01*
X194460000Y-53199238D01*
X194460000Y-53759238D01*
G36*
X194460000Y-53759238D02*
G01*
X194140000Y-53759238D01*
X194140000Y-53199238D01*
X194460000Y-53199238D01*
X194460000Y-53759238D01*
G37*
X195110000Y-53759238D02*
X194790000Y-53759238D01*
X194790000Y-53199238D01*
X195110000Y-53199238D01*
X195110000Y-53759238D01*
G36*
X195110000Y-53759238D02*
G01*
X194790000Y-53759238D01*
X194790000Y-53199238D01*
X195110000Y-53199238D01*
X195110000Y-53759238D01*
G37*
X193875000Y-55529238D02*
X192875000Y-55529238D01*
X192875000Y-55129238D01*
X192325000Y-55129238D01*
X192325000Y-54709238D01*
X192875000Y-54709238D01*
X192875000Y-54529238D01*
X193875000Y-54529238D01*
X193875000Y-55529238D01*
G36*
X193875000Y-55529238D02*
G01*
X192875000Y-55529238D01*
X192875000Y-55129238D01*
X192325000Y-55129238D01*
X192325000Y-54709238D01*
X192875000Y-54709238D01*
X192875000Y-54529238D01*
X193875000Y-54529238D01*
X193875000Y-55529238D01*
G37*
X195075000Y-54709238D02*
X195625000Y-54709238D01*
X195625000Y-55129238D01*
X195075000Y-55129238D01*
X195075000Y-55529238D01*
X194075000Y-55529238D01*
X194075000Y-54529238D01*
X195075000Y-54529238D01*
X195075000Y-54709238D01*
G36*
X195075000Y-54709238D02*
G01*
X195625000Y-54709238D01*
X195625000Y-55129238D01*
X195075000Y-55129238D01*
X195075000Y-55529238D01*
X194075000Y-55529238D01*
X194075000Y-54529238D01*
X195075000Y-54529238D01*
X195075000Y-54709238D01*
G37*
X193875000Y-56199238D02*
X193775000Y-56199238D01*
X193775000Y-56699238D01*
X193515000Y-56699238D01*
X193515000Y-56199238D01*
X193135000Y-56199238D01*
X193135000Y-56699238D01*
X192875000Y-56699238D01*
X192875000Y-55729238D01*
X193875000Y-55729238D01*
X193875000Y-56199238D01*
G36*
X193875000Y-56199238D02*
G01*
X193775000Y-56199238D01*
X193775000Y-56699238D01*
X193515000Y-56699238D01*
X193515000Y-56199238D01*
X193135000Y-56199238D01*
X193135000Y-56699238D01*
X192875000Y-56699238D01*
X192875000Y-55729238D01*
X193875000Y-55729238D01*
X193875000Y-56199238D01*
G37*
X195075000Y-56699238D02*
X194815000Y-56699238D01*
X194815000Y-56199238D01*
X194435000Y-56199238D01*
X194435000Y-56699238D01*
X194175000Y-56699238D01*
X194175000Y-56199238D01*
X194075000Y-56199238D01*
X194075000Y-55729238D01*
X195075000Y-55729238D01*
X195075000Y-56699238D01*
G36*
X195075000Y-56699238D02*
G01*
X194815000Y-56699238D01*
X194815000Y-56199238D01*
X194435000Y-56199238D01*
X194435000Y-56699238D01*
X194175000Y-56699238D01*
X194175000Y-56199238D01*
X194075000Y-56199238D01*
X194075000Y-55729238D01*
X195075000Y-55729238D01*
X195075000Y-56699238D01*
G37*
%TO.C,Q1_H1*%
X222160000Y-102010000D02*
X221840000Y-102010000D01*
X221840000Y-101450000D01*
X222160000Y-101450000D01*
X222160000Y-102010000D01*
G36*
X222160000Y-102010000D02*
G01*
X221840000Y-102010000D01*
X221840000Y-101450000D01*
X222160000Y-101450000D01*
X222160000Y-102010000D01*
G37*
X222810000Y-102010000D02*
X222490000Y-102010000D01*
X222490000Y-101450000D01*
X222810000Y-101450000D01*
X222810000Y-102010000D01*
G36*
X222810000Y-102010000D02*
G01*
X222490000Y-102010000D01*
X222490000Y-101450000D01*
X222810000Y-101450000D01*
X222810000Y-102010000D01*
G37*
X223460000Y-102010000D02*
X223140000Y-102010000D01*
X223140000Y-101450000D01*
X223460000Y-101450000D01*
X223460000Y-102010000D01*
G36*
X223460000Y-102010000D02*
G01*
X223140000Y-102010000D01*
X223140000Y-101450000D01*
X223460000Y-101450000D01*
X223460000Y-102010000D01*
G37*
X224110000Y-102010000D02*
X223790000Y-102010000D01*
X223790000Y-101450000D01*
X224110000Y-101450000D01*
X224110000Y-102010000D01*
G36*
X224110000Y-102010000D02*
G01*
X223790000Y-102010000D01*
X223790000Y-101450000D01*
X224110000Y-101450000D01*
X224110000Y-102010000D01*
G37*
X222875000Y-103780000D02*
X221875000Y-103780000D01*
X221875000Y-103380000D01*
X221325000Y-103380000D01*
X221325000Y-102960000D01*
X221875000Y-102960000D01*
X221875000Y-102780000D01*
X222875000Y-102780000D01*
X222875000Y-103780000D01*
G36*
X222875000Y-103780000D02*
G01*
X221875000Y-103780000D01*
X221875000Y-103380000D01*
X221325000Y-103380000D01*
X221325000Y-102960000D01*
X221875000Y-102960000D01*
X221875000Y-102780000D01*
X222875000Y-102780000D01*
X222875000Y-103780000D01*
G37*
X224075000Y-102960000D02*
X224625000Y-102960000D01*
X224625000Y-103380000D01*
X224075000Y-103380000D01*
X224075000Y-103780000D01*
X223075000Y-103780000D01*
X223075000Y-102780000D01*
X224075000Y-102780000D01*
X224075000Y-102960000D01*
G36*
X224075000Y-102960000D02*
G01*
X224625000Y-102960000D01*
X224625000Y-103380000D01*
X224075000Y-103380000D01*
X224075000Y-103780000D01*
X223075000Y-103780000D01*
X223075000Y-102780000D01*
X224075000Y-102780000D01*
X224075000Y-102960000D01*
G37*
X222875000Y-104450000D02*
X222775000Y-104450000D01*
X222775000Y-104950000D01*
X222515000Y-104950000D01*
X222515000Y-104450000D01*
X222135000Y-104450000D01*
X222135000Y-104950000D01*
X221875000Y-104950000D01*
X221875000Y-103980000D01*
X222875000Y-103980000D01*
X222875000Y-104450000D01*
G36*
X222875000Y-104450000D02*
G01*
X222775000Y-104450000D01*
X222775000Y-104950000D01*
X222515000Y-104950000D01*
X222515000Y-104450000D01*
X222135000Y-104450000D01*
X222135000Y-104950000D01*
X221875000Y-104950000D01*
X221875000Y-103980000D01*
X222875000Y-103980000D01*
X222875000Y-104450000D01*
G37*
X224075000Y-104950000D02*
X223815000Y-104950000D01*
X223815000Y-104450000D01*
X223435000Y-104450000D01*
X223435000Y-104950000D01*
X223175000Y-104950000D01*
X223175000Y-104450000D01*
X223075000Y-104450000D01*
X223075000Y-103980000D01*
X224075000Y-103980000D01*
X224075000Y-104950000D01*
G36*
X224075000Y-104950000D02*
G01*
X223815000Y-104950000D01*
X223815000Y-104450000D01*
X223435000Y-104450000D01*
X223435000Y-104950000D01*
X223175000Y-104950000D01*
X223175000Y-104450000D01*
X223075000Y-104450000D01*
X223075000Y-103980000D01*
X224075000Y-103980000D01*
X224075000Y-104950000D01*
G37*
%TO.C,Q6_H1*%
X222160000Y-75266667D02*
X221840000Y-75266667D01*
X221840000Y-74706667D01*
X222160000Y-74706667D01*
X222160000Y-75266667D01*
G36*
X222160000Y-75266667D02*
G01*
X221840000Y-75266667D01*
X221840000Y-74706667D01*
X222160000Y-74706667D01*
X222160000Y-75266667D01*
G37*
X222810000Y-75266667D02*
X222490000Y-75266667D01*
X222490000Y-74706667D01*
X222810000Y-74706667D01*
X222810000Y-75266667D01*
G36*
X222810000Y-75266667D02*
G01*
X222490000Y-75266667D01*
X222490000Y-74706667D01*
X222810000Y-74706667D01*
X222810000Y-75266667D01*
G37*
X223460000Y-75266667D02*
X223140000Y-75266667D01*
X223140000Y-74706667D01*
X223460000Y-74706667D01*
X223460000Y-75266667D01*
G36*
X223460000Y-75266667D02*
G01*
X223140000Y-75266667D01*
X223140000Y-74706667D01*
X223460000Y-74706667D01*
X223460000Y-75266667D01*
G37*
X224110000Y-75266667D02*
X223790000Y-75266667D01*
X223790000Y-74706667D01*
X224110000Y-74706667D01*
X224110000Y-75266667D01*
G36*
X224110000Y-75266667D02*
G01*
X223790000Y-75266667D01*
X223790000Y-74706667D01*
X224110000Y-74706667D01*
X224110000Y-75266667D01*
G37*
X222875000Y-77036667D02*
X221875000Y-77036667D01*
X221875000Y-76636667D01*
X221325000Y-76636667D01*
X221325000Y-76216667D01*
X221875000Y-76216667D01*
X221875000Y-76036667D01*
X222875000Y-76036667D01*
X222875000Y-77036667D01*
G36*
X222875000Y-77036667D02*
G01*
X221875000Y-77036667D01*
X221875000Y-76636667D01*
X221325000Y-76636667D01*
X221325000Y-76216667D01*
X221875000Y-76216667D01*
X221875000Y-76036667D01*
X222875000Y-76036667D01*
X222875000Y-77036667D01*
G37*
X224075000Y-76216667D02*
X224625000Y-76216667D01*
X224625000Y-76636667D01*
X224075000Y-76636667D01*
X224075000Y-77036667D01*
X223075000Y-77036667D01*
X223075000Y-76036667D01*
X224075000Y-76036667D01*
X224075000Y-76216667D01*
G36*
X224075000Y-76216667D02*
G01*
X224625000Y-76216667D01*
X224625000Y-76636667D01*
X224075000Y-76636667D01*
X224075000Y-77036667D01*
X223075000Y-77036667D01*
X223075000Y-76036667D01*
X224075000Y-76036667D01*
X224075000Y-76216667D01*
G37*
X222875000Y-77706667D02*
X222775000Y-77706667D01*
X222775000Y-78206667D01*
X222515000Y-78206667D01*
X222515000Y-77706667D01*
X222135000Y-77706667D01*
X222135000Y-78206667D01*
X221875000Y-78206667D01*
X221875000Y-77236667D01*
X222875000Y-77236667D01*
X222875000Y-77706667D01*
G36*
X222875000Y-77706667D02*
G01*
X222775000Y-77706667D01*
X222775000Y-78206667D01*
X222515000Y-78206667D01*
X222515000Y-77706667D01*
X222135000Y-77706667D01*
X222135000Y-78206667D01*
X221875000Y-78206667D01*
X221875000Y-77236667D01*
X222875000Y-77236667D01*
X222875000Y-77706667D01*
G37*
X224075000Y-78206667D02*
X223815000Y-78206667D01*
X223815000Y-77706667D01*
X223435000Y-77706667D01*
X223435000Y-78206667D01*
X223175000Y-78206667D01*
X223175000Y-77706667D01*
X223075000Y-77706667D01*
X223075000Y-77236667D01*
X224075000Y-77236667D01*
X224075000Y-78206667D01*
G36*
X224075000Y-78206667D02*
G01*
X223815000Y-78206667D01*
X223815000Y-77706667D01*
X223435000Y-77706667D01*
X223435000Y-78206667D01*
X223175000Y-78206667D01*
X223175000Y-77706667D01*
X223075000Y-77706667D01*
X223075000Y-77236667D01*
X224075000Y-77236667D01*
X224075000Y-78206667D01*
G37*
%TO.C,Q13_H1*%
X222160000Y-37826000D02*
X221840000Y-37826000D01*
X221840000Y-37266000D01*
X222160000Y-37266000D01*
X222160000Y-37826000D01*
G36*
X222160000Y-37826000D02*
G01*
X221840000Y-37826000D01*
X221840000Y-37266000D01*
X222160000Y-37266000D01*
X222160000Y-37826000D01*
G37*
X222810000Y-37826000D02*
X222490000Y-37826000D01*
X222490000Y-37266000D01*
X222810000Y-37266000D01*
X222810000Y-37826000D01*
G36*
X222810000Y-37826000D02*
G01*
X222490000Y-37826000D01*
X222490000Y-37266000D01*
X222810000Y-37266000D01*
X222810000Y-37826000D01*
G37*
X223460000Y-37826000D02*
X223140000Y-37826000D01*
X223140000Y-37266000D01*
X223460000Y-37266000D01*
X223460000Y-37826000D01*
G36*
X223460000Y-37826000D02*
G01*
X223140000Y-37826000D01*
X223140000Y-37266000D01*
X223460000Y-37266000D01*
X223460000Y-37826000D01*
G37*
X224110000Y-37826000D02*
X223790000Y-37826000D01*
X223790000Y-37266000D01*
X224110000Y-37266000D01*
X224110000Y-37826000D01*
G36*
X224110000Y-37826000D02*
G01*
X223790000Y-37826000D01*
X223790000Y-37266000D01*
X224110000Y-37266000D01*
X224110000Y-37826000D01*
G37*
X222875000Y-39596000D02*
X221875000Y-39596000D01*
X221875000Y-39196000D01*
X221325000Y-39196000D01*
X221325000Y-38776000D01*
X221875000Y-38776000D01*
X221875000Y-38596000D01*
X222875000Y-38596000D01*
X222875000Y-39596000D01*
G36*
X222875000Y-39596000D02*
G01*
X221875000Y-39596000D01*
X221875000Y-39196000D01*
X221325000Y-39196000D01*
X221325000Y-38776000D01*
X221875000Y-38776000D01*
X221875000Y-38596000D01*
X222875000Y-38596000D01*
X222875000Y-39596000D01*
G37*
X224075000Y-38776000D02*
X224625000Y-38776000D01*
X224625000Y-39196000D01*
X224075000Y-39196000D01*
X224075000Y-39596000D01*
X223075000Y-39596000D01*
X223075000Y-38596000D01*
X224075000Y-38596000D01*
X224075000Y-38776000D01*
G36*
X224075000Y-38776000D02*
G01*
X224625000Y-38776000D01*
X224625000Y-39196000D01*
X224075000Y-39196000D01*
X224075000Y-39596000D01*
X223075000Y-39596000D01*
X223075000Y-38596000D01*
X224075000Y-38596000D01*
X224075000Y-38776000D01*
G37*
X222875000Y-40266000D02*
X222775000Y-40266000D01*
X222775000Y-40766000D01*
X222515000Y-40766000D01*
X222515000Y-40266000D01*
X222135000Y-40266000D01*
X222135000Y-40766000D01*
X221875000Y-40766000D01*
X221875000Y-39796000D01*
X222875000Y-39796000D01*
X222875000Y-40266000D01*
G36*
X222875000Y-40266000D02*
G01*
X222775000Y-40266000D01*
X222775000Y-40766000D01*
X222515000Y-40766000D01*
X222515000Y-40266000D01*
X222135000Y-40266000D01*
X222135000Y-40766000D01*
X221875000Y-40766000D01*
X221875000Y-39796000D01*
X222875000Y-39796000D01*
X222875000Y-40266000D01*
G37*
X224075000Y-40766000D02*
X223815000Y-40766000D01*
X223815000Y-40266000D01*
X223435000Y-40266000D01*
X223435000Y-40766000D01*
X223175000Y-40766000D01*
X223175000Y-40266000D01*
X223075000Y-40266000D01*
X223075000Y-39796000D01*
X224075000Y-39796000D01*
X224075000Y-40766000D01*
G36*
X224075000Y-40766000D02*
G01*
X223815000Y-40766000D01*
X223815000Y-40266000D01*
X223435000Y-40266000D01*
X223435000Y-40766000D01*
X223175000Y-40766000D01*
X223175000Y-40266000D01*
X223075000Y-40266000D01*
X223075000Y-39796000D01*
X224075000Y-39796000D01*
X224075000Y-40766000D01*
G37*
%TO.C,Q7_L1*%
X193160000Y-69748858D02*
X192840000Y-69748858D01*
X192840000Y-69188858D01*
X193160000Y-69188858D01*
X193160000Y-69748858D01*
G36*
X193160000Y-69748858D02*
G01*
X192840000Y-69748858D01*
X192840000Y-69188858D01*
X193160000Y-69188858D01*
X193160000Y-69748858D01*
G37*
X193810000Y-69748858D02*
X193490000Y-69748858D01*
X193490000Y-69188858D01*
X193810000Y-69188858D01*
X193810000Y-69748858D01*
G36*
X193810000Y-69748858D02*
G01*
X193490000Y-69748858D01*
X193490000Y-69188858D01*
X193810000Y-69188858D01*
X193810000Y-69748858D01*
G37*
X194460000Y-69748858D02*
X194140000Y-69748858D01*
X194140000Y-69188858D01*
X194460000Y-69188858D01*
X194460000Y-69748858D01*
G36*
X194460000Y-69748858D02*
G01*
X194140000Y-69748858D01*
X194140000Y-69188858D01*
X194460000Y-69188858D01*
X194460000Y-69748858D01*
G37*
X195110000Y-69748858D02*
X194790000Y-69748858D01*
X194790000Y-69188858D01*
X195110000Y-69188858D01*
X195110000Y-69748858D01*
G36*
X195110000Y-69748858D02*
G01*
X194790000Y-69748858D01*
X194790000Y-69188858D01*
X195110000Y-69188858D01*
X195110000Y-69748858D01*
G37*
X193875000Y-71518858D02*
X192875000Y-71518858D01*
X192875000Y-71118858D01*
X192325000Y-71118858D01*
X192325000Y-70698858D01*
X192875000Y-70698858D01*
X192875000Y-70518858D01*
X193875000Y-70518858D01*
X193875000Y-71518858D01*
G36*
X193875000Y-71518858D02*
G01*
X192875000Y-71518858D01*
X192875000Y-71118858D01*
X192325000Y-71118858D01*
X192325000Y-70698858D01*
X192875000Y-70698858D01*
X192875000Y-70518858D01*
X193875000Y-70518858D01*
X193875000Y-71518858D01*
G37*
X195075000Y-70698858D02*
X195625000Y-70698858D01*
X195625000Y-71118858D01*
X195075000Y-71118858D01*
X195075000Y-71518858D01*
X194075000Y-71518858D01*
X194075000Y-70518858D01*
X195075000Y-70518858D01*
X195075000Y-70698858D01*
G36*
X195075000Y-70698858D02*
G01*
X195625000Y-70698858D01*
X195625000Y-71118858D01*
X195075000Y-71118858D01*
X195075000Y-71518858D01*
X194075000Y-71518858D01*
X194075000Y-70518858D01*
X195075000Y-70518858D01*
X195075000Y-70698858D01*
G37*
X193875000Y-72188858D02*
X193775000Y-72188858D01*
X193775000Y-72688858D01*
X193515000Y-72688858D01*
X193515000Y-72188858D01*
X193135000Y-72188858D01*
X193135000Y-72688858D01*
X192875000Y-72688858D01*
X192875000Y-71718858D01*
X193875000Y-71718858D01*
X193875000Y-72188858D01*
G36*
X193875000Y-72188858D02*
G01*
X193775000Y-72188858D01*
X193775000Y-72688858D01*
X193515000Y-72688858D01*
X193515000Y-72188858D01*
X193135000Y-72188858D01*
X193135000Y-72688858D01*
X192875000Y-72688858D01*
X192875000Y-71718858D01*
X193875000Y-71718858D01*
X193875000Y-72188858D01*
G37*
X195075000Y-72688858D02*
X194815000Y-72688858D01*
X194815000Y-72188858D01*
X194435000Y-72188858D01*
X194435000Y-72688858D01*
X194175000Y-72688858D01*
X194175000Y-72188858D01*
X194075000Y-72188858D01*
X194075000Y-71718858D01*
X195075000Y-71718858D01*
X195075000Y-72688858D01*
G36*
X195075000Y-72688858D02*
G01*
X194815000Y-72688858D01*
X194815000Y-72188858D01*
X194435000Y-72188858D01*
X194435000Y-72688858D01*
X194175000Y-72688858D01*
X194175000Y-72188858D01*
X194075000Y-72188858D01*
X194075000Y-71718858D01*
X195075000Y-71718858D01*
X195075000Y-72688858D01*
G37*
%TO.C,Q5_H1*%
X222160000Y-80615333D02*
X221840000Y-80615333D01*
X221840000Y-80055333D01*
X222160000Y-80055333D01*
X222160000Y-80615333D01*
G36*
X222160000Y-80615333D02*
G01*
X221840000Y-80615333D01*
X221840000Y-80055333D01*
X222160000Y-80055333D01*
X222160000Y-80615333D01*
G37*
X222810000Y-80615333D02*
X222490000Y-80615333D01*
X222490000Y-80055333D01*
X222810000Y-80055333D01*
X222810000Y-80615333D01*
G36*
X222810000Y-80615333D02*
G01*
X222490000Y-80615333D01*
X222490000Y-80055333D01*
X222810000Y-80055333D01*
X222810000Y-80615333D01*
G37*
X223460000Y-80615333D02*
X223140000Y-80615333D01*
X223140000Y-80055333D01*
X223460000Y-80055333D01*
X223460000Y-80615333D01*
G36*
X223460000Y-80615333D02*
G01*
X223140000Y-80615333D01*
X223140000Y-80055333D01*
X223460000Y-80055333D01*
X223460000Y-80615333D01*
G37*
X224110000Y-80615333D02*
X223790000Y-80615333D01*
X223790000Y-80055333D01*
X224110000Y-80055333D01*
X224110000Y-80615333D01*
G36*
X224110000Y-80615333D02*
G01*
X223790000Y-80615333D01*
X223790000Y-80055333D01*
X224110000Y-80055333D01*
X224110000Y-80615333D01*
G37*
X222875000Y-82385333D02*
X221875000Y-82385333D01*
X221875000Y-81985333D01*
X221325000Y-81985333D01*
X221325000Y-81565333D01*
X221875000Y-81565333D01*
X221875000Y-81385333D01*
X222875000Y-81385333D01*
X222875000Y-82385333D01*
G36*
X222875000Y-82385333D02*
G01*
X221875000Y-82385333D01*
X221875000Y-81985333D01*
X221325000Y-81985333D01*
X221325000Y-81565333D01*
X221875000Y-81565333D01*
X221875000Y-81385333D01*
X222875000Y-81385333D01*
X222875000Y-82385333D01*
G37*
X224075000Y-81565333D02*
X224625000Y-81565333D01*
X224625000Y-81985333D01*
X224075000Y-81985333D01*
X224075000Y-82385333D01*
X223075000Y-82385333D01*
X223075000Y-81385333D01*
X224075000Y-81385333D01*
X224075000Y-81565333D01*
G36*
X224075000Y-81565333D02*
G01*
X224625000Y-81565333D01*
X224625000Y-81985333D01*
X224075000Y-81985333D01*
X224075000Y-82385333D01*
X223075000Y-82385333D01*
X223075000Y-81385333D01*
X224075000Y-81385333D01*
X224075000Y-81565333D01*
G37*
X222875000Y-83055333D02*
X222775000Y-83055333D01*
X222775000Y-83555333D01*
X222515000Y-83555333D01*
X222515000Y-83055333D01*
X222135000Y-83055333D01*
X222135000Y-83555333D01*
X221875000Y-83555333D01*
X221875000Y-82585333D01*
X222875000Y-82585333D01*
X222875000Y-83055333D01*
G36*
X222875000Y-83055333D02*
G01*
X222775000Y-83055333D01*
X222775000Y-83555333D01*
X222515000Y-83555333D01*
X222515000Y-83055333D01*
X222135000Y-83055333D01*
X222135000Y-83555333D01*
X221875000Y-83555333D01*
X221875000Y-82585333D01*
X222875000Y-82585333D01*
X222875000Y-83055333D01*
G37*
X224075000Y-83555333D02*
X223815000Y-83555333D01*
X223815000Y-83055333D01*
X223435000Y-83055333D01*
X223435000Y-83555333D01*
X223175000Y-83555333D01*
X223175000Y-83055333D01*
X223075000Y-83055333D01*
X223075000Y-82585333D01*
X224075000Y-82585333D01*
X224075000Y-83555333D01*
G36*
X224075000Y-83555333D02*
G01*
X223815000Y-83555333D01*
X223815000Y-83055333D01*
X223435000Y-83055333D01*
X223435000Y-83555333D01*
X223175000Y-83555333D01*
X223175000Y-83055333D01*
X223075000Y-83055333D01*
X223075000Y-82585333D01*
X224075000Y-82585333D01*
X224075000Y-83555333D01*
G37*
%TO.C,Q3_H1*%
X222160000Y-91312667D02*
X221840000Y-91312667D01*
X221840000Y-90752667D01*
X222160000Y-90752667D01*
X222160000Y-91312667D01*
G36*
X222160000Y-91312667D02*
G01*
X221840000Y-91312667D01*
X221840000Y-90752667D01*
X222160000Y-90752667D01*
X222160000Y-91312667D01*
G37*
X222810000Y-91312667D02*
X222490000Y-91312667D01*
X222490000Y-90752667D01*
X222810000Y-90752667D01*
X222810000Y-91312667D01*
G36*
X222810000Y-91312667D02*
G01*
X222490000Y-91312667D01*
X222490000Y-90752667D01*
X222810000Y-90752667D01*
X222810000Y-91312667D01*
G37*
X223460000Y-91312667D02*
X223140000Y-91312667D01*
X223140000Y-90752667D01*
X223460000Y-90752667D01*
X223460000Y-91312667D01*
G36*
X223460000Y-91312667D02*
G01*
X223140000Y-91312667D01*
X223140000Y-90752667D01*
X223460000Y-90752667D01*
X223460000Y-91312667D01*
G37*
X224110000Y-91312667D02*
X223790000Y-91312667D01*
X223790000Y-90752667D01*
X224110000Y-90752667D01*
X224110000Y-91312667D01*
G36*
X224110000Y-91312667D02*
G01*
X223790000Y-91312667D01*
X223790000Y-90752667D01*
X224110000Y-90752667D01*
X224110000Y-91312667D01*
G37*
X222875000Y-93082667D02*
X221875000Y-93082667D01*
X221875000Y-92682667D01*
X221325000Y-92682667D01*
X221325000Y-92262667D01*
X221875000Y-92262667D01*
X221875000Y-92082667D01*
X222875000Y-92082667D01*
X222875000Y-93082667D01*
G36*
X222875000Y-93082667D02*
G01*
X221875000Y-93082667D01*
X221875000Y-92682667D01*
X221325000Y-92682667D01*
X221325000Y-92262667D01*
X221875000Y-92262667D01*
X221875000Y-92082667D01*
X222875000Y-92082667D01*
X222875000Y-93082667D01*
G37*
X224075000Y-92262667D02*
X224625000Y-92262667D01*
X224625000Y-92682667D01*
X224075000Y-92682667D01*
X224075000Y-93082667D01*
X223075000Y-93082667D01*
X223075000Y-92082667D01*
X224075000Y-92082667D01*
X224075000Y-92262667D01*
G36*
X224075000Y-92262667D02*
G01*
X224625000Y-92262667D01*
X224625000Y-92682667D01*
X224075000Y-92682667D01*
X224075000Y-93082667D01*
X223075000Y-93082667D01*
X223075000Y-92082667D01*
X224075000Y-92082667D01*
X224075000Y-92262667D01*
G37*
X222875000Y-93752667D02*
X222775000Y-93752667D01*
X222775000Y-94252667D01*
X222515000Y-94252667D01*
X222515000Y-93752667D01*
X222135000Y-93752667D01*
X222135000Y-94252667D01*
X221875000Y-94252667D01*
X221875000Y-93282667D01*
X222875000Y-93282667D01*
X222875000Y-93752667D01*
G36*
X222875000Y-93752667D02*
G01*
X222775000Y-93752667D01*
X222775000Y-94252667D01*
X222515000Y-94252667D01*
X222515000Y-93752667D01*
X222135000Y-93752667D01*
X222135000Y-94252667D01*
X221875000Y-94252667D01*
X221875000Y-93282667D01*
X222875000Y-93282667D01*
X222875000Y-93752667D01*
G37*
X224075000Y-94252667D02*
X223815000Y-94252667D01*
X223815000Y-93752667D01*
X223435000Y-93752667D01*
X223435000Y-94252667D01*
X223175000Y-94252667D01*
X223175000Y-93752667D01*
X223075000Y-93752667D01*
X223075000Y-93282667D01*
X224075000Y-93282667D01*
X224075000Y-94252667D01*
G36*
X224075000Y-94252667D02*
G01*
X223815000Y-94252667D01*
X223815000Y-93752667D01*
X223435000Y-93752667D01*
X223435000Y-94252667D01*
X223175000Y-94252667D01*
X223175000Y-93752667D01*
X223075000Y-93752667D01*
X223075000Y-93282667D01*
X224075000Y-93282667D01*
X224075000Y-94252667D01*
G37*
%TO.C,Q10_H1*%
X222160000Y-53872000D02*
X221840000Y-53872000D01*
X221840000Y-53312000D01*
X222160000Y-53312000D01*
X222160000Y-53872000D01*
G36*
X222160000Y-53872000D02*
G01*
X221840000Y-53872000D01*
X221840000Y-53312000D01*
X222160000Y-53312000D01*
X222160000Y-53872000D01*
G37*
X222810000Y-53872000D02*
X222490000Y-53872000D01*
X222490000Y-53312000D01*
X222810000Y-53312000D01*
X222810000Y-53872000D01*
G36*
X222810000Y-53872000D02*
G01*
X222490000Y-53872000D01*
X222490000Y-53312000D01*
X222810000Y-53312000D01*
X222810000Y-53872000D01*
G37*
X223460000Y-53872000D02*
X223140000Y-53872000D01*
X223140000Y-53312000D01*
X223460000Y-53312000D01*
X223460000Y-53872000D01*
G36*
X223460000Y-53872000D02*
G01*
X223140000Y-53872000D01*
X223140000Y-53312000D01*
X223460000Y-53312000D01*
X223460000Y-53872000D01*
G37*
X224110000Y-53872000D02*
X223790000Y-53872000D01*
X223790000Y-53312000D01*
X224110000Y-53312000D01*
X224110000Y-53872000D01*
G36*
X224110000Y-53872000D02*
G01*
X223790000Y-53872000D01*
X223790000Y-53312000D01*
X224110000Y-53312000D01*
X224110000Y-53872000D01*
G37*
X222875000Y-55642000D02*
X221875000Y-55642000D01*
X221875000Y-55242000D01*
X221325000Y-55242000D01*
X221325000Y-54822000D01*
X221875000Y-54822000D01*
X221875000Y-54642000D01*
X222875000Y-54642000D01*
X222875000Y-55642000D01*
G36*
X222875000Y-55642000D02*
G01*
X221875000Y-55642000D01*
X221875000Y-55242000D01*
X221325000Y-55242000D01*
X221325000Y-54822000D01*
X221875000Y-54822000D01*
X221875000Y-54642000D01*
X222875000Y-54642000D01*
X222875000Y-55642000D01*
G37*
X224075000Y-54822000D02*
X224625000Y-54822000D01*
X224625000Y-55242000D01*
X224075000Y-55242000D01*
X224075000Y-55642000D01*
X223075000Y-55642000D01*
X223075000Y-54642000D01*
X224075000Y-54642000D01*
X224075000Y-54822000D01*
G36*
X224075000Y-54822000D02*
G01*
X224625000Y-54822000D01*
X224625000Y-55242000D01*
X224075000Y-55242000D01*
X224075000Y-55642000D01*
X223075000Y-55642000D01*
X223075000Y-54642000D01*
X224075000Y-54642000D01*
X224075000Y-54822000D01*
G37*
X222875000Y-56312000D02*
X222775000Y-56312000D01*
X222775000Y-56812000D01*
X222515000Y-56812000D01*
X222515000Y-56312000D01*
X222135000Y-56312000D01*
X222135000Y-56812000D01*
X221875000Y-56812000D01*
X221875000Y-55842000D01*
X222875000Y-55842000D01*
X222875000Y-56312000D01*
G36*
X222875000Y-56312000D02*
G01*
X222775000Y-56312000D01*
X222775000Y-56812000D01*
X222515000Y-56812000D01*
X222515000Y-56312000D01*
X222135000Y-56312000D01*
X222135000Y-56812000D01*
X221875000Y-56812000D01*
X221875000Y-55842000D01*
X222875000Y-55842000D01*
X222875000Y-56312000D01*
G37*
X224075000Y-56812000D02*
X223815000Y-56812000D01*
X223815000Y-56312000D01*
X223435000Y-56312000D01*
X223435000Y-56812000D01*
X223175000Y-56812000D01*
X223175000Y-56312000D01*
X223075000Y-56312000D01*
X223075000Y-55842000D01*
X224075000Y-55842000D01*
X224075000Y-56812000D01*
G36*
X224075000Y-56812000D02*
G01*
X223815000Y-56812000D01*
X223815000Y-56312000D01*
X223435000Y-56312000D01*
X223435000Y-56812000D01*
X223175000Y-56812000D01*
X223175000Y-56312000D01*
X223075000Y-56312000D01*
X223075000Y-55842000D01*
X224075000Y-55842000D01*
X224075000Y-56812000D01*
G37*
%TO.C,Q3_L1*%
X193160000Y-91068350D02*
X192840000Y-91068350D01*
X192840000Y-90508350D01*
X193160000Y-90508350D01*
X193160000Y-91068350D01*
G36*
X193160000Y-91068350D02*
G01*
X192840000Y-91068350D01*
X192840000Y-90508350D01*
X193160000Y-90508350D01*
X193160000Y-91068350D01*
G37*
X193810000Y-91068350D02*
X193490000Y-91068350D01*
X193490000Y-90508350D01*
X193810000Y-90508350D01*
X193810000Y-91068350D01*
G36*
X193810000Y-91068350D02*
G01*
X193490000Y-91068350D01*
X193490000Y-90508350D01*
X193810000Y-90508350D01*
X193810000Y-91068350D01*
G37*
X194460000Y-91068350D02*
X194140000Y-91068350D01*
X194140000Y-90508350D01*
X194460000Y-90508350D01*
X194460000Y-91068350D01*
G36*
X194460000Y-91068350D02*
G01*
X194140000Y-91068350D01*
X194140000Y-90508350D01*
X194460000Y-90508350D01*
X194460000Y-91068350D01*
G37*
X195110000Y-91068350D02*
X194790000Y-91068350D01*
X194790000Y-90508350D01*
X195110000Y-90508350D01*
X195110000Y-91068350D01*
G36*
X195110000Y-91068350D02*
G01*
X194790000Y-91068350D01*
X194790000Y-90508350D01*
X195110000Y-90508350D01*
X195110000Y-91068350D01*
G37*
X193875000Y-92838350D02*
X192875000Y-92838350D01*
X192875000Y-92438350D01*
X192325000Y-92438350D01*
X192325000Y-92018350D01*
X192875000Y-92018350D01*
X192875000Y-91838350D01*
X193875000Y-91838350D01*
X193875000Y-92838350D01*
G36*
X193875000Y-92838350D02*
G01*
X192875000Y-92838350D01*
X192875000Y-92438350D01*
X192325000Y-92438350D01*
X192325000Y-92018350D01*
X192875000Y-92018350D01*
X192875000Y-91838350D01*
X193875000Y-91838350D01*
X193875000Y-92838350D01*
G37*
X195075000Y-92018350D02*
X195625000Y-92018350D01*
X195625000Y-92438350D01*
X195075000Y-92438350D01*
X195075000Y-92838350D01*
X194075000Y-92838350D01*
X194075000Y-91838350D01*
X195075000Y-91838350D01*
X195075000Y-92018350D01*
G36*
X195075000Y-92018350D02*
G01*
X195625000Y-92018350D01*
X195625000Y-92438350D01*
X195075000Y-92438350D01*
X195075000Y-92838350D01*
X194075000Y-92838350D01*
X194075000Y-91838350D01*
X195075000Y-91838350D01*
X195075000Y-92018350D01*
G37*
X193875000Y-93508350D02*
X193775000Y-93508350D01*
X193775000Y-94008350D01*
X193515000Y-94008350D01*
X193515000Y-93508350D01*
X193135000Y-93508350D01*
X193135000Y-94008350D01*
X192875000Y-94008350D01*
X192875000Y-93038350D01*
X193875000Y-93038350D01*
X193875000Y-93508350D01*
G36*
X193875000Y-93508350D02*
G01*
X193775000Y-93508350D01*
X193775000Y-94008350D01*
X193515000Y-94008350D01*
X193515000Y-93508350D01*
X193135000Y-93508350D01*
X193135000Y-94008350D01*
X192875000Y-94008350D01*
X192875000Y-93038350D01*
X193875000Y-93038350D01*
X193875000Y-93508350D01*
G37*
X195075000Y-94008350D02*
X194815000Y-94008350D01*
X194815000Y-93508350D01*
X194435000Y-93508350D01*
X194435000Y-94008350D01*
X194175000Y-94008350D01*
X194175000Y-93508350D01*
X194075000Y-93508350D01*
X194075000Y-93038350D01*
X195075000Y-93038350D01*
X195075000Y-94008350D01*
G36*
X195075000Y-94008350D02*
G01*
X194815000Y-94008350D01*
X194815000Y-93508350D01*
X194435000Y-93508350D01*
X194435000Y-94008350D01*
X194175000Y-94008350D01*
X194175000Y-93508350D01*
X194075000Y-93508350D01*
X194075000Y-93038350D01*
X195075000Y-93038350D01*
X195075000Y-94008350D01*
G37*
%TO.C,Q14_H1*%
X222160000Y-32477333D02*
X221840000Y-32477333D01*
X221840000Y-31917333D01*
X222160000Y-31917333D01*
X222160000Y-32477333D01*
G36*
X222160000Y-32477333D02*
G01*
X221840000Y-32477333D01*
X221840000Y-31917333D01*
X222160000Y-31917333D01*
X222160000Y-32477333D01*
G37*
X222810000Y-32477333D02*
X222490000Y-32477333D01*
X222490000Y-31917333D01*
X222810000Y-31917333D01*
X222810000Y-32477333D01*
G36*
X222810000Y-32477333D02*
G01*
X222490000Y-32477333D01*
X222490000Y-31917333D01*
X222810000Y-31917333D01*
X222810000Y-32477333D01*
G37*
X223460000Y-32477333D02*
X223140000Y-32477333D01*
X223140000Y-31917333D01*
X223460000Y-31917333D01*
X223460000Y-32477333D01*
G36*
X223460000Y-32477333D02*
G01*
X223140000Y-32477333D01*
X223140000Y-31917333D01*
X223460000Y-31917333D01*
X223460000Y-32477333D01*
G37*
X224110000Y-32477333D02*
X223790000Y-32477333D01*
X223790000Y-31917333D01*
X224110000Y-31917333D01*
X224110000Y-32477333D01*
G36*
X224110000Y-32477333D02*
G01*
X223790000Y-32477333D01*
X223790000Y-31917333D01*
X224110000Y-31917333D01*
X224110000Y-32477333D01*
G37*
X222875000Y-34247333D02*
X221875000Y-34247333D01*
X221875000Y-33847333D01*
X221325000Y-33847333D01*
X221325000Y-33427333D01*
X221875000Y-33427333D01*
X221875000Y-33247333D01*
X222875000Y-33247333D01*
X222875000Y-34247333D01*
G36*
X222875000Y-34247333D02*
G01*
X221875000Y-34247333D01*
X221875000Y-33847333D01*
X221325000Y-33847333D01*
X221325000Y-33427333D01*
X221875000Y-33427333D01*
X221875000Y-33247333D01*
X222875000Y-33247333D01*
X222875000Y-34247333D01*
G37*
X224075000Y-33427333D02*
X224625000Y-33427333D01*
X224625000Y-33847333D01*
X224075000Y-33847333D01*
X224075000Y-34247333D01*
X223075000Y-34247333D01*
X223075000Y-33247333D01*
X224075000Y-33247333D01*
X224075000Y-33427333D01*
G36*
X224075000Y-33427333D02*
G01*
X224625000Y-33427333D01*
X224625000Y-33847333D01*
X224075000Y-33847333D01*
X224075000Y-34247333D01*
X223075000Y-34247333D01*
X223075000Y-33247333D01*
X224075000Y-33247333D01*
X224075000Y-33427333D01*
G37*
X222875000Y-34917333D02*
X222775000Y-34917333D01*
X222775000Y-35417333D01*
X222515000Y-35417333D01*
X222515000Y-34917333D01*
X222135000Y-34917333D01*
X222135000Y-35417333D01*
X221875000Y-35417333D01*
X221875000Y-34447333D01*
X222875000Y-34447333D01*
X222875000Y-34917333D01*
G36*
X222875000Y-34917333D02*
G01*
X222775000Y-34917333D01*
X222775000Y-35417333D01*
X222515000Y-35417333D01*
X222515000Y-34917333D01*
X222135000Y-34917333D01*
X222135000Y-35417333D01*
X221875000Y-35417333D01*
X221875000Y-34447333D01*
X222875000Y-34447333D01*
X222875000Y-34917333D01*
G37*
X224075000Y-35417333D02*
X223815000Y-35417333D01*
X223815000Y-34917333D01*
X223435000Y-34917333D01*
X223435000Y-35417333D01*
X223175000Y-35417333D01*
X223175000Y-34917333D01*
X223075000Y-34917333D01*
X223075000Y-34447333D01*
X224075000Y-34447333D01*
X224075000Y-35417333D01*
G36*
X224075000Y-35417333D02*
G01*
X223815000Y-35417333D01*
X223815000Y-34917333D01*
X223435000Y-34917333D01*
X223435000Y-35417333D01*
X223175000Y-35417333D01*
X223175000Y-34917333D01*
X223075000Y-34917333D01*
X223075000Y-34447333D01*
X224075000Y-34447333D01*
X224075000Y-35417333D01*
G37*
%TO.C,Q2_H1*%
X222160000Y-96661333D02*
X221840000Y-96661333D01*
X221840000Y-96101333D01*
X222160000Y-96101333D01*
X222160000Y-96661333D01*
G36*
X222160000Y-96661333D02*
G01*
X221840000Y-96661333D01*
X221840000Y-96101333D01*
X222160000Y-96101333D01*
X222160000Y-96661333D01*
G37*
X222810000Y-96661333D02*
X222490000Y-96661333D01*
X222490000Y-96101333D01*
X222810000Y-96101333D01*
X222810000Y-96661333D01*
G36*
X222810000Y-96661333D02*
G01*
X222490000Y-96661333D01*
X222490000Y-96101333D01*
X222810000Y-96101333D01*
X222810000Y-96661333D01*
G37*
X223460000Y-96661333D02*
X223140000Y-96661333D01*
X223140000Y-96101333D01*
X223460000Y-96101333D01*
X223460000Y-96661333D01*
G36*
X223460000Y-96661333D02*
G01*
X223140000Y-96661333D01*
X223140000Y-96101333D01*
X223460000Y-96101333D01*
X223460000Y-96661333D01*
G37*
X224110000Y-96661333D02*
X223790000Y-96661333D01*
X223790000Y-96101333D01*
X224110000Y-96101333D01*
X224110000Y-96661333D01*
G36*
X224110000Y-96661333D02*
G01*
X223790000Y-96661333D01*
X223790000Y-96101333D01*
X224110000Y-96101333D01*
X224110000Y-96661333D01*
G37*
X222875000Y-98431333D02*
X221875000Y-98431333D01*
X221875000Y-98031333D01*
X221325000Y-98031333D01*
X221325000Y-97611333D01*
X221875000Y-97611333D01*
X221875000Y-97431333D01*
X222875000Y-97431333D01*
X222875000Y-98431333D01*
G36*
X222875000Y-98431333D02*
G01*
X221875000Y-98431333D01*
X221875000Y-98031333D01*
X221325000Y-98031333D01*
X221325000Y-97611333D01*
X221875000Y-97611333D01*
X221875000Y-97431333D01*
X222875000Y-97431333D01*
X222875000Y-98431333D01*
G37*
X224075000Y-97611333D02*
X224625000Y-97611333D01*
X224625000Y-98031333D01*
X224075000Y-98031333D01*
X224075000Y-98431333D01*
X223075000Y-98431333D01*
X223075000Y-97431333D01*
X224075000Y-97431333D01*
X224075000Y-97611333D01*
G36*
X224075000Y-97611333D02*
G01*
X224625000Y-97611333D01*
X224625000Y-98031333D01*
X224075000Y-98031333D01*
X224075000Y-98431333D01*
X223075000Y-98431333D01*
X223075000Y-97431333D01*
X224075000Y-97431333D01*
X224075000Y-97611333D01*
G37*
X222875000Y-99101333D02*
X222775000Y-99101333D01*
X222775000Y-99601333D01*
X222515000Y-99601333D01*
X222515000Y-99101333D01*
X222135000Y-99101333D01*
X222135000Y-99601333D01*
X221875000Y-99601333D01*
X221875000Y-98631333D01*
X222875000Y-98631333D01*
X222875000Y-99101333D01*
G36*
X222875000Y-99101333D02*
G01*
X222775000Y-99101333D01*
X222775000Y-99601333D01*
X222515000Y-99601333D01*
X222515000Y-99101333D01*
X222135000Y-99101333D01*
X222135000Y-99601333D01*
X221875000Y-99601333D01*
X221875000Y-98631333D01*
X222875000Y-98631333D01*
X222875000Y-99101333D01*
G37*
X224075000Y-99601333D02*
X223815000Y-99601333D01*
X223815000Y-99101333D01*
X223435000Y-99101333D01*
X223435000Y-99601333D01*
X223175000Y-99601333D01*
X223175000Y-99101333D01*
X223075000Y-99101333D01*
X223075000Y-98631333D01*
X224075000Y-98631333D01*
X224075000Y-99601333D01*
G36*
X224075000Y-99601333D02*
G01*
X223815000Y-99601333D01*
X223815000Y-99101333D01*
X223435000Y-99101333D01*
X223435000Y-99601333D01*
X223175000Y-99601333D01*
X223175000Y-99101333D01*
X223075000Y-99101333D01*
X223075000Y-98631333D01*
X224075000Y-98631333D01*
X224075000Y-99601333D01*
G37*
%TO.C,Q4_L1*%
X193160000Y-85738477D02*
X192840000Y-85738477D01*
X192840000Y-85178477D01*
X193160000Y-85178477D01*
X193160000Y-85738477D01*
G36*
X193160000Y-85738477D02*
G01*
X192840000Y-85738477D01*
X192840000Y-85178477D01*
X193160000Y-85178477D01*
X193160000Y-85738477D01*
G37*
X193810000Y-85738477D02*
X193490000Y-85738477D01*
X193490000Y-85178477D01*
X193810000Y-85178477D01*
X193810000Y-85738477D01*
G36*
X193810000Y-85738477D02*
G01*
X193490000Y-85738477D01*
X193490000Y-85178477D01*
X193810000Y-85178477D01*
X193810000Y-85738477D01*
G37*
X194460000Y-85738477D02*
X194140000Y-85738477D01*
X194140000Y-85178477D01*
X194460000Y-85178477D01*
X194460000Y-85738477D01*
G36*
X194460000Y-85738477D02*
G01*
X194140000Y-85738477D01*
X194140000Y-85178477D01*
X194460000Y-85178477D01*
X194460000Y-85738477D01*
G37*
X195110000Y-85738477D02*
X194790000Y-85738477D01*
X194790000Y-85178477D01*
X195110000Y-85178477D01*
X195110000Y-85738477D01*
G36*
X195110000Y-85738477D02*
G01*
X194790000Y-85738477D01*
X194790000Y-85178477D01*
X195110000Y-85178477D01*
X195110000Y-85738477D01*
G37*
X193875000Y-87508477D02*
X192875000Y-87508477D01*
X192875000Y-87108477D01*
X192325000Y-87108477D01*
X192325000Y-86688477D01*
X192875000Y-86688477D01*
X192875000Y-86508477D01*
X193875000Y-86508477D01*
X193875000Y-87508477D01*
G36*
X193875000Y-87508477D02*
G01*
X192875000Y-87508477D01*
X192875000Y-87108477D01*
X192325000Y-87108477D01*
X192325000Y-86688477D01*
X192875000Y-86688477D01*
X192875000Y-86508477D01*
X193875000Y-86508477D01*
X193875000Y-87508477D01*
G37*
X195075000Y-86688477D02*
X195625000Y-86688477D01*
X195625000Y-87108477D01*
X195075000Y-87108477D01*
X195075000Y-87508477D01*
X194075000Y-87508477D01*
X194075000Y-86508477D01*
X195075000Y-86508477D01*
X195075000Y-86688477D01*
G36*
X195075000Y-86688477D02*
G01*
X195625000Y-86688477D01*
X195625000Y-87108477D01*
X195075000Y-87108477D01*
X195075000Y-87508477D01*
X194075000Y-87508477D01*
X194075000Y-86508477D01*
X195075000Y-86508477D01*
X195075000Y-86688477D01*
G37*
X193875000Y-88178477D02*
X193775000Y-88178477D01*
X193775000Y-88678477D01*
X193515000Y-88678477D01*
X193515000Y-88178477D01*
X193135000Y-88178477D01*
X193135000Y-88678477D01*
X192875000Y-88678477D01*
X192875000Y-87708477D01*
X193875000Y-87708477D01*
X193875000Y-88178477D01*
G36*
X193875000Y-88178477D02*
G01*
X193775000Y-88178477D01*
X193775000Y-88678477D01*
X193515000Y-88678477D01*
X193515000Y-88178477D01*
X193135000Y-88178477D01*
X193135000Y-88678477D01*
X192875000Y-88678477D01*
X192875000Y-87708477D01*
X193875000Y-87708477D01*
X193875000Y-88178477D01*
G37*
X195075000Y-88678477D02*
X194815000Y-88678477D01*
X194815000Y-88178477D01*
X194435000Y-88178477D01*
X194435000Y-88678477D01*
X194175000Y-88678477D01*
X194175000Y-88178477D01*
X194075000Y-88178477D01*
X194075000Y-87708477D01*
X195075000Y-87708477D01*
X195075000Y-88678477D01*
G36*
X195075000Y-88678477D02*
G01*
X194815000Y-88678477D01*
X194815000Y-88178477D01*
X194435000Y-88178477D01*
X194435000Y-88678477D01*
X194175000Y-88678477D01*
X194175000Y-88178477D01*
X194075000Y-88178477D01*
X194075000Y-87708477D01*
X195075000Y-87708477D01*
X195075000Y-88678477D01*
G37*
%TO.C,Q15_L1*%
X193160000Y-27109873D02*
X192840000Y-27109873D01*
X192840000Y-26549873D01*
X193160000Y-26549873D01*
X193160000Y-27109873D01*
G36*
X193160000Y-27109873D02*
G01*
X192840000Y-27109873D01*
X192840000Y-26549873D01*
X193160000Y-26549873D01*
X193160000Y-27109873D01*
G37*
X193810000Y-27109873D02*
X193490000Y-27109873D01*
X193490000Y-26549873D01*
X193810000Y-26549873D01*
X193810000Y-27109873D01*
G36*
X193810000Y-27109873D02*
G01*
X193490000Y-27109873D01*
X193490000Y-26549873D01*
X193810000Y-26549873D01*
X193810000Y-27109873D01*
G37*
X194460000Y-27109873D02*
X194140000Y-27109873D01*
X194140000Y-26549873D01*
X194460000Y-26549873D01*
X194460000Y-27109873D01*
G36*
X194460000Y-27109873D02*
G01*
X194140000Y-27109873D01*
X194140000Y-26549873D01*
X194460000Y-26549873D01*
X194460000Y-27109873D01*
G37*
X195110000Y-27109873D02*
X194790000Y-27109873D01*
X194790000Y-26549873D01*
X195110000Y-26549873D01*
X195110000Y-27109873D01*
G36*
X195110000Y-27109873D02*
G01*
X194790000Y-27109873D01*
X194790000Y-26549873D01*
X195110000Y-26549873D01*
X195110000Y-27109873D01*
G37*
X193875000Y-28879873D02*
X192875000Y-28879873D01*
X192875000Y-28479873D01*
X192325000Y-28479873D01*
X192325000Y-28059873D01*
X192875000Y-28059873D01*
X192875000Y-27879873D01*
X193875000Y-27879873D01*
X193875000Y-28879873D01*
G36*
X193875000Y-28879873D02*
G01*
X192875000Y-28879873D01*
X192875000Y-28479873D01*
X192325000Y-28479873D01*
X192325000Y-28059873D01*
X192875000Y-28059873D01*
X192875000Y-27879873D01*
X193875000Y-27879873D01*
X193875000Y-28879873D01*
G37*
X195075000Y-28059873D02*
X195625000Y-28059873D01*
X195625000Y-28479873D01*
X195075000Y-28479873D01*
X195075000Y-28879873D01*
X194075000Y-28879873D01*
X194075000Y-27879873D01*
X195075000Y-27879873D01*
X195075000Y-28059873D01*
G36*
X195075000Y-28059873D02*
G01*
X195625000Y-28059873D01*
X195625000Y-28479873D01*
X195075000Y-28479873D01*
X195075000Y-28879873D01*
X194075000Y-28879873D01*
X194075000Y-27879873D01*
X195075000Y-27879873D01*
X195075000Y-28059873D01*
G37*
X193875000Y-29549873D02*
X193775000Y-29549873D01*
X193775000Y-30049873D01*
X193515000Y-30049873D01*
X193515000Y-29549873D01*
X193135000Y-29549873D01*
X193135000Y-30049873D01*
X192875000Y-30049873D01*
X192875000Y-29079873D01*
X193875000Y-29079873D01*
X193875000Y-29549873D01*
G36*
X193875000Y-29549873D02*
G01*
X193775000Y-29549873D01*
X193775000Y-30049873D01*
X193515000Y-30049873D01*
X193515000Y-29549873D01*
X193135000Y-29549873D01*
X193135000Y-30049873D01*
X192875000Y-30049873D01*
X192875000Y-29079873D01*
X193875000Y-29079873D01*
X193875000Y-29549873D01*
G37*
X195075000Y-30049873D02*
X194815000Y-30049873D01*
X194815000Y-29549873D01*
X194435000Y-29549873D01*
X194435000Y-30049873D01*
X194175000Y-30049873D01*
X194175000Y-29549873D01*
X194075000Y-29549873D01*
X194075000Y-29079873D01*
X195075000Y-29079873D01*
X195075000Y-30049873D01*
G36*
X195075000Y-30049873D02*
G01*
X194815000Y-30049873D01*
X194815000Y-29549873D01*
X194435000Y-29549873D01*
X194435000Y-30049873D01*
X194175000Y-30049873D01*
X194175000Y-29549873D01*
X194075000Y-29549873D01*
X194075000Y-29079873D01*
X195075000Y-29079873D01*
X195075000Y-30049873D01*
G37*
%TO.C,Q2_L1*%
X193160000Y-96398223D02*
X192840000Y-96398223D01*
X192840000Y-95838223D01*
X193160000Y-95838223D01*
X193160000Y-96398223D01*
G36*
X193160000Y-96398223D02*
G01*
X192840000Y-96398223D01*
X192840000Y-95838223D01*
X193160000Y-95838223D01*
X193160000Y-96398223D01*
G37*
X193810000Y-96398223D02*
X193490000Y-96398223D01*
X193490000Y-95838223D01*
X193810000Y-95838223D01*
X193810000Y-96398223D01*
G36*
X193810000Y-96398223D02*
G01*
X193490000Y-96398223D01*
X193490000Y-95838223D01*
X193810000Y-95838223D01*
X193810000Y-96398223D01*
G37*
X194460000Y-96398223D02*
X194140000Y-96398223D01*
X194140000Y-95838223D01*
X194460000Y-95838223D01*
X194460000Y-96398223D01*
G36*
X194460000Y-96398223D02*
G01*
X194140000Y-96398223D01*
X194140000Y-95838223D01*
X194460000Y-95838223D01*
X194460000Y-96398223D01*
G37*
X195110000Y-96398223D02*
X194790000Y-96398223D01*
X194790000Y-95838223D01*
X195110000Y-95838223D01*
X195110000Y-96398223D01*
G36*
X195110000Y-96398223D02*
G01*
X194790000Y-96398223D01*
X194790000Y-95838223D01*
X195110000Y-95838223D01*
X195110000Y-96398223D01*
G37*
X193875000Y-98168223D02*
X192875000Y-98168223D01*
X192875000Y-97768223D01*
X192325000Y-97768223D01*
X192325000Y-97348223D01*
X192875000Y-97348223D01*
X192875000Y-97168223D01*
X193875000Y-97168223D01*
X193875000Y-98168223D01*
G36*
X193875000Y-98168223D02*
G01*
X192875000Y-98168223D01*
X192875000Y-97768223D01*
X192325000Y-97768223D01*
X192325000Y-97348223D01*
X192875000Y-97348223D01*
X192875000Y-97168223D01*
X193875000Y-97168223D01*
X193875000Y-98168223D01*
G37*
X195075000Y-97348223D02*
X195625000Y-97348223D01*
X195625000Y-97768223D01*
X195075000Y-97768223D01*
X195075000Y-98168223D01*
X194075000Y-98168223D01*
X194075000Y-97168223D01*
X195075000Y-97168223D01*
X195075000Y-97348223D01*
G36*
X195075000Y-97348223D02*
G01*
X195625000Y-97348223D01*
X195625000Y-97768223D01*
X195075000Y-97768223D01*
X195075000Y-98168223D01*
X194075000Y-98168223D01*
X194075000Y-97168223D01*
X195075000Y-97168223D01*
X195075000Y-97348223D01*
G37*
X193875000Y-98838223D02*
X193775000Y-98838223D01*
X193775000Y-99338223D01*
X193515000Y-99338223D01*
X193515000Y-98838223D01*
X193135000Y-98838223D01*
X193135000Y-99338223D01*
X192875000Y-99338223D01*
X192875000Y-98368223D01*
X193875000Y-98368223D01*
X193875000Y-98838223D01*
G36*
X193875000Y-98838223D02*
G01*
X193775000Y-98838223D01*
X193775000Y-99338223D01*
X193515000Y-99338223D01*
X193515000Y-98838223D01*
X193135000Y-98838223D01*
X193135000Y-99338223D01*
X192875000Y-99338223D01*
X192875000Y-98368223D01*
X193875000Y-98368223D01*
X193875000Y-98838223D01*
G37*
X195075000Y-99338223D02*
X194815000Y-99338223D01*
X194815000Y-98838223D01*
X194435000Y-98838223D01*
X194435000Y-99338223D01*
X194175000Y-99338223D01*
X194175000Y-98838223D01*
X194075000Y-98838223D01*
X194075000Y-98368223D01*
X195075000Y-98368223D01*
X195075000Y-99338223D01*
G36*
X195075000Y-99338223D02*
G01*
X194815000Y-99338223D01*
X194815000Y-98838223D01*
X194435000Y-98838223D01*
X194435000Y-99338223D01*
X194175000Y-99338223D01*
X194175000Y-98838223D01*
X194075000Y-98838223D01*
X194075000Y-98368223D01*
X195075000Y-98368223D01*
X195075000Y-99338223D01*
G37*
%TO.C,Q1_L1*%
X193160000Y-101728096D02*
X192840000Y-101728096D01*
X192840000Y-101168096D01*
X193160000Y-101168096D01*
X193160000Y-101728096D01*
G36*
X193160000Y-101728096D02*
G01*
X192840000Y-101728096D01*
X192840000Y-101168096D01*
X193160000Y-101168096D01*
X193160000Y-101728096D01*
G37*
X193810000Y-101728096D02*
X193490000Y-101728096D01*
X193490000Y-101168096D01*
X193810000Y-101168096D01*
X193810000Y-101728096D01*
G36*
X193810000Y-101728096D02*
G01*
X193490000Y-101728096D01*
X193490000Y-101168096D01*
X193810000Y-101168096D01*
X193810000Y-101728096D01*
G37*
X194460000Y-101728096D02*
X194140000Y-101728096D01*
X194140000Y-101168096D01*
X194460000Y-101168096D01*
X194460000Y-101728096D01*
G36*
X194460000Y-101728096D02*
G01*
X194140000Y-101728096D01*
X194140000Y-101168096D01*
X194460000Y-101168096D01*
X194460000Y-101728096D01*
G37*
X195110000Y-101728096D02*
X194790000Y-101728096D01*
X194790000Y-101168096D01*
X195110000Y-101168096D01*
X195110000Y-101728096D01*
G36*
X195110000Y-101728096D02*
G01*
X194790000Y-101728096D01*
X194790000Y-101168096D01*
X195110000Y-101168096D01*
X195110000Y-101728096D01*
G37*
X193875000Y-103498096D02*
X192875000Y-103498096D01*
X192875000Y-103098096D01*
X192325000Y-103098096D01*
X192325000Y-102678096D01*
X192875000Y-102678096D01*
X192875000Y-102498096D01*
X193875000Y-102498096D01*
X193875000Y-103498096D01*
G36*
X193875000Y-103498096D02*
G01*
X192875000Y-103498096D01*
X192875000Y-103098096D01*
X192325000Y-103098096D01*
X192325000Y-102678096D01*
X192875000Y-102678096D01*
X192875000Y-102498096D01*
X193875000Y-102498096D01*
X193875000Y-103498096D01*
G37*
X195075000Y-102678096D02*
X195625000Y-102678096D01*
X195625000Y-103098096D01*
X195075000Y-103098096D01*
X195075000Y-103498096D01*
X194075000Y-103498096D01*
X194075000Y-102498096D01*
X195075000Y-102498096D01*
X195075000Y-102678096D01*
G36*
X195075000Y-102678096D02*
G01*
X195625000Y-102678096D01*
X195625000Y-103098096D01*
X195075000Y-103098096D01*
X195075000Y-103498096D01*
X194075000Y-103498096D01*
X194075000Y-102498096D01*
X195075000Y-102498096D01*
X195075000Y-102678096D01*
G37*
X193875000Y-104168096D02*
X193775000Y-104168096D01*
X193775000Y-104668096D01*
X193515000Y-104668096D01*
X193515000Y-104168096D01*
X193135000Y-104168096D01*
X193135000Y-104668096D01*
X192875000Y-104668096D01*
X192875000Y-103698096D01*
X193875000Y-103698096D01*
X193875000Y-104168096D01*
G36*
X193875000Y-104168096D02*
G01*
X193775000Y-104168096D01*
X193775000Y-104668096D01*
X193515000Y-104668096D01*
X193515000Y-104168096D01*
X193135000Y-104168096D01*
X193135000Y-104668096D01*
X192875000Y-104668096D01*
X192875000Y-103698096D01*
X193875000Y-103698096D01*
X193875000Y-104168096D01*
G37*
X195075000Y-104668096D02*
X194815000Y-104668096D01*
X194815000Y-104168096D01*
X194435000Y-104168096D01*
X194435000Y-104668096D01*
X194175000Y-104668096D01*
X194175000Y-104168096D01*
X194075000Y-104168096D01*
X194075000Y-103698096D01*
X195075000Y-103698096D01*
X195075000Y-104668096D01*
G36*
X195075000Y-104668096D02*
G01*
X194815000Y-104668096D01*
X194815000Y-104168096D01*
X194435000Y-104168096D01*
X194435000Y-104668096D01*
X194175000Y-104668096D01*
X194175000Y-104168096D01*
X194075000Y-104168096D01*
X194075000Y-103698096D01*
X195075000Y-103698096D01*
X195075000Y-104668096D01*
G37*
%TO.C,Q7_H1*%
X222160000Y-69918000D02*
X221840000Y-69918000D01*
X221840000Y-69358000D01*
X222160000Y-69358000D01*
X222160000Y-69918000D01*
G36*
X222160000Y-69918000D02*
G01*
X221840000Y-69918000D01*
X221840000Y-69358000D01*
X222160000Y-69358000D01*
X222160000Y-69918000D01*
G37*
X222810000Y-69918000D02*
X222490000Y-69918000D01*
X222490000Y-69358000D01*
X222810000Y-69358000D01*
X222810000Y-69918000D01*
G36*
X222810000Y-69918000D02*
G01*
X222490000Y-69918000D01*
X222490000Y-69358000D01*
X222810000Y-69358000D01*
X222810000Y-69918000D01*
G37*
X223460000Y-69918000D02*
X223140000Y-69918000D01*
X223140000Y-69358000D01*
X223460000Y-69358000D01*
X223460000Y-69918000D01*
G36*
X223460000Y-69918000D02*
G01*
X223140000Y-69918000D01*
X223140000Y-69358000D01*
X223460000Y-69358000D01*
X223460000Y-69918000D01*
G37*
X224110000Y-69918000D02*
X223790000Y-69918000D01*
X223790000Y-69358000D01*
X224110000Y-69358000D01*
X224110000Y-69918000D01*
G36*
X224110000Y-69918000D02*
G01*
X223790000Y-69918000D01*
X223790000Y-69358000D01*
X224110000Y-69358000D01*
X224110000Y-69918000D01*
G37*
X222875000Y-71688000D02*
X221875000Y-71688000D01*
X221875000Y-71288000D01*
X221325000Y-71288000D01*
X221325000Y-70868000D01*
X221875000Y-70868000D01*
X221875000Y-70688000D01*
X222875000Y-70688000D01*
X222875000Y-71688000D01*
G36*
X222875000Y-71688000D02*
G01*
X221875000Y-71688000D01*
X221875000Y-71288000D01*
X221325000Y-71288000D01*
X221325000Y-70868000D01*
X221875000Y-70868000D01*
X221875000Y-70688000D01*
X222875000Y-70688000D01*
X222875000Y-71688000D01*
G37*
X224075000Y-70868000D02*
X224625000Y-70868000D01*
X224625000Y-71288000D01*
X224075000Y-71288000D01*
X224075000Y-71688000D01*
X223075000Y-71688000D01*
X223075000Y-70688000D01*
X224075000Y-70688000D01*
X224075000Y-70868000D01*
G36*
X224075000Y-70868000D02*
G01*
X224625000Y-70868000D01*
X224625000Y-71288000D01*
X224075000Y-71288000D01*
X224075000Y-71688000D01*
X223075000Y-71688000D01*
X223075000Y-70688000D01*
X224075000Y-70688000D01*
X224075000Y-70868000D01*
G37*
X222875000Y-72358000D02*
X222775000Y-72358000D01*
X222775000Y-72858000D01*
X222515000Y-72858000D01*
X222515000Y-72358000D01*
X222135000Y-72358000D01*
X222135000Y-72858000D01*
X221875000Y-72858000D01*
X221875000Y-71888000D01*
X222875000Y-71888000D01*
X222875000Y-72358000D01*
G36*
X222875000Y-72358000D02*
G01*
X222775000Y-72358000D01*
X222775000Y-72858000D01*
X222515000Y-72858000D01*
X222515000Y-72358000D01*
X222135000Y-72358000D01*
X222135000Y-72858000D01*
X221875000Y-72858000D01*
X221875000Y-71888000D01*
X222875000Y-71888000D01*
X222875000Y-72358000D01*
G37*
X224075000Y-72858000D02*
X223815000Y-72858000D01*
X223815000Y-72358000D01*
X223435000Y-72358000D01*
X223435000Y-72858000D01*
X223175000Y-72858000D01*
X223175000Y-72358000D01*
X223075000Y-72358000D01*
X223075000Y-71888000D01*
X224075000Y-71888000D01*
X224075000Y-72858000D01*
G36*
X224075000Y-72858000D02*
G01*
X223815000Y-72858000D01*
X223815000Y-72358000D01*
X223435000Y-72358000D01*
X223435000Y-72858000D01*
X223175000Y-72858000D01*
X223175000Y-72358000D01*
X223075000Y-72358000D01*
X223075000Y-71888000D01*
X224075000Y-71888000D01*
X224075000Y-72858000D01*
G37*
%TO.C,Q11_H1*%
X222160000Y-48523333D02*
X221840000Y-48523333D01*
X221840000Y-47963333D01*
X222160000Y-47963333D01*
X222160000Y-48523333D01*
G36*
X222160000Y-48523333D02*
G01*
X221840000Y-48523333D01*
X221840000Y-47963333D01*
X222160000Y-47963333D01*
X222160000Y-48523333D01*
G37*
X222810000Y-48523333D02*
X222490000Y-48523333D01*
X222490000Y-47963333D01*
X222810000Y-47963333D01*
X222810000Y-48523333D01*
G36*
X222810000Y-48523333D02*
G01*
X222490000Y-48523333D01*
X222490000Y-47963333D01*
X222810000Y-47963333D01*
X222810000Y-48523333D01*
G37*
X223460000Y-48523333D02*
X223140000Y-48523333D01*
X223140000Y-47963333D01*
X223460000Y-47963333D01*
X223460000Y-48523333D01*
G36*
X223460000Y-48523333D02*
G01*
X223140000Y-48523333D01*
X223140000Y-47963333D01*
X223460000Y-47963333D01*
X223460000Y-48523333D01*
G37*
X224110000Y-48523333D02*
X223790000Y-48523333D01*
X223790000Y-47963333D01*
X224110000Y-47963333D01*
X224110000Y-48523333D01*
G36*
X224110000Y-48523333D02*
G01*
X223790000Y-48523333D01*
X223790000Y-47963333D01*
X224110000Y-47963333D01*
X224110000Y-48523333D01*
G37*
X222875000Y-50293333D02*
X221875000Y-50293333D01*
X221875000Y-49893333D01*
X221325000Y-49893333D01*
X221325000Y-49473333D01*
X221875000Y-49473333D01*
X221875000Y-49293333D01*
X222875000Y-49293333D01*
X222875000Y-50293333D01*
G36*
X222875000Y-50293333D02*
G01*
X221875000Y-50293333D01*
X221875000Y-49893333D01*
X221325000Y-49893333D01*
X221325000Y-49473333D01*
X221875000Y-49473333D01*
X221875000Y-49293333D01*
X222875000Y-49293333D01*
X222875000Y-50293333D01*
G37*
X224075000Y-49473333D02*
X224625000Y-49473333D01*
X224625000Y-49893333D01*
X224075000Y-49893333D01*
X224075000Y-50293333D01*
X223075000Y-50293333D01*
X223075000Y-49293333D01*
X224075000Y-49293333D01*
X224075000Y-49473333D01*
G36*
X224075000Y-49473333D02*
G01*
X224625000Y-49473333D01*
X224625000Y-49893333D01*
X224075000Y-49893333D01*
X224075000Y-50293333D01*
X223075000Y-50293333D01*
X223075000Y-49293333D01*
X224075000Y-49293333D01*
X224075000Y-49473333D01*
G37*
X222875000Y-50963333D02*
X222775000Y-50963333D01*
X222775000Y-51463333D01*
X222515000Y-51463333D01*
X222515000Y-50963333D01*
X222135000Y-50963333D01*
X222135000Y-51463333D01*
X221875000Y-51463333D01*
X221875000Y-50493333D01*
X222875000Y-50493333D01*
X222875000Y-50963333D01*
G36*
X222875000Y-50963333D02*
G01*
X222775000Y-50963333D01*
X222775000Y-51463333D01*
X222515000Y-51463333D01*
X222515000Y-50963333D01*
X222135000Y-50963333D01*
X222135000Y-51463333D01*
X221875000Y-51463333D01*
X221875000Y-50493333D01*
X222875000Y-50493333D01*
X222875000Y-50963333D01*
G37*
X224075000Y-51463333D02*
X223815000Y-51463333D01*
X223815000Y-50963333D01*
X223435000Y-50963333D01*
X223435000Y-51463333D01*
X223175000Y-51463333D01*
X223175000Y-50963333D01*
X223075000Y-50963333D01*
X223075000Y-50493333D01*
X224075000Y-50493333D01*
X224075000Y-51463333D01*
G36*
X224075000Y-51463333D02*
G01*
X223815000Y-51463333D01*
X223815000Y-50963333D01*
X223435000Y-50963333D01*
X223435000Y-51463333D01*
X223175000Y-51463333D01*
X223175000Y-50963333D01*
X223075000Y-50963333D01*
X223075000Y-50493333D01*
X224075000Y-50493333D01*
X224075000Y-51463333D01*
G37*
%TO.C,Q11_L1*%
X193160000Y-48429365D02*
X192840000Y-48429365D01*
X192840000Y-47869365D01*
X193160000Y-47869365D01*
X193160000Y-48429365D01*
G36*
X193160000Y-48429365D02*
G01*
X192840000Y-48429365D01*
X192840000Y-47869365D01*
X193160000Y-47869365D01*
X193160000Y-48429365D01*
G37*
X193810000Y-48429365D02*
X193490000Y-48429365D01*
X193490000Y-47869365D01*
X193810000Y-47869365D01*
X193810000Y-48429365D01*
G36*
X193810000Y-48429365D02*
G01*
X193490000Y-48429365D01*
X193490000Y-47869365D01*
X193810000Y-47869365D01*
X193810000Y-48429365D01*
G37*
X194460000Y-48429365D02*
X194140000Y-48429365D01*
X194140000Y-47869365D01*
X194460000Y-47869365D01*
X194460000Y-48429365D01*
G36*
X194460000Y-48429365D02*
G01*
X194140000Y-48429365D01*
X194140000Y-47869365D01*
X194460000Y-47869365D01*
X194460000Y-48429365D01*
G37*
X195110000Y-48429365D02*
X194790000Y-48429365D01*
X194790000Y-47869365D01*
X195110000Y-47869365D01*
X195110000Y-48429365D01*
G36*
X195110000Y-48429365D02*
G01*
X194790000Y-48429365D01*
X194790000Y-47869365D01*
X195110000Y-47869365D01*
X195110000Y-48429365D01*
G37*
X193875000Y-50199365D02*
X192875000Y-50199365D01*
X192875000Y-49799365D01*
X192325000Y-49799365D01*
X192325000Y-49379365D01*
X192875000Y-49379365D01*
X192875000Y-49199365D01*
X193875000Y-49199365D01*
X193875000Y-50199365D01*
G36*
X193875000Y-50199365D02*
G01*
X192875000Y-50199365D01*
X192875000Y-49799365D01*
X192325000Y-49799365D01*
X192325000Y-49379365D01*
X192875000Y-49379365D01*
X192875000Y-49199365D01*
X193875000Y-49199365D01*
X193875000Y-50199365D01*
G37*
X195075000Y-49379365D02*
X195625000Y-49379365D01*
X195625000Y-49799365D01*
X195075000Y-49799365D01*
X195075000Y-50199365D01*
X194075000Y-50199365D01*
X194075000Y-49199365D01*
X195075000Y-49199365D01*
X195075000Y-49379365D01*
G36*
X195075000Y-49379365D02*
G01*
X195625000Y-49379365D01*
X195625000Y-49799365D01*
X195075000Y-49799365D01*
X195075000Y-50199365D01*
X194075000Y-50199365D01*
X194075000Y-49199365D01*
X195075000Y-49199365D01*
X195075000Y-49379365D01*
G37*
X193875000Y-50869365D02*
X193775000Y-50869365D01*
X193775000Y-51369365D01*
X193515000Y-51369365D01*
X193515000Y-50869365D01*
X193135000Y-50869365D01*
X193135000Y-51369365D01*
X192875000Y-51369365D01*
X192875000Y-50399365D01*
X193875000Y-50399365D01*
X193875000Y-50869365D01*
G36*
X193875000Y-50869365D02*
G01*
X193775000Y-50869365D01*
X193775000Y-51369365D01*
X193515000Y-51369365D01*
X193515000Y-50869365D01*
X193135000Y-50869365D01*
X193135000Y-51369365D01*
X192875000Y-51369365D01*
X192875000Y-50399365D01*
X193875000Y-50399365D01*
X193875000Y-50869365D01*
G37*
X195075000Y-51369365D02*
X194815000Y-51369365D01*
X194815000Y-50869365D01*
X194435000Y-50869365D01*
X194435000Y-51369365D01*
X194175000Y-51369365D01*
X194175000Y-50869365D01*
X194075000Y-50869365D01*
X194075000Y-50399365D01*
X195075000Y-50399365D01*
X195075000Y-51369365D01*
G36*
X195075000Y-51369365D02*
G01*
X194815000Y-51369365D01*
X194815000Y-50869365D01*
X194435000Y-50869365D01*
X194435000Y-51369365D01*
X194175000Y-51369365D01*
X194175000Y-50869365D01*
X194075000Y-50869365D01*
X194075000Y-50399365D01*
X195075000Y-50399365D01*
X195075000Y-51369365D01*
G37*
%TO.C,Q16_H1*%
X222160000Y-21780000D02*
X221840000Y-21780000D01*
X221840000Y-21220000D01*
X222160000Y-21220000D01*
X222160000Y-21780000D01*
G36*
X222160000Y-21780000D02*
G01*
X221840000Y-21780000D01*
X221840000Y-21220000D01*
X222160000Y-21220000D01*
X222160000Y-21780000D01*
G37*
X222810000Y-21780000D02*
X222490000Y-21780000D01*
X222490000Y-21220000D01*
X222810000Y-21220000D01*
X222810000Y-21780000D01*
G36*
X222810000Y-21780000D02*
G01*
X222490000Y-21780000D01*
X222490000Y-21220000D01*
X222810000Y-21220000D01*
X222810000Y-21780000D01*
G37*
X223460000Y-21780000D02*
X223140000Y-21780000D01*
X223140000Y-21220000D01*
X223460000Y-21220000D01*
X223460000Y-21780000D01*
G36*
X223460000Y-21780000D02*
G01*
X223140000Y-21780000D01*
X223140000Y-21220000D01*
X223460000Y-21220000D01*
X223460000Y-21780000D01*
G37*
X224110000Y-21780000D02*
X223790000Y-21780000D01*
X223790000Y-21220000D01*
X224110000Y-21220000D01*
X224110000Y-21780000D01*
G36*
X224110000Y-21780000D02*
G01*
X223790000Y-21780000D01*
X223790000Y-21220000D01*
X224110000Y-21220000D01*
X224110000Y-21780000D01*
G37*
X222875000Y-23550000D02*
X221875000Y-23550000D01*
X221875000Y-23150000D01*
X221325000Y-23150000D01*
X221325000Y-22730000D01*
X221875000Y-22730000D01*
X221875000Y-22550000D01*
X222875000Y-22550000D01*
X222875000Y-23550000D01*
G36*
X222875000Y-23550000D02*
G01*
X221875000Y-23550000D01*
X221875000Y-23150000D01*
X221325000Y-23150000D01*
X221325000Y-22730000D01*
X221875000Y-22730000D01*
X221875000Y-22550000D01*
X222875000Y-22550000D01*
X222875000Y-23550000D01*
G37*
X224075000Y-22730000D02*
X224625000Y-22730000D01*
X224625000Y-23150000D01*
X224075000Y-23150000D01*
X224075000Y-23550000D01*
X223075000Y-23550000D01*
X223075000Y-22550000D01*
X224075000Y-22550000D01*
X224075000Y-22730000D01*
G36*
X224075000Y-22730000D02*
G01*
X224625000Y-22730000D01*
X224625000Y-23150000D01*
X224075000Y-23150000D01*
X224075000Y-23550000D01*
X223075000Y-23550000D01*
X223075000Y-22550000D01*
X224075000Y-22550000D01*
X224075000Y-22730000D01*
G37*
X222875000Y-24220000D02*
X222775000Y-24220000D01*
X222775000Y-24720000D01*
X222515000Y-24720000D01*
X222515000Y-24220000D01*
X222135000Y-24220000D01*
X222135000Y-24720000D01*
X221875000Y-24720000D01*
X221875000Y-23750000D01*
X222875000Y-23750000D01*
X222875000Y-24220000D01*
G36*
X222875000Y-24220000D02*
G01*
X222775000Y-24220000D01*
X222775000Y-24720000D01*
X222515000Y-24720000D01*
X222515000Y-24220000D01*
X222135000Y-24220000D01*
X222135000Y-24720000D01*
X221875000Y-24720000D01*
X221875000Y-23750000D01*
X222875000Y-23750000D01*
X222875000Y-24220000D01*
G37*
X224075000Y-24720000D02*
X223815000Y-24720000D01*
X223815000Y-24220000D01*
X223435000Y-24220000D01*
X223435000Y-24720000D01*
X223175000Y-24720000D01*
X223175000Y-24220000D01*
X223075000Y-24220000D01*
X223075000Y-23750000D01*
X224075000Y-23750000D01*
X224075000Y-24720000D01*
G36*
X224075000Y-24720000D02*
G01*
X223815000Y-24720000D01*
X223815000Y-24220000D01*
X223435000Y-24220000D01*
X223435000Y-24720000D01*
X223175000Y-24720000D01*
X223175000Y-24220000D01*
X223075000Y-24220000D01*
X223075000Y-23750000D01*
X224075000Y-23750000D01*
X224075000Y-24720000D01*
G37*
%TO.C,Q13_L1*%
X193160000Y-37769619D02*
X192840000Y-37769619D01*
X192840000Y-37209619D01*
X193160000Y-37209619D01*
X193160000Y-37769619D01*
G36*
X193160000Y-37769619D02*
G01*
X192840000Y-37769619D01*
X192840000Y-37209619D01*
X193160000Y-37209619D01*
X193160000Y-37769619D01*
G37*
X193810000Y-37769619D02*
X193490000Y-37769619D01*
X193490000Y-37209619D01*
X193810000Y-37209619D01*
X193810000Y-37769619D01*
G36*
X193810000Y-37769619D02*
G01*
X193490000Y-37769619D01*
X193490000Y-37209619D01*
X193810000Y-37209619D01*
X193810000Y-37769619D01*
G37*
X194460000Y-37769619D02*
X194140000Y-37769619D01*
X194140000Y-37209619D01*
X194460000Y-37209619D01*
X194460000Y-37769619D01*
G36*
X194460000Y-37769619D02*
G01*
X194140000Y-37769619D01*
X194140000Y-37209619D01*
X194460000Y-37209619D01*
X194460000Y-37769619D01*
G37*
X195110000Y-37769619D02*
X194790000Y-37769619D01*
X194790000Y-37209619D01*
X195110000Y-37209619D01*
X195110000Y-37769619D01*
G36*
X195110000Y-37769619D02*
G01*
X194790000Y-37769619D01*
X194790000Y-37209619D01*
X195110000Y-37209619D01*
X195110000Y-37769619D01*
G37*
X193875000Y-39539619D02*
X192875000Y-39539619D01*
X192875000Y-39139619D01*
X192325000Y-39139619D01*
X192325000Y-38719619D01*
X192875000Y-38719619D01*
X192875000Y-38539619D01*
X193875000Y-38539619D01*
X193875000Y-39539619D01*
G36*
X193875000Y-39539619D02*
G01*
X192875000Y-39539619D01*
X192875000Y-39139619D01*
X192325000Y-39139619D01*
X192325000Y-38719619D01*
X192875000Y-38719619D01*
X192875000Y-38539619D01*
X193875000Y-38539619D01*
X193875000Y-39539619D01*
G37*
X195075000Y-38719619D02*
X195625000Y-38719619D01*
X195625000Y-39139619D01*
X195075000Y-39139619D01*
X195075000Y-39539619D01*
X194075000Y-39539619D01*
X194075000Y-38539619D01*
X195075000Y-38539619D01*
X195075000Y-38719619D01*
G36*
X195075000Y-38719619D02*
G01*
X195625000Y-38719619D01*
X195625000Y-39139619D01*
X195075000Y-39139619D01*
X195075000Y-39539619D01*
X194075000Y-39539619D01*
X194075000Y-38539619D01*
X195075000Y-38539619D01*
X195075000Y-38719619D01*
G37*
X193875000Y-40209619D02*
X193775000Y-40209619D01*
X193775000Y-40709619D01*
X193515000Y-40709619D01*
X193515000Y-40209619D01*
X193135000Y-40209619D01*
X193135000Y-40709619D01*
X192875000Y-40709619D01*
X192875000Y-39739619D01*
X193875000Y-39739619D01*
X193875000Y-40209619D01*
G36*
X193875000Y-40209619D02*
G01*
X193775000Y-40209619D01*
X193775000Y-40709619D01*
X193515000Y-40709619D01*
X193515000Y-40209619D01*
X193135000Y-40209619D01*
X193135000Y-40709619D01*
X192875000Y-40709619D01*
X192875000Y-39739619D01*
X193875000Y-39739619D01*
X193875000Y-40209619D01*
G37*
X195075000Y-40709619D02*
X194815000Y-40709619D01*
X194815000Y-40209619D01*
X194435000Y-40209619D01*
X194435000Y-40709619D01*
X194175000Y-40709619D01*
X194175000Y-40209619D01*
X194075000Y-40209619D01*
X194075000Y-39739619D01*
X195075000Y-39739619D01*
X195075000Y-40709619D01*
G36*
X195075000Y-40709619D02*
G01*
X194815000Y-40709619D01*
X194815000Y-40209619D01*
X194435000Y-40209619D01*
X194435000Y-40709619D01*
X194175000Y-40709619D01*
X194175000Y-40209619D01*
X194075000Y-40209619D01*
X194075000Y-39739619D01*
X195075000Y-39739619D01*
X195075000Y-40709619D01*
G37*
%TO.C,Q16_L1*%
X193160000Y-21780000D02*
X192840000Y-21780000D01*
X192840000Y-21220000D01*
X193160000Y-21220000D01*
X193160000Y-21780000D01*
G36*
X193160000Y-21780000D02*
G01*
X192840000Y-21780000D01*
X192840000Y-21220000D01*
X193160000Y-21220000D01*
X193160000Y-21780000D01*
G37*
X193810000Y-21780000D02*
X193490000Y-21780000D01*
X193490000Y-21220000D01*
X193810000Y-21220000D01*
X193810000Y-21780000D01*
G36*
X193810000Y-21780000D02*
G01*
X193490000Y-21780000D01*
X193490000Y-21220000D01*
X193810000Y-21220000D01*
X193810000Y-21780000D01*
G37*
X194460000Y-21780000D02*
X194140000Y-21780000D01*
X194140000Y-21220000D01*
X194460000Y-21220000D01*
X194460000Y-21780000D01*
G36*
X194460000Y-21780000D02*
G01*
X194140000Y-21780000D01*
X194140000Y-21220000D01*
X194460000Y-21220000D01*
X194460000Y-21780000D01*
G37*
X195110000Y-21780000D02*
X194790000Y-21780000D01*
X194790000Y-21220000D01*
X195110000Y-21220000D01*
X195110000Y-21780000D01*
G36*
X195110000Y-21780000D02*
G01*
X194790000Y-21780000D01*
X194790000Y-21220000D01*
X195110000Y-21220000D01*
X195110000Y-21780000D01*
G37*
X193875000Y-23550000D02*
X192875000Y-23550000D01*
X192875000Y-23150000D01*
X192325000Y-23150000D01*
X192325000Y-22730000D01*
X192875000Y-22730000D01*
X192875000Y-22550000D01*
X193875000Y-22550000D01*
X193875000Y-23550000D01*
G36*
X193875000Y-23550000D02*
G01*
X192875000Y-23550000D01*
X192875000Y-23150000D01*
X192325000Y-23150000D01*
X192325000Y-22730000D01*
X192875000Y-22730000D01*
X192875000Y-22550000D01*
X193875000Y-22550000D01*
X193875000Y-23550000D01*
G37*
X195075000Y-22730000D02*
X195625000Y-22730000D01*
X195625000Y-23150000D01*
X195075000Y-23150000D01*
X195075000Y-23550000D01*
X194075000Y-23550000D01*
X194075000Y-22550000D01*
X195075000Y-22550000D01*
X195075000Y-22730000D01*
G36*
X195075000Y-22730000D02*
G01*
X195625000Y-22730000D01*
X195625000Y-23150000D01*
X195075000Y-23150000D01*
X195075000Y-23550000D01*
X194075000Y-23550000D01*
X194075000Y-22550000D01*
X195075000Y-22550000D01*
X195075000Y-22730000D01*
G37*
X193875000Y-24220000D02*
X193775000Y-24220000D01*
X193775000Y-24720000D01*
X193515000Y-24720000D01*
X193515000Y-24220000D01*
X193135000Y-24220000D01*
X193135000Y-24720000D01*
X192875000Y-24720000D01*
X192875000Y-23750000D01*
X193875000Y-23750000D01*
X193875000Y-24220000D01*
G36*
X193875000Y-24220000D02*
G01*
X193775000Y-24220000D01*
X193775000Y-24720000D01*
X193515000Y-24720000D01*
X193515000Y-24220000D01*
X193135000Y-24220000D01*
X193135000Y-24720000D01*
X192875000Y-24720000D01*
X192875000Y-23750000D01*
X193875000Y-23750000D01*
X193875000Y-24220000D01*
G37*
X195075000Y-24720000D02*
X194815000Y-24720000D01*
X194815000Y-24220000D01*
X194435000Y-24220000D01*
X194435000Y-24720000D01*
X194175000Y-24720000D01*
X194175000Y-24220000D01*
X194075000Y-24220000D01*
X194075000Y-23750000D01*
X195075000Y-23750000D01*
X195075000Y-24720000D01*
G36*
X195075000Y-24720000D02*
G01*
X194815000Y-24720000D01*
X194815000Y-24220000D01*
X194435000Y-24220000D01*
X194435000Y-24720000D01*
X194175000Y-24720000D01*
X194175000Y-24220000D01*
X194075000Y-24220000D01*
X194075000Y-23750000D01*
X195075000Y-23750000D01*
X195075000Y-24720000D01*
G37*
%TO.C,Q6_L1*%
X193160000Y-75078731D02*
X192840000Y-75078731D01*
X192840000Y-74518731D01*
X193160000Y-74518731D01*
X193160000Y-75078731D01*
G36*
X193160000Y-75078731D02*
G01*
X192840000Y-75078731D01*
X192840000Y-74518731D01*
X193160000Y-74518731D01*
X193160000Y-75078731D01*
G37*
X193810000Y-75078731D02*
X193490000Y-75078731D01*
X193490000Y-74518731D01*
X193810000Y-74518731D01*
X193810000Y-75078731D01*
G36*
X193810000Y-75078731D02*
G01*
X193490000Y-75078731D01*
X193490000Y-74518731D01*
X193810000Y-74518731D01*
X193810000Y-75078731D01*
G37*
X194460000Y-75078731D02*
X194140000Y-75078731D01*
X194140000Y-74518731D01*
X194460000Y-74518731D01*
X194460000Y-75078731D01*
G36*
X194460000Y-75078731D02*
G01*
X194140000Y-75078731D01*
X194140000Y-74518731D01*
X194460000Y-74518731D01*
X194460000Y-75078731D01*
G37*
X195110000Y-75078731D02*
X194790000Y-75078731D01*
X194790000Y-74518731D01*
X195110000Y-74518731D01*
X195110000Y-75078731D01*
G36*
X195110000Y-75078731D02*
G01*
X194790000Y-75078731D01*
X194790000Y-74518731D01*
X195110000Y-74518731D01*
X195110000Y-75078731D01*
G37*
X193875000Y-76848731D02*
X192875000Y-76848731D01*
X192875000Y-76448731D01*
X192325000Y-76448731D01*
X192325000Y-76028731D01*
X192875000Y-76028731D01*
X192875000Y-75848731D01*
X193875000Y-75848731D01*
X193875000Y-76848731D01*
G36*
X193875000Y-76848731D02*
G01*
X192875000Y-76848731D01*
X192875000Y-76448731D01*
X192325000Y-76448731D01*
X192325000Y-76028731D01*
X192875000Y-76028731D01*
X192875000Y-75848731D01*
X193875000Y-75848731D01*
X193875000Y-76848731D01*
G37*
X195075000Y-76028731D02*
X195625000Y-76028731D01*
X195625000Y-76448731D01*
X195075000Y-76448731D01*
X195075000Y-76848731D01*
X194075000Y-76848731D01*
X194075000Y-75848731D01*
X195075000Y-75848731D01*
X195075000Y-76028731D01*
G36*
X195075000Y-76028731D02*
G01*
X195625000Y-76028731D01*
X195625000Y-76448731D01*
X195075000Y-76448731D01*
X195075000Y-76848731D01*
X194075000Y-76848731D01*
X194075000Y-75848731D01*
X195075000Y-75848731D01*
X195075000Y-76028731D01*
G37*
X193875000Y-77518731D02*
X193775000Y-77518731D01*
X193775000Y-78018731D01*
X193515000Y-78018731D01*
X193515000Y-77518731D01*
X193135000Y-77518731D01*
X193135000Y-78018731D01*
X192875000Y-78018731D01*
X192875000Y-77048731D01*
X193875000Y-77048731D01*
X193875000Y-77518731D01*
G36*
X193875000Y-77518731D02*
G01*
X193775000Y-77518731D01*
X193775000Y-78018731D01*
X193515000Y-78018731D01*
X193515000Y-77518731D01*
X193135000Y-77518731D01*
X193135000Y-78018731D01*
X192875000Y-78018731D01*
X192875000Y-77048731D01*
X193875000Y-77048731D01*
X193875000Y-77518731D01*
G37*
X195075000Y-78018731D02*
X194815000Y-78018731D01*
X194815000Y-77518731D01*
X194435000Y-77518731D01*
X194435000Y-78018731D01*
X194175000Y-78018731D01*
X194175000Y-77518731D01*
X194075000Y-77518731D01*
X194075000Y-77048731D01*
X195075000Y-77048731D01*
X195075000Y-78018731D01*
G36*
X195075000Y-78018731D02*
G01*
X194815000Y-78018731D01*
X194815000Y-77518731D01*
X194435000Y-77518731D01*
X194435000Y-78018731D01*
X194175000Y-78018731D01*
X194175000Y-77518731D01*
X194075000Y-77518731D01*
X194075000Y-77048731D01*
X195075000Y-77048731D01*
X195075000Y-78018731D01*
G37*
%TO.C,Q12_H1*%
X222160000Y-43174667D02*
X221840000Y-43174667D01*
X221840000Y-42614667D01*
X222160000Y-42614667D01*
X222160000Y-43174667D01*
G36*
X222160000Y-43174667D02*
G01*
X221840000Y-43174667D01*
X221840000Y-42614667D01*
X222160000Y-42614667D01*
X222160000Y-43174667D01*
G37*
X222810000Y-43174667D02*
X222490000Y-43174667D01*
X222490000Y-42614667D01*
X222810000Y-42614667D01*
X222810000Y-43174667D01*
G36*
X222810000Y-43174667D02*
G01*
X222490000Y-43174667D01*
X222490000Y-42614667D01*
X222810000Y-42614667D01*
X222810000Y-43174667D01*
G37*
X223460000Y-43174667D02*
X223140000Y-43174667D01*
X223140000Y-42614667D01*
X223460000Y-42614667D01*
X223460000Y-43174667D01*
G36*
X223460000Y-43174667D02*
G01*
X223140000Y-43174667D01*
X223140000Y-42614667D01*
X223460000Y-42614667D01*
X223460000Y-43174667D01*
G37*
X224110000Y-43174667D02*
X223790000Y-43174667D01*
X223790000Y-42614667D01*
X224110000Y-42614667D01*
X224110000Y-43174667D01*
G36*
X224110000Y-43174667D02*
G01*
X223790000Y-43174667D01*
X223790000Y-42614667D01*
X224110000Y-42614667D01*
X224110000Y-43174667D01*
G37*
X222875000Y-44944667D02*
X221875000Y-44944667D01*
X221875000Y-44544667D01*
X221325000Y-44544667D01*
X221325000Y-44124667D01*
X221875000Y-44124667D01*
X221875000Y-43944667D01*
X222875000Y-43944667D01*
X222875000Y-44944667D01*
G36*
X222875000Y-44944667D02*
G01*
X221875000Y-44944667D01*
X221875000Y-44544667D01*
X221325000Y-44544667D01*
X221325000Y-44124667D01*
X221875000Y-44124667D01*
X221875000Y-43944667D01*
X222875000Y-43944667D01*
X222875000Y-44944667D01*
G37*
X224075000Y-44124667D02*
X224625000Y-44124667D01*
X224625000Y-44544667D01*
X224075000Y-44544667D01*
X224075000Y-44944667D01*
X223075000Y-44944667D01*
X223075000Y-43944667D01*
X224075000Y-43944667D01*
X224075000Y-44124667D01*
G36*
X224075000Y-44124667D02*
G01*
X224625000Y-44124667D01*
X224625000Y-44544667D01*
X224075000Y-44544667D01*
X224075000Y-44944667D01*
X223075000Y-44944667D01*
X223075000Y-43944667D01*
X224075000Y-43944667D01*
X224075000Y-44124667D01*
G37*
X222875000Y-45614667D02*
X222775000Y-45614667D01*
X222775000Y-46114667D01*
X222515000Y-46114667D01*
X222515000Y-45614667D01*
X222135000Y-45614667D01*
X222135000Y-46114667D01*
X221875000Y-46114667D01*
X221875000Y-45144667D01*
X222875000Y-45144667D01*
X222875000Y-45614667D01*
G36*
X222875000Y-45614667D02*
G01*
X222775000Y-45614667D01*
X222775000Y-46114667D01*
X222515000Y-46114667D01*
X222515000Y-45614667D01*
X222135000Y-45614667D01*
X222135000Y-46114667D01*
X221875000Y-46114667D01*
X221875000Y-45144667D01*
X222875000Y-45144667D01*
X222875000Y-45614667D01*
G37*
X224075000Y-46114667D02*
X223815000Y-46114667D01*
X223815000Y-45614667D01*
X223435000Y-45614667D01*
X223435000Y-46114667D01*
X223175000Y-46114667D01*
X223175000Y-45614667D01*
X223075000Y-45614667D01*
X223075000Y-45144667D01*
X224075000Y-45144667D01*
X224075000Y-46114667D01*
G36*
X224075000Y-46114667D02*
G01*
X223815000Y-46114667D01*
X223815000Y-45614667D01*
X223435000Y-45614667D01*
X223435000Y-46114667D01*
X223175000Y-46114667D01*
X223175000Y-45614667D01*
X223075000Y-45614667D01*
X223075000Y-45144667D01*
X224075000Y-45144667D01*
X224075000Y-46114667D01*
G37*
%TO.C,Q15_H1*%
X222160000Y-27128667D02*
X221840000Y-27128667D01*
X221840000Y-26568667D01*
X222160000Y-26568667D01*
X222160000Y-27128667D01*
G36*
X222160000Y-27128667D02*
G01*
X221840000Y-27128667D01*
X221840000Y-26568667D01*
X222160000Y-26568667D01*
X222160000Y-27128667D01*
G37*
X222810000Y-27128667D02*
X222490000Y-27128667D01*
X222490000Y-26568667D01*
X222810000Y-26568667D01*
X222810000Y-27128667D01*
G36*
X222810000Y-27128667D02*
G01*
X222490000Y-27128667D01*
X222490000Y-26568667D01*
X222810000Y-26568667D01*
X222810000Y-27128667D01*
G37*
X223460000Y-27128667D02*
X223140000Y-27128667D01*
X223140000Y-26568667D01*
X223460000Y-26568667D01*
X223460000Y-27128667D01*
G36*
X223460000Y-27128667D02*
G01*
X223140000Y-27128667D01*
X223140000Y-26568667D01*
X223460000Y-26568667D01*
X223460000Y-27128667D01*
G37*
X224110000Y-27128667D02*
X223790000Y-27128667D01*
X223790000Y-26568667D01*
X224110000Y-26568667D01*
X224110000Y-27128667D01*
G36*
X224110000Y-27128667D02*
G01*
X223790000Y-27128667D01*
X223790000Y-26568667D01*
X224110000Y-26568667D01*
X224110000Y-27128667D01*
G37*
X222875000Y-28898667D02*
X221875000Y-28898667D01*
X221875000Y-28498667D01*
X221325000Y-28498667D01*
X221325000Y-28078667D01*
X221875000Y-28078667D01*
X221875000Y-27898667D01*
X222875000Y-27898667D01*
X222875000Y-28898667D01*
G36*
X222875000Y-28898667D02*
G01*
X221875000Y-28898667D01*
X221875000Y-28498667D01*
X221325000Y-28498667D01*
X221325000Y-28078667D01*
X221875000Y-28078667D01*
X221875000Y-27898667D01*
X222875000Y-27898667D01*
X222875000Y-28898667D01*
G37*
X224075000Y-28078667D02*
X224625000Y-28078667D01*
X224625000Y-28498667D01*
X224075000Y-28498667D01*
X224075000Y-28898667D01*
X223075000Y-28898667D01*
X223075000Y-27898667D01*
X224075000Y-27898667D01*
X224075000Y-28078667D01*
G36*
X224075000Y-28078667D02*
G01*
X224625000Y-28078667D01*
X224625000Y-28498667D01*
X224075000Y-28498667D01*
X224075000Y-28898667D01*
X223075000Y-28898667D01*
X223075000Y-27898667D01*
X224075000Y-27898667D01*
X224075000Y-28078667D01*
G37*
X222875000Y-29568667D02*
X222775000Y-29568667D01*
X222775000Y-30068667D01*
X222515000Y-30068667D01*
X222515000Y-29568667D01*
X222135000Y-29568667D01*
X222135000Y-30068667D01*
X221875000Y-30068667D01*
X221875000Y-29098667D01*
X222875000Y-29098667D01*
X222875000Y-29568667D01*
G36*
X222875000Y-29568667D02*
G01*
X222775000Y-29568667D01*
X222775000Y-30068667D01*
X222515000Y-30068667D01*
X222515000Y-29568667D01*
X222135000Y-29568667D01*
X222135000Y-30068667D01*
X221875000Y-30068667D01*
X221875000Y-29098667D01*
X222875000Y-29098667D01*
X222875000Y-29568667D01*
G37*
X224075000Y-30068667D02*
X223815000Y-30068667D01*
X223815000Y-29568667D01*
X223435000Y-29568667D01*
X223435000Y-30068667D01*
X223175000Y-30068667D01*
X223175000Y-29568667D01*
X223075000Y-29568667D01*
X223075000Y-29098667D01*
X224075000Y-29098667D01*
X224075000Y-30068667D01*
G36*
X224075000Y-30068667D02*
G01*
X223815000Y-30068667D01*
X223815000Y-29568667D01*
X223435000Y-29568667D01*
X223435000Y-30068667D01*
X223175000Y-30068667D01*
X223175000Y-29568667D01*
X223075000Y-29568667D01*
X223075000Y-29098667D01*
X224075000Y-29098667D01*
X224075000Y-30068667D01*
G37*
%TO.C,Q4_H1*%
X222160000Y-85964000D02*
X221840000Y-85964000D01*
X221840000Y-85404000D01*
X222160000Y-85404000D01*
X222160000Y-85964000D01*
G36*
X222160000Y-85964000D02*
G01*
X221840000Y-85964000D01*
X221840000Y-85404000D01*
X222160000Y-85404000D01*
X222160000Y-85964000D01*
G37*
X222810000Y-85964000D02*
X222490000Y-85964000D01*
X222490000Y-85404000D01*
X222810000Y-85404000D01*
X222810000Y-85964000D01*
G36*
X222810000Y-85964000D02*
G01*
X222490000Y-85964000D01*
X222490000Y-85404000D01*
X222810000Y-85404000D01*
X222810000Y-85964000D01*
G37*
X223460000Y-85964000D02*
X223140000Y-85964000D01*
X223140000Y-85404000D01*
X223460000Y-85404000D01*
X223460000Y-85964000D01*
G36*
X223460000Y-85964000D02*
G01*
X223140000Y-85964000D01*
X223140000Y-85404000D01*
X223460000Y-85404000D01*
X223460000Y-85964000D01*
G37*
X224110000Y-85964000D02*
X223790000Y-85964000D01*
X223790000Y-85404000D01*
X224110000Y-85404000D01*
X224110000Y-85964000D01*
G36*
X224110000Y-85964000D02*
G01*
X223790000Y-85964000D01*
X223790000Y-85404000D01*
X224110000Y-85404000D01*
X224110000Y-85964000D01*
G37*
X222875000Y-87734000D02*
X221875000Y-87734000D01*
X221875000Y-87334000D01*
X221325000Y-87334000D01*
X221325000Y-86914000D01*
X221875000Y-86914000D01*
X221875000Y-86734000D01*
X222875000Y-86734000D01*
X222875000Y-87734000D01*
G36*
X222875000Y-87734000D02*
G01*
X221875000Y-87734000D01*
X221875000Y-87334000D01*
X221325000Y-87334000D01*
X221325000Y-86914000D01*
X221875000Y-86914000D01*
X221875000Y-86734000D01*
X222875000Y-86734000D01*
X222875000Y-87734000D01*
G37*
X224075000Y-86914000D02*
X224625000Y-86914000D01*
X224625000Y-87334000D01*
X224075000Y-87334000D01*
X224075000Y-87734000D01*
X223075000Y-87734000D01*
X223075000Y-86734000D01*
X224075000Y-86734000D01*
X224075000Y-86914000D01*
G36*
X224075000Y-86914000D02*
G01*
X224625000Y-86914000D01*
X224625000Y-87334000D01*
X224075000Y-87334000D01*
X224075000Y-87734000D01*
X223075000Y-87734000D01*
X223075000Y-86734000D01*
X224075000Y-86734000D01*
X224075000Y-86914000D01*
G37*
X222875000Y-88404000D02*
X222775000Y-88404000D01*
X222775000Y-88904000D01*
X222515000Y-88904000D01*
X222515000Y-88404000D01*
X222135000Y-88404000D01*
X222135000Y-88904000D01*
X221875000Y-88904000D01*
X221875000Y-87934000D01*
X222875000Y-87934000D01*
X222875000Y-88404000D01*
G36*
X222875000Y-88404000D02*
G01*
X222775000Y-88404000D01*
X222775000Y-88904000D01*
X222515000Y-88904000D01*
X222515000Y-88404000D01*
X222135000Y-88404000D01*
X222135000Y-88904000D01*
X221875000Y-88904000D01*
X221875000Y-87934000D01*
X222875000Y-87934000D01*
X222875000Y-88404000D01*
G37*
X224075000Y-88904000D02*
X223815000Y-88904000D01*
X223815000Y-88404000D01*
X223435000Y-88404000D01*
X223435000Y-88904000D01*
X223175000Y-88904000D01*
X223175000Y-88404000D01*
X223075000Y-88404000D01*
X223075000Y-87934000D01*
X224075000Y-87934000D01*
X224075000Y-88904000D01*
G36*
X224075000Y-88904000D02*
G01*
X223815000Y-88904000D01*
X223815000Y-88404000D01*
X223435000Y-88404000D01*
X223435000Y-88904000D01*
X223175000Y-88904000D01*
X223175000Y-88404000D01*
X223075000Y-88404000D01*
X223075000Y-87934000D01*
X224075000Y-87934000D01*
X224075000Y-88904000D01*
G37*
%TO.C,Q8_L1*%
X193160000Y-64418985D02*
X192840000Y-64418985D01*
X192840000Y-63858985D01*
X193160000Y-63858985D01*
X193160000Y-64418985D01*
G36*
X193160000Y-64418985D02*
G01*
X192840000Y-64418985D01*
X192840000Y-63858985D01*
X193160000Y-63858985D01*
X193160000Y-64418985D01*
G37*
X193810000Y-64418985D02*
X193490000Y-64418985D01*
X193490000Y-63858985D01*
X193810000Y-63858985D01*
X193810000Y-64418985D01*
G36*
X193810000Y-64418985D02*
G01*
X193490000Y-64418985D01*
X193490000Y-63858985D01*
X193810000Y-63858985D01*
X193810000Y-64418985D01*
G37*
X194460000Y-64418985D02*
X194140000Y-64418985D01*
X194140000Y-63858985D01*
X194460000Y-63858985D01*
X194460000Y-64418985D01*
G36*
X194460000Y-64418985D02*
G01*
X194140000Y-64418985D01*
X194140000Y-63858985D01*
X194460000Y-63858985D01*
X194460000Y-64418985D01*
G37*
X195110000Y-64418985D02*
X194790000Y-64418985D01*
X194790000Y-63858985D01*
X195110000Y-63858985D01*
X195110000Y-64418985D01*
G36*
X195110000Y-64418985D02*
G01*
X194790000Y-64418985D01*
X194790000Y-63858985D01*
X195110000Y-63858985D01*
X195110000Y-64418985D01*
G37*
X193875000Y-66188985D02*
X192875000Y-66188985D01*
X192875000Y-65788985D01*
X192325000Y-65788985D01*
X192325000Y-65368985D01*
X192875000Y-65368985D01*
X192875000Y-65188985D01*
X193875000Y-65188985D01*
X193875000Y-66188985D01*
G36*
X193875000Y-66188985D02*
G01*
X192875000Y-66188985D01*
X192875000Y-65788985D01*
X192325000Y-65788985D01*
X192325000Y-65368985D01*
X192875000Y-65368985D01*
X192875000Y-65188985D01*
X193875000Y-65188985D01*
X193875000Y-66188985D01*
G37*
X195075000Y-65368985D02*
X195625000Y-65368985D01*
X195625000Y-65788985D01*
X195075000Y-65788985D01*
X195075000Y-66188985D01*
X194075000Y-66188985D01*
X194075000Y-65188985D01*
X195075000Y-65188985D01*
X195075000Y-65368985D01*
G36*
X195075000Y-65368985D02*
G01*
X195625000Y-65368985D01*
X195625000Y-65788985D01*
X195075000Y-65788985D01*
X195075000Y-66188985D01*
X194075000Y-66188985D01*
X194075000Y-65188985D01*
X195075000Y-65188985D01*
X195075000Y-65368985D01*
G37*
X193875000Y-66858985D02*
X193775000Y-66858985D01*
X193775000Y-67358985D01*
X193515000Y-67358985D01*
X193515000Y-66858985D01*
X193135000Y-66858985D01*
X193135000Y-67358985D01*
X192875000Y-67358985D01*
X192875000Y-66388985D01*
X193875000Y-66388985D01*
X193875000Y-66858985D01*
G36*
X193875000Y-66858985D02*
G01*
X193775000Y-66858985D01*
X193775000Y-67358985D01*
X193515000Y-67358985D01*
X193515000Y-66858985D01*
X193135000Y-66858985D01*
X193135000Y-67358985D01*
X192875000Y-67358985D01*
X192875000Y-66388985D01*
X193875000Y-66388985D01*
X193875000Y-66858985D01*
G37*
X195075000Y-67358985D02*
X194815000Y-67358985D01*
X194815000Y-66858985D01*
X194435000Y-66858985D01*
X194435000Y-67358985D01*
X194175000Y-67358985D01*
X194175000Y-66858985D01*
X194075000Y-66858985D01*
X194075000Y-66388985D01*
X195075000Y-66388985D01*
X195075000Y-67358985D01*
G36*
X195075000Y-67358985D02*
G01*
X194815000Y-67358985D01*
X194815000Y-66858985D01*
X194435000Y-66858985D01*
X194435000Y-67358985D01*
X194175000Y-67358985D01*
X194175000Y-66858985D01*
X194075000Y-66858985D01*
X194075000Y-66388985D01*
X195075000Y-66388985D01*
X195075000Y-67358985D01*
G37*
%TO.C,Q14_L1*%
X193160000Y-32439746D02*
X192840000Y-32439746D01*
X192840000Y-31879746D01*
X193160000Y-31879746D01*
X193160000Y-32439746D01*
G36*
X193160000Y-32439746D02*
G01*
X192840000Y-32439746D01*
X192840000Y-31879746D01*
X193160000Y-31879746D01*
X193160000Y-32439746D01*
G37*
X193810000Y-32439746D02*
X193490000Y-32439746D01*
X193490000Y-31879746D01*
X193810000Y-31879746D01*
X193810000Y-32439746D01*
G36*
X193810000Y-32439746D02*
G01*
X193490000Y-32439746D01*
X193490000Y-31879746D01*
X193810000Y-31879746D01*
X193810000Y-32439746D01*
G37*
X194460000Y-32439746D02*
X194140000Y-32439746D01*
X194140000Y-31879746D01*
X194460000Y-31879746D01*
X194460000Y-32439746D01*
G36*
X194460000Y-32439746D02*
G01*
X194140000Y-32439746D01*
X194140000Y-31879746D01*
X194460000Y-31879746D01*
X194460000Y-32439746D01*
G37*
X195110000Y-32439746D02*
X194790000Y-32439746D01*
X194790000Y-31879746D01*
X195110000Y-31879746D01*
X195110000Y-32439746D01*
G36*
X195110000Y-32439746D02*
G01*
X194790000Y-32439746D01*
X194790000Y-31879746D01*
X195110000Y-31879746D01*
X195110000Y-32439746D01*
G37*
X193875000Y-34209746D02*
X192875000Y-34209746D01*
X192875000Y-33809746D01*
X192325000Y-33809746D01*
X192325000Y-33389746D01*
X192875000Y-33389746D01*
X192875000Y-33209746D01*
X193875000Y-33209746D01*
X193875000Y-34209746D01*
G36*
X193875000Y-34209746D02*
G01*
X192875000Y-34209746D01*
X192875000Y-33809746D01*
X192325000Y-33809746D01*
X192325000Y-33389746D01*
X192875000Y-33389746D01*
X192875000Y-33209746D01*
X193875000Y-33209746D01*
X193875000Y-34209746D01*
G37*
X195075000Y-33389746D02*
X195625000Y-33389746D01*
X195625000Y-33809746D01*
X195075000Y-33809746D01*
X195075000Y-34209746D01*
X194075000Y-34209746D01*
X194075000Y-33209746D01*
X195075000Y-33209746D01*
X195075000Y-33389746D01*
G36*
X195075000Y-33389746D02*
G01*
X195625000Y-33389746D01*
X195625000Y-33809746D01*
X195075000Y-33809746D01*
X195075000Y-34209746D01*
X194075000Y-34209746D01*
X194075000Y-33209746D01*
X195075000Y-33209746D01*
X195075000Y-33389746D01*
G37*
X193875000Y-34879746D02*
X193775000Y-34879746D01*
X193775000Y-35379746D01*
X193515000Y-35379746D01*
X193515000Y-34879746D01*
X193135000Y-34879746D01*
X193135000Y-35379746D01*
X192875000Y-35379746D01*
X192875000Y-34409746D01*
X193875000Y-34409746D01*
X193875000Y-34879746D01*
G36*
X193875000Y-34879746D02*
G01*
X193775000Y-34879746D01*
X193775000Y-35379746D01*
X193515000Y-35379746D01*
X193515000Y-34879746D01*
X193135000Y-34879746D01*
X193135000Y-35379746D01*
X192875000Y-35379746D01*
X192875000Y-34409746D01*
X193875000Y-34409746D01*
X193875000Y-34879746D01*
G37*
X195075000Y-35379746D02*
X194815000Y-35379746D01*
X194815000Y-34879746D01*
X194435000Y-34879746D01*
X194435000Y-35379746D01*
X194175000Y-35379746D01*
X194175000Y-34879746D01*
X194075000Y-34879746D01*
X194075000Y-34409746D01*
X195075000Y-34409746D01*
X195075000Y-35379746D01*
G36*
X195075000Y-35379746D02*
G01*
X194815000Y-35379746D01*
X194815000Y-34879746D01*
X194435000Y-34879746D01*
X194435000Y-35379746D01*
X194175000Y-35379746D01*
X194175000Y-34879746D01*
X194075000Y-34879746D01*
X194075000Y-34409746D01*
X195075000Y-34409746D01*
X195075000Y-35379746D01*
G37*
%TO.C,Q5_L1*%
X193160000Y-80408604D02*
X192840000Y-80408604D01*
X192840000Y-79848604D01*
X193160000Y-79848604D01*
X193160000Y-80408604D01*
G36*
X193160000Y-80408604D02*
G01*
X192840000Y-80408604D01*
X192840000Y-79848604D01*
X193160000Y-79848604D01*
X193160000Y-80408604D01*
G37*
X193810000Y-80408604D02*
X193490000Y-80408604D01*
X193490000Y-79848604D01*
X193810000Y-79848604D01*
X193810000Y-80408604D01*
G36*
X193810000Y-80408604D02*
G01*
X193490000Y-80408604D01*
X193490000Y-79848604D01*
X193810000Y-79848604D01*
X193810000Y-80408604D01*
G37*
X194460000Y-80408604D02*
X194140000Y-80408604D01*
X194140000Y-79848604D01*
X194460000Y-79848604D01*
X194460000Y-80408604D01*
G36*
X194460000Y-80408604D02*
G01*
X194140000Y-80408604D01*
X194140000Y-79848604D01*
X194460000Y-79848604D01*
X194460000Y-80408604D01*
G37*
X195110000Y-80408604D02*
X194790000Y-80408604D01*
X194790000Y-79848604D01*
X195110000Y-79848604D01*
X195110000Y-80408604D01*
G36*
X195110000Y-80408604D02*
G01*
X194790000Y-80408604D01*
X194790000Y-79848604D01*
X195110000Y-79848604D01*
X195110000Y-80408604D01*
G37*
X193875000Y-82178604D02*
X192875000Y-82178604D01*
X192875000Y-81778604D01*
X192325000Y-81778604D01*
X192325000Y-81358604D01*
X192875000Y-81358604D01*
X192875000Y-81178604D01*
X193875000Y-81178604D01*
X193875000Y-82178604D01*
G36*
X193875000Y-82178604D02*
G01*
X192875000Y-82178604D01*
X192875000Y-81778604D01*
X192325000Y-81778604D01*
X192325000Y-81358604D01*
X192875000Y-81358604D01*
X192875000Y-81178604D01*
X193875000Y-81178604D01*
X193875000Y-82178604D01*
G37*
X195075000Y-81358604D02*
X195625000Y-81358604D01*
X195625000Y-81778604D01*
X195075000Y-81778604D01*
X195075000Y-82178604D01*
X194075000Y-82178604D01*
X194075000Y-81178604D01*
X195075000Y-81178604D01*
X195075000Y-81358604D01*
G36*
X195075000Y-81358604D02*
G01*
X195625000Y-81358604D01*
X195625000Y-81778604D01*
X195075000Y-81778604D01*
X195075000Y-82178604D01*
X194075000Y-82178604D01*
X194075000Y-81178604D01*
X195075000Y-81178604D01*
X195075000Y-81358604D01*
G37*
X193875000Y-82848604D02*
X193775000Y-82848604D01*
X193775000Y-83348604D01*
X193515000Y-83348604D01*
X193515000Y-82848604D01*
X193135000Y-82848604D01*
X193135000Y-83348604D01*
X192875000Y-83348604D01*
X192875000Y-82378604D01*
X193875000Y-82378604D01*
X193875000Y-82848604D01*
G36*
X193875000Y-82848604D02*
G01*
X193775000Y-82848604D01*
X193775000Y-83348604D01*
X193515000Y-83348604D01*
X193515000Y-82848604D01*
X193135000Y-82848604D01*
X193135000Y-83348604D01*
X192875000Y-83348604D01*
X192875000Y-82378604D01*
X193875000Y-82378604D01*
X193875000Y-82848604D01*
G37*
X195075000Y-83348604D02*
X194815000Y-83348604D01*
X194815000Y-82848604D01*
X194435000Y-82848604D01*
X194435000Y-83348604D01*
X194175000Y-83348604D01*
X194175000Y-82848604D01*
X194075000Y-82848604D01*
X194075000Y-82378604D01*
X195075000Y-82378604D01*
X195075000Y-83348604D01*
G36*
X195075000Y-83348604D02*
G01*
X194815000Y-83348604D01*
X194815000Y-82848604D01*
X194435000Y-82848604D01*
X194435000Y-83348604D01*
X194175000Y-83348604D01*
X194175000Y-82848604D01*
X194075000Y-82848604D01*
X194075000Y-82378604D01*
X195075000Y-82378604D01*
X195075000Y-83348604D01*
G37*
%TD*%
D11*
%TO.C,R99*%
X133000000Y-83825000D03*
X133000000Y-82000000D03*
%TD*%
D12*
%TO.C,R201*%
X130770000Y-80476500D03*
X130770000Y-78651500D03*
%TD*%
D13*
%TO.C,R202*%
X201862500Y-111454000D03*
X200037500Y-111454000D03*
%TD*%
%TO.C,R200*%
X139072500Y-77354000D03*
X137247500Y-77354000D03*
%TD*%
D14*
%TO.C,C4*%
X137150000Y-102104000D03*
X135250000Y-102104000D03*
%TD*%
D15*
%TO.C,R18*%
X198175000Y-55055505D03*
X200000000Y-55055505D03*
%TD*%
D16*
%TO.C,U14*%
X142190000Y-82725000D03*
X143460000Y-82725000D03*
X144730000Y-82725000D03*
X146000000Y-82725000D03*
X147270000Y-82725000D03*
X148540000Y-82725000D03*
X149810000Y-82725000D03*
X149810000Y-77775000D03*
X148540000Y-77775000D03*
X147270000Y-77775000D03*
X146000000Y-77775000D03*
X144730000Y-77775000D03*
X143460000Y-77775000D03*
X142190000Y-77775000D03*
%TD*%
D15*
%TO.C,R31*%
X214675000Y-39738278D03*
X216500000Y-39738278D03*
%TD*%
D12*
%TO.C,R103*%
X158750000Y-84962500D03*
X158750000Y-83137500D03*
%TD*%
D15*
%TO.C,R27*%
X198175000Y-102655596D03*
X200000000Y-102655596D03*
%TD*%
D13*
%TO.C,R80*%
X187342856Y-45093900D03*
X185517856Y-45093900D03*
%TD*%
D15*
%TO.C,R74*%
X189004408Y-96048778D03*
X190829408Y-96048778D03*
%TD*%
D13*
%TO.C,R84*%
X187342856Y-66386313D03*
X185517856Y-66386313D03*
%TD*%
D15*
%TO.C,R24*%
X198175000Y-86788899D03*
X200000000Y-86788899D03*
%TD*%
%TO.C,R71*%
X189004408Y-80079468D03*
X190829408Y-80079468D03*
%TD*%
D13*
%TO.C,R86*%
X187342856Y-77032519D03*
X185517856Y-77032519D03*
%TD*%
D14*
%TO.C,C9*%
X169850000Y-97004000D03*
X167950000Y-97004000D03*
%TD*%
D15*
%TO.C,R33*%
X214675000Y-50384484D03*
X216500000Y-50384484D03*
%TD*%
D17*
%TO.C,C12*%
X201000000Y-115550000D03*
X201000000Y-117450000D03*
%TD*%
D15*
%TO.C,R45*%
X217874163Y-32122761D03*
X219699163Y-32122761D03*
%TD*%
%TO.C,R52*%
X217874163Y-26799658D03*
X219699163Y-26799658D03*
%TD*%
D12*
%TO.C,R101*%
X139540000Y-75246500D03*
X139540000Y-73421500D03*
%TD*%
D15*
%TO.C,R102*%
X154587500Y-79050000D03*
X156412500Y-79050000D03*
%TD*%
D18*
%TO.C,C20*%
X229500000Y-101400000D03*
X229500000Y-99500000D03*
%TD*%
D15*
%TO.C,R42*%
X214552951Y-98292413D03*
X216377951Y-98292413D03*
%TD*%
D18*
%TO.C,C7*%
X140500000Y-69900000D03*
X140500000Y-68000000D03*
%TD*%
D15*
%TO.C,R37*%
X214675000Y-71676897D03*
X216500000Y-71676897D03*
%TD*%
%TO.C,R7*%
X176000000Y-52400000D03*
X177825000Y-52400000D03*
%TD*%
D18*
%TO.C,C2*%
X163200000Y-58150000D03*
X163200000Y-56250000D03*
%TD*%
D15*
%TO.C,R43*%
X214552951Y-103300000D03*
X216377951Y-103300000D03*
%TD*%
D19*
%TO.C,U9*%
X179000000Y-36225000D03*
X178050000Y-36225000D03*
X177100000Y-36225000D03*
X177100000Y-38500000D03*
X178050000Y-38500000D03*
X179000000Y-38500000D03*
%TD*%
D17*
%TO.C,C25*%
X146000000Y-73350000D03*
X146000000Y-75250000D03*
%TD*%
D15*
%TO.C,R21*%
X198175000Y-70922202D03*
X200000000Y-70922202D03*
%TD*%
D12*
%TO.C,R10*%
X168750000Y-27612500D03*
X168750000Y-25787500D03*
%TD*%
D15*
%TO.C,R58*%
X217874163Y-90676897D03*
X219699163Y-90676897D03*
%TD*%
D20*
%TO.C,C30*%
X164100000Y-79000000D03*
X166000000Y-79000000D03*
%TD*%
D17*
%TO.C,C8*%
X151600000Y-112750000D03*
X151600000Y-114650000D03*
%TD*%
D15*
%TO.C,R44*%
X217874163Y-21476555D03*
X219699163Y-21476555D03*
%TD*%
D20*
%TO.C,C16*%
X231950000Y-118100000D03*
X233850000Y-118100000D03*
%TD*%
D11*
%TO.C,R2*%
X148500000Y-57500000D03*
X148500000Y-59325000D03*
%TD*%
D13*
%TO.C,R104*%
X166000000Y-74300000D03*
X164175000Y-74300000D03*
%TD*%
D20*
%TO.C,C18*%
X170350000Y-58750000D03*
X172250000Y-58750000D03*
%TD*%
D15*
%TO.C,R54*%
X217874163Y-48092071D03*
X219699163Y-48092071D03*
%TD*%
%TO.C,R68*%
X189004408Y-64110159D03*
X190829408Y-64110159D03*
%TD*%
%TO.C,R65*%
X189004408Y-48140849D03*
X190829408Y-48140849D03*
%TD*%
%TO.C,R62*%
X189004408Y-32171539D03*
X190829408Y-32171539D03*
%TD*%
%TO.C,R46*%
X217874163Y-42768968D03*
X219699163Y-42768968D03*
%TD*%
D13*
%TO.C,R79*%
X187342856Y-39770797D03*
X185517856Y-39770797D03*
%TD*%
D15*
%TO.C,R35*%
X214675000Y-61030690D03*
X216500000Y-61030690D03*
%TD*%
%TO.C,R61*%
X189004408Y-26848436D03*
X190829408Y-26848436D03*
%TD*%
D13*
%TO.C,R83*%
X187342856Y-61063209D03*
X185517856Y-61063209D03*
%TD*%
D15*
%TO.C,R28*%
X214675000Y-23768968D03*
X216500000Y-23768968D03*
%TD*%
%TO.C,R56*%
X217874163Y-69384484D03*
X219699163Y-69384484D03*
%TD*%
D18*
%TO.C,C1*%
X140800000Y-33900000D03*
X140800000Y-32000000D03*
%TD*%
D15*
%TO.C,R57*%
X217874163Y-80030690D03*
X219699163Y-80030690D03*
%TD*%
D21*
%TO.C,C10*%
X189000000Y-112050000D03*
X189000000Y-117450000D03*
%TD*%
D13*
%TO.C,R94*%
X144325000Y-90000000D03*
X142500000Y-90000000D03*
%TD*%
D15*
%TO.C,R12*%
X198175000Y-23322111D03*
X200000000Y-23322111D03*
%TD*%
%TO.C,R26*%
X198175000Y-97366697D03*
X200000000Y-97366697D03*
%TD*%
D20*
%TO.C,C26*%
X149550000Y-86000000D03*
X151450000Y-86000000D03*
%TD*%
D15*
%TO.C,R59*%
X217675000Y-101200000D03*
X219500000Y-101200000D03*
%TD*%
%TO.C,R23*%
X198175000Y-81500000D03*
X200000000Y-81500000D03*
%TD*%
%TO.C,R17*%
X198175000Y-49766606D03*
X200000000Y-49766606D03*
%TD*%
%TO.C,R41*%
X214601730Y-92969310D03*
X216426730Y-92969310D03*
%TD*%
%TO.C,R40*%
X214650509Y-87646206D03*
X216475509Y-87646206D03*
%TD*%
D12*
%TO.C,R93*%
X137000000Y-83662500D03*
X137000000Y-81837500D03*
%TD*%
D22*
%TO.C,U13*%
X202960000Y-86134000D03*
X202960000Y-88674000D03*
X202960000Y-91214000D03*
X202960000Y-93754000D03*
X202960000Y-96294000D03*
X202960000Y-98834000D03*
X202960000Y-101374000D03*
X202960000Y-103914000D03*
X212040000Y-103914000D03*
X212040000Y-101374000D03*
X212040000Y-98834000D03*
X212040000Y-96294000D03*
X212040000Y-93754000D03*
X212040000Y-91214000D03*
X212040000Y-88674000D03*
X212040000Y-86134000D03*
%TD*%
D13*
%TO.C,R89*%
X187342856Y-93001829D03*
X185517856Y-93001829D03*
%TD*%
D15*
%TO.C,R70*%
X189004408Y-74756365D03*
X190829408Y-74756365D03*
%TD*%
D13*
%TO.C,R85*%
X187342856Y-71709416D03*
X185517856Y-71709416D03*
%TD*%
D12*
%TO.C,R5*%
X140500000Y-45616500D03*
X140500000Y-43791500D03*
%TD*%
D15*
%TO.C,R53*%
X217874163Y-37445865D03*
X219699163Y-37445865D03*
%TD*%
%TO.C,R38*%
X214675000Y-77000000D03*
X216500000Y-77000000D03*
%TD*%
D12*
%TO.C,R11*%
X164750000Y-44662500D03*
X164750000Y-42837500D03*
%TD*%
%TO.C,R98*%
X133500000Y-78091500D03*
X133500000Y-79916500D03*
%TD*%
D23*
%TO.C,U8*%
X228700000Y-110900000D03*
X231000000Y-110900000D03*
D24*
X231000000Y-104600000D03*
D23*
X233300000Y-110900000D03*
%TD*%
D20*
%TO.C,C29*%
X166600000Y-81400000D03*
X168500000Y-81400000D03*
%TD*%
D11*
%TO.C,R1*%
X152000000Y-54675000D03*
X152000000Y-56500000D03*
%TD*%
D15*
%TO.C,R30*%
X214675000Y-34415174D03*
X216500000Y-34415174D03*
%TD*%
%TO.C,R6*%
X175975000Y-50300000D03*
X177800000Y-50300000D03*
%TD*%
D14*
%TO.C,C23*%
X182100000Y-29200000D03*
X180200000Y-29200000D03*
%TD*%
D13*
%TO.C,R96*%
X142525000Y-86500000D03*
X140700000Y-86500000D03*
%TD*%
D15*
%TO.C,R25*%
X198175000Y-92077798D03*
X200000000Y-92077798D03*
%TD*%
%TO.C,R32*%
X214675000Y-45061381D03*
X216500000Y-45061381D03*
%TD*%
%TO.C,R14*%
X198175000Y-33899909D03*
X200000000Y-33899909D03*
%TD*%
%TO.C,R39*%
X214675000Y-82323103D03*
X216500000Y-82323103D03*
%TD*%
D17*
%TO.C,C11*%
X165000000Y-28450000D03*
X165000000Y-30350000D03*
%TD*%
D12*
%TO.C,R9*%
X172290000Y-27612500D03*
X172290000Y-25787500D03*
%TD*%
D13*
%TO.C,R82*%
X187342856Y-55740106D03*
X185517856Y-55740106D03*
%TD*%
D15*
%TO.C,R19*%
X198175000Y-60344404D03*
X200000000Y-60344404D03*
%TD*%
D25*
%TO.C,C28*%
X138200000Y-94800000D03*
X131000000Y-94800000D03*
%TD*%
D13*
%TO.C,R87*%
X187342856Y-82355622D03*
X185517856Y-82355622D03*
%TD*%
D15*
%TO.C,R34*%
X214675000Y-55707587D03*
X216500000Y-55707587D03*
%TD*%
D26*
%TO.C,Q1*%
X158812500Y-79100000D03*
X158812500Y-81000000D03*
X160687500Y-80050000D03*
%TD*%
D15*
%TO.C,R95*%
X132837500Y-87250000D03*
X134662500Y-87250000D03*
%TD*%
D18*
%TO.C,C19*%
X233750000Y-101400000D03*
X233750000Y-99500000D03*
%TD*%
D15*
%TO.C,R67*%
X189004408Y-58787055D03*
X190829408Y-58787055D03*
%TD*%
%TO.C,R49*%
X217874163Y-74707587D03*
X219699163Y-74707587D03*
%TD*%
D22*
%TO.C,U11*%
X202960000Y-43066343D03*
X202960000Y-45606343D03*
X202960000Y-48146343D03*
X202960000Y-50686343D03*
X202960000Y-53226343D03*
X202960000Y-55766343D03*
X202960000Y-58306343D03*
X202960000Y-60846343D03*
X212040000Y-60846343D03*
X212040000Y-58306343D03*
X212040000Y-55766343D03*
X212040000Y-53226343D03*
X212040000Y-50686343D03*
X212040000Y-48146343D03*
X212040000Y-45606343D03*
X212040000Y-43066343D03*
%TD*%
D13*
%TO.C,R4*%
X135432500Y-115624000D03*
X133607500Y-115624000D03*
%TD*%
D15*
%TO.C,R47*%
X217874163Y-53415174D03*
X219699163Y-53415174D03*
%TD*%
D13*
%TO.C,R76*%
X187342856Y-23801487D03*
X185517856Y-23801487D03*
%TD*%
D15*
%TO.C,R100*%
X153067500Y-83575000D03*
X154892500Y-83575000D03*
%TD*%
D14*
%TO.C,C3*%
X135365000Y-53525000D03*
X133465000Y-53525000D03*
%TD*%
D20*
%TO.C,C17*%
X231950000Y-114600000D03*
X233850000Y-114600000D03*
%TD*%
D15*
%TO.C,R64*%
X189004408Y-42817746D03*
X190829408Y-42817746D03*
%TD*%
D13*
%TO.C,R78*%
X187342856Y-34447693D03*
X185517856Y-34447693D03*
%TD*%
D14*
%TO.C,C13*%
X176800000Y-31900000D03*
X174900000Y-31900000D03*
%TD*%
D17*
%TO.C,C21*%
X164750000Y-38300000D03*
X164750000Y-40200000D03*
%TD*%
D15*
%TO.C,R20*%
X198175000Y-65633303D03*
X200000000Y-65633303D03*
%TD*%
%TO.C,R36*%
X214675000Y-66353794D03*
X216500000Y-66353794D03*
%TD*%
D11*
%TO.C,R3*%
X140800000Y-27687500D03*
X140800000Y-29512500D03*
%TD*%
D13*
%TO.C,R81*%
X187342856Y-50417003D03*
X185517856Y-50417003D03*
%TD*%
D15*
%TO.C,R73*%
X189004408Y-90725675D03*
X190829408Y-90725675D03*
%TD*%
%TO.C,R69*%
X189004408Y-69433262D03*
X190829408Y-69433262D03*
%TD*%
%TO.C,R72*%
X189004408Y-85402571D03*
X190829408Y-85402571D03*
%TD*%
D27*
%TO.C,R92*%
X194412000Y-108099000D03*
X199412000Y-108099000D03*
%TD*%
D28*
%TO.C,U3*%
X136270000Y-56050000D03*
X135000000Y-56050000D03*
X133730000Y-56050000D03*
X132460000Y-56050000D03*
X132460000Y-61000000D03*
X133730000Y-61000000D03*
X135000000Y-61000000D03*
X136270000Y-61000000D03*
%TD*%
D15*
%TO.C,R16*%
X198175000Y-44477707D03*
X200000000Y-44477707D03*
%TD*%
D22*
%TO.C,U10*%
X202960000Y-21532515D03*
X202960000Y-24072515D03*
X202960000Y-26612515D03*
X202960000Y-29152515D03*
X202960000Y-31692515D03*
X202960000Y-34232515D03*
X202960000Y-36772515D03*
X202960000Y-39312515D03*
X212040000Y-39312515D03*
X212040000Y-36772515D03*
X212040000Y-34232515D03*
X212040000Y-31692515D03*
X212040000Y-29152515D03*
X212040000Y-26612515D03*
X212040000Y-24072515D03*
X212040000Y-21532515D03*
%TD*%
D15*
%TO.C,R22*%
X198175000Y-76211101D03*
X200000000Y-76211101D03*
%TD*%
D13*
%TO.C,R90*%
X187742856Y-98324932D03*
X185917856Y-98324932D03*
%TD*%
D29*
%TO.C,C14*%
X206500000Y-109750000D03*
X210100000Y-109750000D03*
%TD*%
D13*
%TO.C,R8*%
X164750000Y-35162500D03*
X162925000Y-35162500D03*
%TD*%
D14*
%TO.C,C22*%
X182100000Y-32700000D03*
X180200000Y-32700000D03*
%TD*%
D15*
%TO.C,R66*%
X189004408Y-53463952D03*
X190829408Y-53463952D03*
%TD*%
%TO.C,R60*%
X189004408Y-21525333D03*
X190829408Y-21525333D03*
%TD*%
D30*
%TO.C,U7*%
X174250000Y-66000000D03*
X174900000Y-66000000D03*
X175550000Y-66000000D03*
X176200000Y-66000000D03*
X176850000Y-66000000D03*
X177500000Y-66000000D03*
X178150000Y-66000000D03*
X178800000Y-66000000D03*
X179450000Y-66000000D03*
X180100000Y-66000000D03*
X180750000Y-66000000D03*
X181400000Y-66000000D03*
X181400000Y-59000000D03*
X180750000Y-59000000D03*
X180100000Y-59000000D03*
X179450000Y-59000000D03*
X178800000Y-59000000D03*
X178150000Y-59000000D03*
X177500000Y-59000000D03*
X176850000Y-59000000D03*
X176200000Y-59000000D03*
X175550000Y-59000000D03*
X174900000Y-59000000D03*
X174250000Y-59000000D03*
%TD*%
D15*
%TO.C,R51*%
X217675000Y-96000000D03*
X219500000Y-96000000D03*
%TD*%
D13*
%TO.C,R91*%
X187742856Y-103648035D03*
X185917856Y-103648035D03*
%TD*%
D15*
%TO.C,R55*%
X217874163Y-58738277D03*
X219699163Y-58738277D03*
%TD*%
D13*
%TO.C,R77*%
X187342856Y-29124590D03*
X185517856Y-29124590D03*
%TD*%
D15*
%TO.C,R13*%
X198175000Y-28611010D03*
X200000000Y-28611010D03*
%TD*%
%TO.C,R15*%
X198175000Y-39188808D03*
X200000000Y-39188808D03*
%TD*%
D18*
%TO.C,C6*%
X151400000Y-105700000D03*
X151400000Y-103800000D03*
%TD*%
D31*
%TO.C,U2*%
X166885400Y-50895000D03*
X166885400Y-52165000D03*
X166885400Y-53435000D03*
X166885400Y-54705000D03*
X171914600Y-54705000D03*
X171914600Y-53435000D03*
X171914600Y-52165000D03*
X171914600Y-50895000D03*
%TD*%
D32*
%TO.C,L2*%
X177500000Y-92250000D03*
X177500000Y-82550000D03*
%TD*%
D33*
%TO.C,U6*%
X171050000Y-32750000D03*
X171050000Y-32250000D03*
X171050000Y-31750000D03*
X171050000Y-31250000D03*
X168250000Y-31250000D03*
X168250000Y-31750000D03*
X168250000Y-32250000D03*
X168250000Y-32750000D03*
%TD*%
D34*
%TO.C,C31*%
X175800000Y-77500000D03*
X180200000Y-77500000D03*
%TD*%
D15*
%TO.C,R48*%
X217874163Y-64061381D03*
X219699163Y-64061381D03*
%TD*%
D35*
%TO.C,L1*%
X147000000Y-98500000D03*
X147000000Y-93800000D03*
%TD*%
D11*
%TO.C,R97*%
X137400000Y-86587500D03*
X137400000Y-88412500D03*
%TD*%
D15*
%TO.C,R63*%
X189004408Y-37494643D03*
X190829408Y-37494643D03*
%TD*%
D36*
%TO.C,D1*%
X157400000Y-92600000D03*
X153400000Y-92600000D03*
%TD*%
D17*
%TO.C,C27*%
X136080000Y-73334000D03*
X136080000Y-75234000D03*
%TD*%
D13*
%TO.C,R88*%
X187342856Y-87678725D03*
X185517856Y-87678725D03*
%TD*%
D15*
%TO.C,R50*%
X217874163Y-85353793D03*
X219699163Y-85353793D03*
%TD*%
D37*
%TO.C,C15*%
X217750000Y-109750000D03*
X214150000Y-109750000D03*
%TD*%
D18*
%TO.C,C24*%
X146000000Y-87450000D03*
X146000000Y-85550000D03*
%TD*%
D15*
%TO.C,R29*%
X214675000Y-29092071D03*
X216500000Y-29092071D03*
%TD*%
D14*
%TO.C,C5*%
X177900000Y-54800000D03*
X176000000Y-54800000D03*
%TD*%
D15*
%TO.C,R75*%
X189004408Y-101371881D03*
X190829408Y-101371881D03*
%TD*%
D22*
%TO.C,U12*%
X202960000Y-64600172D03*
X202960000Y-67140172D03*
X202960000Y-69680172D03*
X202960000Y-72220172D03*
X202960000Y-74760172D03*
X202960000Y-77300172D03*
X202960000Y-79840172D03*
X202960000Y-82380172D03*
X212040000Y-82380172D03*
X212040000Y-79840172D03*
X212040000Y-77300172D03*
X212040000Y-74760172D03*
X212040000Y-72220172D03*
X212040000Y-69680172D03*
X212040000Y-67140172D03*
X212040000Y-64600172D03*
%TD*%
M02*
