M48
; DRILL file KiCad 10.0.0 date 2026-06-26T16:48:36
; FORMAT={-:-/ absolute / metric / decimal}
; #@! TF.CreationDate,2026-06-26T16:48:36+02:00
; #@! TF.GenerationSoftware,Kicad,Pcbnew,10.0.0
; #@! TF.FileFunction,Plated,1,4,PTH
FMAT,2
METRIC
; #@! TA.AperFunction,Plated,PTH,ViaDrill
T1C0.400
; #@! TA.AperFunction,Plated,PTH,ComponentDrill
T2C0.450
; #@! TA.AperFunction,Plated,PTH,ViaDrill
T3C0.600
; #@! TA.AperFunction,Plated,PTH,ComponentDrill
T4C1.000
; #@! TA.AperFunction,Plated,PTH,ComponentDrill
T5C1.050
; #@! TA.AperFunction,Plated,PTH,ComponentDrill
T6C1.100
; #@! TA.AperFunction,Plated,PTH,ComponentDrill
T7C1.143
; #@! TA.AperFunction,Plated,PTH,ComponentDrill
T8C1.200
; #@! TA.AperFunction,Plated,PTH,ComponentDrill
T9C1.300
; #@! TA.AperFunction,Plated,PTH,ComponentDrill
T10C3.050
%
G90
G05
T1
X130.47Y-81.994
X130.9Y-84.934
X131.4Y-54.0
X132.82Y-85.664
X133.73Y-63.0
X135.0Y-63.0
X136.72Y-113.324
X136.85Y-80.384
X138.7Y-83.9
X140.4Y-47.6
X140.8Y-25.8
X143.17Y-74.646
X144.5Y-84.7
X147.9Y-88.6
X162.7Y-80.0
X164.235Y-52.165
X164.4Y-53.6
X164.8Y-41.5
X173.75Y-52.165
X173.904Y-57.504
X174.6Y-53.275
X175.1Y-57.025
X175.5Y-37.3
X175.6Y-68.175
X176.362Y-68.969
X177.032Y-69.841
X177.461Y-56.547
X177.6Y-27.5
X178.003Y-40.172
X178.2Y-70.6
X178.6Y-61.0
X179.3Y-70.1
X179.4Y-34.6
X179.42Y-61.9
X180.3Y-69.5
X180.45Y-55.95
X180.5Y-63.4
X181.3Y-56.8
X181.3Y-68.8
X182.114Y-27.386
X182.6Y-63.9
X182.6Y-68.2
X183.059Y-65.995
X183.9Y-64.2
X186.936Y-21.876
X186.943Y-37.7
X186.943Y-43.1
X186.943Y-80.1
X186.943Y-90.7
X187.0Y-59.1
X187.0Y-70.1
X187.1Y-27.0
X187.1Y-32.5
X187.2Y-48.2
X187.2Y-64.5
X187.2Y-75.2
X187.2Y-96.0
X187.2Y-101.4
X187.3Y-53.8
X187.3Y-85.8
X191.1Y-108.1
X197.7Y-67.7
X197.9Y-73.2
X198.031Y-36.0
X198.031Y-41.1
X198.031Y-57.0
X198.031Y-62.3
X198.1Y-25.3
X198.1Y-30.5
X198.1Y-46.4
X198.1Y-52.0
X198.1Y-83.3
X198.1Y-99.4
X198.1Y-104.5
X198.2Y-88.7
X198.2Y-94.0
X200.0Y-73.2
T3
X128.7Y-91.6
X130.6Y-61.0
X131.82Y-116.824
X136.33Y-51.93
X140.8Y-35.4
X142.0Y-66.704
X143.402Y-72.902
X143.9Y-88.1
X147.8Y-74.104
X147.8Y-86.3
X150.0Y-90.7
X151.5Y-98.7
X151.6Y-116.3
X159.9Y-86.5
X164.331Y-55.135
X164.5Y-26.4
X167.108Y-38.27
X169.5Y-60.3
X169.6Y-103.1
X169.6Y-114.075
X172.3Y-24.4
X173.1Y-33.2
X174.6Y-54.7
X176.0Y-87.7
X176.7Y-28.8
X178.0Y-34.6
X178.663Y-85.837
X181.55Y-35.275
X183.1Y-77.4
X184.2Y-20.7
X186.4Y-106.6
X190.7Y-66.1
X190.7Y-71.5
X190.7Y-87.5
X190.8Y-76.9
X190.9Y-28.9
X190.9Y-45.0
X190.9Y-50.3
X190.9Y-55.4
X190.9Y-82.2
X190.9Y-92.7
X190.9Y-103.4
X190.938Y-98.112
X191.0Y-39.5
X191.1Y-23.6
X191.1Y-34.1
X191.1Y-60.9
X191.5Y-119.125
X194.04Y-112.104
X201.0Y-119.1
X203.1Y-109.7
X204.755Y-87.423
X205.169Y-93.736
X205.189Y-98.826
X205.199Y-103.911
X205.216Y-36.068
X205.216Y-46.3
X205.216Y-56.388
X205.216Y-68.072
X205.216Y-76.2
X205.216Y-84.328
X205.724Y-25.4
X209.28Y-103.124
X212.2Y-107.8
X219.5Y-98.425
X219.7Y-76.475
X219.7Y-92.5
X219.9Y-83.6
X220.3Y-25.225
X220.3Y-41.2
X220.3Y-46.3
X220.4Y-30.525
X220.4Y-62.5
X220.4Y-67.8
X220.6Y-51.9
X220.6Y-57.3
X220.7Y-36.0
X221.275Y-20.11
X222.9Y-25.3
X223.0Y-30.6
X223.0Y-36.0
X223.0Y-41.0
X223.0Y-46.3
X223.0Y-51.9
X223.0Y-57.0
X223.0Y-62.4
X223.0Y-67.8
X223.0Y-73.0
X223.0Y-78.4
X223.0Y-83.6
X223.0Y-88.9
X223.0Y-94.3
X223.0Y-99.7
X223.0Y-105.3
X226.4Y-110.9
X229.5Y-97.7
X233.7Y-97.7
X235.213Y-114.6
X235.213Y-118.1
T4
X130.645Y-73.914
X132.8Y-65.4
X133.185Y-73.914
X135.34Y-65.4
X139.7Y-109.104
X139.7Y-116.724
X140.5Y-53.96
X140.5Y-56.5
X140.5Y-61.235
X140.5Y-63.775
X140.787Y-37.664
X140.787Y-40.204
X144.76Y-20.84
X144.76Y-23.38
X144.76Y-25.92
X144.76Y-28.46
X144.76Y-31.0
X144.76Y-33.54
X144.76Y-36.08
X144.76Y-38.62
X144.76Y-41.16
X144.76Y-43.7
X144.76Y-46.24
X144.76Y-48.78
X144.76Y-51.32
X144.76Y-53.86
X144.76Y-56.4
X144.76Y-58.94
X144.76Y-61.48
X144.76Y-64.02
X144.76Y-66.56
X144.76Y-69.1
X147.32Y-109.104
X147.32Y-116.724
X150.2Y-74.0
X152.74Y-74.0
X154.78Y-117.34
X157.06Y-73.8
X157.32Y-102.1
X157.32Y-117.34
X159.6Y-73.8
X159.86Y-102.1
X159.86Y-117.34
X160.0Y-20.84
X160.0Y-23.38
X160.0Y-25.92
X160.0Y-28.46
X160.0Y-31.0
X160.0Y-33.54
X160.0Y-36.08
X160.0Y-38.62
X160.0Y-41.16
X160.0Y-43.7
X160.0Y-46.24
X160.0Y-48.78
X160.0Y-51.32
X160.0Y-53.86
X160.0Y-56.4
X160.0Y-58.94
X160.0Y-61.48
X160.0Y-64.02
X160.0Y-66.56
X160.0Y-69.1
X164.67Y-69.75
X165.8Y-22.0
X167.2Y-60.86
X167.2Y-63.4
X167.2Y-65.94
X167.21Y-69.75
X168.34Y-22.0
X168.381Y-43.18
X169.076Y-36.236
X169.076Y-38.776
X169.75Y-69.75
X170.88Y-22.0
X170.921Y-43.18
X171.2Y-73.66
X171.2Y-76.2
X171.25Y-62.5
X171.25Y-65.04
X172.75Y-36.21
X172.75Y-38.75
X173.998Y-47.497
X175.1Y-102.1
X175.1Y-117.34
X175.952Y-42.383
X176.538Y-47.497
X177.0Y-20.96
X177.0Y-23.5
X178.25Y-96.75
X178.492Y-42.383
X180.18Y-102.1
X180.18Y-117.34
X180.79Y-96.75
X181.0Y-20.96
X181.0Y-23.5
X182.208Y-40.614
X182.208Y-43.154
X182.208Y-45.694
X223.5Y-108.0
X223.5Y-110.54
X228.25Y-115.25
X228.25Y-117.79
T5
X133.457Y-31.17
X133.457Y-33.94
X133.457Y-36.71
X133.457Y-39.48
X136.297Y-29.785
X136.297Y-32.555
X136.297Y-35.325
X136.297Y-38.095
X136.297Y-40.865
T6
X161.7Y-84.0
X163.4Y-87.7
X165.1Y-84.0
X166.8Y-87.7
X168.5Y-84.0
T7
X141.003Y-103.921
X143.543Y-103.921
X146.083Y-103.921
T8
X231.049Y-22.533
X231.049Y-26.033
X231.049Y-29.533
X231.049Y-34.777
X231.049Y-38.277
X231.049Y-41.777
X231.049Y-47.021
X231.049Y-50.521
X231.049Y-54.021
X231.049Y-59.266
X231.049Y-62.766
X231.049Y-66.266
X231.049Y-71.51
X231.049Y-75.01
X231.049Y-78.51
X231.049Y-83.754
X231.049Y-87.254
X231.049Y-90.754
T9
X131.868Y-106.104
X131.868Y-111.104
T10
X134.877Y-22.83
X134.877Y-47.82
T2
G00X208.675Y-115.5
M15
G01X208.925Y-115.5
M16
G05
G00X211.215Y-115.5
M15
G01X211.465Y-115.5
M16
G05
G00X216.295Y-115.5
M15
G01X216.545Y-115.5
M16
G05
G00X218.835Y-115.5
M15
G01X219.085Y-115.5
M16
G05
G00X221.375Y-115.5
M15
G01X221.625Y-115.5
M16
G05
M30
