%TF.GenerationSoftware,KiCad,Pcbnew,10.0.0*%
%TF.CreationDate,2026-06-26T16:48:33+02:00*%
%TF.ProjectId,Aktive_Bal,416b7469-7665-45f4-9261-6c2e6b696361,rev?*%
%TF.SameCoordinates,Original*%
%TF.FileFunction,Copper,L4,Bot*%
%TF.FilePolarity,Positive*%
%FSLAX46Y46*%
G04 Gerber Fmt 4.6, Leading zero omitted, Abs format (unit mm)*
G04 Created by KiCad (PCBNEW 10.0.0) date 2026-06-26 16:48:33*
%MOMM*%
%LPD*%
G01*
G04 APERTURE LIST*
G04 Aperture macros list*
%AMRoundRect*
0 Rectangle with rounded corners*
0 $1 Rounding radius*
0 $2 $3 $4 $5 $6 $7 $8 $9 X,Y pos of 4 corners*
0 Add a 4 corners polygon primitive as box body*
4,1,4,$2,$3,$4,$5,$6,$7,$8,$9,$2,$3,0*
0 Add four circle primitives for the rounded corners*
1,1,$1+$1,$2,$3*
1,1,$1+$1,$4,$5*
1,1,$1+$1,$6,$7*
1,1,$1+$1,$8,$9*
0 Add four rect primitives between the rounded corners*
20,1,$1+$1,$2,$3,$4,$5,0*
20,1,$1+$1,$4,$5,$6,$7,0*
20,1,$1+$1,$6,$7,$8,$9,0*
20,1,$1+$1,$8,$9,$2,$3,0*%
G04 Aperture macros list end*
%TA.AperFunction,ComponentPad*%
%ADD10R,1.700000X1.700000*%
%TD*%
%TA.AperFunction,ComponentPad*%
%ADD11C,1.700000*%
%TD*%
%TA.AperFunction,ComponentPad*%
%ADD12RoundRect,0.250001X-0.949999X0.949999X-0.949999X-0.949999X0.949999X-0.949999X0.949999X0.949999X0*%
%TD*%
%TA.AperFunction,ComponentPad*%
%ADD13C,2.400000*%
%TD*%
%TA.AperFunction,ComponentPad*%
%ADD14RoundRect,0.250000X1.000000X-1.000000X1.000000X1.000000X-1.000000X1.000000X-1.000000X-1.000000X0*%
%TD*%
%TA.AperFunction,ComponentPad*%
%ADD15C,2.500000*%
%TD*%
%TA.AperFunction,ComponentPad*%
%ADD16C,2.000000*%
%TD*%
%TA.AperFunction,ComponentPad*%
%ADD17RoundRect,0.157500X-0.492500X-0.367500X0.492500X-0.367500X0.492500X0.367500X-0.492500X0.367500X0*%
%TD*%
%TA.AperFunction,ComponentPad*%
%ADD18R,1.575000X1.575000*%
%TD*%
%TA.AperFunction,ComponentPad*%
%ADD19C,1.575000*%
%TD*%
%TA.AperFunction,ComponentPad*%
%ADD20C,4.066000*%
%TD*%
%TA.AperFunction,ComponentPad*%
%ADD21R,1.800000X1.800000*%
%TD*%
%TA.AperFunction,ComponentPad*%
%ADD22C,1.800000*%
%TD*%
%TA.AperFunction,ViaPad*%
%ADD23C,0.800000*%
%TD*%
%TA.AperFunction,ViaPad*%
%ADD24C,1.200000*%
%TD*%
%TA.AperFunction,ViaPad*%
%ADD25C,1.000000*%
%TD*%
%TA.AperFunction,Conductor*%
%ADD26C,0.600000*%
%TD*%
%TA.AperFunction,Conductor*%
%ADD27C,1.250000*%
%TD*%
%TA.AperFunction,Conductor*%
%ADD28C,0.300000*%
%TD*%
%TA.AperFunction,Conductor*%
%ADD29C,1.000000*%
%TD*%
%TA.AperFunction,Conductor*%
%ADD30C,0.200000*%
%TD*%
%TA.AperFunction,Conductor*%
%ADD31C,0.250000*%
%TD*%
%TA.AperFunction,Conductor*%
%ADD32C,0.500000*%
%TD*%
G04 APERTURE END LIST*
D10*
%TO.P,J10,1,Pin_1_1*%
%TO.N,SDA3.3*%
X177000000Y-23500000D03*
D11*
%TO.P,J10,2,Pin_2_2*%
%TO.N,SCL3.3*%
X177000000Y-20960000D03*
%TD*%
D12*
%TO.P,J18,1,Pin_1_1*%
%TO.N,Cell7*%
X231048914Y-59265617D03*
D13*
%TO.P,J18,2,Pin_2_2*%
%TO.N,Cell6*%
X231048914Y-62765617D03*
%TO.P,J18,3,Pin_3_3*%
%TO.N,Cell5*%
X231048914Y-66265617D03*
%TD*%
D11*
%TO.P,J7,1,B12_1*%
%TO.N,unconnected-(J7-B12-Pad1)*%
X144760000Y-20840000D03*
%TO.P,J7,2,B13_2*%
%TO.N,unconnected-(J7-B13-Pad2)*%
X144760000Y-23380000D03*
%TO.P,J7,3,B14_3*%
%TO.N,unconnected-(J7-B14-Pad3)*%
X144760000Y-25920000D03*
%TO.P,J7,4,B15_4*%
%TO.N,unconnected-(J7-B15-Pad4)*%
X144760000Y-28460000D03*
%TO.P,J7,5,A8_5*%
%TO.N,unconnected-(J7-A8-Pad5)*%
X144760000Y-31000000D03*
%TO.P,J7,6,A9_6*%
%TO.N,unconnected-(J7-A9-Pad6)*%
X144760000Y-33540000D03*
%TO.P,J7,7,A10_7*%
%TO.N,unconnected-(J7-A10-Pad7)*%
X144760000Y-36080000D03*
%TO.P,J7,8,A11_8*%
%TO.N,RX*%
X144760000Y-38620000D03*
%TO.P,J7,9,A12_9*%
%TO.N,TX*%
X144760000Y-41160000D03*
%TO.P,J7,10,A15_10*%
%TO.N,unconnected-(J7-A15-Pad10)*%
X144760000Y-43700000D03*
%TO.P,J7,11,B3_11*%
%TO.N,unconnected-(J7-B3-Pad11)*%
X144760000Y-46240000D03*
%TO.P,J7,12,B4_12*%
%TO.N,unconnected-(J7-B4-Pad12)*%
X144760000Y-48780000D03*
%TO.P,J7,13,B5_13*%
%TO.N,unconnected-(J7-B5-Pad13)*%
X144760000Y-51320000D03*
%TO.P,J7,14,B6_14*%
%TO.N,SCL\u00B5C*%
X144760000Y-53860000D03*
%TO.P,J7,15,B7_15*%
%TO.N,SDA\u00B5C*%
X144760000Y-56400000D03*
%TO.P,J7,16,B8_16*%
%TO.N,unconnected-(J7-B8-Pad16)*%
X144760000Y-58940000D03*
%TO.P,J7,17,B9_17*%
%TO.N,unconnected-(J7-B9-Pad17)*%
X144760000Y-61480000D03*
%TO.P,J7,18,5V_18*%
%TO.N,unconnected-(J7-5V-Pad18)*%
X144760000Y-64020000D03*
%TO.P,J7,19,G_19*%
%TO.N,GND\u00B5*%
X144760000Y-66560000D03*
%TO.P,J7,20,3.3_20*%
%TO.N,+3.3V\u00B5*%
X144760000Y-69100000D03*
%TO.P,J7,21,VB_21*%
%TO.N,unconnected-(J7-VB-Pad21)*%
X160000000Y-69100000D03*
%TO.P,J7,22,C13_22*%
%TO.N,unconnected-(J7-C13-Pad22)*%
X160000000Y-66560000D03*
%TO.P,J7,23,C14_23*%
%TO.N,unconnected-(J7-C14-Pad23)*%
X160000000Y-64020000D03*
%TO.P,J7,24,C15_24*%
%TO.N,unconnected-(J7-C15-Pad24)*%
X160000000Y-61480000D03*
%TO.P,J7,25,A0_25*%
%TO.N,unconnected-(J7-A0-Pad25)*%
X160000000Y-58940000D03*
%TO.P,J7,26,A1_26*%
%TO.N,unconnected-(J7-A1-Pad26)*%
X160000000Y-56400000D03*
%TO.P,J7,27,A2_27*%
%TO.N,unconnected-(J7-A2-Pad27)*%
X160000000Y-53860000D03*
%TO.P,J7,28,A3_28*%
%TO.N,enable*%
X160000000Y-51320000D03*
%TO.P,J7,29,A4_29*%
%TO.N,unconnected-(J7-A4-Pad29)*%
X160000000Y-48780000D03*
%TO.P,J7,30,A5_30*%
%TO.N,unconnected-(J7-A5-Pad30)*%
X160000000Y-46240000D03*
%TO.P,J7,31,A6_31*%
%TO.N,unconnected-(J7-A6-Pad31)*%
X160000000Y-43700000D03*
%TO.P,J7,32,A7_32*%
%TO.N,unconnected-(J7-A7-Pad32)*%
X160000000Y-41160000D03*
%TO.P,J7,33,B0_33*%
%TO.N,unconnected-(J7-B0-Pad33)*%
X160000000Y-38620000D03*
%TO.P,J7,34,B1_34*%
%TO.N,unconnected-(J7-B1-Pad34)*%
X160000000Y-36080000D03*
%TO.P,J7,35,B10_35*%
%TO.N,unconnected-(J7-B10-Pad35)*%
X160000000Y-33540000D03*
%TO.P,J7,36,B11_36*%
%TO.N,unconnected-(J7-B11-Pad36)*%
X160000000Y-31000000D03*
%TO.P,J7,37,R_37*%
%TO.N,unconnected-(J7-R-Pad37)*%
X160000000Y-28460000D03*
%TO.P,J7,38,3.3_38*%
%TO.N,unconnected-(J7-3.3-Pad38)*%
X160000000Y-25920000D03*
%TO.P,J7,39,G_39*%
%TO.N,unconnected-(J7-G-Pad39)*%
X160000000Y-23380000D03*
%TO.P,J7,40,G_40*%
%TO.N,unconnected-(J7-G-Pad40)*%
X160000000Y-20840000D03*
%TD*%
D14*
%TO.P,J1,1,Pin_1_1*%
%TO.N,BAT+*%
X131867500Y-111104000D03*
D15*
%TO.P,J1,2,Pin_2_2*%
%TO.N,Bat_GND*%
X131867500Y-106104000D03*
%TD*%
D11*
%TO.P,FL1,1,1_1*%
%TO.N,Net-(U1-D)*%
X147320000Y-116724000D03*
%TO.P,FL1,2,2_2*%
%TO.N,BAT+*%
X147320000Y-109104000D03*
%TO.P,FL1,3,3_3*%
%TO.N,Net-(C6-Pad2)*%
X139700000Y-109104000D03*
%TO.P,FL1,4,4_4*%
%TO.N,Net-(C6-Pad1)*%
X139700000Y-116724000D03*
%TD*%
D10*
%TO.P,JP9,1,A_1*%
%TO.N,Net-(JP9-A)*%
X165800000Y-22000000D03*
D11*
%TO.P,JP9,2,C_2*%
%TO.N,Net-(JP8-B)*%
X168340000Y-22000000D03*
%TO.P,JP9,3,B_3*%
%TO.N,+3.3V*%
X170880000Y-22000000D03*
%TD*%
D16*
%TO.P,U1,1,G_1*%
%TO.N,enable*%
X141002778Y-103921232D03*
%TO.P,U1,2,D_2*%
%TO.N,Net-(U1-D)*%
X143542778Y-103921232D03*
%TO.P,U1,3,S_3*%
%TO.N,Bat_GND*%
X146082778Y-103921232D03*
%TD*%
D10*
%TO.P,J4,1,Pin_1_1*%
%TO.N,SDA\u00B5C*%
X140500000Y-56500000D03*
D11*
%TO.P,J4,2,Pin_2_2*%
%TO.N,SCL\u00B5C*%
X140500000Y-53960000D03*
%TD*%
D10*
%TO.P,J11,1,Pin_1_1*%
%TO.N,GND_float2*%
X171250000Y-62500000D03*
D11*
%TO.P,J11,2,Pin_2_2*%
%TO.N,B1*%
X171250000Y-65040000D03*
%TD*%
D10*
%TO.P,JP6,1,A_1*%
%TO.N,SDA5*%
X175951983Y-42382521D03*
D11*
%TO.P,JP6,2,B_2*%
%TO.N,SDA3.3*%
X178491983Y-42382521D03*
%TD*%
D10*
%TO.P,J23,1,Pin_1_1*%
%TO.N,Net-(J23-Pin_1)*%
X159600000Y-73800000D03*
D11*
%TO.P,J23,2,Pin_2_2*%
%TO.N,GND_float2*%
X157060000Y-73800000D03*
%TD*%
D10*
%TO.P,J24,1,Pin_1_1*%
%TO.N,Bal*%
X171200000Y-76200000D03*
D11*
%TO.P,J24,2,Pin_2_2*%
%TO.N,GND_float2*%
X171200000Y-73660000D03*
%TD*%
D17*
%TO.P,U5,1,+V_Input_1*%
%TO.N,GND_float2*%
X208800000Y-115500000D03*
%TO.P,U5,2,-V_Input_2*%
%TO.N,+12V*%
X211340000Y-115500000D03*
%TO.P,U5,4,-V_Output_4*%
%TO.N,-5V*%
X216420000Y-115500000D03*
%TO.P,U5,5,Common_5*%
%TO.N,GND_float2*%
X218960000Y-115500000D03*
%TO.P,U5,6,+V_Output_6*%
%TO.N,+5V*%
X221500000Y-115500000D03*
%TD*%
D10*
%TO.P,J13,1,Pin_1_1*%
%TO.N,GND_float2*%
X223500000Y-110540000D03*
D11*
%TO.P,J13,2,Pin_2_2*%
%TO.N,+3.3V*%
X223500000Y-108000000D03*
%TD*%
D10*
%TO.P,JP8,1,A_1*%
%TO.N,GND_float2*%
X182207892Y-45694134D03*
D11*
%TO.P,JP8,2,C_2*%
%TO.N,Net-(JP8-C)*%
X182207892Y-43154134D03*
%TO.P,JP8,3,B_3*%
%TO.N,Net-(JP8-B)*%
X182207892Y-40614134D03*
%TD*%
D18*
%TO.P,J2,1*%
%TO.N,unconnected-(J2-Pad1)*%
X136297500Y-40865000D03*
D19*
%TO.P,J2,2*%
%TO.N,CANL*%
X136297500Y-38095000D03*
%TO.P,J2,3*%
%TO.N,GND\u00B5*%
X136297500Y-35325000D03*
%TO.P,J2,4*%
%TO.N,unconnected-(J2-Pad4)*%
X136297500Y-32555000D03*
%TO.P,J2,5*%
%TO.N,Net-(J2-SHIELD)*%
X136297500Y-29785000D03*
%TO.P,J2,6*%
%TO.N,unconnected-(J2-Pad6)*%
X133457500Y-39480000D03*
%TO.P,J2,7*%
%TO.N,CANH*%
X133457500Y-36710000D03*
%TO.P,J2,8*%
%TO.N,unconnected-(J2-Pad8)*%
X133457500Y-33940000D03*
%TO.P,J2,9*%
%TO.N,unconnected-(J2-Pad9)*%
X133457500Y-31170000D03*
D20*
%TO.P,J2,S1,SHIELD_S1*%
%TO.N,Net-(J2-SHIELD)*%
X134877500Y-22830000D03*
%TO.P,J2,S2,SHIELD__1_S2*%
X134877500Y-47820000D03*
%TD*%
D10*
%TO.P,JP2,1,A_1*%
%TO.N,SDA5*%
X172750000Y-38750000D03*
D11*
%TO.P,JP2,2,B_2*%
%TO.N,Net-(JP2-B)*%
X172750000Y-36210000D03*
%TD*%
D12*
%TO.P,J15,1,Pin_1_1*%
%TO.N,Cell16*%
X231048914Y-22532743D03*
D13*
%TO.P,J15,2,Pin_2_2*%
%TO.N,Cell15*%
X231048914Y-26032743D03*
%TO.P,J15,3,Pin_3_3*%
%TO.N,Cell14*%
X231048914Y-29532743D03*
%TD*%
D10*
%TO.P,J3,1,Pin_1_1*%
%TO.N,CANL*%
X132800000Y-65400000D03*
D11*
%TO.P,J3,2,Pin_2_2*%
%TO.N,CANH*%
X135340000Y-65400000D03*
%TD*%
%TO.P,U4,1,Remote_ON/OFF_1*%
%TO.N,unconnected-(U4-Remote_ON{slash}OFF-Pad1)*%
X154780000Y-117340000D03*
%TO.P,U4,2,-Vin_2*%
%TO.N,Net-(C6-Pad1)*%
X157320000Y-117340000D03*
%TO.P,U4,3,-Vin_3*%
X159860000Y-117340000D03*
%TO.P,U4,9*%
%TO.N,unconnected-(U4-Pad9)*%
X175100000Y-117340000D03*
%TO.P,U4,11*%
%TO.N,unconnected-(U4-Pad11)*%
X180180000Y-117340000D03*
%TO.P,U4,14,+Vout_14*%
%TO.N,+12V*%
X180180000Y-102100000D03*
%TO.P,U4,16,-Vout_16*%
%TO.N,GND_float2*%
X175100000Y-102100000D03*
%TO.P,U4,22,+Vin_22*%
%TO.N,Net-(C6-Pad2)*%
X159860000Y-102100000D03*
%TO.P,U4,23,+Vin_23*%
X157320000Y-102100000D03*
%TD*%
D10*
%TO.P,J5,1,Pin_1_1*%
%TO.N,SDA5*%
X173997589Y-47497213D03*
D11*
%TO.P,J5,2,Pin_2_2*%
%TO.N,SCL5*%
X176537589Y-47497213D03*
%TD*%
D10*
%TO.P,JP3,1,A_1*%
%TO.N,SCL5*%
X169075651Y-38776062D03*
D11*
%TO.P,JP3,2,B_2*%
%TO.N,Net-(JP3-B)*%
X169075651Y-36236062D03*
%TD*%
D12*
%TO.P,J19,1,Pin_1_1*%
%TO.N,Cell4*%
X231048914Y-71509909D03*
D13*
%TO.P,J19,2,Pin_2_2*%
%TO.N,Cell3*%
X231048914Y-75009909D03*
%TO.P,J19,3,Pin_3_3*%
%TO.N,Cell2*%
X231048914Y-78509909D03*
%TD*%
D10*
%TO.P,JP7,1,A_1*%
%TO.N,SCL5*%
X168381000Y-43180000D03*
D11*
%TO.P,JP7,2,B_2*%
%TO.N,SCL3.3*%
X170921000Y-43180000D03*
%TD*%
D10*
%TO.P,J6,1,Pin_1_1*%
%TO.N,+3.3V\u00B5*%
X140500000Y-63775000D03*
D11*
%TO.P,J6,2,Pin_2_2*%
%TO.N,GND\u00B5*%
X140500000Y-61235000D03*
%TD*%
D10*
%TO.P,J21,1,Pin_1_1*%
%TO.N,GND_float2*%
X133185000Y-73914000D03*
D11*
%TO.P,J21,2,Pin_2_2*%
%TO.N,I_Bal*%
X130645000Y-73914000D03*
%TD*%
D10*
%TO.P,JP1,1,A_1*%
%TO.N,Net-(JP1-A)*%
X140786972Y-40203866D03*
D11*
%TO.P,JP1,2,B_2*%
%TO.N,CANH*%
X140786972Y-37663866D03*
%TD*%
D12*
%TO.P,J16,1,Pin_1_1*%
%TO.N,Cell13*%
X231048914Y-34777034D03*
D13*
%TO.P,J16,2,Pin_2_2*%
%TO.N,Cell12*%
X231048914Y-38277034D03*
%TO.P,J16,3,Pin_3_3*%
%TO.N,Cell11*%
X231048914Y-41777034D03*
%TD*%
D10*
%TO.P,JP5,1,A_1*%
%TO.N,GND_float2*%
X169750000Y-69750000D03*
D11*
%TO.P,JP5,2,C_2*%
%TO.N,Net-(JP5-C)*%
X167210000Y-69750000D03*
%TO.P,JP5,3,B_3*%
%TO.N,+5V*%
X164670000Y-69750000D03*
%TD*%
D10*
%TO.P,JP4,1,A_1*%
%TO.N,GND_float2*%
X167200000Y-60860000D03*
D11*
%TO.P,JP4,2,C_2*%
%TO.N,Net-(JP4-C)*%
X167200000Y-63400000D03*
%TO.P,JP4,3,B_3*%
%TO.N,+5V*%
X167200000Y-65940000D03*
%TD*%
D21*
%TO.P,U15,1,VIN_1*%
%TO.N,Net-(U15-VIN)*%
X168500000Y-84000000D03*
D22*
%TO.P,U15,2,OUT_2*%
%TO.N,Net-(D1-K)*%
X166800000Y-87700000D03*
%TO.P,U15,3,GND_3*%
%TO.N,GND_float2*%
X165100000Y-84000000D03*
%TO.P,U15,4,FB_4*%
%TO.N,Net-(J23-Pin_1)*%
X163400000Y-87700000D03*
%TO.P,U15,5,~{ON}/OFF_5*%
%TO.N,GND_float2*%
X161700000Y-84000000D03*
%TD*%
D10*
%TO.P,J9,1,Pin_1_1*%
%TO.N,+12V*%
X180790000Y-96750000D03*
D11*
%TO.P,J9,2,Pin_2_2*%
%TO.N,GND_float2*%
X178250000Y-96750000D03*
%TD*%
D10*
%TO.P,J14,1,Pin_1_1*%
%TO.N,GND_float2*%
X181000000Y-23500000D03*
D11*
%TO.P,J14,2,Pin_2_2*%
%TO.N,I_Bal_Soll*%
X181000000Y-20960000D03*
%TD*%
D10*
%TO.P,J12,1,Pin_1_1*%
%TO.N,+5V*%
X228250000Y-115250000D03*
D11*
%TO.P,J12,2,Pin_2_2*%
%TO.N,-5V*%
X228250000Y-117790000D03*
%TD*%
D12*
%TO.P,J17,1,Pin_1_1*%
%TO.N,Cell10*%
X231048914Y-47021326D03*
D13*
%TO.P,J17,2,Pin_2_2*%
%TO.N,Cell9*%
X231048914Y-50521326D03*
%TO.P,J17,3,Pin_3_3*%
%TO.N,Cell8*%
X231048914Y-54021326D03*
%TD*%
D10*
%TO.P,J22,1,Pin_1_1*%
%TO.N,GND_float2*%
X150200000Y-74000000D03*
D11*
%TO.P,J22,2,Pin_2_2*%
%TO.N,V_I_Bal*%
X152740000Y-74000000D03*
%TD*%
D12*
%TO.P,J20,1,Pin_1_1*%
%TO.N,Cell1*%
X231048914Y-83754200D03*
D13*
%TO.P,J20,2,Pin_2_2*%
%TO.N,Cell0*%
X231048914Y-87254200D03*
%TO.P,J20,3,Pin_3_3*%
%TO.N,unconnected-(J20-Pin_3-Pad3)*%
X231048914Y-90754200D03*
%TD*%
D23*
%TO.N,I_Bal*%
X136850000Y-80384000D03*
%TO.N,V_Shunt_Low*%
X130900000Y-84934000D03*
%TO.N,GND_float2*%
X130470000Y-81994000D03*
X132820000Y-85664000D03*
D24*
%TO.N,V_Shunt_Low*%
X194040000Y-112104000D03*
%TO.N,Cell8*%
X191100000Y-60900000D03*
%TO.N,Bal*%
X223000000Y-78400000D03*
X223000000Y-105300000D03*
X223000000Y-36000000D03*
X222900000Y-25300000D03*
X223000000Y-46300000D03*
X223000000Y-83600000D03*
X223000000Y-88900000D03*
X223000000Y-94300000D03*
X223000000Y-57000000D03*
X223000000Y-41000000D03*
X223000000Y-67800000D03*
X223000000Y-99700000D03*
X223000000Y-30600000D03*
X223000000Y-51900000D03*
X178663173Y-85836827D03*
X223000000Y-73000000D03*
X223000000Y-62400000D03*
D23*
%TO.N,B10*%
X187300000Y-53800000D03*
X182600000Y-63900000D03*
X198030761Y-57000000D03*
%TO.N,Net-(U14A-+)*%
X138700000Y-83900000D03*
X144500000Y-84700000D03*
D24*
%TO.N,+5V*%
X143900000Y-88100000D03*
X169600000Y-114075000D03*
X169600000Y-103100000D03*
%TO.N,GND_float2*%
X164500000Y-26400000D03*
X235213380Y-114600000D03*
X205216000Y-36068000D03*
X201000000Y-119100000D03*
X205168785Y-93735746D03*
X219700000Y-92500000D03*
X219500000Y-98425000D03*
X204755339Y-87423339D03*
X220400000Y-62500000D03*
X167108422Y-38269831D03*
X220300000Y-41200000D03*
X220700000Y-36000000D03*
X173100000Y-33200000D03*
X220600000Y-51900000D03*
X205216000Y-76200000D03*
X181550000Y-35275000D03*
X220300000Y-46300000D03*
X212200000Y-107800000D03*
X205216000Y-46300000D03*
X205724000Y-25400000D03*
X220300000Y-25225000D03*
X205199166Y-103911177D03*
X147800000Y-86300000D03*
X220600000Y-57300000D03*
X203100000Y-109700000D03*
X184200000Y-20700000D03*
X174600000Y-54700000D03*
X159900000Y-86500000D03*
X169500000Y-60300000D03*
X205189190Y-98826183D03*
X178000000Y-34600000D03*
X235213380Y-118100000D03*
X150000000Y-90700000D03*
X151600000Y-116300000D03*
D25*
X183059226Y-65994558D03*
D24*
X226400000Y-110900000D03*
X233700000Y-97700000D03*
X229500000Y-97700000D03*
X205216000Y-68072000D03*
X186400000Y-106600000D03*
X205216000Y-84328000D03*
X183100000Y-77400000D03*
X191500000Y-119125000D03*
X219700000Y-76475000D03*
X220400000Y-30525000D03*
X220400000Y-67800000D03*
X221275000Y-20109859D03*
X219900000Y-83600000D03*
X205216000Y-56388000D03*
X128700000Y-91600000D03*
X147800000Y-74104000D03*
%TO.N,-5V*%
X143402000Y-72902000D03*
D23*
%TO.N,V_I_Bal*%
X143169889Y-74646375D03*
X191100000Y-108100000D03*
%TO.N,SCL3.3*%
X178002826Y-40171700D03*
X182113972Y-27386028D03*
X177600000Y-27500000D03*
D24*
%TO.N,Cell9*%
X190900000Y-55400000D03*
%TO.N,Cell7*%
X190700000Y-66100000D03*
%TO.N,Cell6*%
X190700000Y-71500000D03*
%TO.N,Cell5*%
X190800000Y-76900000D03*
D23*
%TO.N,B1*%
X187200000Y-101400000D03*
X198100000Y-104500000D03*
X175600000Y-68175000D03*
%TO.N,B2*%
X176361787Y-68968528D03*
X198100000Y-99400000D03*
X187200000Y-96000000D03*
D24*
%TO.N,Cell11*%
X190900000Y-45000000D03*
D23*
%TO.N,RX*%
X131400000Y-54000000D03*
%TO.N,SCL\u00B5C*%
X164400000Y-53600000D03*
%TO.N,SDA\u00B5C*%
X164235000Y-52165000D03*
D24*
%TO.N,GND\u00B5*%
X142000000Y-66704000D03*
X130600000Y-61000000D03*
X140800000Y-35400000D03*
D25*
X140800000Y-25800000D03*
D24*
X136329800Y-51929802D03*
X164331274Y-55135274D03*
D25*
%TO.N,enable*%
X136720000Y-113324000D03*
D24*
%TO.N,Bat_GND*%
X131820000Y-116824000D03*
D23*
%TO.N,B4*%
X178200000Y-70600000D03*
X187300000Y-85800000D03*
X198200000Y-88700000D03*
%TO.N,B5*%
X179300000Y-70100000D03*
X186942856Y-80100000D03*
X198100000Y-83300000D03*
D24*
%TO.N,+12V*%
X209280000Y-103124000D03*
X151500000Y-98700000D03*
D25*
%TO.N,Net-(JP9-A)*%
X164800000Y-41500000D03*
%TO.N,Net-(JP8-B)*%
X175500000Y-37300000D03*
D24*
%TO.N,+3.3V*%
X176700000Y-28800000D03*
X172300000Y-24400000D03*
%TO.N,Cell1*%
X190938173Y-98111827D03*
D23*
%TO.N,SCL5*%
X174600000Y-53275000D03*
X175100000Y-57025000D03*
D24*
%TO.N,Cell13*%
X191100000Y-34100000D03*
D23*
%TO.N,I_Bal_Soll*%
X147900000Y-88600000D03*
X179400003Y-34600000D03*
%TO.N,B7*%
X181300000Y-68800000D03*
X197900000Y-73200000D03*
X187000000Y-70100000D03*
%TO.N,Net-(J23-Pin_1)*%
X162700000Y-80000000D03*
D24*
%TO.N,Cell3*%
X190700000Y-87500000D03*
D23*
%TO.N,B8*%
X182600000Y-68200000D03*
X197700000Y-67700000D03*
X187200000Y-64500000D03*
%TO.N,B11*%
X187200000Y-48200000D03*
X198100000Y-52000000D03*
X180500000Y-63400000D03*
%TO.N,B14*%
X198030761Y-36000000D03*
X181300000Y-56800000D03*
X187100000Y-32500000D03*
D24*
%TO.N,Cell10*%
X190900000Y-50300000D03*
D23*
%TO.N,B15*%
X198100000Y-30500000D03*
X187100000Y-27000000D03*
X180450000Y-55950000D03*
%TO.N,SDA5*%
X173904074Y-57504074D03*
X173750000Y-52165000D03*
D24*
%TO.N,Cell2*%
X190900000Y-92700000D03*
D23*
%TO.N,B16*%
X177460910Y-56547238D03*
X198100000Y-25300000D03*
X186935827Y-21876489D03*
D24*
%TO.N,Cell14*%
X190900000Y-28900000D03*
D23*
%TO.N,B6*%
X180300000Y-69500000D03*
X200000000Y-73200000D03*
X187200000Y-75200000D03*
%TO.N,CANL*%
X133730000Y-63000000D03*
X140400000Y-47600000D03*
%TO.N,CANH*%
X135000000Y-63000000D03*
D24*
%TO.N,Cell15*%
X191100000Y-23600000D03*
D23*
%TO.N,B3*%
X198200000Y-94000000D03*
X177031560Y-69841116D03*
X186942856Y-90700000D03*
D24*
%TO.N,Cell0*%
X190900000Y-103400000D03*
D23*
%TO.N,B9*%
X183900000Y-64200000D03*
X187000000Y-59100000D03*
X198030761Y-62300000D03*
%TO.N,B12*%
X198100000Y-46400000D03*
X179420000Y-61900000D03*
X186942856Y-43100000D03*
D24*
%TO.N,Cell4*%
X190900000Y-82200000D03*
%TO.N,Cell12*%
X191000000Y-39500000D03*
D23*
%TO.N,B13*%
X198030761Y-41100000D03*
X186942856Y-37700000D03*
X178600000Y-61000000D03*
D24*
%TO.N,Net-(D1-K)*%
X176000000Y-87700000D03*
%TD*%
%TO.N,I_Bal*%
D26*
X136850000Y-80384000D02*
X130645000Y-74179000D01*
X130645000Y-74179000D02*
X130645000Y-73914000D01*
%TO.N,Net-(U1-D)*%
D27*
X147320000Y-116724000D02*
X143542778Y-112946778D01*
X143542778Y-112946778D02*
X143542778Y-103921232D01*
%TO.N,Cell8*%
X191100000Y-60900000D02*
X197978674Y-54021326D01*
X197978674Y-54021326D02*
X231048914Y-54021326D01*
%TO.N,Bal*%
X183200000Y-90373654D02*
X178663173Y-85836827D01*
X223000000Y-105300000D02*
X216975000Y-111325000D01*
X183200000Y-103300000D02*
X183200000Y-90373654D01*
X216975000Y-111325000D02*
X196526902Y-111325000D01*
X188501902Y-103300000D02*
X183200000Y-103300000D01*
X196526902Y-111325000D02*
X188501902Y-103300000D01*
%TO.N,Net-(U14A-+)*%
D28*
X144500000Y-84700000D02*
X139500000Y-84700000D01*
X139500000Y-84700000D02*
X138700000Y-83900000D01*
%TO.N,+5V*%
D29*
X143900000Y-97336574D02*
X160638426Y-114075000D01*
X169600000Y-114075000D02*
X220075000Y-114075000D01*
D27*
X158275000Y-82409745D02*
X158275000Y-91775000D01*
X164670000Y-76014745D02*
X158275000Y-82409745D01*
X164670000Y-69750000D02*
X164670000Y-76014745D01*
D29*
X220075000Y-114075000D02*
X221500000Y-115500000D01*
D27*
X158275000Y-91775000D02*
X169600000Y-103100000D01*
D29*
X143900000Y-88100000D02*
X143900000Y-97336574D01*
X160638426Y-114075000D02*
X169600000Y-114075000D01*
%TO.N,-5V*%
X135320000Y-113903899D02*
X136140101Y-114724000D01*
X136140101Y-114724000D02*
X142845126Y-114724000D01*
X191578679Y-116925000D02*
X214995000Y-116925000D01*
X147211126Y-119090000D02*
X189413679Y-119090000D01*
X189413679Y-119090000D02*
X191578679Y-116925000D01*
X135320000Y-83984000D02*
X135320000Y-113903899D01*
X143402000Y-72902000D02*
X141697471Y-73602529D01*
X141697471Y-77606529D02*
X135320000Y-83984000D01*
X141697471Y-73602529D02*
X141697471Y-77606529D01*
X214995000Y-116925000D02*
X216420000Y-115500000D01*
X142845126Y-114724000D02*
X147211126Y-119090000D01*
%TO.N,V_I_Bal*%
D28*
X143923514Y-75400000D02*
X151340000Y-75400000D01*
D29*
X156643324Y-108100000D02*
X145800000Y-97256676D01*
X145800000Y-77421321D02*
X143097471Y-74718792D01*
X191100000Y-108100000D02*
X156643324Y-108100000D01*
D28*
X151340000Y-75400000D02*
X152740000Y-74000000D01*
X143169889Y-74646375D02*
X143923514Y-75400000D01*
D29*
X145800000Y-97256676D02*
X145800000Y-77421321D01*
%TO.N,SCL3.3*%
D30*
X177600000Y-27500000D02*
X182000000Y-27500000D01*
D31*
X173929300Y-40171700D02*
X170921000Y-43180000D01*
D30*
X182000000Y-27500000D02*
X182113972Y-27386028D01*
D31*
X178002826Y-40171700D02*
X173929300Y-40171700D01*
%TO.N,Cell9*%
D27*
X230802588Y-50275000D02*
X231048914Y-50521326D01*
X190900000Y-55400000D02*
X196025000Y-50275000D01*
X196025000Y-50275000D02*
X230802588Y-50275000D01*
%TO.N,Cell7*%
X190700000Y-66100000D02*
X197534383Y-59265617D01*
X197534383Y-59265617D02*
X231048914Y-59265617D01*
%TO.N,Cell6*%
X190700000Y-71500000D02*
X196025000Y-66175000D01*
X196025000Y-66175000D02*
X227639531Y-66175000D01*
X227639531Y-66175000D02*
X231048914Y-62765617D01*
%TO.N,Cell5*%
X227454622Y-69859909D02*
X231048914Y-66265617D01*
X190800000Y-76900000D02*
X197840091Y-69859909D01*
X197840091Y-69859909D02*
X227454622Y-69859909D01*
%TO.N,Cell11*%
X228150948Y-44675000D02*
X231048914Y-41777034D01*
X191225000Y-44675000D02*
X228150948Y-44675000D01*
X190900000Y-45000000D02*
X191225000Y-44675000D01*
%TO.N,RX*%
D32*
X143360000Y-40020000D02*
X144760000Y-38620000D01*
X131400000Y-54000000D02*
X132491835Y-54000000D01*
X132491835Y-54000000D02*
X143360000Y-43131835D01*
X143360000Y-43131835D02*
X143360000Y-40020000D01*
%TO.N,SCL\u00B5C*%
X159420101Y-70500000D02*
X146160000Y-57239899D01*
X160579899Y-70500000D02*
X159420101Y-70500000D01*
X146160000Y-57239899D02*
X146160000Y-55260000D01*
X146160000Y-55260000D02*
X144760000Y-53860000D01*
X164032236Y-53600000D02*
X161400000Y-56232236D01*
X161400000Y-56232236D02*
X161400000Y-69679899D01*
X161400000Y-69679899D02*
X160579899Y-70500000D01*
X164400000Y-53600000D02*
X164032236Y-53600000D01*
%TO.N,SDA\u00B5C*%
X162300000Y-69911269D02*
X160911269Y-71300000D01*
X163430315Y-57804000D02*
X162300000Y-57804000D01*
X143250000Y-57910000D02*
X144760000Y-56400000D01*
X143250000Y-69711321D02*
X143250000Y-57910000D01*
X165581274Y-55653041D02*
X163430315Y-57804000D01*
X165581274Y-53437771D02*
X165581274Y-55653041D01*
X162300000Y-57804000D02*
X162300000Y-69911269D01*
X164308503Y-52165000D02*
X165581274Y-53437771D01*
X164235000Y-52165000D02*
X164308503Y-52165000D01*
X144838679Y-71300000D02*
X143250000Y-69711321D01*
X160911269Y-71300000D02*
X144838679Y-71300000D01*
%TO.N,+12V*%
D27*
X151500000Y-98700000D02*
X151500000Y-100800000D01*
X176480000Y-105800000D02*
X180180000Y-102100000D01*
X151500000Y-100800000D02*
X156500000Y-105800000D01*
X156500000Y-105800000D02*
X176480000Y-105800000D01*
%TO.N,Net-(JP9-A)*%
D26*
X164800000Y-41500000D02*
X165800000Y-40500000D01*
X165800000Y-40500000D02*
X165800000Y-22000000D01*
%TO.N,Net-(JP8-B)*%
D32*
X175500000Y-37300000D02*
X178893758Y-37300000D01*
X182207892Y-40614134D02*
X181854134Y-40614134D01*
X178893758Y-37300000D02*
X182207892Y-40614134D01*
%TO.N,+3.3V*%
D27*
X226100000Y-108000000D02*
X223500000Y-108000000D01*
X233273914Y-33291984D02*
X232431930Y-32450000D01*
X231970540Y-92979200D02*
X233273914Y-91675826D01*
X186652601Y-28925000D02*
X176825000Y-28925000D01*
X190177601Y-32450000D02*
X186652601Y-28925000D01*
X172300000Y-24400000D02*
X176700000Y-28800000D01*
X232431930Y-32450000D02*
X190177601Y-32450000D01*
X176825000Y-28925000D02*
X176700000Y-28800000D01*
X231970540Y-102129460D02*
X231970540Y-92979200D01*
X233273914Y-91675826D02*
X233273914Y-33291984D01*
X226100000Y-108000000D02*
X231970540Y-102129460D01*
%TO.N,Cell1*%
D29*
X203195800Y-85854200D02*
X228948914Y-85854200D01*
X228948914Y-85854200D02*
X231048914Y-83754200D01*
X190938173Y-98111827D02*
X203195800Y-85854200D01*
%TO.N,SCL5*%
D28*
X176537589Y-47497213D02*
X176537589Y-47502411D01*
X174600000Y-49440000D02*
X174600000Y-53275000D01*
X173590000Y-49440000D02*
X174600000Y-49440000D01*
X174801346Y-53275000D02*
X174600000Y-53275000D01*
X169075651Y-38776062D02*
X169075651Y-44925651D01*
X175750000Y-54223654D02*
X174801346Y-53275000D01*
X176537589Y-47502411D02*
X174600000Y-49440000D01*
X169075651Y-44925651D02*
X173590000Y-49440000D01*
X175100000Y-57025000D02*
X175750000Y-56375000D01*
X175750000Y-56375000D02*
X175750000Y-54223654D01*
%TO.N,Cell13*%
D27*
X191100000Y-34100000D02*
X230371880Y-34100000D01*
X230371880Y-34100000D02*
X231048914Y-34777034D01*
%TO.N,Net-(J23-Pin_1)*%
D28*
X163400000Y-80700000D02*
X162700000Y-80000000D01*
X163400000Y-87700000D02*
X163400000Y-80700000D01*
%TO.N,Cell3*%
D27*
X228500000Y-77600000D02*
X228500000Y-77558823D01*
X198175000Y-80025000D02*
X226075000Y-80025000D01*
X190700000Y-87500000D02*
X198175000Y-80025000D01*
X226075000Y-80025000D02*
X228500000Y-77600000D01*
X228500000Y-77558823D02*
X231048914Y-75009909D01*
%TO.N,Cell10*%
X230145240Y-47925000D02*
X231048914Y-47021326D01*
X190900000Y-50300000D02*
X193275000Y-47925000D01*
X193275000Y-47925000D02*
X230145240Y-47925000D01*
%TO.N,Cell2*%
X190900000Y-92700000D02*
X201625000Y-81975000D01*
X201625000Y-81975000D02*
X227583823Y-81975000D01*
X227583823Y-81975000D02*
X231048914Y-78509909D01*
%TO.N,Cell14*%
X230416171Y-28900000D02*
X231048914Y-29532743D01*
X190900000Y-28900000D02*
X230416171Y-28900000D01*
%TO.N,CANL*%
D28*
X133000000Y-63000000D02*
X133730000Y-63000000D01*
X140400000Y-52000000D02*
X133000000Y-59400000D01*
X133000000Y-59400000D02*
X133000000Y-63000000D01*
X140400000Y-47600000D02*
X140400000Y-52000000D01*
%TO.N,CANH*%
X134150000Y-63850000D02*
X135000000Y-63000000D01*
X132400000Y-56202082D02*
X132400000Y-63248528D01*
X140786972Y-37663866D02*
X139833106Y-36710000D01*
X133457500Y-36710000D02*
X130550000Y-39617500D01*
X132400000Y-63248528D02*
X133001472Y-63850000D01*
X133001472Y-63850000D02*
X134150000Y-63850000D01*
X130550000Y-54352082D02*
X132400000Y-56202082D01*
X139833106Y-36710000D02*
X133457500Y-36710000D01*
X130550000Y-39617500D02*
X130550000Y-54352082D01*
%TO.N,Cell15*%
D27*
X229351858Y-26032743D02*
X231048914Y-26032743D01*
X191100000Y-23600000D02*
X226919115Y-23600000D01*
X226919115Y-23600000D02*
X229351858Y-26032743D01*
%TO.N,Cell0*%
D29*
X207045800Y-87254200D02*
X231048914Y-87254200D01*
X190900000Y-103400000D02*
X207045800Y-87254200D01*
%TO.N,Cell4*%
D27*
X227591993Y-71509909D02*
X231048914Y-71509909D01*
X190900000Y-82200000D02*
X195000000Y-78100000D01*
X221375000Y-78100000D02*
X221375000Y-77726902D01*
X195000000Y-78100000D02*
X221375000Y-78100000D01*
X221375000Y-77726902D02*
X227591993Y-71509909D01*
%TO.N,Cell12*%
X192222966Y-38277034D02*
X231048914Y-38277034D01*
X191000000Y-39500000D02*
X192222966Y-38277034D01*
%TO.N,Net-(D1-K)*%
D29*
X176000000Y-87700000D02*
X166800000Y-87700000D01*
%TD*%
M02*
