ISO-10303-21;
HEADER;
FILE_DESCRIPTION (( 'STEP AP214' ),
    '1' );
FILE_NAME ('EC1SAN.STEP',
    '2018-01-03T05:25:33',
    ( 'cincon' ),
    ( '' ),
    'SwSTEP 2.0',
    'SolidWorks 2008',
    '' );
FILE_SCHEMA (( 'AUTOMOTIVE_DESIGN' ));
ENDSEC;

DATA;
#1 = VERTEX_POINT ( 'NONE', #429 ) ;
#2 = ORIENTED_EDGE ( 'NONE', *, *, #3, .T. ) ;
#3 = EDGE_CURVE ( 'NONE', #1, #238, #428, .T. ) ;
#4 = VERTEX_POINT ( 'NONE', #424 ) ;
#5 = EDGE_CURVE ( 'NONE', #1, #246, #423, .T. ) ;
#6 = ORIENTED_EDGE ( 'NONE', *, *, #5, .F. ) ;
#7 = ORIENTED_EDGE ( 'NONE', *, *, #217, .T. ) ;
#8 = ORIENTED_EDGE ( 'NONE', *, *, #101, .T. ) ;
#9 = VERTEX_POINT ( 'NONE', #419 ) ;
#10 = ORIENTED_EDGE ( 'NONE', *, *, #11, .F. ) ;
#11 = EDGE_CURVE ( 'NONE', #67, #9, #282, .T. ) ;
#12 = EDGE_LOOP ( 'NONE', ( #13, #148, #151, #154 ) ) ;
#13 = ORIENTED_EDGE ( 'NONE', *, *, #146, .F. ) ;
#14 = VERTEX_POINT ( 'NONE', #278 ) ;
#15 = VERTEX_POINT ( 'NONE', #277 ) ;
#16 = ORIENTED_EDGE ( 'NONE', *, *, #17, .T. ) ;
#17 = EDGE_CURVE ( 'NONE', #15, #158, #276, .T. ) ;
#18 = EDGE_LOOP ( 'NONE', ( #19, #161, #164, #100 ) ) ;
#19 = ORIENTED_EDGE ( 'NONE', *, *, #159, .F. ) ;
#20 = VERTEX_POINT ( 'NONE', #272 ) ;
#21 = EDGE_CURVE ( 'NONE', #65, #22, #271, .T. ) ;
#22 = VERTEX_POINT ( 'NONE', #267 ) ;
#23 = ORIENTED_EDGE ( 'NONE', *, *, #24, .T. ) ;
#24 = EDGE_CURVE ( 'NONE', #22, #25, #266, .T. ) ;
#25 = VERTEX_POINT ( 'NONE', #261 ) ;
#26 = ORIENTED_EDGE ( 'NONE', *, *, #27, .F. ) ;
#27 = EDGE_CURVE ( 'NONE', #144, #25, #260, .T. ) ;
#28 = ADVANCED_FACE ( 'NONE', ( #256, #255, #254, #253, #252, #251 ), #250, .F. ) ;
#29 = EDGE_LOOP ( 'NONE', ( #30, #34, #168, #171 ) ) ;
#30 = ORIENTED_EDGE ( 'NONE', *, *, #31, .F. ) ;
#31 = EDGE_CURVE ( 'NONE', #32, #33, #248, .T. ) ;
#32 = VERTEX_POINT ( 'NONE', #476 ) ;
#33 = VERTEX_POINT ( 'NONE', #475 ) ;
#34 = ORIENTED_EDGE ( 'NONE', *, *, #166, .T. ) ;
#35 = MANIFOLD_SOLID_BREP ( 'NONE', #450 ) ;
#36 = ADVANCED_FACE ( 'NONE', ( #711 ), #709, .F. ) ;
#37 = EDGE_LOOP ( 'NONE', ( #64, #145, #23, #26 ) ) ;
#38 = EDGE_CURVE ( 'NONE', #65, #144, #715, .T. ) ;
#39 = EDGE_LOOP ( 'NONE', ( #118, #121, #115, #135 ) ) ;
#40 = ORIENTED_EDGE ( 'NONE', *, *, #41, .F. ) ;
#41 = EDGE_CURVE ( 'NONE', #42, #49, #704, .T. ) ;
#42 = VERTEX_POINT ( 'NONE', #519 ) ;
#43 = ORIENTED_EDGE ( 'NONE', *, *, #80, .F. ) ;
#44 = ORIENTED_EDGE ( 'NONE', *, *, #126, .F. ) ;
#45 = ORIENTED_EDGE ( 'NONE', *, *, #73, .T. ) ;
#46 = ADVANCED_FACE ( 'NONE', ( #518 ), #517, .F. ) ;
#47 = ORIENTED_EDGE ( 'NONE', *, *, #48, .T. ) ;
#48 = EDGE_CURVE ( 'NONE', #131, #49, #720, .T. ) ;
#49 = VERTEX_POINT ( 'NONE', #546 ) ;
#50 = EDGE_CURVE ( 'NONE', #56, #54, #545, .T. ) ;
#51 = EDGE_CURVE ( 'NONE', #56, #125, #541, .T. ) ;
#52 = ORIENTED_EDGE ( 'NONE', *, *, #50, .T. ) ;
#53 = ADVANCED_FACE ( 'NONE', ( #537 ), #536, .F. ) ;
#54 = VERTEX_POINT ( 'NONE', #531 ) ;
#55 = ORIENTED_EDGE ( 'NONE', *, *, #86, .T. ) ;
#56 = VERTEX_POINT ( 'NONE', #530 ) ;
#57 = EDGE_CURVE ( 'NONE', #158, #58, #529, .T. ) ;
#58 = VERTEX_POINT ( 'NONE', #525 ) ;
#59 = ORIENTED_EDGE ( 'NONE', *, *, #60, .F. ) ;
#60 = EDGE_CURVE ( 'NONE', #61, #58, #524, .T. ) ;
#61 = VERTEX_POINT ( 'NONE', #514 ) ;
#62 = ORIENTED_EDGE ( 'NONE', *, *, #63, .F. ) ;
#63 = EDGE_CURVE ( 'NONE', #15, #61, #513, .T. ) ;
#64 = ORIENTED_EDGE ( 'NONE', *, *, #38, .F. ) ;
#65 = VERTEX_POINT ( 'NONE', #509 ) ;
#66 = VERTEX_POINT ( 'NONE', #508 ) ;
#67 = VERTEX_POINT ( 'NONE', #507 ) ;
#68 = ORIENTED_EDGE ( 'NONE', *, *, #69, .T. ) ;
#69 = EDGE_CURVE ( 'NONE', #66, #70, #506, .T. ) ;
#70 = VERTEX_POINT ( 'NONE', #502 ) ;
#71 = ORIENTED_EDGE ( 'NONE', *, *, #72, .T. ) ;
#72 = EDGE_CURVE ( 'NONE', #70, #9, #501, .T. ) ;
#73 = EDGE_CURVE ( 'NONE', #85, #54, #497, .T. ) ;
#74 = EDGE_LOOP ( 'NONE', ( #128, #132, #134, #52 ) ) ;
#75 = ORIENTED_EDGE ( 'NONE', *, *, #50, .F. ) ;
#76 = ORIENTED_EDGE ( 'NONE', *, *, #77, .F. ) ;
#77 = EDGE_CURVE ( 'NONE', #125, #143, #493, .T. ) ;
#78 = ORIENTED_EDGE ( 'NONE', *, *, #133, .T. ) ;
#79 = EDGE_LOOP ( 'NONE', ( #47, #40, #43, #81 ) ) ;
#80 = EDGE_CURVE ( 'NONE', #143, #42, #489, .T. ) ;
#81 = ORIENTED_EDGE ( 'NONE', *, *, #142, .T. ) ;
#82 = ADVANCED_FACE ( 'NONE', ( #485 ), #484, .F. ) ;
#83 = ORIENTED_EDGE ( 'NONE', *, *, #86, .F. ) ;
#84 = VERTEX_POINT ( 'NONE', #699 ) ;
#85 = VERTEX_POINT ( 'NONE', #698 ) ;
#86 = EDGE_CURVE ( 'NONE', #87, #85, #697, .T. ) ;
#87 = VERTEX_POINT ( 'NONE', #693 ) ;
#88 = VERTEX_POINT ( 'NONE', #692 ) ;
#89 = EDGE_CURVE ( 'NONE', #90, #88, #691, .T. ) ;
#90 = VERTEX_POINT ( 'NONE', #687 ) ;
#91 = ORIENTED_EDGE ( 'NONE', *, *, #92, .T. ) ;
#92 = EDGE_CURVE ( 'NONE', #88, #93, #686, .T. ) ;
#93 = VERTEX_POINT ( 'NONE', #682 ) ;
#94 = ORIENTED_EDGE ( 'NONE', *, *, #186, .F. ) ;
#95 = ORIENTED_EDGE ( 'NONE', *, *, #89, .T. ) ;
#96 = EDGE_LOOP ( 'NONE', ( #45, #75, #44, #55 ) ) ;
#97 = EDGE_LOOP ( 'NONE', ( #95, #91, #94, #183 ) ) ;
#98 = VERTEX_POINT ( 'NONE', #681 ) ;
#99 = VERTEX_POINT ( 'NONE', #680 ) ;
#100 = ORIENTED_EDGE ( 'NONE', *, *, #101, .F. ) ;
#101 = EDGE_CURVE ( 'NONE', #160, #99, #679, .T. ) ;
#102 = ORIENTED_EDGE ( 'NONE', *, *, #57, .F. ) ;
#103 = ORIENTED_EDGE ( 'NONE', *, *, #122, .T. ) ;
#104 = EDGE_LOOP ( 'NONE', ( #113, #204 ) ) ;
#105 = ORIENTED_EDGE ( 'NONE', *, *, #126, .T. ) ;
#106 = ORIENTED_EDGE ( 'NONE', *, *, #51, .T. ) ;
#107 = ORIENTED_EDGE ( 'NONE', *, *, #110, .T. ) ;
#108 = ORIENTED_EDGE ( 'NONE', *, *, #77, .T. ) ;
#109 = EDGE_LOOP ( 'NONE', ( #207, #102, #198, #199, #228, #466, #465, #464 ) ) ;
#110 = EDGE_CURVE ( 'NONE', #123, #15, #675, .T. ) ;
#111 = ORIENTED_EDGE ( 'NONE', *, *, #80, .T. ) ;
#112 = ORIENTED_EDGE ( 'NONE', *, *, #116, .T. ) ;
#113 = ORIENTED_EDGE ( 'NONE', *, *, #203, .F. ) ;
#114 = ORIENTED_EDGE ( 'NONE', *, *, #17, .F. ) ;
#115 = ORIENTED_EDGE ( 'NONE', *, *, #116, .F. ) ;
#116 = EDGE_CURVE ( 'NONE', #42, #123, #577, .T. ) ;
#117 = EDGE_LOOP ( 'NONE', ( #137, #114, #202, #103 ) ) ;
#118 = ORIENTED_EDGE ( 'NONE', *, *, #119, .T. ) ;
#119 = EDGE_CURVE ( 'NONE', #49, #120, #573, .T. ) ;
#120 = VERTEX_POINT ( 'NONE', #569 ) ;
#121 = ORIENTED_EDGE ( 'NONE', *, *, #122, .F. ) ;
#122 = EDGE_CURVE ( 'NONE', #123, #120, #568, .T. ) ;
#123 = VERTEX_POINT ( 'NONE', #564 ) ;
#124 = EDGE_LOOP ( 'NONE', ( #139, #141, #76, #78 ) ) ;
#125 = VERTEX_POINT ( 'NONE', #563 ) ;
#126 = EDGE_CURVE ( 'NONE', #87, #56, #562, .T. ) ;
#127 = ADVANCED_FACE ( 'NONE', ( #558 ), #557, .F. ) ;
#128 = ORIENTED_EDGE ( 'NONE', *, *, #129, .T. ) ;
#129 = EDGE_CURVE ( 'NONE', #54, #130, #555, .T. ) ;
#130 = VERTEX_POINT ( 'NONE', #548 ) ;
#131 = VERTEX_POINT ( 'NONE', #547 ) ;
#132 = ORIENTED_EDGE ( 'NONE', *, *, #133, .F. ) ;
#133 = EDGE_CURVE ( 'NONE', #125, #130, #608, .T. ) ;
#134 = ORIENTED_EDGE ( 'NONE', *, *, #51, .F. ) ;
#135 = ORIENTED_EDGE ( 'NONE', *, *, #41, .T. ) ;
#136 = ADVANCED_FACE ( 'NONE', ( #604 ), #603, .F. ) ;
#137 = ORIENTED_EDGE ( 'NONE', *, *, #138, .T. ) ;
#138 = EDGE_CURVE ( 'NONE', #120, #158, #598, .T. ) ;
#139 = ORIENTED_EDGE ( 'NONE', *, *, #140, .T. ) ;
#140 = EDGE_CURVE ( 'NONE', #130, #131, #594, .T. ) ;
#141 = ORIENTED_EDGE ( 'NONE', *, *, #142, .F. ) ;
#142 = EDGE_CURVE ( 'NONE', #143, #131, #590, .T. ) ;
#143 = VERTEX_POINT ( 'NONE', #586 ) ;
#144 = VERTEX_POINT ( 'NONE', #585 ) ;
#145 = ORIENTED_EDGE ( 'NONE', *, *, #21, .T. ) ;
#146 = EDGE_CURVE ( 'NONE', #14, #147, #584, .T. ) ;
#147 = VERTEX_POINT ( 'NONE', #580 ) ;
#148 = ORIENTED_EDGE ( 'NONE', *, *, #149, .T. ) ;
#149 = EDGE_CURVE ( 'NONE', #14, #150, #579, .T. ) ;
#150 = VERTEX_POINT ( 'NONE', #638 ) ;
#151 = ORIENTED_EDGE ( 'NONE', *, *, #152, .T. ) ;
#152 = EDGE_CURVE ( 'NONE', #150, #153, #637, .T. ) ;
#153 = VERTEX_POINT ( 'NONE', #633 ) ;
#154 = ORIENTED_EDGE ( 'NONE', *, *, #155, .F. ) ;
#155 = EDGE_CURVE ( 'NONE', #147, #153, #632, .T. ) ;
#156 = EDGE_LOOP ( 'NONE', ( #157, #59, #62, #16 ) ) ;
#157 = ORIENTED_EDGE ( 'NONE', *, *, #57, .T. ) ;
#158 = VERTEX_POINT ( 'NONE', #628 ) ;
#159 = EDGE_CURVE ( 'NONE', #20, #160, #627, .T. ) ;
#160 = VERTEX_POINT ( 'NONE', #623 ) ;
#161 = ORIENTED_EDGE ( 'NONE', *, *, #162, .T. ) ;
#162 = EDGE_CURVE ( 'NONE', #20, #163, #622, .T. ) ;
#163 = VERTEX_POINT ( 'NONE', #618 ) ;
#164 = ORIENTED_EDGE ( 'NONE', *, *, #165, .T. ) ;
#165 = EDGE_CURVE ( 'NONE', #163, #99, #617, .T. ) ;
#166 = EDGE_CURVE ( 'NONE', #32, #167, #613, .T. ) ;
#167 = VERTEX_POINT ( 'NONE', #609 ) ;
#168 = ORIENTED_EDGE ( 'NONE', *, *, #169, .T. ) ;
#169 = EDGE_CURVE ( 'NONE', #167, #170, #671, .T. ) ;
#170 = VERTEX_POINT ( 'NONE', #667 ) ;
#171 = ORIENTED_EDGE ( 'NONE', *, *, #172, .F. ) ;
#172 = EDGE_CURVE ( 'NONE', #33, #170, #666, .T. ) ;
#173 = EDGE_LOOP ( 'NONE', ( #174, #68, #71, #10 ) ) ;
#174 = ORIENTED_EDGE ( 'NONE', *, *, #175, .F. ) ;
#175 = EDGE_CURVE ( 'NONE', #66, #67, #662, .T. ) ;
#176 = ADVANCED_FACE ( 'NONE', ( #658 ), #656, .F. ) ;
#177 = ORIENTED_EDGE ( 'NONE', *, *, #60, .T. ) ;
#178 = ADVANCED_FACE ( 'NONE', ( #651 ), #657, .F. ) ;
#179 = EDGE_LOOP ( 'NONE', ( #180, #83, #182, #177 ) ) ;
#180 = ORIENTED_EDGE ( 'NONE', *, *, #181, .T. ) ;
#181 = EDGE_CURVE ( 'NONE', #58, #85, #649, .T. ) ;
#182 = ORIENTED_EDGE ( 'NONE', *, *, #185, .F. ) ;
#183 = ORIENTED_EDGE ( 'NONE', *, *, #184, .F. ) ;
#184 = EDGE_CURVE ( 'NONE', #90, #84, #645, .T. ) ;
#185 = EDGE_CURVE ( 'NONE', #61, #87, #941, .T. ) ;
#186 = EDGE_CURVE ( 'NONE', #84, #93, #942, .T. ) ;
#187 = EDGE_LOOP ( 'NONE', ( #8, #7, #229, #230 ) ) ;
#188 = ORIENTED_EDGE ( 'NONE', *, *, #237, .T. ) ;
#189 = ADVANCED_FACE ( 'NONE', ( #924 ), #921, .T. ) ;
#190 = EDGE_LOOP ( 'NONE', ( #191, #193, #194, #196 ) ) ;
#191 = ORIENTED_EDGE ( 'NONE', *, *, #192, .F. ) ;
#192 = EDGE_CURVE ( 'NONE', #93, #246, #881, .T. ) ;
#193 = ORIENTED_EDGE ( 'NONE', *, *, #92, .F. ) ;
#194 = ORIENTED_EDGE ( 'NONE', *, *, #195, .T. ) ;
#195 = EDGE_CURVE ( 'NONE', #88, #1, #909, .T. ) ;
#196 = ORIENTED_EDGE ( 'NONE', *, *, #5, .T. ) ;
#197 = ADVANCED_FACE ( 'NONE', ( #912, #911 ), #910, .T. ) ;
#198 = ORIENTED_EDGE ( 'NONE', *, *, #138, .F. ) ;
#199 = ORIENTED_EDGE ( 'NONE', *, *, #119, .F. ) ;
#200 = ORIENTED_EDGE ( 'NONE', *, *, #185, .T. ) ;
#201 = EDGE_LOOP ( 'NONE', ( #200, #105, #106, #108, #111, #112, #107, #205 ) ) ;
#202 = ORIENTED_EDGE ( 'NONE', *, *, #110, .F. ) ;
#203 = EDGE_CURVE ( 'NONE', #25, #22, #923, .T. ) ;
#204 = ORIENTED_EDGE ( 'NONE', *, *, #24, .F. ) ;
#205 = ORIENTED_EDGE ( 'NONE', *, *, #63, .T. ) ;
#206 = ADVANCED_FACE ( 'NONE', ( #930 ), #925, .F. ) ;
#207 = ORIENTED_EDGE ( 'NONE', *, *, #181, .F. ) ;
#208 = ORIENTED_EDGE ( 'NONE', *, *, #159, .T. ) ;
#209 = EDGE_LOOP ( 'NONE', ( #222, #247, #407, #213 ) ) ;
#210 = EDGE_CURVE ( 'NONE', #211, #409, #786, .T. ) ;
#211 = VERTEX_POINT ( 'NONE', #821 ) ;
#212 = EDGE_CURVE ( 'NONE', #406, #4, #820, .T. ) ;
#213 = ORIENTED_EDGE ( 'NONE', *, *, #468, .T. ) ;
#214 = ADVANCED_FACE ( 'NONE', ( #938 ), #937, .T. ) ;
#215 = EDGE_LOOP ( 'NONE', ( #216, #218, #219, #469 ) ) ;
#216 = ORIENTED_EDGE ( 'NONE', *, *, #217, .F. ) ;
#217 = EDGE_CURVE ( 'NONE', #99, #211, #932, .T. ) ;
#218 = ORIENTED_EDGE ( 'NONE', *, *, #165, .F. ) ;
#219 = ORIENTED_EDGE ( 'NONE', *, *, #220, .T. ) ;
#220 = EDGE_CURVE ( 'NONE', #163, #406, #782, .T. ) ;
#221 = ADVANCED_FACE ( 'NONE', ( #778 ), #850, .T. ) ;
#222 = ORIENTED_EDGE ( 'NONE', *, *, #210, .F. ) ;
#223 = ORIENTED_EDGE ( 'NONE', *, *, #224, .F. ) ;
#224 = EDGE_CURVE ( 'NONE', #409, #160, #851, .T. ) ;
#225 = ORIENTED_EDGE ( 'NONE', *, *, #226, .T. ) ;
#226 = EDGE_CURVE ( 'NONE', #4, #20, #777, .T. ) ;
#227 = ORIENTED_EDGE ( 'NONE', *, *, #468, .F. ) ;
#228 = ORIENTED_EDGE ( 'NONE', *, *, #48, .F. ) ;
#229 = ORIENTED_EDGE ( 'NONE', *, *, #210, .T. ) ;
#230 = ORIENTED_EDGE ( 'NONE', *, *, #224, .T. ) ;
#231 = ADVANCED_FACE ( 'NONE', ( #773 ), #772, .T. ) ;
#232 = EDGE_LOOP ( 'NONE', ( #233, #236, #239, #241 ) ) ;
#233 = ORIENTED_EDGE ( 'NONE', *, *, #234, .F. ) ;
#234 = EDGE_CURVE ( 'NONE', #235, #84, #770, .T. ) ;
#235 = VERTEX_POINT ( 'NONE', #763 ) ;
#236 = ORIENTED_EDGE ( 'NONE', *, *, #237, .F. ) ;
#237 = EDGE_CURVE ( 'NONE', #238, #235, #762, .T. ) ;
#238 = VERTEX_POINT ( 'NONE', #758 ) ;
#239 = ORIENTED_EDGE ( 'NONE', *, *, #240, .T. ) ;
#240 = EDGE_CURVE ( 'NONE', #238, #90, #757, .T. ) ;
#241 = ORIENTED_EDGE ( 'NONE', *, *, #184, .T. ) ;
#242 = EDGE_LOOP ( 'NONE', ( #244, #6, #2, #188 ) ) ;
#243 = ADVANCED_FACE ( 'NONE', ( #875 ), #874, .T. ) ;
#244 = ORIENTED_EDGE ( 'NONE', *, *, #245, .F. ) ;
#245 = EDGE_CURVE ( 'NONE', #246, #235, #872, .T. ) ;
#246 = VERTEX_POINT ( 'NONE', #865 ) ;
#247 = ORIENTED_EDGE ( 'NONE', *, *, #405, .F. ) ;
#248 = LINE ( 'NONE', #479, #478 ) ;
#249 = CARTESIAN_POINT ( 'NONE',  ( -9.250000000000000000, 0.0000000000000000000, 3.049999999999999800 ) ) ;
#250 = PLANE ( 'NONE',  #482 ) ;
#251 = FACE_BOUND ( 'NONE', #97, .T. ) ;
#252 = FACE_BOUND ( 'NONE', #18, .T. ) ;
#253 = FACE_OUTER_BOUND ( 'NONE', #156, .T. ) ;
#254 = FACE_BOUND ( 'NONE', #12, .T. ) ;
#255 = FACE_BOUND ( 'NONE', #173, .T. ) ;
#256 = FACE_BOUND ( 'NONE', #29, .T. ) ;
#257 = DIRECTION ( 'NONE',  ( -0.0000000000000000000, -0.0000000000000000000, 1.000000000000000000 ) ) ;
#258 = VECTOR ( 'NONE', #257, 1000.000000000000000 ) ;
#259 = CARTESIAN_POINT ( 'NONE',  ( -6.999999999999998200, 1.200000000000000000, 2.999999999999999600 ) ) ;
#260 = LINE ( 'NONE', #259, #258 ) ;
#261 = CARTESIAN_POINT ( 'NONE',  ( -6.999999999999998200, 1.200000000000000000, 3.049999999999999800 ) ) ;
#262 = DIRECTION ( 'NONE',  ( 1.000000000000000000, 0.0000000000000000000, 0.0000000000000000000 ) ) ;
#263 = DIRECTION ( 'NONE',  ( 0.0000000000000000000, 0.0000000000000000000, 1.000000000000000000 ) ) ;
#264 = CARTESIAN_POINT ( 'NONE',  ( -7.399999999999998600, 1.200000000000000000, 3.049999999999999800 ) ) ;
#265 = AXIS2_PLACEMENT_3D ( 'NONE', #264, #263, #262 ) ;
#266 = CIRCLE ( 'NONE', #265, 0.4000000000000001900 ) ;
#267 = CARTESIAN_POINT ( 'NONE',  ( -7.799999999999998900, 1.200000000000000000, 3.049999999999999800 ) ) ;
#268 = DIRECTION ( 'NONE',  ( -0.0000000000000000000, -0.0000000000000000000, 1.000000000000000000 ) ) ;
#269 = VECTOR ( 'NONE', #268, 1000.000000000000000 ) ;
#270 = CARTESIAN_POINT ( 'NONE',  ( -7.799999999999998900, 1.200000000000000000, 2.999999999999999600 ) ) ;
#271 = LINE ( 'NONE', #270, #269 ) ;
#272 = CARTESIAN_POINT ( 'NONE',  ( 5.050000000000004300, 0.0000000000000000000, -1.449999999999999100 ) ) ;
#273 = DIRECTION ( 'NONE',  ( -0.0000000000000000000, -0.0000000000000000000, -1.000000000000000000 ) ) ;
#274 = VECTOR ( 'NONE', #273, 1000.000000000000000 ) ;
#275 = CARTESIAN_POINT ( 'NONE',  ( -9.250000000000000000, 0.0000000000000000000, 3.049999999999999800 ) ) ;
#276 = LINE ( 'NONE', #275, #274 ) ;
#277 = CARTESIAN_POINT ( 'NONE',  ( -9.250000000000000000, 0.0000000000000000000, 3.049999999999999800 ) ) ;
#278 = CARTESIAN_POINT ( 'NONE',  ( -5.109999999999998500, 0.0000000000000000000, -1.449999999999999100 ) ) ;
#279 = DIRECTION ( 'NONE',  ( 1.000000000000000000, -2.795312743976753600E-016, 0.0000000000000000000 ) ) ;
#280 = VECTOR ( 'NONE', #279, 1000.000000000000000 ) ;
#281 = CARTESIAN_POINT ( 'NONE',  ( -7.649999999999998600, -2.939152317953647100E-016, -1.699999999999999700 ) ) ;
#282 = LINE ( 'NONE', #281, #280 ) ;
#283 = ORIENTED_EDGE ( 'NONE', *, *, #343, .T. ) ;
#284 = ADVANCED_FACE ( 'NONE', ( #864 ), #862, .T. ) ;
#285 = EDGE_LOOP ( 'NONE', ( #434, #436, #437, #439 ) ) ;
#286 = ORIENTED_EDGE ( 'NONE', *, *, #27, .T. ) ;
#287 = ORIENTED_EDGE ( 'NONE', *, *, #203, .T. ) ;
#288 = ADVANCED_FACE ( 'NONE', ( #839 ), #835, .T. ) ;
#289 = EDGE_LOOP ( 'NONE', ( #290, #449 ) ) ;
#290 = ORIENTED_EDGE ( 'NONE', *, *, #297, .T. ) ;
#291 = ORIENTED_EDGE ( 'NONE', *, *, #435, .T. ) ;
#292 = ORIENTED_EDGE ( 'NONE', *, *, #309, .T. ) ;
#293 = ADVANCED_FACE ( 'NONE', ( #833 ), #829, .F. ) ;
#294 = EDGE_LOOP ( 'NONE', ( #295, #296, #286, #287 ) ) ;
#295 = ORIENTED_EDGE ( 'NONE', *, *, #21, .F. ) ;
#296 = ORIENTED_EDGE ( 'NONE', *, *, #297, .F. ) ;
#297 = EDGE_CURVE ( 'NONE', #144, #65, #828, .T. ) ;
#298 = ORIENTED_EDGE ( 'NONE', *, *, #299, .F. ) ;
#299 = EDGE_CURVE ( 'NONE', #300, #67, #902, .T. ) ;
#300 = VERTEX_POINT ( 'NONE', #898 ) ;
#301 = ORIENTED_EDGE ( 'NONE', *, *, #302, .F. ) ;
#302 = EDGE_CURVE ( 'NONE', #303, #300, #897, .T. ) ;
#303 = VERTEX_POINT ( 'NONE', #893 ) ;
#304 = EDGE_LOOP ( 'NONE', ( #335, #322, #325, #327 ) ) ;
#305 = ORIENTED_EDGE ( 'NONE', *, *, #234, .T. ) ;
#306 = ORIENTED_EDGE ( 'NONE', *, *, #31, .T. ) ;
#307 = ADVANCED_FACE ( 'NONE', ( #892 ), #891, .T. ) ;
#308 = ORIENTED_EDGE ( 'NONE', *, *, #309, .F. ) ;
#309 = EDGE_CURVE ( 'NONE', #98, #321, #886, .T. ) ;
#310 = ORIENTED_EDGE ( 'NONE', *, *, #69, .F. ) ;
#311 = ADVANCED_FACE ( 'NONE', ( #754 ), #882, .F. ) ;
#312 = EDGE_LOOP ( 'NONE', ( #313, #314, #315, #316 ) ) ;
#313 = ORIENTED_EDGE ( 'NONE', *, *, #299, .T. ) ;
#314 = ORIENTED_EDGE ( 'NONE', *, *, #11, .T. ) ;
#315 = ORIENTED_EDGE ( 'NONE', *, *, #376, .T. ) ;
#316 = ORIENTED_EDGE ( 'NONE', *, *, #365, .T. ) ;
#317 = ADVANCED_FACE ( 'NONE', ( #748 ), #752, .T. ) ;
#318 = EDGE_LOOP ( 'NONE', ( #319, #342, #345, #306 ) ) ;
#319 = ORIENTED_EDGE ( 'NONE', *, *, #320, .F. ) ;
#320 = EDGE_CURVE ( 'NONE', #321, #33, #746, .T. ) ;
#321 = VERTEX_POINT ( 'NONE', #739 ) ;
#322 = ORIENTED_EDGE ( 'NONE', *, *, #323, .F. ) ;
#323 = EDGE_CURVE ( 'NONE', #324, #337, #738, .T. ) ;
#324 = VERTEX_POINT ( 'NONE', #734 ) ;
#325 = ORIENTED_EDGE ( 'NONE', *, *, #326, .T. ) ;
#326 = EDGE_CURVE ( 'NONE', #324, #14, #733, .T. ) ;
#327 = ORIENTED_EDGE ( 'NONE', *, *, #146, .T. ) ;
#328 = ADVANCED_FACE ( 'NONE', ( #729 ), #728, .T. ) ;
#329 = EDGE_LOOP ( 'NONE', ( #330, #333, #349, #351 ) ) ;
#330 = ORIENTED_EDGE ( 'NONE', *, *, #331, .F. ) ;
#331 = EDGE_CURVE ( 'NONE', #332, #337, #816, .T. ) ;
#332 = VERTEX_POINT ( 'NONE', #812 ) ;
#333 = ORIENTED_EDGE ( 'NONE', *, *, #334, .F. ) ;
#334 = EDGE_CURVE ( 'NONE', #348, #332, #811, .T. ) ;
#335 = ORIENTED_EDGE ( 'NONE', *, *, #336, .F. ) ;
#336 = EDGE_CURVE ( 'NONE', #337, #147, #807, .T. ) ;
#337 = VERTEX_POINT ( 'NONE', #803 ) ;
#338 = ADVANCED_FACE ( 'NONE', ( #802 ), #801, .T. ) ;
#339 = ORIENTED_EDGE ( 'NONE', *, *, #336, .T. ) ;
#340 = ADVANCED_FACE ( 'NONE', ( #799 ), #795, .T. ) ;
#341 = EDGE_LOOP ( 'NONE', ( #298, #301, #359, #361 ) ) ;
#342 = ORIENTED_EDGE ( 'NONE', *, *, #343, .F. ) ;
#343 = EDGE_CURVE ( 'NONE', #344, #321, #860, .T. ) ;
#344 = VERTEX_POINT ( 'NONE', #856 ) ;
#345 = ORIENTED_EDGE ( 'NONE', *, *, #346, .T. ) ;
#346 = EDGE_CURVE ( 'NONE', #344, #32, #855, .T. ) ;
#347 = EDGE_LOOP ( 'NONE', ( #308, #448, #446, #283 ) ) ;
#348 = VERTEX_POINT ( 'NONE', #1085 ) ;
#349 = ORIENTED_EDGE ( 'NONE', *, *, #350, .T. ) ;
#350 = EDGE_CURVE ( 'NONE', #348, #324, #1089, .T. ) ;
#351 = ORIENTED_EDGE ( 'NONE', *, *, #323, .T. ) ;
#352 = ADVANCED_FACE ( 'NONE', ( #987 ), #985, .T. ) ;
#353 = EDGE_LOOP ( 'NONE', ( #354, #356, #357, #386 ) ) ;
#354 = ORIENTED_EDGE ( 'NONE', *, *, #355, .F. ) ;
#355 = EDGE_CURVE ( 'NONE', #153, #332, #986, .T. ) ;
#356 = ORIENTED_EDGE ( 'NONE', *, *, #152, .F. ) ;
#357 = ORIENTED_EDGE ( 'NONE', *, *, #358, .T. ) ;
#358 = EDGE_CURVE ( 'NONE', #150, #348, #968, .T. ) ;
#359 = ORIENTED_EDGE ( 'NONE', *, *, #360, .T. ) ;
#360 = EDGE_CURVE ( 'NONE', #303, #66, #964, .T. ) ;
#361 = ORIENTED_EDGE ( 'NONE', *, *, #175, .T. ) ;
#362 = ADVANCED_FACE ( 'NONE', ( #960 ), #958, .T. ) ;
#363 = EDGE_LOOP ( 'NONE', ( #364, #367, #370, #372 ) ) ;
#364 = ORIENTED_EDGE ( 'NONE', *, *, #365, .F. ) ;
#365 = EDGE_CURVE ( 'NONE', #366, #300, #959, .T. ) ;
#366 = VERTEX_POINT ( 'NONE', #950 ) ;
#367 = ORIENTED_EDGE ( 'NONE', *, *, #368, .F. ) ;
#368 = EDGE_CURVE ( 'NONE', #369, #366, #949, .T. ) ;
#369 = VERTEX_POINT ( 'NONE', #945 ) ;
#370 = ORIENTED_EDGE ( 'NONE', *, *, #371, .T. ) ;
#371 = EDGE_CURVE ( 'NONE', #369, #303, #1015, .T. ) ;
#372 = ORIENTED_EDGE ( 'NONE', *, *, #302, .T. ) ;
#373 = ADVANCED_FACE ( 'NONE', ( #1011 ), #1010, .T. ) ;
#374 = EDGE_LOOP ( 'NONE', ( #375, #377, #378, #380 ) ) ;
#375 = ORIENTED_EDGE ( 'NONE', *, *, #376, .F. ) ;
#376 = EDGE_CURVE ( 'NONE', #9, #366, #1005, .T. ) ;
#377 = ORIENTED_EDGE ( 'NONE', *, *, #72, .F. ) ;
#378 = ORIENTED_EDGE ( 'NONE', *, *, #379, .T. ) ;
#379 = EDGE_CURVE ( 'NONE', #70, #369, #1001, .T. ) ;
#380 = ORIENTED_EDGE ( 'NONE', *, *, #368, .T. ) ;
#381 = ADVANCED_FACE ( 'NONE', ( #997 ), #995, .T. ) ;
#382 = EDGE_LOOP ( 'NONE', ( #383, #384, #385, #310 ) ) ;
#383 = ORIENTED_EDGE ( 'NONE', *, *, #360, .F. ) ;
#384 = ORIENTED_EDGE ( 'NONE', *, *, #371, .F. ) ;
#385 = ORIENTED_EDGE ( 'NONE', *, *, #379, .F. ) ;
#386 = ORIENTED_EDGE ( 'NONE', *, *, #334, .T. ) ;
#387 = ADVANCED_FACE ( 'NONE', ( #990 ), #996, .T. ) ;
#388 = EDGE_LOOP ( 'NONE', ( #389, #390, #391, #392 ) ) ;
#389 = ORIENTED_EDGE ( 'NONE', *, *, #149, .F. ) ;
#390 = ORIENTED_EDGE ( 'NONE', *, *, #326, .F. ) ;
#391 = ORIENTED_EDGE ( 'NONE', *, *, #350, .F. ) ;
#392 = ORIENTED_EDGE ( 'NONE', *, *, #358, .F. ) ;
#393 = ADVANCED_FACE ( 'NONE', ( #1081 ), #988, .F. ) ;
#394 = EDGE_LOOP ( 'NONE', ( #395, #396, #397, #339 ) ) ;
#395 = ORIENTED_EDGE ( 'NONE', *, *, #155, .T. ) ;
#396 = ORIENTED_EDGE ( 'NONE', *, *, #355, .T. ) ;
#397 = ORIENTED_EDGE ( 'NONE', *, *, #331, .T. ) ;
#398 = EDGE_LOOP ( 'NONE', ( #399, #400, #403, #401 ) ) ;
#399 = ORIENTED_EDGE ( 'NONE', *, *, #162, .F. ) ;
#400 = ORIENTED_EDGE ( 'NONE', *, *, #226, .F. ) ;
#401 = ORIENTED_EDGE ( 'NONE', *, *, #220, .F. ) ;
#402 = ADVANCED_FACE ( 'NONE', ( #1075 ), #1079, .T. ) ;
#403 = ORIENTED_EDGE ( 'NONE', *, *, #212, .F. ) ;
#404 = ADVANCED_FACE ( 'NONE', ( #1069 ), #1073, .F. ) ;
#405 = EDGE_CURVE ( 'NONE', #406, #211, #1067, .T. ) ;
#406 = VERTEX_POINT ( 'NONE', #1057 ) ;
#407 = ORIENTED_EDGE ( 'NONE', *, *, #212, .T. ) ;
#408 = EDGE_LOOP ( 'NONE', ( #223, #227, #225, #208 ) ) ;
#409 = VERTEX_POINT ( 'NONE', #1060 ) ;
#410 = ADVANCED_FACE ( 'NONE', ( #1059 ), #1058, .F. ) ;
#411 = EDGE_LOOP ( 'NONE', ( #412, #413, #414, #415 ) ) ;
#412 = ORIENTED_EDGE ( 'NONE', *, *, #89, .F. ) ;
#413 = ORIENTED_EDGE ( 'NONE', *, *, #240, .F. ) ;
#414 = ORIENTED_EDGE ( 'NONE', *, *, #3, .F. ) ;
#415 = ORIENTED_EDGE ( 'NONE', *, *, #195, .F. ) ;
#416 = ADVANCED_FACE ( 'NONE', ( #1055 ), #1051, .T. ) ;
#417 = EDGE_LOOP ( 'NONE', ( #418, #462, #463, #305 ) ) ;
#418 = ORIENTED_EDGE ( 'NONE', *, *, #186, .T. ) ;
#419 = CARTESIAN_POINT ( 'NONE',  ( -7.149999999999998600, -4.336808689942025600E-016, -1.699999999999999700 ) ) ;
#420 = DIRECTION ( 'NONE',  ( 0.0000000000000000000, 0.0000000000000000000, -1.000000000000000000 ) ) ;
#421 = VECTOR ( 'NONE', #420, 1000.000000000000000 ) ;
#422 = CARTESIAN_POINT ( 'NONE',  ( 0.4700000000000027500, -3.700000000000000200, -1.449999999999999700 ) ) ;
#423 = LINE ( 'NONE', #422, #421 ) ;
#424 = CARTESIAN_POINT ( 'NONE',  ( 5.050000000000000700, -3.700000000000002800, -1.449999999999999700 ) ) ;
#425 = DIRECTION ( 'NONE',  ( -1.000000000000000000, -0.0000000000000000000, -0.0000000000000000000 ) ) ;
#426 = VECTOR ( 'NONE', #425, 1000.000000000000000 ) ;
#427 = CARTESIAN_POINT ( 'NONE',  ( -0.02999999999999812500, -3.700000000000000200, -1.449999999999999700 ) ) ;
#428 = LINE ( 'NONE', #427, #426 ) ;
#429 = CARTESIAN_POINT ( 'NONE',  ( 0.4700000000000027500, -3.700000000000000200, -1.449999999999999700 ) ) ;
#430 = ORIENTED_EDGE ( 'NONE', *, *, #166, .F. ) ;
#431 = ADVANCED_FACE ( 'NONE', ( #1049 ), #1048, .F. ) ;
#432 = ORIENTED_EDGE ( 'NONE', *, *, #320, .T. ) ;
#433 = ORIENTED_EDGE ( 'NONE', *, *, #172, .T. ) ;
#434 = ORIENTED_EDGE ( 'NONE', *, *, #435, .F. ) ;
#435 = EDGE_CURVE ( 'NONE', #170, #98, #1040, .T. ) ;
#436 = ORIENTED_EDGE ( 'NONE', *, *, #169, .F. ) ;
#437 = ORIENTED_EDGE ( 'NONE', *, *, #438, .T. ) ;
#438 = EDGE_CURVE ( 'NONE', #167, #452, #1036, .T. ) ;
#439 = ORIENTED_EDGE ( 'NONE', *, *, #451, .T. ) ;
#440 = ADVANCED_FACE ( 'NONE', ( #1032 ), #1030, .T. ) ;
#441 = EDGE_LOOP ( 'NONE', ( #442, #443, #444, #430 ) ) ;
#442 = ORIENTED_EDGE ( 'NONE', *, *, #346, .F. ) ;
#443 = ORIENTED_EDGE ( 'NONE', *, *, #447, .F. ) ;
#444 = ORIENTED_EDGE ( 'NONE', *, *, #438, .F. ) ;
#445 = EDGE_LOOP ( 'NONE', ( #432, #433, #291, #292 ) ) ;
#446 = ORIENTED_EDGE ( 'NONE', *, *, #447, .T. ) ;
#447 = EDGE_CURVE ( 'NONE', #452, #344, #1031, .T. ) ;
#448 = ORIENTED_EDGE ( 'NONE', *, *, #451, .F. ) ;
#449 = ORIENTED_EDGE ( 'NONE', *, *, #38, .T. ) ;
#450 = CLOSED_SHELL ( 'NONE', ( #36, #28, #178, #176, #127, #53, #46, #82, #136, #197, #206, #467, #221, #214, #402, #404, #231, #243, #189, #410, #416, #338, #328, #352, #387, #393, #340, #362, #373, #381, #311, #317, #307, #284, #440, #431, #293, #288 ) ) ;
#451 = EDGE_CURVE ( 'NONE', #452, #98, #1022, .T. ) ;
#452 = VERTEX_POINT ( 'NONE', #1018 ) ;
#453 = UNCERTAINTY_MEASURE_WITH_UNIT (LENGTH_MEASURE( 1.000000000000000100E-005 ), #456, 'distance_accuracy_value', 'NONE');
#454 =( NAMED_UNIT ( * ) SI_UNIT ( $, .STERADIAN. ) SOLID_ANGLE_UNIT ( ) );
#455 =( NAMED_UNIT ( * ) PLANE_ANGLE_UNIT ( ) SI_UNIT ( $, .RADIAN. ) );
#456 =( LENGTH_UNIT ( ) NAMED_UNIT ( * ) SI_UNIT ( .MILLI., .METRE. ) );
#457 = MECHANICAL_DESIGN_GEOMETRIC_PRESENTATION_REPRESENTATION (  '', ( #459 ), #712 ) ;
#458 = PRESENTATION_LAYER_ASSIGNMENT (  '', '', ( #459 ) ) ;
#459 = STYLED_ITEM ( 'NONE', ( #460 ), #35 ) ;
#460 = PRESENTATION_STYLE_ASSIGNMENT (( #461 ) ) ;
#461 = SURFACE_STYLE_USAGE ( .BOTH. , #470 ) ;
#462 = ORIENTED_EDGE ( 'NONE', *, *, #192, .T. ) ;
#463 = ORIENTED_EDGE ( 'NONE', *, *, #245, .T. ) ;
#464 = ORIENTED_EDGE ( 'NONE', *, *, #73, .F. ) ;
#465 = ORIENTED_EDGE ( 'NONE', *, *, #129, .F. ) ;
#466 = ORIENTED_EDGE ( 'NONE', *, *, #140, .F. ) ;
#467 = ADVANCED_FACE ( 'NONE', ( #1017 ), #1016, .T. ) ;
#468 = EDGE_CURVE ( 'NONE', #4, #409, #1105, .T. ) ;
#469 = ORIENTED_EDGE ( 'NONE', *, *, #405, .T. ) ;
#470 = SURFACE_SIDE_STYLE ('',( #471 ) ) ;
#471 = SURFACE_STYLE_FILL_AREA ( #472 ) ;
#472 = FILL_AREA_STYLE ('',( #473 ) ) ;
#473 = FILL_AREA_STYLE_COLOUR ( '', #474 ) ;
#474 = COLOUR_RGB ( '',0.7529411764705882200, 0.7529411764705882200, 0.7529411764705882200 ) ;
#475 = CARTESIAN_POINT ( 'NONE',  ( 2.510000000000002000, 0.0000000000000000000, -1.699999999999999300 ) ) ;
#476 = CARTESIAN_POINT ( 'NONE',  ( 2.510000000000003300, 0.0000000000000000000, -1.449999999999999100 ) ) ;
#477 = DIRECTION ( 'NONE',  ( 0.0000000000000000000, 0.0000000000000000000, -1.000000000000000000 ) ) ;
#478 = VECTOR ( 'NONE', #477, 1000.000000000000000 ) ;
#479 = CARTESIAN_POINT ( 'NONE',  ( 2.510000000000002900, -7.209165162110082100E-016, -1.449999999999999700 ) ) ;
#480 = DIRECTION ( 'NONE',  ( 0.0000000000000000000, -0.0000000000000000000, 1.000000000000000000 ) ) ;
#481 = DIRECTION ( 'NONE',  ( 0.0000000000000000000, 1.000000000000000000, 0.0000000000000000000 ) ) ;
#482 = AXIS2_PLACEMENT_3D ( 'NONE', #249, #481, #480 ) ;
#483 = AXIS2_PLACEMENT_3D ( 'NONE', #702, #701, #700 ) ;
#484 = PLANE ( 'NONE',  #483 ) ;
#485 = FACE_OUTER_BOUND ( 'NONE', #39, .T. ) ;
#486 = DIRECTION ( 'NONE',  ( -0.0000000000000000000, -1.000000000000000000, -0.0000000000000000000 ) ) ;
#487 = VECTOR ( 'NONE', #486, 1000.000000000000000 ) ;
#488 = CARTESIAN_POINT ( 'NONE',  ( -9.750000000000000000, -0.5000000000000005600, 3.049999999999999800 ) ) ;
#489 = LINE ( 'NONE', #488, #487 ) ;
#490 = DIRECTION ( 'NONE',  ( -1.000000000000000000, 0.0000000000000000000, 0.0000000000000000000 ) ) ;
#491 = VECTOR ( 'NONE', #490, 1000.000000000000000 ) ;
#492 = CARTESIAN_POINT ( 'NONE',  ( 9.750000000000000000, 9.699999999999999300, 3.049999999999999800 ) ) ;
#493 = LINE ( 'NONE', #492, #491 ) ;
#494 = DIRECTION ( 'NONE',  ( 1.000000000000000000, 0.0000000000000000000, 0.0000000000000000000 ) ) ;
#495 = VECTOR ( 'NONE', #494, 1000.000000000000000 ) ;
#496 = CARTESIAN_POINT ( 'NONE',  ( 9.250000000000000000, -0.5000000000000005600, -3.049999999999999800 ) ) ;
#497 = LINE ( 'NONE', #496, #495 ) ;
#498 = DIRECTION ( 'NONE',  ( 0.0000000000000000000, 0.0000000000000000000, -1.000000000000000000 ) ) ;
#499 = VECTOR ( 'NONE', #498, 1000.000000000000000 ) ;
#500 = CARTESIAN_POINT ( 'NONE',  ( -7.149999999999998600, -4.336808689942025600E-016, -1.449999999999999700 ) ) ;
#501 = LINE ( 'NONE', #500, #499 ) ;
#502 = CARTESIAN_POINT ( 'NONE',  ( -7.149999999999998600, 0.0000000000000000000, -1.449999999999999100 ) ) ;
#503 = DIRECTION ( 'NONE',  ( 1.000000000000000000, -2.795312743976753600E-016, 0.0000000000000000000 ) ) ;
#504 = VECTOR ( 'NONE', #503, 1000.000000000000000 ) ;
#505 = CARTESIAN_POINT ( 'NONE',  ( -7.649999999999998600, -2.939152317953647100E-016, -1.449999999999999700 ) ) ;
#506 = LINE ( 'NONE', #505, #504 ) ;
#507 = CARTESIAN_POINT ( 'NONE',  ( -7.649999999999999500, 0.0000000000000000000, -1.699999999999999300 ) ) ;
#508 = CARTESIAN_POINT ( 'NONE',  ( -7.649999999999998600, 0.0000000000000000000, -1.449999999999999100 ) ) ;
#509 = CARTESIAN_POINT ( 'NONE',  ( -7.799999999999998900, 1.200000000000000000, 2.999999999999999600 ) ) ;
#510 = DIRECTION ( 'NONE',  ( 1.000000000000000000, 0.0000000000000000000, 0.0000000000000000000 ) ) ;
#511 = VECTOR ( 'NONE', #510, 1000.000000000000000 ) ;
#512 = CARTESIAN_POINT ( 'NONE',  ( -9.250000000000000000, 0.0000000000000000000, 3.049999999999999800 ) ) ;
#513 = LINE ( 'NONE', #512, #511 ) ;
#514 = CARTESIAN_POINT ( 'NONE',  ( 9.250000000000000000, 0.0000000000000000000, 3.049999999999999800 ) ) ;
#515 = DIRECTION ( 'NONE',  ( -0.0000000000000000000, -0.0000000000000000000, -1.000000000000000000 ) ) ;
#516 = CARTESIAN_POINT ( 'NONE',  ( -9.750000000000000000, -0.5000000000000005600, 3.049999999999999800 ) ) ;
#517 = PLANE ( 'NONE',  #723 ) ;
#518 = FACE_OUTER_BOUND ( 'NONE', #79, .T. ) ;
#519 = CARTESIAN_POINT ( 'NONE',  ( -9.750000000000000000, -0.5000000000000005600, 3.049999999999999800 ) ) ;
#520 = DIRECTION ( 'NONE',  ( -0.0000000000000000000, -0.0000000000000000000, -1.000000000000000000 ) ) ;
#521 = VECTOR ( 'NONE', #520, 1000.000000000000000 ) ;
#522 = VECTOR ( 'NONE', #515, 1000.000000000000000 ) ;
#523 = CARTESIAN_POINT ( 'NONE',  ( 9.250000000000000000, 0.0000000000000000000, 3.049999999999999800 ) ) ;
#524 = LINE ( 'NONE', #523, #522 ) ;
#525 = CARTESIAN_POINT ( 'NONE',  ( 9.250000000000000000, 0.0000000000000000000, -3.049999999999999800 ) ) ;
#526 = DIRECTION ( 'NONE',  ( 1.000000000000000000, 0.0000000000000000000, 0.0000000000000000000 ) ) ;
#527 = VECTOR ( 'NONE', #526, 1000.000000000000000 ) ;
#528 = CARTESIAN_POINT ( 'NONE',  ( -9.250000000000000000, 0.0000000000000000000, -3.049999999999999800 ) ) ;
#529 = LINE ( 'NONE', #528, #527 ) ;
#530 = CARTESIAN_POINT ( 'NONE',  ( 9.750000000000000000, -0.5000000000000005600, 3.049999999999999800 ) ) ;
#531 = CARTESIAN_POINT ( 'NONE',  ( 9.750000000000000000, -0.5000000000000005600, -3.049999999999999800 ) ) ;
#532 = DIRECTION ( 'NONE',  ( 0.0000000000000000000, -0.0000000000000000000, -1.000000000000000000 ) ) ;
#533 = DIRECTION ( 'NONE',  ( 0.0000000000000000000, -1.000000000000000000, 0.0000000000000000000 ) ) ;
#534 = CARTESIAN_POINT ( 'NONE',  ( 9.750000000000000000, 9.699999999999999300, 3.049999999999999800 ) ) ;
#535 = AXIS2_PLACEMENT_3D ( 'NONE', #534, #533, #532 ) ;
#536 = PLANE ( 'NONE',  #535 ) ;
#537 = FACE_OUTER_BOUND ( 'NONE', #124, .T. ) ;
#538 = DIRECTION ( 'NONE',  ( 0.0000000000000000000, 1.000000000000000000, 0.0000000000000000000 ) ) ;
#539 = VECTOR ( 'NONE', #538, 1000.000000000000000 ) ;
#540 = CARTESIAN_POINT ( 'NONE',  ( 9.750000000000000000, -0.5000000000000005600, 3.049999999999999800 ) ) ;
#541 = LINE ( 'NONE', #540, #539 ) ;
#542 = DIRECTION ( 'NONE',  ( -0.0000000000000000000, -0.0000000000000000000, -1.000000000000000000 ) ) ;
#543 = VECTOR ( 'NONE', #542, 1000.000000000000000 ) ;
#544 = CARTESIAN_POINT ( 'NONE',  ( 9.750000000000000000, -0.5000000000000005600, 3.049999999999999800 ) ) ;
#545 = LINE ( 'NONE', #544, #543 ) ;
#546 = CARTESIAN_POINT ( 'NONE',  ( -9.750000000000000000, -0.5000000000000005600, -3.049999999999999800 ) ) ;
#547 = CARTESIAN_POINT ( 'NONE',  ( -9.750000000000000000, 9.699999999999999300, -3.049999999999999800 ) ) ;
#548 = CARTESIAN_POINT ( 'NONE',  ( 9.750000000000000000, 9.699999999999999300, -3.049999999999999800 ) ) ;
#549 = DIRECTION ( 'NONE',  ( 0.0000000000000000000, 1.000000000000000000, 0.0000000000000000000 ) ) ;
#550 = VECTOR ( 'NONE', #549, 1000.000000000000000 ) ;
#551 = CARTESIAN_POINT ( 'NONE',  ( 9.750000000000000000, -0.5000000000000005600, -3.049999999999999800 ) ) ;
#552 = DIRECTION ( 'NONE',  ( 0.0000000000000000000, 0.0000000000000000000, 1.000000000000000000 ) ) ;
#553 = DIRECTION ( 'NONE',  ( -1.000000000000000000, 0.0000000000000000000, 0.0000000000000000000 ) ) ;
#554 = AXIS2_PLACEMENT_3D ( 'NONE', #556, #553, #552 ) ;
#555 = LINE ( 'NONE', #551, #550 ) ;
#556 = CARTESIAN_POINT ( 'NONE',  ( 9.750000000000000000, -0.5000000000000005600, 3.049999999999999800 ) ) ;
#557 = PLANE ( 'NONE',  #554 ) ;
#558 = FACE_OUTER_BOUND ( 'NONE', #74, .T. ) ;
#559 = DIRECTION ( 'NONE',  ( 1.000000000000000000, 0.0000000000000000000, 0.0000000000000000000 ) ) ;
#560 = VECTOR ( 'NONE', #559, 1000.000000000000000 ) ;
#561 = CARTESIAN_POINT ( 'NONE',  ( 9.250000000000000000, -0.5000000000000005600, 3.049999999999999800 ) ) ;
#562 = LINE ( 'NONE', #561, #560 ) ;
#563 = CARTESIAN_POINT ( 'NONE',  ( 9.750000000000000000, 9.699999999999999300, 3.049999999999999800 ) ) ;
#564 = CARTESIAN_POINT ( 'NONE',  ( -9.250000000000000000, -0.5000000000000005600, 3.049999999999999800 ) ) ;
#565 = DIRECTION ( 'NONE',  ( -0.0000000000000000000, -0.0000000000000000000, -1.000000000000000000 ) ) ;
#566 = VECTOR ( 'NONE', #565, 1000.000000000000000 ) ;
#567 = CARTESIAN_POINT ( 'NONE',  ( -9.250000000000000000, -0.5000000000000005600, 3.049999999999999800 ) ) ;
#568 = LINE ( 'NONE', #567, #566 ) ;
#569 = CARTESIAN_POINT ( 'NONE',  ( -9.250000000000000000, -0.5000000000000005600, -3.049999999999999800 ) ) ;
#570 = DIRECTION ( 'NONE',  ( 1.000000000000000000, -0.0000000000000000000, -0.0000000000000000000 ) ) ;
#571 = VECTOR ( 'NONE', #570, 1000.000000000000000 ) ;
#572 = CARTESIAN_POINT ( 'NONE',  ( -9.250000000000000000, -0.5000000000000005600, -3.049999999999999800 ) ) ;
#573 = LINE ( 'NONE', #572, #571 ) ;
#574 = DIRECTION ( 'NONE',  ( 1.000000000000000000, -0.0000000000000000000, -0.0000000000000000000 ) ) ;
#575 = VECTOR ( 'NONE', #574, 1000.000000000000000 ) ;
#576 = CARTESIAN_POINT ( 'NONE',  ( -9.250000000000000000, -0.5000000000000005600, 3.049999999999999800 ) ) ;
#577 = LINE ( 'NONE', #576, #575 ) ;
#578 = CARTESIAN_POINT ( 'NONE',  ( -5.109999999999998500, -8.523541722065575200E-016, -1.449999999999999700 ) ) ;
#579 = LINE ( 'NONE', #578, #640 ) ;
#580 = CARTESIAN_POINT ( 'NONE',  ( -5.109999999999998500, 0.0000000000000000000, -1.699999999999999300 ) ) ;
#581 = DIRECTION ( 'NONE',  ( 0.0000000000000000000, 0.0000000000000000000, -1.000000000000000000 ) ) ;
#582 = VECTOR ( 'NONE', #581, 1000.000000000000000 ) ;
#583 = CARTESIAN_POINT ( 'NONE',  ( -5.109999999999998500, -8.523541722065575200E-016, -1.449999999999999700 ) ) ;
#584 = LINE ( 'NONE', #583, #582 ) ;
#585 = CARTESIAN_POINT ( 'NONE',  ( -6.999999999999998200, 1.200000000000000000, 2.999999999999999600 ) ) ;
#586 = CARTESIAN_POINT ( 'NONE',  ( -9.750000000000000000, 9.699999999999999300, 3.049999999999999800 ) ) ;
#587 = DIRECTION ( 'NONE',  ( -0.0000000000000000000, -0.0000000000000000000, -1.000000000000000000 ) ) ;
#588 = VECTOR ( 'NONE', #587, 1000.000000000000000 ) ;
#589 = CARTESIAN_POINT ( 'NONE',  ( -9.750000000000000000, 9.699999999999999300, 3.049999999999999800 ) ) ;
#590 = LINE ( 'NONE', #589, #588 ) ;
#591 = DIRECTION ( 'NONE',  ( -1.000000000000000000, 0.0000000000000000000, 0.0000000000000000000 ) ) ;
#592 = VECTOR ( 'NONE', #591, 1000.000000000000000 ) ;
#593 = CARTESIAN_POINT ( 'NONE',  ( 9.750000000000000000, 9.699999999999999300, -3.049999999999999800 ) ) ;
#594 = LINE ( 'NONE', #593, #592 ) ;
#595 = DIRECTION ( 'NONE',  ( -0.0000000000000000000, 1.000000000000000000, -0.0000000000000000000 ) ) ;
#596 = VECTOR ( 'NONE', #595, 1000.000000000000000 ) ;
#597 = CARTESIAN_POINT ( 'NONE',  ( -9.250000000000000000, 0.0000000000000000000, -3.049999999999999800 ) ) ;
#598 = LINE ( 'NONE', #597, #596 ) ;
#599 = DIRECTION ( 'NONE',  ( 0.0000000000000000000, 0.0000000000000000000, 1.000000000000000000 ) ) ;
#600 = DIRECTION ( 'NONE',  ( -1.000000000000000000, 0.0000000000000000000, 0.0000000000000000000 ) ) ;
#601 = AXIS2_PLACEMENT_3D ( 'NONE', #602, #600, #599 ) ;
#602 = CARTESIAN_POINT ( 'NONE',  ( -9.250000000000000000, 0.0000000000000000000, 3.049999999999999800 ) ) ;
#603 = PLANE ( 'NONE',  #601 ) ;
#604 = FACE_OUTER_BOUND ( 'NONE', #117, .T. ) ;
#605 = DIRECTION ( 'NONE',  ( -0.0000000000000000000, -0.0000000000000000000, -1.000000000000000000 ) ) ;
#606 = VECTOR ( 'NONE', #605, 1000.000000000000000 ) ;
#607 = CARTESIAN_POINT ( 'NONE',  ( 9.750000000000000000, 9.699999999999999300, 3.049999999999999800 ) ) ;
#608 = LINE ( 'NONE', #607, #606 ) ;
#609 = CARTESIAN_POINT ( 'NONE',  ( 3.010000000000002500, 0.0000000000000000000, -1.449999999999999100 ) ) ;
#610 = DIRECTION ( 'NONE',  ( 1.000000000000000000, -1.224646799147351500E-016, 0.0000000000000000000 ) ) ;
#611 = VECTOR ( 'NONE', #610, 1000.000000000000000 ) ;
#612 = CARTESIAN_POINT ( 'NONE',  ( 2.510000000000002900, -7.209165162110082100E-016, -1.449999999999999700 ) ) ;
#613 = LINE ( 'NONE', #612, #611 ) ;
#614 = DIRECTION ( 'NONE',  ( 0.0000000000000000000, 0.0000000000000000000, -1.000000000000000000 ) ) ;
#615 = VECTOR ( 'NONE', #614, 1000.000000000000000 ) ;
#616 = CARTESIAN_POINT ( 'NONE',  ( 5.550000000000004300, -4.531043509142787600E-016, -1.449999999999999700 ) ) ;
#617 = LINE ( 'NONE', #616, #615 ) ;
#618 = CARTESIAN_POINT ( 'NONE',  ( 5.550000000000004300, 0.0000000000000000000, -1.449999999999999100 ) ) ;
#619 = DIRECTION ( 'NONE',  ( 1.000000000000000000, 0.0000000000000000000, 0.0000000000000000000 ) ) ;
#620 = VECTOR ( 'NONE', #619, 1000.000000000000000 ) ;
#621 = CARTESIAN_POINT ( 'NONE',  ( 5.050000000000004300, -4.531043509142787600E-016, -1.449999999999999700 ) ) ;
#622 = LINE ( 'NONE', #621, #620 ) ;
#623 = CARTESIAN_POINT ( 'NONE',  ( 5.050000000000000700, 0.0000000000000000000, -1.699999999999999300 ) ) ;
#624 = DIRECTION ( 'NONE',  ( 0.0000000000000000000, 0.0000000000000000000, -1.000000000000000000 ) ) ;
#625 = VECTOR ( 'NONE', #624, 1000.000000000000000 ) ;
#626 = CARTESIAN_POINT ( 'NONE',  ( 5.050000000000004300, -4.531043509142787600E-016, -1.449999999999999700 ) ) ;
#627 = LINE ( 'NONE', #626, #625 ) ;
#628 = CARTESIAN_POINT ( 'NONE',  ( -9.250000000000000000, 0.0000000000000000000, -3.049999999999999800 ) ) ;
#629 = DIRECTION ( 'NONE',  ( 1.000000000000000000, -7.703719777548936400E-031, 0.0000000000000000000 ) ) ;
#630 = VECTOR ( 'NONE', #629, 1000.000000000000000 ) ;
#631 = CARTESIAN_POINT ( 'NONE',  ( -5.109999999999998500, -8.523541722065575200E-016, -1.699999999999999700 ) ) ;
#632 = LINE ( 'NONE', #631, #630 ) ;
#633 = CARTESIAN_POINT ( 'NONE',  ( -4.609999999999997700, -8.523541722065579200E-016, -1.699999999999999700 ) ) ;
#634 = DIRECTION ( 'NONE',  ( 0.0000000000000000000, 0.0000000000000000000, -1.000000000000000000 ) ) ;
#635 = VECTOR ( 'NONE', #634, 1000.000000000000000 ) ;
#636 = CARTESIAN_POINT ( 'NONE',  ( -4.609999999999997700, -8.523541722065579200E-016, -1.449999999999999700 ) ) ;
#637 = LINE ( 'NONE', #636, #635 ) ;
#638 = CARTESIAN_POINT ( 'NONE',  ( -4.609999999999997700, 0.0000000000000000000, -1.449999999999999100 ) ) ;
#639 = DIRECTION ( 'NONE',  ( 1.000000000000000000, -7.703719777548936400E-031, 0.0000000000000000000 ) ) ;
#640 = VECTOR ( 'NONE', #639, 1000.000000000000000 ) ;
#641 = CARTESIAN_POINT ( 'NONE',  ( -0.02999999999999769500, -1.785535033156841400E-015, -1.449999999999999700 ) ) ;
#642 = DIRECTION ( 'NONE',  ( 0.0000000000000000000, -1.000000000000000000, 0.0000000000000000000 ) ) ;
#643 = VECTOR ( 'NONE', #642, 1000.000000000000000 ) ;
#644 = CARTESIAN_POINT ( 'NONE',  ( 9.250000000000000000, 0.0000000000000000000, -3.049999999999999800 ) ) ;
#645 = LINE ( 'NONE', #641, #939 ) ;
#646 = DIRECTION ( 'NONE',  ( -0.0000000000000000000, 0.0000000000000000000, -1.000000000000000000 ) ) ;
#647 = DIRECTION ( 'NONE',  ( 1.000000000000000000, 0.0000000000000000000, -0.0000000000000000000 ) ) ;
#648 = CARTESIAN_POINT ( 'NONE',  ( 9.250000000000000000, 0.0000000000000000000, 3.049999999999999800 ) ) ;
#649 = LINE ( 'NONE', #644, #643 ) ;
#650 = AXIS2_PLACEMENT_3D ( 'NONE', #648, #647, #646 ) ;
#651 = FACE_OUTER_BOUND ( 'NONE', #179, .T. ) ;
#652 = DIRECTION ( 'NONE',  ( 0.0000000000000000000, -0.0000000000000000000, 1.000000000000000000 ) ) ;
#653 = DIRECTION ( 'NONE',  ( 0.0000000000000000000, 1.000000000000000000, 0.0000000000000000000 ) ) ;
#654 = CARTESIAN_POINT ( 'NONE',  ( 9.250000000000000000, -0.5000000000000005600, 3.049999999999999800 ) ) ;
#655 = AXIS2_PLACEMENT_3D ( 'NONE', #654, #653, #652 ) ;
#656 = PLANE ( 'NONE',  #655 ) ;
#657 = PLANE ( 'NONE',  #650 ) ;
#658 = FACE_OUTER_BOUND ( 'NONE', #96, .T. ) ;
#659 = DIRECTION ( 'NONE',  ( 0.0000000000000000000, 0.0000000000000000000, -1.000000000000000000 ) ) ;
#660 = VECTOR ( 'NONE', #659, 1000.000000000000000 ) ;
#661 = CARTESIAN_POINT ( 'NONE',  ( -7.649999999999998600, -2.939152317953647100E-016, -1.449999999999999700 ) ) ;
#662 = LINE ( 'NONE', #661, #660 ) ;
#663 = DIRECTION ( 'NONE',  ( 1.000000000000000000, -1.224646799147351500E-016, 0.0000000000000000000 ) ) ;
#664 = VECTOR ( 'NONE', #663, 1000.000000000000000 ) ;
#665 = CARTESIAN_POINT ( 'NONE',  ( 2.510000000000002900, -7.209165162110082100E-016, -1.699999999999999700 ) ) ;
#666 = LINE ( 'NONE', #665, #664 ) ;
#667 = CARTESIAN_POINT ( 'NONE',  ( 3.010000000000002500, -7.821488561683756800E-016, -1.699999999999999700 ) ) ;
#668 = DIRECTION ( 'NONE',  ( 0.0000000000000000000, 0.0000000000000000000, -1.000000000000000000 ) ) ;
#669 = VECTOR ( 'NONE', #668, 1000.000000000000000 ) ;
#670 = CARTESIAN_POINT ( 'NONE',  ( 3.010000000000002500, -7.821488561683756800E-016, -1.449999999999999700 ) ) ;
#671 = LINE ( 'NONE', #670, #669 ) ;
#672 = DIRECTION ( 'NONE',  ( -0.0000000000000000000, 1.000000000000000000, -0.0000000000000000000 ) ) ;
#673 = VECTOR ( 'NONE', #672, 1000.000000000000000 ) ;
#674 = CARTESIAN_POINT ( 'NONE',  ( -9.250000000000000000, 0.0000000000000000000, 3.049999999999999800 ) ) ;
#675 = LINE ( 'NONE', #674, #673 ) ;
#676 = DIRECTION ( 'NONE',  ( 1.000000000000000000, 0.0000000000000000000, 0.0000000000000000000 ) ) ;
#677 = VECTOR ( 'NONE', #676, 1000.000000000000000 ) ;
#678 = CARTESIAN_POINT ( 'NONE',  ( 5.050000000000004300, -4.531043509142787600E-016, -1.699999999999999700 ) ) ;
#679 = LINE ( 'NONE', #678, #677 ) ;
#680 = CARTESIAN_POINT ( 'NONE',  ( 5.550000000000004300, -4.531043509142787600E-016, -1.699999999999999700 ) ) ;
#681 = CARTESIAN_POINT ( 'NONE',  ( 3.010000000000002000, -3.700000000000000200, -1.699999999999999700 ) ) ;
#682 = CARTESIAN_POINT ( 'NONE',  ( 0.4700000000000023000, -1.785535033156841800E-015, -1.699999999999999700 ) ) ;
#683 = DIRECTION ( 'NONE',  ( 0.0000000000000000000, 0.0000000000000000000, -1.000000000000000000 ) ) ;
#684 = VECTOR ( 'NONE', #683, 1000.000000000000000 ) ;
#685 = CARTESIAN_POINT ( 'NONE',  ( 0.4700000000000023000, -1.785535033156841800E-015, -1.449999999999999700 ) ) ;
#686 = LINE ( 'NONE', #685, #684 ) ;
#687 = CARTESIAN_POINT ( 'NONE',  ( -0.02999999999999769500, -1.785535033156841400E-015, -1.449999999999999700 ) ) ;
#688 = DIRECTION ( 'NONE',  ( 1.000000000000000000, -7.703719777548943400E-031, 0.0000000000000000000 ) ) ;
#689 = VECTOR ( 'NONE', #688, 1000.000000000000000 ) ;
#690 = CARTESIAN_POINT ( 'NONE',  ( -0.02999999999999769500, -1.785535033156841400E-015, -1.449999999999999700 ) ) ;
#691 = LINE ( 'NONE', #690, #689 ) ;
#692 = CARTESIAN_POINT ( 'NONE',  ( 0.4700000000000023000, -1.785535033156841800E-015, -1.449999999999999700 ) ) ;
#693 = CARTESIAN_POINT ( 'NONE',  ( 9.250000000000000000, -0.5000000000000005600, 3.049999999999999800 ) ) ;
#694 = DIRECTION ( 'NONE',  ( -0.0000000000000000000, -0.0000000000000000000, -1.000000000000000000 ) ) ;
#695 = VECTOR ( 'NONE', #694, 1000.000000000000000 ) ;
#696 = CARTESIAN_POINT ( 'NONE',  ( 9.250000000000000000, -0.5000000000000005600, 3.049999999999999800 ) ) ;
#697 = LINE ( 'NONE', #696, #695 ) ;
#698 = CARTESIAN_POINT ( 'NONE',  ( 9.250000000000000000, -0.5000000000000005600, -3.049999999999999800 ) ) ;
#699 = CARTESIAN_POINT ( 'NONE',  ( -0.02999999999999877800, 0.0000000000000000000, -1.699999999999999300 ) ) ;
#700 = DIRECTION ( 'NONE',  ( 0.0000000000000000000, 0.0000000000000000000, 1.000000000000000000 ) ) ;
#701 = DIRECTION ( 'NONE',  ( 0.0000000000000000000, 1.000000000000000000, -0.0000000000000000000 ) ) ;
#702 = CARTESIAN_POINT ( 'NONE',  ( -9.250000000000000000, -0.5000000000000005600, 3.049999999999999800 ) ) ;
#703 = CARTESIAN_POINT ( 'NONE',  ( -9.750000000000000000, -0.5000000000000005600, 3.049999999999999800 ) ) ;
#704 = LINE ( 'NONE', #703, #521 ) ;
#705 = DIRECTION ( 'NONE',  ( 1.000000000000000000, 0.0000000000000000000, 0.0000000000000000000 ) ) ;
#706 = DIRECTION ( 'NONE',  ( 0.0000000000000000000, 0.0000000000000000000, 1.000000000000000000 ) ) ;
#707 = AXIS2_PLACEMENT_3D ( 'NONE', #716, #706, #705 ) ;
#708 = AXIS2_PLACEMENT_3D ( 'NONE', #710, #714, #713 ) ;
#709 = CYLINDRICAL_SURFACE ( 'NONE', #708, 0.4000000000000001900 ) ;
#710 = CARTESIAN_POINT ( 'NONE',  ( -7.399999999999998600, 1.200000000000000000, 2.999999999999999600 ) ) ;
#711 = FACE_OUTER_BOUND ( 'NONE', #37, .T. ) ;
#712 =( GEOMETRIC_REPRESENTATION_CONTEXT ( 3 ) GLOBAL_UNCERTAINTY_ASSIGNED_CONTEXT ( ( #453 ) ) GLOBAL_UNIT_ASSIGNED_CONTEXT ( ( #456, #455, #454 ) ) REPRESENTATION_CONTEXT ( 'NONE', 'WORKASPACE' ) );
#713 = DIRECTION ( 'NONE',  ( 1.000000000000000000, 0.0000000000000000000, 0.0000000000000000000 ) ) ;
#714 = DIRECTION ( 'NONE',  ( -0.0000000000000000000, -0.0000000000000000000, 1.000000000000000000 ) ) ;
#715 = CIRCLE ( 'NONE', #707, 0.4000000000000001900 ) ;
#716 = CARTESIAN_POINT ( 'NONE',  ( -7.399999999999998600, 1.200000000000000000, 2.999999999999999600 ) ) ;
#717 = DIRECTION ( 'NONE',  ( -0.0000000000000000000, -1.000000000000000000, -0.0000000000000000000 ) ) ;
#718 = VECTOR ( 'NONE', #717, 1000.000000000000000 ) ;
#719 = CARTESIAN_POINT ( 'NONE',  ( -9.750000000000000000, -0.5000000000000005600, -3.049999999999999800 ) ) ;
#720 = LINE ( 'NONE', #719, #718 ) ;
#721 = DIRECTION ( 'NONE',  ( 0.0000000000000000000, 0.0000000000000000000, -1.000000000000000000 ) ) ;
#722 = DIRECTION ( 'NONE',  ( 1.000000000000000000, 0.0000000000000000000, 0.0000000000000000000 ) ) ;
#723 = AXIS2_PLACEMENT_3D ( 'NONE', #516, #722, #721 ) ;
#724 = DIRECTION ( 'NONE',  ( 0.0000000000000000000, -0.0000000000000000000, -1.000000000000000000 ) ) ;
#725 = DIRECTION ( 'NONE',  ( 0.0000000000000000000, -1.000000000000000000, 0.0000000000000000000 ) ) ;
#726 = AXIS2_PLACEMENT_3D ( 'NONE', #727, #725, #724 ) ;
#727 = CARTESIAN_POINT ( 'NONE',  ( -5.109999999999998500, -3.699999999999999300, -1.449999999999999700 ) ) ;
#728 = PLANE ( 'NONE',  #726 ) ;
#729 = FACE_OUTER_BOUND ( 'NONE', #329, .T. ) ;
#730 = DIRECTION ( 'NONE',  ( -0.0000000000000000000, 1.000000000000000000, -0.0000000000000000000 ) ) ;
#731 = VECTOR ( 'NONE', #730, 1000.000000000000000 ) ;
#732 = CARTESIAN_POINT ( 'NONE',  ( -5.109999999999998500, -8.523541722065575200E-016, -1.449999999999999700 ) ) ;
#733 = LINE ( 'NONE', #732, #731 ) ;
#734 = CARTESIAN_POINT ( 'NONE',  ( -5.109999999999998500, -3.699999999999999300, -1.449999999999999700 ) ) ;
#735 = DIRECTION ( 'NONE',  ( 0.0000000000000000000, 0.0000000000000000000, -1.000000000000000000 ) ) ;
#736 = VECTOR ( 'NONE', #735, 1000.000000000000000 ) ;
#737 = CARTESIAN_POINT ( 'NONE',  ( -5.109999999999998500, -3.699999999999999300, -1.449999999999999700 ) ) ;
#738 = LINE ( 'NONE', #737, #736 ) ;
#739 = CARTESIAN_POINT ( 'NONE',  ( 2.510000000000002500, -3.700000000000000200, -1.699999999999999700 ) ) ;
#740 = DIRECTION ( 'NONE',  ( 1.172110456741086100E-016, 1.000000000000000000, -0.0000000000000000000 ) ) ;
#741 = VECTOR ( 'NONE', #740, 1000.000000000000000 ) ;
#742 = CARTESIAN_POINT ( 'NONE',  ( 2.510000000000002900, -7.209165162110082100E-016, -1.699999999999999700 ) ) ;
#743 = DIRECTION ( 'NONE',  ( -1.172110456741086100E-016, -1.000000000000000000, 0.0000000000000000000 ) ) ;
#744 = DIRECTION ( 'NONE',  ( -1.000000000000000000, 1.172110456741086100E-016, 0.0000000000000000000 ) ) ;
#745 = CARTESIAN_POINT ( 'NONE',  ( 2.510000000000002900, -7.209165162110082100E-016, -1.449999999999999700 ) ) ;
#746 = LINE ( 'NONE', #742, #741 ) ;
#747 = AXIS2_PLACEMENT_3D ( 'NONE', #745, #744, #743 ) ;
#748 = FACE_OUTER_BOUND ( 'NONE', #318, .T. ) ;
#749 = DIRECTION ( 'NONE',  ( 1.000000000000000000, 0.0000000000000000000, -0.0000000000000000000 ) ) ;
#750 = DIRECTION ( 'NONE',  ( 0.0000000000000000000, 0.0000000000000000000, 1.000000000000000000 ) ) ;
#751 = CARTESIAN_POINT ( 'NONE',  ( -7.649999999999998600, -2.939152317953647100E-016, -1.699999999999999700 ) ) ;
#752 = PLANE ( 'NONE',  #747 ) ;
#753 = AXIS2_PLACEMENT_3D ( 'NONE', #751, #750, #749 ) ;
#754 = FACE_OUTER_BOUND ( 'NONE', #312, .T. ) ;
#755 = VECTOR ( 'NONE', #876, 1000.000000000000000 ) ;
#756 = CARTESIAN_POINT ( 'NONE',  ( -0.02999999999999769500, -1.785535033156841400E-015, -1.449999999999999700 ) ) ;
#757 = LINE ( 'NONE', #756, #755 ) ;
#758 = CARTESIAN_POINT ( 'NONE',  ( -0.02999999999999812500, -3.700000000000000200, -1.449999999999999700 ) ) ;
#759 = DIRECTION ( 'NONE',  ( 0.0000000000000000000, 0.0000000000000000000, -1.000000000000000000 ) ) ;
#760 = VECTOR ( 'NONE', #759, 1000.000000000000000 ) ;
#761 = CARTESIAN_POINT ( 'NONE',  ( -0.02999999999999812500, -3.700000000000000200, -1.449999999999999700 ) ) ;
#762 = LINE ( 'NONE', #761, #760 ) ;
#763 = CARTESIAN_POINT ( 'NONE',  ( -0.02999999999999812500, -3.700000000000000200, -1.699999999999999700 ) ) ;
#764 = DIRECTION ( 'NONE',  ( 1.172110456741086300E-016, 1.000000000000000000, -0.0000000000000000000 ) ) ;
#765 = VECTOR ( 'NONE', #764, 1000.000000000000000 ) ;
#766 = CARTESIAN_POINT ( 'NONE',  ( -0.02999999999999769500, -1.785535033156841400E-015, -1.699999999999999700 ) ) ;
#767 = DIRECTION ( 'NONE',  ( -1.172110456741086300E-016, -1.000000000000000000, 0.0000000000000000000 ) ) ;
#768 = DIRECTION ( 'NONE',  ( -1.000000000000000000, 1.172110456741086300E-016, 0.0000000000000000000 ) ) ;
#769 = AXIS2_PLACEMENT_3D ( 'NONE', #771, #768, #767 ) ;
#770 = LINE ( 'NONE', #766, #765 ) ;
#771 = CARTESIAN_POINT ( 'NONE',  ( -0.02999999999999769500, -1.785535033156841400E-015, -1.449999999999999700 ) ) ;
#772 = PLANE ( 'NONE',  #769 ) ;
#773 = FACE_OUTER_BOUND ( 'NONE', #232, .T. ) ;
#774 = DIRECTION ( 'NONE',  ( 9.376883653928680700E-016, 1.000000000000000000, -0.0000000000000000000 ) ) ;
#775 = VECTOR ( 'NONE', #774, 1000.000000000000000 ) ;
#776 = CARTESIAN_POINT ( 'NONE',  ( 5.050000000000004300, -4.531043509142787600E-016, -1.449999999999999700 ) ) ;
#777 = LINE ( 'NONE', #776, #775 ) ;
#778 = FACE_OUTER_BOUND ( 'NONE', #209, .T. ) ;
#779 = DIRECTION ( 'NONE',  ( -0.0000000000000000000, -1.000000000000000000, -0.0000000000000000000 ) ) ;
#780 = VECTOR ( 'NONE', #779, 1000.000000000000000 ) ;
#781 = CARTESIAN_POINT ( 'NONE',  ( 5.550000000000004300, -3.700000000000002800, -1.449999999999999700 ) ) ;
#782 = LINE ( 'NONE', #781, #780 ) ;
#783 = DIRECTION ( 'NONE',  ( -0.0000000000000000000, -1.000000000000000000, -0.0000000000000000000 ) ) ;
#784 = VECTOR ( 'NONE', #783, 1000.000000000000000 ) ;
#785 = CARTESIAN_POINT ( 'NONE',  ( 5.550000000000004300, -3.700000000000002800, -1.699999999999999700 ) ) ;
#786 = LINE ( 'NONE', #824, #823 ) ;
#787 = DIRECTION ( 'NONE',  ( 1.000000000000000000, 0.0000000000000000000, 0.0000000000000000000 ) ) ;
#788 = DIRECTION ( 'NONE',  ( -0.0000000000000000000, 0.0000000000000000000, 1.000000000000000000 ) ) ;
#789 = CARTESIAN_POINT ( 'NONE',  ( 9.250000000000000000, -0.5000000000000005600, -3.049999999999999800 ) ) ;
#790 = AXIS2_PLACEMENT_3D ( 'NONE', #789, #788, #787 ) ;
#791 = DIRECTION ( 'NONE',  ( -2.344220913482172600E-016, -1.000000000000000000, 0.0000000000000000000 ) ) ;
#792 = DIRECTION ( 'NONE',  ( -1.000000000000000000, 2.344220913482172600E-016, 0.0000000000000000000 ) ) ;
#793 = AXIS2_PLACEMENT_3D ( 'NONE', #794, #792, #791 ) ;
#794 = CARTESIAN_POINT ( 'NONE',  ( -7.649999999999998600, -2.939152317953647100E-016, -1.449999999999999700 ) ) ;
#795 = PLANE ( 'NONE',  #793 ) ;
#796 = DIRECTION ( 'NONE',  ( -0.0000000000000000000, 0.0000000000000000000, 1.000000000000000000 ) ) ;
#797 = DIRECTION ( 'NONE',  ( -1.000000000000000000, 0.0000000000000000000, -0.0000000000000000000 ) ) ;
#798 = AXIS2_PLACEMENT_3D ( 'NONE', #800, #797, #796 ) ;
#799 = FACE_OUTER_BOUND ( 'NONE', #341, .T. ) ;
#800 = CARTESIAN_POINT ( 'NONE',  ( -5.109999999999998500, -8.523541722065575200E-016, -1.449999999999999700 ) ) ;
#801 = PLANE ( 'NONE',  #798 ) ;
#802 = FACE_OUTER_BOUND ( 'NONE', #304, .T. ) ;
#803 = CARTESIAN_POINT ( 'NONE',  ( -5.109999999999998500, -3.699999999999999300, -1.699999999999999700 ) ) ;
#804 = DIRECTION ( 'NONE',  ( -0.0000000000000000000, 1.000000000000000000, -0.0000000000000000000 ) ) ;
#805 = VECTOR ( 'NONE', #804, 1000.000000000000000 ) ;
#806 = CARTESIAN_POINT ( 'NONE',  ( -5.109999999999998500, -8.523541722065575200E-016, -1.699999999999999700 ) ) ;
#807 = LINE ( 'NONE', #806, #805 ) ;
#808 = DIRECTION ( 'NONE',  ( 0.0000000000000000000, 0.0000000000000000000, -1.000000000000000000 ) ) ;
#809 = VECTOR ( 'NONE', #808, 1000.000000000000000 ) ;
#810 = CARTESIAN_POINT ( 'NONE',  ( -4.609999999999997700, -3.699999999999999300, -1.449999999999999700 ) ) ;
#811 = LINE ( 'NONE', #810, #809 ) ;
#812 = CARTESIAN_POINT ( 'NONE',  ( -4.609999999999997700, -3.699999999999999300, -1.699999999999999700 ) ) ;
#813 = DIRECTION ( 'NONE',  ( -1.000000000000000000, -0.0000000000000000000, -0.0000000000000000000 ) ) ;
#814 = VECTOR ( 'NONE', #813, 1000.000000000000000 ) ;
#815 = CARTESIAN_POINT ( 'NONE',  ( -5.109999999999998500, -3.699999999999999300, -1.699999999999999700 ) ) ;
#816 = LINE ( 'NONE', #815, #814 ) ;
#817 = DIRECTION ( 'NONE',  ( -1.000000000000000000, -0.0000000000000000000, -0.0000000000000000000 ) ) ;
#818 = VECTOR ( 'NONE', #817, 1000.000000000000000 ) ;
#819 = CARTESIAN_POINT ( 'NONE',  ( 5.050000000000000700, -3.700000000000002800, -1.449999999999999700 ) ) ;
#820 = LINE ( 'NONE', #819, #818 ) ;
#821 = CARTESIAN_POINT ( 'NONE',  ( 5.550000000000004300, -3.700000000000002800, -1.699999999999999700 ) ) ;
#822 = DIRECTION ( 'NONE',  ( -1.000000000000000000, -0.0000000000000000000, -0.0000000000000000000 ) ) ;
#823 = VECTOR ( 'NONE', #822, 1000.000000000000000 ) ;
#824 = CARTESIAN_POINT ( 'NONE',  ( 5.050000000000000700, -3.700000000000002800, -1.699999999999999700 ) ) ;
#825 = DIRECTION ( 'NONE',  ( -0.0000000000000000000, -0.0000000000000000000, 1.000000000000000000 ) ) ;
#826 = CARTESIAN_POINT ( 'NONE',  ( -7.399999999999998600, 1.200000000000000000, 2.999999999999999600 ) ) ;
#827 = AXIS2_PLACEMENT_3D ( 'NONE', #826, #825, #907 ) ;
#828 = CIRCLE ( 'NONE', #906, 0.4000000000000001900 ) ;
#829 = CYLINDRICAL_SURFACE ( 'NONE', #827, 0.4000000000000001900 ) ;
#830 = DIRECTION ( 'NONE',  ( 1.000000000000000000, 0.0000000000000000000, -0.0000000000000000000 ) ) ;
#831 = DIRECTION ( 'NONE',  ( 0.0000000000000000000, 0.0000000000000000000, 1.000000000000000000 ) ) ;
#832 = AXIS2_PLACEMENT_3D ( 'NONE', #834, #831, #830 ) ;
#833 = FACE_OUTER_BOUND ( 'NONE', #294, .T. ) ;
#834 = CARTESIAN_POINT ( 'NONE',  ( -7.399999999999998600, 1.200000000000000000, 2.999999999999999600 ) ) ;
#835 = PLANE ( 'NONE',  #832 ) ;
#836 = DIRECTION ( 'NONE',  ( 1.172110456741086100E-016, 1.000000000000000000, 0.0000000000000000000 ) ) ;
#837 = DIRECTION ( 'NONE',  ( 1.000000000000000000, -1.172110456741086100E-016, 0.0000000000000000000 ) ) ;
#838 = CARTESIAN_POINT ( 'NONE',  ( 3.010000000000002500, -7.821488561683756800E-016, -1.449999999999999700 ) ) ;
#839 = FACE_OUTER_BOUND ( 'NONE', #289, .T. ) ;
#840 = DIRECTION ( 'NONE',  ( -1.172110456741086300E-016, 1.000000000000000000, 0.0000000000000000000 ) ) ;
#841 = DIRECTION ( 'NONE',  ( 1.000000000000000000, 1.172110456741086300E-016, 0.0000000000000000000 ) ) ;
#842 = CARTESIAN_POINT ( 'NONE',  ( 0.4700000000000027500, -3.700000000000000200, -1.449999999999999700 ) ) ;
#843 = DIRECTION ( 'NONE',  ( 9.376883653928680700E-016, 1.000000000000000000, -0.0000000000000000000 ) ) ;
#844 = VECTOR ( 'NONE', #843, 1000.000000000000000 ) ;
#845 = CARTESIAN_POINT ( 'NONE',  ( 5.050000000000004300, -4.531043509142787600E-016, -1.699999999999999700 ) ) ;
#846 = DIRECTION ( 'NONE',  ( 0.0000000000000000000, -0.0000000000000000000, -1.000000000000000000 ) ) ;
#847 = DIRECTION ( 'NONE',  ( 0.0000000000000000000, -1.000000000000000000, 0.0000000000000000000 ) ) ;
#848 = CARTESIAN_POINT ( 'NONE',  ( 5.050000000000000700, -3.700000000000002800, -1.449999999999999700 ) ) ;
#849 = AXIS2_PLACEMENT_3D ( 'NONE', #848, #847, #846 ) ;
#850 = PLANE ( 'NONE',  #849 ) ;
#851 = LINE ( 'NONE', #845, #844 ) ;
#852 = DIRECTION ( 'NONE',  ( 1.172110456741086100E-016, 1.000000000000000000, -0.0000000000000000000 ) ) ;
#853 = VECTOR ( 'NONE', #852, 1000.000000000000000 ) ;
#854 = CARTESIAN_POINT ( 'NONE',  ( 2.510000000000002900, -7.209165162110082100E-016, -1.449999999999999700 ) ) ;
#855 = LINE ( 'NONE', #854, #853 ) ;
#856 = CARTESIAN_POINT ( 'NONE',  ( 2.510000000000002500, -3.700000000000000200, -1.449999999999999700 ) ) ;
#857 = DIRECTION ( 'NONE',  ( 0.0000000000000000000, 0.0000000000000000000, -1.000000000000000000 ) ) ;
#858 = VECTOR ( 'NONE', #857, 1000.000000000000000 ) ;
#859 = CARTESIAN_POINT ( 'NONE',  ( 2.510000000000002500, -3.700000000000000200, -1.449999999999999700 ) ) ;
#860 = LINE ( 'NONE', #859, #858 ) ;
#861 = VECTOR ( 'NONE', #940, 1000.000000000000000 ) ;
#862 = PLANE ( 'NONE',  #863 ) ;
#863 = AXIS2_PLACEMENT_3D ( 'NONE', #838, #837, #836 ) ;
#864 = FACE_OUTER_BOUND ( 'NONE', #285, .T. ) ;
#865 = CARTESIAN_POINT ( 'NONE',  ( 0.4700000000000027500, -3.700000000000000200, -1.699999999999999700 ) ) ;
#866 = DIRECTION ( 'NONE',  ( -1.000000000000000000, -0.0000000000000000000, -0.0000000000000000000 ) ) ;
#867 = VECTOR ( 'NONE', #866, 1000.000000000000000 ) ;
#868 = CARTESIAN_POINT ( 'NONE',  ( -0.02999999999999812500, -3.700000000000000200, -1.699999999999999700 ) ) ;
#869 = DIRECTION ( 'NONE',  ( 0.0000000000000000000, -0.0000000000000000000, -1.000000000000000000 ) ) ;
#870 = DIRECTION ( 'NONE',  ( 0.0000000000000000000, -1.000000000000000000, 0.0000000000000000000 ) ) ;
#871 = AXIS2_PLACEMENT_3D ( 'NONE', #873, #870, #869 ) ;
#872 = LINE ( 'NONE', #868, #867 ) ;
#873 = CARTESIAN_POINT ( 'NONE',  ( -0.02999999999999812500, -3.700000000000000200, -1.449999999999999700 ) ) ;
#874 = PLANE ( 'NONE',  #871 ) ;
#875 = FACE_OUTER_BOUND ( 'NONE', #242, .T. ) ;
#876 = DIRECTION ( 'NONE',  ( 1.172110456741086300E-016, 1.000000000000000000, -0.0000000000000000000 ) ) ;
#877 = DIRECTION ( 'NONE',  ( 0.0000000000000000000, 0.0000000000000000000, -1.000000000000000000 ) ) ;
#878 = DIRECTION ( 'NONE',  ( 1.172110456741086300E-016, -1.000000000000000000, -0.0000000000000000000 ) ) ;
#879 = VECTOR ( 'NONE', #878, 1000.000000000000000 ) ;
#880 = CARTESIAN_POINT ( 'NONE',  ( 0.4700000000000027500, -3.700000000000000200, -1.699999999999999700 ) ) ;
#881 = LINE ( 'NONE', #880, #879 ) ;
#882 = PLANE ( 'NONE',  #753 ) ;
#883 = DIRECTION ( 'NONE',  ( -1.000000000000000000, -0.0000000000000000000, -0.0000000000000000000 ) ) ;
#884 = VECTOR ( 'NONE', #883, 1000.000000000000000 ) ;
#885 = CARTESIAN_POINT ( 'NONE',  ( 2.510000000000002500, -3.700000000000000200, -1.699999999999999700 ) ) ;
#886 = LINE ( 'NONE', #885, #884 ) ;
#887 = DIRECTION ( 'NONE',  ( 0.0000000000000000000, -0.0000000000000000000, -1.000000000000000000 ) ) ;
#888 = DIRECTION ( 'NONE',  ( 0.0000000000000000000, -1.000000000000000000, 0.0000000000000000000 ) ) ;
#889 = CARTESIAN_POINT ( 'NONE',  ( 2.510000000000002500, -3.700000000000000200, -1.449999999999999700 ) ) ;
#890 = AXIS2_PLACEMENT_3D ( 'NONE', #889, #888, #887 ) ;
#891 = PLANE ( 'NONE',  #890 ) ;
#892 = FACE_OUTER_BOUND ( 'NONE', #347, .T. ) ;
#893 = CARTESIAN_POINT ( 'NONE',  ( -7.649999999999999500, -3.699999999999998800, -1.449999999999999700 ) ) ;
#894 = DIRECTION ( 'NONE',  ( 0.0000000000000000000, 0.0000000000000000000, -1.000000000000000000 ) ) ;
#895 = VECTOR ( 'NONE', #894, 1000.000000000000000 ) ;
#896 = CARTESIAN_POINT ( 'NONE',  ( -7.649999999999999500, -3.699999999999998800, -1.449999999999999700 ) ) ;
#897 = LINE ( 'NONE', #896, #895 ) ;
#898 = CARTESIAN_POINT ( 'NONE',  ( -7.649999999999999500, -3.699999999999998800, -1.699999999999999700 ) ) ;
#899 = DIRECTION ( 'NONE',  ( 2.344220913482172600E-016, 1.000000000000000000, -0.0000000000000000000 ) ) ;
#900 = VECTOR ( 'NONE', #899, 1000.000000000000000 ) ;
#901 = CARTESIAN_POINT ( 'NONE',  ( -7.649999999999998600, -2.939152317953647100E-016, -1.699999999999999700 ) ) ;
#902 = LINE ( 'NONE', #901, #900 ) ;
#903 = DIRECTION ( 'NONE',  ( 1.000000000000000000, 0.0000000000000000000, 0.0000000000000000000 ) ) ;
#904 = DIRECTION ( 'NONE',  ( 0.0000000000000000000, 0.0000000000000000000, 1.000000000000000000 ) ) ;
#905 = CARTESIAN_POINT ( 'NONE',  ( -7.399999999999998600, 1.200000000000000000, 2.999999999999999600 ) ) ;
#906 = AXIS2_PLACEMENT_3D ( 'NONE', #905, #904, #903 ) ;
#907 = DIRECTION ( 'NONE',  ( 1.000000000000000000, 0.0000000000000000000, 0.0000000000000000000 ) ) ;
#908 = DIRECTION ( 'NONE',  ( 1.000000000000000000, -7.703719777548943400E-031, 0.0000000000000000000 ) ) ;
#909 = LINE ( 'NONE', #915, #914 ) ;
#910 = PLANE ( 'NONE',  #917 ) ;
#911 = FACE_OUTER_BOUND ( 'NONE', #201, .T. ) ;
#912 = FACE_BOUND ( 'NONE', #104, .T. ) ;
#913 = DIRECTION ( 'NONE',  ( 1.172110456741086300E-016, -1.000000000000000000, -0.0000000000000000000 ) ) ;
#914 = VECTOR ( 'NONE', #913, 1000.000000000000000 ) ;
#915 = CARTESIAN_POINT ( 'NONE',  ( 0.4700000000000027500, -3.700000000000000200, -1.449999999999999700 ) ) ;
#916 = CARTESIAN_POINT ( 'NONE',  ( 9.250000000000000000, 0.0000000000000000000, 3.049999999999999800 ) ) ;
#917 = AXIS2_PLACEMENT_3D ( 'NONE', #919, #918, #922 ) ;
#918 = DIRECTION ( 'NONE',  ( -0.0000000000000000000, 0.0000000000000000000, 1.000000000000000000 ) ) ;
#919 = CARTESIAN_POINT ( 'NONE',  ( 9.250000000000000000, -0.5000000000000005600, 3.049999999999999800 ) ) ;
#920 = CARTESIAN_POINT ( 'NONE',  ( -0.02999999999999769500, -1.785535033156841400E-015, -1.699999999999999700 ) ) ;
#921 = PLANE ( 'NONE',  #931 ) ;
#922 = DIRECTION ( 'NONE',  ( 1.000000000000000000, 0.0000000000000000000, 0.0000000000000000000 ) ) ;
#923 = CIRCLE ( 'NONE', #929, 0.4000000000000001900 ) ;
#924 = FACE_OUTER_BOUND ( 'NONE', #190, .T. ) ;
#925 = PLANE ( 'NONE',  #790 ) ;
#926 = DIRECTION ( 'NONE',  ( 1.000000000000000000, 0.0000000000000000000, 0.0000000000000000000 ) ) ;
#927 = DIRECTION ( 'NONE',  ( 0.0000000000000000000, 0.0000000000000000000, 1.000000000000000000 ) ) ;
#928 = CARTESIAN_POINT ( 'NONE',  ( -7.399999999999998600, 1.200000000000000000, 3.049999999999999800 ) ) ;
#929 = AXIS2_PLACEMENT_3D ( 'NONE', #928, #927, #926 ) ;
#930 = FACE_OUTER_BOUND ( 'NONE', #109, .T. ) ;
#931 = AXIS2_PLACEMENT_3D ( 'NONE', #842, #841, #840 ) ;
#932 = LINE ( 'NONE', #785, #784 ) ;
#933 = DIRECTION ( 'NONE',  ( 0.0000000000000000000, 0.0000000000000000000, -1.000000000000000000 ) ) ;
#934 = DIRECTION ( 'NONE',  ( 1.000000000000000000, -0.0000000000000000000, 0.0000000000000000000 ) ) ;
#935 = AXIS2_PLACEMENT_3D ( 'NONE', #936, #934, #933 ) ;
#936 = CARTESIAN_POINT ( 'NONE',  ( 5.550000000000004300, -3.700000000000002800, -1.449999999999999700 ) ) ;
#937 = PLANE ( 'NONE',  #935 ) ;
#938 = FACE_OUTER_BOUND ( 'NONE', #215, .T. ) ;
#939 = VECTOR ( 'NONE', #877, 1000.000000000000000 ) ;
#940 = DIRECTION ( 'NONE',  ( 0.0000000000000000000, -1.000000000000000000, 0.0000000000000000000 ) ) ;
#941 = LINE ( 'NONE', #916, #861 ) ;
#942 = LINE ( 'NONE', #920, #943 ) ;
#943 = VECTOR ( 'NONE', #908, 1000.000000000000000 ) ;
#944 = APPLICATION_PROTOCOL_DEFINITION ( 'draft international standard', 'automotive_design', 1998, #1094 ) ;
#945 = CARTESIAN_POINT ( 'NONE',  ( -7.149999999999998600, -3.699999999999998800, -1.449999999999999700 ) ) ;
#946 = DIRECTION ( 'NONE',  ( 0.0000000000000000000, 0.0000000000000000000, -1.000000000000000000 ) ) ;
#947 = VECTOR ( 'NONE', #946, 1000.000000000000000 ) ;
#948 = CARTESIAN_POINT ( 'NONE',  ( -7.149999999999998600, -3.699999999999998800, -1.449999999999999700 ) ) ;
#949 = LINE ( 'NONE', #948, #947 ) ;
#950 = CARTESIAN_POINT ( 'NONE',  ( -7.149999999999998600, -3.699999999999998800, -1.699999999999999700 ) ) ;
#951 = DIRECTION ( 'NONE',  ( -1.000000000000000000, -0.0000000000000000000, -0.0000000000000000000 ) ) ;
#952 = VECTOR ( 'NONE', #951, 1000.000000000000000 ) ;
#953 = CARTESIAN_POINT ( 'NONE',  ( -7.649999999999999500, -3.699999999999998800, -1.699999999999999700 ) ) ;
#954 = DIRECTION ( 'NONE',  ( 0.0000000000000000000, -0.0000000000000000000, -1.000000000000000000 ) ) ;
#955 = DIRECTION ( 'NONE',  ( 0.0000000000000000000, -1.000000000000000000, 0.0000000000000000000 ) ) ;
#956 = CARTESIAN_POINT ( 'NONE',  ( -7.649999999999999500, -3.699999999999998800, -1.449999999999999700 ) ) ;
#957 = AXIS2_PLACEMENT_3D ( 'NONE', #956, #955, #954 ) ;
#958 = PLANE ( 'NONE',  #957 ) ;
#959 = LINE ( 'NONE', #953, #952 ) ;
#960 = FACE_OUTER_BOUND ( 'NONE', #363, .T. ) ;
#961 = DIRECTION ( 'NONE',  ( 2.344220913482172600E-016, 1.000000000000000000, -0.0000000000000000000 ) ) ;
#962 = VECTOR ( 'NONE', #961, 1000.000000000000000 ) ;
#963 = CARTESIAN_POINT ( 'NONE',  ( -7.649999999999998600, -2.939152317953647100E-016, -1.449999999999999700 ) ) ;
#964 = LINE ( 'NONE', #963, #962 ) ;
#965 = DIRECTION ( 'NONE',  ( -0.0000000000000000000, -1.000000000000000000, -0.0000000000000000000 ) ) ;
#966 = VECTOR ( 'NONE', #965, 1000.000000000000000 ) ;
#967 = CARTESIAN_POINT ( 'NONE',  ( -4.609999999999997700, -3.699999999999999300, -1.449999999999999700 ) ) ;
#968 = LINE ( 'NONE', #967, #966 ) ;
#969 = DIRECTION ( 'NONE',  ( -0.0000000000000000000, -1.000000000000000000, -0.0000000000000000000 ) ) ;
#970 = VECTOR ( 'NONE', #969, 1000.000000000000000 ) ;
#971 = CARTESIAN_POINT ( 'NONE',  ( -4.609999999999997700, -3.699999999999999300, -1.699999999999999700 ) ) ;
#972 = DIRECTION ( 'NONE',  ( 0.0000000000000000000, 0.0000000000000000000, -1.000000000000000000 ) ) ;
#973 = DIRECTION ( 'NONE',  ( 1.000000000000000000, -0.0000000000000000000, 0.0000000000000000000 ) ) ;
#974 = CARTESIAN_POINT ( 'NONE',  ( -4.609999999999997700, -3.699999999999999300, -1.449999999999999700 ) ) ;
#975 = AXIS2_PLACEMENT_3D ( 'NONE', #974, #973, #972 ) ;
#976 = PRODUCT_DEFINITION_SHAPE ( 'NONE', 'NONE',  #979 ) ;
#977 = PRODUCT_RELATED_PRODUCT_CATEGORY ( 'part', '', ( #983 ) ) ;
#978 = PRODUCT_DEFINITION_FORMATION_WITH_SPECIFIED_SOURCE ( 'ANY', '', #983, .NOT_KNOWN. ) ;
#979 = PRODUCT_DEFINITION ( 'UNKNOWN', '', #978, #980 ) ;
#980 = PRODUCT_DEFINITION_CONTEXT ( 'detailed design', #982, 'design' ) ;
#981 = APPLICATION_PROTOCOL_DEFINITION ( 'draft international standard', 'automotive_design', 1998, #982 ) ;
#982 = APPLICATION_CONTEXT ( 'automotive_design' ) ;
#983 = PRODUCT ( 'EC1SAN', 'EC1SAN', '', ( #984 ) ) ;
#984 = PRODUCT_CONTEXT ( 'NONE', #1094, 'mechanical' ) ;
#985 = PLANE ( 'NONE',  #975 ) ;
#986 = LINE ( 'NONE', #971, #970 ) ;
#987 = FACE_OUTER_BOUND ( 'NONE', #353, .T. ) ;
#988 = PLANE ( 'NONE',  #1080 ) ;
#989 = AXIS2_PLACEMENT_3D ( 'NONE', #1084, #1083, #1082 ) ;
#990 = FACE_OUTER_BOUND ( 'NONE', #388, .T. ) ;
#991 = DIRECTION ( 'NONE',  ( 1.000000000000000000, 0.0000000000000000000, -0.0000000000000000000 ) ) ;
#992 = DIRECTION ( 'NONE',  ( 0.0000000000000000000, 0.0000000000000000000, 1.000000000000000000 ) ) ;
#993 = CARTESIAN_POINT ( 'NONE',  ( -7.649999999999998600, -2.939152317953647100E-016, -1.449999999999999700 ) ) ;
#994 = AXIS2_PLACEMENT_3D ( 'NONE', #993, #992, #991 ) ;
#995 = PLANE ( 'NONE',  #994 ) ;
#996 = PLANE ( 'NONE',  #989 ) ;
#997 = FACE_OUTER_BOUND ( 'NONE', #382, .T. ) ;
#998 = DIRECTION ( 'NONE',  ( -0.0000000000000000000, -1.000000000000000000, -0.0000000000000000000 ) ) ;
#999 = VECTOR ( 'NONE', #998, 1000.000000000000000 ) ;
#1000 = CARTESIAN_POINT ( 'NONE',  ( -7.149999999999998600, -3.699999999999998800, -1.449999999999999700 ) ) ;
#1001 = LINE ( 'NONE', #1000, #999 ) ;
#1002 = DIRECTION ( 'NONE',  ( -0.0000000000000000000, -1.000000000000000000, -0.0000000000000000000 ) ) ;
#1003 = VECTOR ( 'NONE', #1002, 1000.000000000000000 ) ;
#1004 = CARTESIAN_POINT ( 'NONE',  ( -7.149999999999998600, -3.699999999999998800, -1.699999999999999700 ) ) ;
#1005 = LINE ( 'NONE', #1004, #1003 ) ;
#1006 = DIRECTION ( 'NONE',  ( 0.0000000000000000000, 0.0000000000000000000, -1.000000000000000000 ) ) ;
#1007 = DIRECTION ( 'NONE',  ( 1.000000000000000000, -0.0000000000000000000, 0.0000000000000000000 ) ) ;
#1008 = AXIS2_PLACEMENT_3D ( 'NONE', #1009, #1007, #1006 ) ;
#1009 = CARTESIAN_POINT ( 'NONE',  ( -7.149999999999998600, -3.699999999999998800, -1.449999999999999700 ) ) ;
#1010 = PLANE ( 'NONE',  #1008 ) ;
#1011 = FACE_OUTER_BOUND ( 'NONE', #374, .T. ) ;
#1012 = DIRECTION ( 'NONE',  ( -1.000000000000000000, -0.0000000000000000000, -0.0000000000000000000 ) ) ;
#1013 = VECTOR ( 'NONE', #1012, 1000.000000000000000 ) ;
#1014 = CARTESIAN_POINT ( 'NONE',  ( -7.649999999999999500, -3.699999999999998800, -1.449999999999999700 ) ) ;
#1015 = LINE ( 'NONE', #1014, #1013 ) ;
#1016 = PLANE ( 'NONE',  #1109 ) ;
#1017 = FACE_OUTER_BOUND ( 'NONE', #408, .T. ) ;
#1018 = CARTESIAN_POINT ( 'NONE',  ( 3.010000000000002000, -3.700000000000000200, -1.449999999999999700 ) ) ;
#1019 = DIRECTION ( 'NONE',  ( 0.0000000000000000000, 0.0000000000000000000, -1.000000000000000000 ) ) ;
#1020 = VECTOR ( 'NONE', #1019, 1000.000000000000000 ) ;
#1021 = CARTESIAN_POINT ( 'NONE',  ( 3.010000000000002000, -3.700000000000000200, -1.449999999999999700 ) ) ;
#1022 = LINE ( 'NONE', #1021, #1020 ) ;
#1023 = DIRECTION ( 'NONE',  ( -1.000000000000000000, -0.0000000000000000000, -0.0000000000000000000 ) ) ;
#1024 = VECTOR ( 'NONE', #1023, 1000.000000000000000 ) ;
#1025 = CARTESIAN_POINT ( 'NONE',  ( 2.510000000000002500, -3.700000000000000200, -1.449999999999999700 ) ) ;
#1026 = DIRECTION ( 'NONE',  ( 1.000000000000000000, 0.0000000000000000000, -0.0000000000000000000 ) ) ;
#1027 = DIRECTION ( 'NONE',  ( 0.0000000000000000000, 0.0000000000000000000, 1.000000000000000000 ) ) ;
#1028 = CARTESIAN_POINT ( 'NONE',  ( 2.510000000000002900, -7.209165162110082100E-016, -1.449999999999999700 ) ) ;
#1029 = AXIS2_PLACEMENT_3D ( 'NONE', #1028, #1027, #1026 ) ;
#1030 = PLANE ( 'NONE',  #1029 ) ;
#1031 = LINE ( 'NONE', #1025, #1024 ) ;
#1032 = FACE_OUTER_BOUND ( 'NONE', #441, .T. ) ;
#1033 = DIRECTION ( 'NONE',  ( -1.172110456741086100E-016, -1.000000000000000000, 0.0000000000000000000 ) ) ;
#1034 = VECTOR ( 'NONE', #1033, 1000.000000000000000 ) ;
#1035 = CARTESIAN_POINT ( 'NONE',  ( 3.010000000000002500, -7.821488561683756800E-016, -1.449999999999999700 ) ) ;
#1036 = LINE ( 'NONE', #1035, #1034 ) ;
#1037 = DIRECTION ( 'NONE',  ( -1.172110456741086100E-016, -1.000000000000000000, 0.0000000000000000000 ) ) ;
#1038 = VECTOR ( 'NONE', #1037, 1000.000000000000000 ) ;
#1039 = CARTESIAN_POINT ( 'NONE',  ( 3.010000000000002500, -7.821488561683756800E-016, -1.699999999999999700 ) ) ;
#1040 = LINE ( 'NONE', #1039, #1038 ) ;
#1041 = DIRECTION ( 'NONE',  ( 1.000000000000000000, 0.0000000000000000000, -0.0000000000000000000 ) ) ;
#1042 = DIRECTION ( 'NONE',  ( 0.0000000000000000000, 0.0000000000000000000, 1.000000000000000000 ) ) ;
#1043 = CARTESIAN_POINT ( 'NONE',  ( 2.510000000000002900, -7.209165162110082100E-016, -1.699999999999999700 ) ) ;
#1044 = AXIS2_PLACEMENT_3D ( 'NONE', #1043, #1042, #1041 ) ;
#1045 = DIRECTION ( 'NONE',  ( -1.000000000000000000, 0.0000000000000000000, -0.0000000000000000000 ) ) ;
#1046 = DIRECTION ( 'NONE',  ( 0.0000000000000000000, 0.0000000000000000000, -1.000000000000000000 ) ) ;
#1047 = AXIS2_PLACEMENT_3D ( 'NONE', #1050, #1046, #1045 ) ;
#1048 = PLANE ( 'NONE',  #1044 ) ;
#1049 = FACE_OUTER_BOUND ( 'NONE', #445, .T. ) ;
#1050 = CARTESIAN_POINT ( 'NONE',  ( -0.02999999999999769500, -1.785535033156841400E-015, -1.699999999999999700 ) ) ;
#1051 = PLANE ( 'NONE',  #1047 ) ;
#1052 = DIRECTION ( 'NONE',  ( -1.000000000000000000, 0.0000000000000000000, -0.0000000000000000000 ) ) ;
#1053 = DIRECTION ( 'NONE',  ( 0.0000000000000000000, 0.0000000000000000000, -1.000000000000000000 ) ) ;
#1054 = CARTESIAN_POINT ( 'NONE',  ( -0.02999999999999769500, -1.785535033156841400E-015, -1.449999999999999700 ) ) ;
#1055 = FACE_OUTER_BOUND ( 'NONE', #417, .T. ) ;
#1056 = AXIS2_PLACEMENT_3D ( 'NONE', #1054, #1053, #1052 ) ;
#1057 = CARTESIAN_POINT ( 'NONE',  ( 5.550000000000004300, -3.700000000000002800, -1.449999999999999700 ) ) ;
#1058 = PLANE ( 'NONE',  #1056 ) ;
#1059 = FACE_OUTER_BOUND ( 'NONE', #411, .T. ) ;
#1060 = CARTESIAN_POINT ( 'NONE',  ( 5.050000000000000700, -3.700000000000002800, -1.699999999999999700 ) ) ;
#1061 = DIRECTION ( 'NONE',  ( 0.0000000000000000000, 0.0000000000000000000, -1.000000000000000000 ) ) ;
#1062 = VECTOR ( 'NONE', #1061, 1000.000000000000000 ) ;
#1063 = CARTESIAN_POINT ( 'NONE',  ( 5.550000000000004300, -3.700000000000002800, -1.449999999999999700 ) ) ;
#1064 = DIRECTION ( 'NONE',  ( 1.000000000000000000, 0.0000000000000000000, -0.0000000000000000000 ) ) ;
#1065 = DIRECTION ( 'NONE',  ( 0.0000000000000000000, 0.0000000000000000000, 1.000000000000000000 ) ) ;
#1066 = CARTESIAN_POINT ( 'NONE',  ( 5.550000000000004300, -4.336808689942017700E-016, -1.699999999999999700 ) ) ;
#1067 = LINE ( 'NONE', #1063, #1062 ) ;
#1068 = AXIS2_PLACEMENT_3D ( 'NONE', #1066, #1065, #1064 ) ;
#1069 = FACE_OUTER_BOUND ( 'NONE', #187, .T. ) ;
#1070 = DIRECTION ( 'NONE',  ( 1.000000000000000000, 0.0000000000000000000, -0.0000000000000000000 ) ) ;
#1071 = DIRECTION ( 'NONE',  ( 0.0000000000000000000, 0.0000000000000000000, 1.000000000000000000 ) ) ;
#1072 = CARTESIAN_POINT ( 'NONE',  ( 5.550000000000004300, -4.336808689942017700E-016, -1.449999999999999700 ) ) ;
#1073 = PLANE ( 'NONE',  #1068 ) ;
#1074 = AXIS2_PLACEMENT_3D ( 'NONE', #1072, #1071, #1070 ) ;
#1075 = FACE_OUTER_BOUND ( 'NONE', #398, .T. ) ;
#1076 = DIRECTION ( 'NONE',  ( 1.000000000000000000, 0.0000000000000000000, 0.0000000000000000000 ) ) ;
#1077 = DIRECTION ( 'NONE',  ( -0.0000000000000000000, 0.0000000000000000000, 1.000000000000000000 ) ) ;
#1078 = CARTESIAN_POINT ( 'NONE',  ( -4.609999999999997700, -8.673617379884035500E-016, -1.699999999999999700 ) ) ;
#1079 = PLANE ( 'NONE',  #1074 ) ;
#1080 = AXIS2_PLACEMENT_3D ( 'NONE', #1078, #1077, #1076 ) ;
#1081 = FACE_OUTER_BOUND ( 'NONE', #394, .T. ) ;
#1082 = DIRECTION ( 'NONE',  ( 1.000000000000000000, 0.0000000000000000000, 0.0000000000000000000 ) ) ;
#1083 = DIRECTION ( 'NONE',  ( -0.0000000000000000000, 0.0000000000000000000, 1.000000000000000000 ) ) ;
#1084 = CARTESIAN_POINT ( 'NONE',  ( -4.609999999999997700, -8.673617379884035500E-016, -1.449999999999999700 ) ) ;
#1085 = CARTESIAN_POINT ( 'NONE',  ( -4.609999999999997700, -3.699999999999999300, -1.449999999999999700 ) ) ;
#1086 = DIRECTION ( 'NONE',  ( -1.000000000000000000, -0.0000000000000000000, -0.0000000000000000000 ) ) ;
#1087 = VECTOR ( 'NONE', #1086, 1000.000000000000000 ) ;
#1088 = CARTESIAN_POINT ( 'NONE',  ( -5.109999999999998500, -3.699999999999999300, -1.449999999999999700 ) ) ;
#1089 = LINE ( 'NONE', #1088, #1087 ) ;
#1090 = CARTESIAN_POINT ( 'NONE',  ( 0.0000000000000000000, 0.0000000000000000000, 0.0000000000000000000 ) ) ;
#1091 = SHAPE_DEFINITION_REPRESENTATION ( #976, #1095 ) ;
#1092 = DIRECTION ( 'NONE',  ( 1.000000000000000000, 0.0000000000000000000, 0.0000000000000000000 ) ) ;
#1093 = DIRECTION ( 'NONE',  ( 0.0000000000000000000, 0.0000000000000000000, 1.000000000000000000 ) ) ;
#1094 = APPLICATION_CONTEXT ( 'automotive_design' ) ;
#1095 = ADVANCED_BREP_SHAPE_REPRESENTATION ( 'EC1SAN', ( #35, #1101 ), #1096 ) ;
#1096 =( GEOMETRIC_REPRESENTATION_CONTEXT ( 3 ) GLOBAL_UNCERTAINTY_ASSIGNED_CONTEXT ( ( #1097 ) ) GLOBAL_UNIT_ASSIGNED_CONTEXT ( ( #1100, #1099, #1098 ) ) REPRESENTATION_CONTEXT ( 'NONE', 'WORKASPACE' ) );
#1097 = UNCERTAINTY_MEASURE_WITH_UNIT (LENGTH_MEASURE( 1.000000000000000100E-005 ), #1100, 'distance_accuracy_value', 'NONE');
#1098 =( NAMED_UNIT ( * ) SI_UNIT ( $, .STERADIAN. ) SOLID_ANGLE_UNIT ( ) );
#1099 =( NAMED_UNIT ( * ) PLANE_ANGLE_UNIT ( ) SI_UNIT ( $, .RADIAN. ) );
#1100 =( LENGTH_UNIT ( ) NAMED_UNIT ( * ) SI_UNIT ( .MILLI., .METRE. ) );
#1101 = AXIS2_PLACEMENT_3D ( 'NONE', #1090, #1093, #1092 ) ;
#1102 = DIRECTION ( 'NONE',  ( 0.0000000000000000000, 0.0000000000000000000, -1.000000000000000000 ) ) ;
#1103 = VECTOR ( 'NONE', #1102, 1000.000000000000000 ) ;
#1104 = CARTESIAN_POINT ( 'NONE',  ( 5.050000000000000700, -3.700000000000002800, -1.449999999999999700 ) ) ;
#1105 = LINE ( 'NONE', #1104, #1103 ) ;
#1106 = DIRECTION ( 'NONE',  ( -9.376883653928682700E-016, -1.000000000000000000, 0.0000000000000000000 ) ) ;
#1107 = DIRECTION ( 'NONE',  ( -1.000000000000000000, 9.376883653928682700E-016, 0.0000000000000000000 ) ) ;
#1108 = CARTESIAN_POINT ( 'NONE',  ( 5.050000000000004300, -4.531043509142787600E-016, -1.449999999999999700 ) ) ;
#1109 = AXIS2_PLACEMENT_3D ( 'NONE', #1108, #1107, #1106 ) ;
ENDSEC;
END-ISO-10303-21;
